<svg width="64" height="65" viewBox="0 0 64 65" fill="none" xmlns="http://www.w3.org/2000/svg">
<rect y="0.451172" width="64" height="64" rx="12" fill="white" fill-opacity="0.3"/>
<rect x="0.796485" y="1.24766" width="62.407" height="62.407" rx="11.2035" stroke="white" stroke-opacity="0.6" stroke-width="1.59297"/>
<path opacity="0.4" d="M20.8934 19.7847V35.7447C20.8934 37.0513 21.5067 38.2913 22.56 39.078L29.5067 44.278C30.9867 45.3847 33.0267 45.3847 34.5067 44.278L41.4533 39.078C42.5067 38.2913 43.12 37.0513 43.12 35.7447V19.7847H20.8934Z" fill="#3D6FEA"/>
<path d="M45.3333 20.7847H18.6667C18.12 20.7847 17.6667 20.3313 17.6667 19.7847C17.6667 19.238 18.12 18.7847 18.6667 18.7847H45.3333C45.88 18.7847 46.3333 19.238 46.3333 19.7847C46.3333 20.3313 45.88 20.7847 45.3333 20.7847Z" fill="#3D6FEA"/>
<path d="M37.3333 28.1177H26.6667C26.12 28.1177 25.6667 27.6643 25.6667 27.1177C25.6667 26.571 26.12 26.1177 26.6667 26.1177H37.3333C37.88 26.1177 38.3333 26.571 38.3333 27.1177C38.3333 27.6643 37.88 28.1177 37.3333 28.1177Z" fill="#3D6FEA"/>
<path d="M37.3333 34.7847H26.6667C26.12 34.7847 25.6667 34.3313 25.6667 33.7847C25.6667 33.238 26.12 32.7847 26.6667 32.7847H37.3333C37.88 32.7847 38.3333 33.238 38.3333 33.7847C38.3333 34.3313 37.88 34.7847 37.3333 34.7847Z" fill="#3D6FEA"/>
</svg>