<svg width="64" height="65" viewBox="0 0 64 65" fill="none" xmlns="http://www.w3.org/2000/svg">
<rect y="0.451172" width="64" height="64" rx="12" fill="white" fill-opacity="0.3"/>
<rect x="0.796485" y="1.24766" width="62.407" height="62.407" rx="11.2035" stroke="white" stroke-opacity="0.6" stroke-width="1.59297"/>
<path opacity="0.4" d="M31.3334 44.451C38.329 44.451 44 38.7799 44 31.7843C44 24.7887 38.329 19.1177 31.3334 19.1177C24.3377 19.1177 18.6667 24.7887 18.6667 31.7843C18.6667 38.7799 24.3377 44.451 31.3334 44.451Z" fill="#3D6FEA"/>
<path d="M44.4007 45.7844C44.1607 45.7844 43.9207 45.6911 43.7474 45.5178L41.2674 43.0378C40.9074 42.6778 40.9074 42.0911 41.2674 41.7178C41.6274 41.3578 42.214 41.3578 42.5874 41.7178L45.0674 44.1978C45.4274 44.5578 45.4274 45.1444 45.0674 45.5178C44.8807 45.6911 44.6407 45.7844 44.4007 45.7844Z" fill="#3D6FEA"/>
</svg>