<svg width="64" height="65" viewBox="0 0 64 65" fill="none" xmlns="http://www.w3.org/2000/svg">
<rect y="0.451172" width="64" height="64" rx="12" fill="white" fill-opacity="0.3"/>
<rect x="0.796485" y="1.24766" width="62.407" height="62.407" rx="11.2035" stroke="white" stroke-opacity="0.6" stroke-width="1.59297"/>
<path opacity="0.4" d="M44 46.7844H20C19.4533 46.7844 19 46.3311 19 45.7844C19 45.2378 19.4533 44.7844 20 44.7844H44C44.5467 44.7844 45 45.2378 45 45.7844C45 46.3311 44.5467 46.7844 44 46.7844Z" fill="#3D6FEA"/>
<path d="M23.4666 27.6245H21.3333C20.6 27.6245 20 28.2245 20 28.9578V40.4512C20 41.1845 20.6 41.7845 21.3333 41.7845H23.4666C24.2 41.7845 24.8 41.1845 24.8 40.4512V28.9578C24.8 28.2112 24.2 27.6245 23.4666 27.6245Z" fill="#3D6FEA"/>
<path d="M33.0656 23.3711H30.9323C30.1989 23.3711 29.5989 23.9711 29.5989 24.7044V40.4511C29.5989 41.1844 30.1989 41.7844 30.9323 41.7844H33.0656C33.7989 41.7844 34.3989 41.1844 34.3989 40.4511V24.7044C34.3989 23.9711 33.7989 23.3711 33.0656 23.3711Z" fill="#3D6FEA"/>
<path d="M42.6671 19.1179H40.5338C39.8005 19.1179 39.2005 19.7179 39.2005 20.4513V40.4513C39.2005 41.1846 39.8005 41.7846 40.5338 41.7846H42.6671C43.4005 41.7846 44.0005 41.1846 44.0005 40.4513V20.4513C44.0005 19.7179 43.4005 19.1179 42.6671 19.1179Z" fill="#3D6FEA"/>
</svg>