<svg width="1406" height="481" viewBox="0 0 1406 481" fill="none" xmlns="http://www.w3.org/2000/svg">
<g clip-path="url(#clip0_55_349)">
<rect y="0.451172" width="1406" height="480" rx="24" fill="white"/>
<mask id="mask0_55_349" style="mask-type:alpha" maskUnits="userSpaceOnUse" x="-104" y="-66" width="1648" height="1211">
<rect x="-103.891" y="-65.2383" width="1647.78" height="1209.69" fill="#C4C4C4"/>
</mask>
<g mask="url(#mask0_55_349)">
<rect width="1648.36" height="1071.18" transform="matrix(0.999644 -0.00277832 0.00261545 1.00033 -117.83 -152.009)" fill="#105C97"/>
<mask id="mask1_55_349" style="mask-type:alpha" maskUnits="userSpaceOnUse" x="-315" y="-662" width="2343" height="2299">
<rect width="1882.35" height="1458.42" transform="matrix(-0.816824 0.573169 -0.552073 -0.836322 2027.73 557.828)" fill="url(#paint0_linear_55_349)"/>
</mask>
<g mask="url(#mask1_55_349)">
<path d="M1447.4 133.491C1369.65 140.913 1282.78 156.629 1197.42 139.709C1127.43 125.868 1066.14 102.626 992.888 86.9316C861.066 58.6898 743.726 82.461 666.037 92.4393C508.357 112.724 329.129 60.0122 172.052 85.4493C116.709 94.4032 69.9237 113.349 29.974 136.384C-94.2119 208.161 -81.0467 225.979 -133.83 274.32C-162.835 300.893 -200.332 327.462 -248.167 342.394C-266.562 348.159 -287.5 351.132 -304.99 357.809C-324.96 365.393 -338.008 379.804 -349.15 393.866C-351.576 396.949 -361.348 405.727 -360.011 409.271L220.006 961.68C220.006 961.68 1900.88 340.735 1904.43 344.313C1907.94 347.853 1853.82 159.509 1853.82 159.509C1771.52 144.169 1646.03 114.503 1447.4 133.491Z" fill="#7EC6FA"/>
<g filter="url(#filter0_f_55_349)">
<path d="M1447.4 133.491C1369.66 140.913 1282.78 156.628 1197.42 139.709C1127.43 125.868 1066.14 102.625 992.89 86.9312C861.068 58.6894 761.887 97.4868 684.198 107.465C526.518 127.75 347.29 75.0381 190.213 100.475C134.87 109.429 88.0848 128.375 48.1351 151.41C-76.0508 223.187 -81.0446 225.979 -133.828 274.32C-162.833 300.893 -200.33 327.461 -248.165 342.394C-266.56 348.158 -287.498 351.132 -304.988 357.809C-324.958 365.393 -338.006 379.804 -349.148 393.866C-351.574 396.949 -361.346 405.727 -360.009 409.271L150.724 1007.93C150.724 1007.93 1831.6 386.987 1835.15 390.565C1838.66 394.105 1853.82 159.508 1853.82 159.508C1771.53 144.169 1646.03 114.503 1447.4 133.491Z" fill="#7EC6FA"/>
</g>
<g filter="url(#filter1_f_55_349)">
<path d="M1460.64 113.757C1382.89 121.179 1296.02 136.894 1210.66 119.975C1140.67 106.134 1079.38 82.8916 1006.13 67.1975C874.303 38.9557 761.879 97.4867 684.191 107.465C526.511 127.75 359.389 85.0554 202.312 110.493C146.968 119.446 100.184 138.392 60.2337 161.428C-63.9522 233.204 -81.0521 225.978 -133.835 274.32C-162.84 300.892 -200.337 327.461 -248.173 342.394C-266.568 348.158 -287.505 351.132 -304.995 357.809C-324.965 365.393 -338.014 379.804 -349.156 393.866C-351.581 396.948 -361.353 405.727 -360.017 409.271L206.625 993.056C206.625 993.056 1887.5 372.112 1891.05 375.689C1894.56 379.229 1853.81 159.508 1853.81 159.508C1771.52 144.169 1659.26 94.7689 1460.64 113.757Z" fill="#7EC6FA"/>
</g>
<g filter="url(#filter2_f_55_349)">
<path d="M1534.69 201.04C1456.13 198.387 1365.84 202.682 1288.05 175.246C1224.26 152.781 1172.16 122.229 1105.8 97.5356C986.387 53.0989 858.228 98.1461 778.861 98.0004C617.763 97.7366 510.995 91.376 348.747 96.2289C291.584 97.9306 239.419 110.498 192.559 127.937C46.834 182.315 -11.3348 114.223 -79.2963 154.782C-116.644 177.077 -162.298 198.285 -214.136 206.793C-234.077 210.086 -255.563 210.325 -274.928 214.626C-297.024 219.499 -314.656 231.932 -330.305 244.267C-333.719 246.973 -346.243 254.314 -346.133 257.952L-17.8278 880.018C-17.8278 880.018 1836.18 486.936 1838.44 490.888C1840.68 494.8 1903.85 295.933 1903.85 295.933C1828.53 270.433 1735.41 207.794 1534.69 201.04Z" fill="#7EC6FA"/>
</g>
<g filter="url(#filter3_f_55_349)">
<path d="M1460.64 113.756C1382.9 121.178 1296.03 136.894 1210.66 119.974C1140.68 106.133 1079.39 82.8906 1006.13 67.1965C874.311 38.9547 764.157 99.364 686.468 109.342C528.788 129.627 422.197 137.02 265.12 162.457C209.776 171.411 162.991 190.357 123.042 213.392C-1.1443 285.169 -81.0446 225.977 -133.828 274.319C-162.833 300.892 -200.33 327.46 -248.165 342.393C-266.56 348.157 -287.498 351.131 -304.987 357.808C-324.958 365.392 -338.006 379.803 -349.148 393.865C-351.574 396.947 -361.346 405.726 -360.009 409.27L272.88 971.786C272.88 971.786 1953.76 350.841 1957.3 354.418C1960.82 357.959 1853.82 159.507 1853.82 159.507C1771.53 144.168 1659.27 94.7679 1460.64 113.756Z" fill="#7EC6FA"/>
</g>
</g>
<mask id="mask2_55_349" style="mask-type:alpha" maskUnits="userSpaceOnUse" x="-361" y="73" width="2266" height="889">
<path d="M1447.4 133.485C1369.65 140.907 1282.78 156.622 1197.42 139.703C1127.43 125.862 1066.14 102.619 992.887 86.9252C861.065 58.6834 743.725 82.4545 666.037 92.4329C508.357 112.718 329.128 60.0058 172.051 85.4429C116.708 94.3968 69.9233 113.343 29.9736 136.378C-94.2123 208.154 -81.0471 225.972 -133.83 274.314C-162.835 300.887 -200.332 327.455 -248.168 342.388C-266.563 348.152 -287.5 351.126 -304.99 357.803C-324.96 365.387 -338.009 379.798 -349.151 393.86C-351.576 396.943 -361.348 405.721 -360.012 409.265L220.006 961.674C220.006 961.674 1900.88 340.729 1904.43 344.306C1907.94 347.847 1853.82 159.502 1853.82 159.502C1771.52 144.163 1646.02 114.496 1447.4 133.485Z" fill="#4F8BFF"/>
</mask>
<g mask="url(#mask2_55_349)">
<g filter="url(#filter4_f_55_349)">
<path d="M-78.9653 218.862C-78.9653 209.296 -95.5575 148.446 -103.854 119.217L-69.5248 57.9353C89.6749 47.3065 414.339 26.6468 439.399 29.0383C464.46 31.4297 620.913 90.1538 696.007 119.217C654.67 130.842 562.382 154.89 523.934 158.078C475.874 162.064 401.209 143.132 254.882 138.149C108.556 133.167 14.1516 236.3 -45.4947 283.133C-105.141 329.966 -78.9653 230.819 -78.9653 218.862Z" fill="#C9E6FE"/>
</g>
</g>
<mask id="mask3_55_349" style="mask-type:alpha" maskUnits="userSpaceOnUse" x="-835" y="144" width="2562" height="936">
<path d="M-834.26 1079.55L1006.43 1061.17L1726.09 687.078L314.012 144.416L-566.478 383.869L-834.26 1079.55Z" fill="black"/>
</mask>
<g mask="url(#mask3_55_349)">
<mask id="mask4_55_349" style="mask-type:alpha" maskUnits="userSpaceOnUse" x="-1144" y="-106" width="2615" height="1328">
<path d="M1360.82 -105.402L1470.09 1160.39L-866.418 1221.06C-963.898 958.776 -1155.74 432.837 -1143.27 427.384C-1130.8 421.931 531.323 69.921 1360.82 -105.402Z" fill="url(#paint1_linear_55_349)"/>
</mask>
<g mask="url(#mask4_55_349)">
<mask id="mask5_55_349" style="mask-type:alpha" maskUnits="userSpaceOnUse" x="-1123" y="83" width="2525" height="1020">
<path d="M1401.04 914.813C1330.79 557.554 1241.05 101.82 1240.08 83.8253L-1122.45 271.893L-961.496 1102.88L1401.04 914.813Z" fill="url(#paint2_linear_55_349)"/>
</mask>
<g mask="url(#mask5_55_349)">
<path d="M224.127 304.8C38.6205 319.568 -92.5597 459.962 -70.3364 574.697C-48.1131 689.433 56.1445 834.025 255.177 818.181C353.808 810.33 488.419 877.494 594.533 811.03C702.554 743.372 645.12 589.047 633.91 531.168C611.686 416.433 409.634 290.033 224.127 304.8Z" fill="#608BEF"/>
<g filter="url(#filter5_f_55_349)">
<path d="M225.054 306.707C11.8953 323.675 -113.142 477.877 -88.4734 605.235C-63.8052 732.593 48.9906 893.326 262.149 876.357C367.78 867.949 513.167 946.187 626.381 872.775C741.628 798.044 678.935 626.656 666.491 562.41C641.823 435.052 438.213 289.738 225.054 306.707Z" fill="#608BEF"/>
</g>
<g filter="url(#filter6_f_55_349)">
<path d="M221.928 326.496C117.56 283.709 -185.129 495.807 -161.717 616.683C-138.304 737.56 -12.3202 888.605 240.159 868.507C365.275 858.547 535.63 941.661 672.619 869.634C812.069 796.313 743.749 623.967 731.938 562.991C708.525 442.115 352.006 254.379 221.928 326.496Z" fill="#608BEF"/>
</g>
<g filter="url(#filter7_f_55_349)">
<path d="M207.071 376.337C-62.7525 426.563 -261.802 594.411 -235.638 729.491C-209.474 864.571 -41.4569 999.476 225.97 978.187C358.493 967.638 557.369 1101.3 701.789 1021.5C848.803 940.264 776.674 758.933 763.476 690.792C737.312 555.713 519.646 318.153 207.071 376.337Z" fill="#608BEF"/>
</g>
<g filter="url(#filter8_f_55_349)">
<path d="M60.4088 390.938C-114.975 463.891 -499.368 670.073 -472.419 809.205C-445.47 948.338 293.693 980.83 581.642 957.908C724.335 946.549 907.875 985.855 1063.99 903.074C1222.9 818.807 995.461 660.484 815.358 521.26C576.196 336.381 227.756 266.614 60.4088 390.938Z" fill="#608BEF"/>
</g>
<g filter="url(#filter9_f_55_349)">
<path d="M254.012 413.265C-43.5567 436.953 -559.125 774.731 -531.561 917.036C-503.998 1059.34 68.7768 1075.46 366.346 1051.78C513.805 1040.04 930.952 1122.32 1092.42 1037.51C1256.79 951.178 1136.4 850.278 1122.49 778.492C1094.93 636.187 551.581 389.577 254.012 413.265Z" fill="#608BEF"/>
</g>
<g filter="url(#filter10_f_55_349)">
<path d="M254.012 413.265C-43.5567 436.953 -559.125 774.731 -531.561 917.036C-503.998 1059.34 68.7768 1075.46 366.346 1051.78C513.805 1040.04 930.952 1122.32 1092.42 1037.51C1256.79 951.178 1136.4 850.278 1122.49 778.492C1094.93 636.187 551.581 389.577 254.012 413.265Z" fill="#608BEF"/>
</g>
<g filter="url(#filter11_f_55_349)">
<path d="M254.012 413.265C-43.5567 436.953 -559.125 774.731 -531.561 917.036C-503.998 1059.34 68.7768 1075.46 366.346 1051.78C513.805 1040.04 930.952 1122.32 1092.42 1037.51C1256.79 951.178 1136.4 850.278 1122.49 778.492C1094.93 636.187 551.581 389.577 254.012 413.265Z" fill="#608BEF"/>
</g>
<g filter="url(#filter12_f_55_349)">
<path d="M254.012 413.265C-43.5567 436.953 -559.125 774.731 -531.561 917.036C-503.998 1059.34 68.7768 1075.46 366.346 1051.78C513.805 1040.04 930.952 1122.32 1092.42 1037.51C1256.79 951.178 1136.4 850.278 1122.49 778.492C1094.93 636.187 551.581 389.577 254.012 413.265Z" fill="#608BEF"/>
</g>
<g filter="url(#filter13_f_55_349)">
<path d="M219.764 307.129C-40.6089 327.855 -228.439 533.226 -200.876 675.531C-173.313 817.836 -7.46799 960.846 252.905 940.119C381.932 929.848 591.092 949.039 730.661 865.972C872.738 781.411 783.654 630.111 769.749 558.325C742.186 416.02 480.136 286.402 219.764 307.129Z" fill="#608BEF"/>
</g>
</g>
</g>
</g>
<g filter="url(#filter14_f_55_349)">
<ellipse cx="378.114" cy="357.413" rx="378.114" ry="357.413" transform="matrix(0.996927 0.0783479 -0.073731 0.997279 356.922 529.191)" fill="#105C97"/>
</g>
<g filter="url(#filter15_f_55_349)">
<path d="M1716.21 348.776C1791.89 324.657 1937.16 304.937 2151.94 374.347L2186.46 1200.22L-96.7999 1177.9L-146.502 817.583C-206.106 833.661 -179.258 824.795 -146.875 814.882L-146.502 817.583C-117.617 809.792 -68.4295 796.142 10.271 773.915C311.644 688.797 388.572 535.348 460.733 457.615C542.821 369.191 638.034 547.541 771.093 541.55C844.208 538.258 875.477 505.25 961.687 427.937C1047.9 350.624 1111.2 249.865 1319.17 330.879C1527.13 411.892 1640.54 372.895 1716.21 348.776Z" fill="#608BEF"/>
</g>
<g filter="url(#filter16_f_55_349)">
<path d="M1716.21 348.777C1791.89 324.658 1937.15 304.938 2151.93 374.347L2186.92 1193.91L-96.8049 1177.9L-149.711 748.043C-197.787 762.76 -225.085 716.183 17.1822 675.667C325.627 624.084 426.739 507.621 565.234 406.361C689.585 375.685 637.25 529.157 770.31 523.166C843.424 519.874 875.471 505.251 961.682 427.938C1047.89 350.625 1111.19 249.866 1319.16 330.879C1527.13 411.893 1640.53 372.896 1716.21 348.777Z" fill="#608BEF"/>
</g>
<g filter="url(#filter17_f_55_349)">
<path d="M1739.03 400.6C1816.13 381.861 1962.36 372.404 2172.05 456.761L2111.48 1276L-124.623 1100.26L-148.96 667.681C-197.898 678.982 -222.05 630.594 22.3332 607.214C333.473 577.448 442.056 468.368 586.93 377.087C713.021 355.229 650.652 504.662 783.798 508.045C856.96 509.904 889.9 497.569 981.025 426.501C1072.15 355.432 1141.97 259.36 1344.1 354.814C1546.22 450.268 1661.93 419.339 1739.03 400.6Z" fill="#608BEF"/>
</g>
<g filter="url(#filter18_f_55_349)">
<path d="M1716.21 348.777C1791.89 324.658 1937.15 304.938 2151.93 374.348L2137.78 1230.42L-82.2321 1124.78L-133.581 731.689C-181.656 746.406 -225.985 705.857 23.5653 690.722C363.028 670.134 387.326 592.299 459.488 514.566C541.575 426.142 638.523 559.225 771.583 553.234C844.697 549.943 875.471 505.251 961.681 427.938C1047.89 350.625 1111.19 249.866 1319.16 330.88C1527.13 411.893 1640.53 372.896 1716.21 348.777Z" fill="#608BEF"/>
</g>
<g filter="url(#filter19_f_55_349)">
<path d="M1716.21 348.776C1791.89 324.657 1937.15 304.937 2151.94 374.347L2090.92 1199.63L-96.8032 1177.9L-142.986 769.824C-202.505 785.878 -175.665 777.014 -143.294 767.105L-142.986 769.824C-114.11 762.036 -64.9076 748.382 13.852 726.138C315.225 641.02 391.611 607.168 463.772 529.435C545.86 441.011 637.252 529.156 770.312 523.165C843.426 519.873 875.473 505.25 961.683 427.937C1047.89 350.624 1111.2 249.865 1319.16 330.879C1527.13 411.892 1640.53 372.895 1716.21 348.776Z" fill="#608BEF"/>
</g>
<path d="M1310.24 120.4C1518.21 201.414 1631.61 162.417 1707.29 138.298L1731.26 1205.4L-164.736 1056.39L-147.093 817.742C-205.936 833.604 -179.158 824.763 -146.882 814.882L-147.093 817.742C-118.289 809.977 -68.9693 796.294 10.2642 773.915C311.638 688.797 387.786 516.963 459.948 439.231C542.035 350.806 628.333 318.677 761.393 312.687C834.507 309.395 866.554 294.772 952.764 217.459C1038.97 140.146 1102.28 39.3865 1310.24 120.4Z" fill="#608BEF"/>
<mask id="mask6_55_349" style="mask-type:alpha" maskUnits="userSpaceOnUse" x="-182" y="90" width="1946" height="942">
<path d="M1310.25 120.399C1518.22 201.412 1631.62 162.415 1707.3 138.296L1763.71 1031.46L-32.1177 928.439L-144.649 817.082C-206.652 833.841 -179.587 824.895 -146.874 814.881L-144.649 817.082C-115.531 809.212 -66.771 795.673 10.272 773.914C311.645 688.796 387.794 516.962 459.956 439.229C542.043 350.804 628.341 318.676 761.401 312.685C834.515 309.393 866.563 294.77 952.773 217.457C1038.98 140.144 1102.29 39.385 1310.25 120.399Z" fill="url(#paint3_linear_55_349)"/>
</mask>
<g mask="url(#mask6_55_349)">
<g filter="url(#filter20_f_55_349)">
<path d="M1351.78 155.2C1793.32 295.309 1806.26 -3.332 1928.43 -197.208L1589.9 -233.168C1217.59 -102.274 467.734 169.704 446.815 210.46C420.667 261.405 591.438 285.503 745.976 313.832C869.607 336.496 937.533 257.929 1008.3 185.927C1079.06 113.925 1233.99 94.3348 1351.78 155.2Z" fill="#C9E6FE"/>
</g>
</g>
<mask id="mask7_55_349" style="mask-type:alpha" maskUnits="userSpaceOnUse" x="210" y="33" width="2562" height="936">
<path d="M210.954 968.622L2051.65 950.238L2771.31 576.15L1359.23 33.4888L478.736 272.942L210.954 968.622Z" fill="black"/>
</mask>
<g mask="url(#mask7_55_349)">
<mask id="mask8_55_349" style="mask-type:alpha" maskUnits="userSpaceOnUse" x="-99" y="-217" width="2615" height="1328">
<path d="M2406.04 -216.328L2515.3 1049.47L178.796 1110.14C81.3154 847.851 -110.527 321.912 -98.0561 316.459C-85.5848 311.005 1576.54 -41.0043 2406.04 -216.328Z" fill="url(#paint4_linear_55_349)"/>
</mask>
<g mask="url(#mask8_55_349)">
<mask id="mask9_55_349" style="mask-type:alpha" maskUnits="userSpaceOnUse" x="-78" y="-28" width="2525" height="1020">
<path d="M2446.25 803.889C2376 446.629 2286.26 -9.10459 2285.3 -27.0988L-77.2375 160.969L83.7178 991.957L2446.25 803.889Z" fill="url(#paint5_linear_55_349)"/>
</mask>
<g mask="url(#mask9_55_349)">
<path d="M1255 211.146C1069.49 225.913 938.312 366.307 960.536 481.043C982.759 595.778 1087.02 740.37 1286.05 724.526C1384.68 716.675 1519.29 783.839 1625.41 717.375C1733.43 649.717 1675.99 495.392 1664.78 437.513C1642.56 322.778 1440.51 196.378 1255 211.146Z" fill="#233993"/>
<g filter="url(#filter21_f_55_349)">
<path d="M1255.93 213.052C1042.77 230.02 917.73 384.222 942.399 511.58C967.067 638.938 1079.86 799.671 1293.02 782.702C1398.65 774.294 1544.04 852.532 1657.25 779.12C1772.5 704.389 1709.81 533.001 1697.36 468.755C1672.69 341.397 1469.09 196.083 1255.93 213.052Z" fill="#233993"/>
</g>
<g filter="url(#filter22_f_55_349)">
<path d="M1252.8 232.841C1148.43 190.054 845.743 402.152 869.155 523.028C892.568 643.905 1018.55 794.95 1271.03 774.852C1396.15 764.892 1566.5 848.006 1703.49 775.979C1842.94 702.658 1774.62 530.313 1762.81 469.336C1739.4 348.46 1382.88 160.724 1252.8 232.841Z" fill="#233993"/>
</g>
<g filter="url(#filter23_f_55_349)">
<path d="M1237.94 282.682C968.12 332.909 769.07 500.757 795.234 635.836C821.398 770.916 989.415 905.821 1256.84 884.532C1389.37 873.983 1588.24 1007.64 1732.66 927.843C1879.68 846.609 1807.55 665.279 1794.35 597.138C1768.18 462.058 1550.52 224.498 1237.94 282.682Z" fill="#233993"/>
</g>
<g filter="url(#filter24_f_55_349)">
<path d="M1091.28 297.283C915.897 370.236 531.505 576.418 558.453 715.55C585.402 854.683 1324.57 887.175 1612.51 864.253C1755.21 852.894 1938.75 892.2 2094.86 809.419C2253.77 725.152 2026.33 566.829 1846.23 427.605C1607.07 242.726 1258.63 172.959 1091.28 297.283Z" fill="#233993"/>
</g>
<g filter="url(#filter25_f_55_349)">
<path d="M1284.88 319.61C987.315 343.298 471.748 681.076 499.311 823.382C526.874 965.687 1099.65 981.81 1397.22 958.122C1544.68 946.383 1961.82 1028.67 2123.29 943.858C2287.66 857.523 2167.27 756.624 2153.36 684.838C2125.8 542.533 1582.45 295.923 1284.88 319.61Z" fill="#233993"/>
</g>
<g filter="url(#filter26_f_55_349)">
<path d="M1284.88 319.61C987.315 343.298 471.748 681.076 499.311 823.382C526.874 965.687 1099.65 981.81 1397.22 958.122C1544.68 946.383 1961.82 1028.67 2123.29 943.858C2287.66 857.523 2167.27 756.624 2153.36 684.838C2125.8 542.533 1582.45 295.923 1284.88 319.61Z" fill="#233993"/>
</g>
<g filter="url(#filter27_f_55_349)">
<path d="M1284.88 319.61C987.315 343.298 471.748 681.076 499.311 823.382C526.874 965.687 1099.65 981.81 1397.22 958.122C1544.68 946.383 1961.82 1028.67 2123.29 943.858C2287.66 857.523 2167.27 756.624 2153.36 684.838C2125.8 542.533 1582.45 295.923 1284.88 319.61Z" fill="#233993"/>
</g>
<g filter="url(#filter28_f_55_349)">
<path d="M1284.88 319.61C987.315 343.298 471.748 681.076 499.311 823.382C526.874 965.687 1099.65 981.81 1397.22 958.122C1544.68 946.383 1961.82 1028.67 2123.29 943.858C2287.66 857.523 2167.27 756.624 2153.36 684.838C2125.8 542.533 1582.45 295.923 1284.88 319.61Z" fill="#233993"/>
</g>
<g filter="url(#filter29_f_55_349)">
<path d="M1250.64 213.474C990.263 234.201 802.433 439.571 829.996 581.876C857.56 724.181 1023.4 867.191 1283.78 846.464C1412.8 836.193 1621.96 855.385 1761.53 772.317C1903.61 687.757 1814.53 536.456 1800.62 464.67C1773.06 322.365 1511.01 192.747 1250.64 213.474Z" fill="#233993"/>
</g>
</g>
</g>
</g>
<g filter="url(#filter30_f_55_349)">
<path d="M-403.345 446.183C-258.368 438.146 -243.873 589.888 308.918 490.07C653.146 395.154 882.119 358.909 1219.27 373.382C1345.02 378.78 1500.91 293.033 1614.19 219.671C1727.46 146.309 1673.11 671.092 1673.11 671.092L-463 821.335L-403.345 446.183Z" fill="#CBDCFB"/>
</g>
<g filter="url(#filter31_f_55_349)">
<path d="M1370.24 657.435C1429.19 641.513 1541.47 631.381 1704.27 692.175L1704.27 1394.19L-50.0651 1394.19L-76.5329 1115.47C-122.862 1125.77 -101.941 1119.88 -76.7314 1113.38L-76.5329 1115.47C-54.0811 1110.48 -15.8354 1101.69 45.3703 1087.33C279.749 1032.33 343.864 902.864 401.851 845.605C467.815 780.469 535.181 758.757 637.634 758.757C693.93 758.757 719.035 748.625 787.805 692.174C856.575 635.724 908.503 560.456 1065.69 629.934C1222.88 699.412 1311.3 673.358 1370.24 657.435Z" fill="white"/>
</g>
<g opacity="0.5" filter="url(#filter32_f_55_349)">
<path d="M250.968 966.19C-36.7573 1087.3 -297.581 1230.49 -322.834 1156.49C-348.087 1082.5 -128.206 819.333 159.519 698.225C447.244 577.118 700.962 538.927 726.215 612.924C751.468 686.92 538.693 845.083 250.968 966.19Z" fill="white"/>
</g>
<g filter="url(#filter33_f_55_349)">
<path d="M-337 1100.25V1568.55H1693.55V615.947L-337 1100.25Z" fill="white"/>
</g>
</g>
</g>
<defs>
<filter id="filter0_f_55_349" x="-436.406" y="0.541504" width="2366.5" height="1083.66" filterUnits="userSpaceOnUse" color-interpolation-filters="sRGB">
<feFlood flood-opacity="0" result="BackgroundImageFix"/>
<feBlend mode="normal" in="SourceGraphic" in2="BackgroundImageFix" result="shape"/>
<feGaussianBlur stdDeviation="38.1358" result="effect1_foregroundBlur_55_349"/>
</filter>
<filter id="filter1_f_55_349" x="-507.6" y="-87.8896" width="2546.32" height="1228.4" filterUnits="userSpaceOnUse" color-interpolation-filters="sRGB">
<feFlood flood-opacity="0" result="BackgroundImageFix"/>
<feBlend mode="normal" in="SourceGraphic" in2="BackgroundImageFix" result="shape"/>
<feGaussianBlur stdDeviation="73.7292" result="effect1_foregroundBlur_55_349"/>
</filter>
<filter id="filter2_f_55_349" x="-493.592" y="-69.5206" width="2544.9" height="1097" filterUnits="userSpaceOnUse" color-interpolation-filters="sRGB">
<feFlood flood-opacity="0" result="BackgroundImageFix"/>
<feBlend mode="normal" in="SourceGraphic" in2="BackgroundImageFix" result="shape"/>
<feGaussianBlur stdDeviation="73.7292" result="effect1_foregroundBlur_55_349"/>
</filter>
<filter id="filter3_f_55_349" x="-527.932" y="-108.054" width="2653.12" height="1247.64" filterUnits="userSpaceOnUse" color-interpolation-filters="sRGB">
<feFlood flood-opacity="0" result="BackgroundImageFix"/>
<feBlend mode="normal" in="SourceGraphic" in2="BackgroundImageFix" result="shape"/>
<feGaussianBlur stdDeviation="83.8987" result="effect1_foregroundBlur_55_349"/>
</filter>
<filter id="filter4_f_55_349" x="-171.854" y="-39.1527" width="935.861" height="402.77" filterUnits="userSpaceOnUse" color-interpolation-filters="sRGB">
<feFlood flood-opacity="0" result="BackgroundImageFix"/>
<feBlend mode="normal" in="SourceGraphic" in2="BackgroundImageFix" result="shape"/>
<feGaussianBlur stdDeviation="34" result="effect1_foregroundBlur_55_349"/>
</filter>
<filter id="filter5_f_55_349" x="-97.1157" y="299.791" width="797.351" height="610.245" filterUnits="userSpaceOnUse" color-interpolation-filters="sRGB">
<feFlood flood-opacity="0" result="BackgroundImageFix"/>
<feBlend mode="normal" in="SourceGraphic" in2="BackgroundImageFix" result="shape"/>
<feGaussianBlur stdDeviation="2.7792" result="effect1_foregroundBlur_55_349"/>
</filter>
<filter id="filter6_f_55_349" x="-182.457" y="291.018" width="960.962" height="627.724" filterUnits="userSpaceOnUse" color-interpolation-filters="sRGB">
<feFlood flood-opacity="0" result="BackgroundImageFix"/>
<feBlend mode="normal" in="SourceGraphic" in2="BackgroundImageFix" result="shape"/>
<feGaussianBlur stdDeviation="9.7272" result="effect1_foregroundBlur_55_349"/>
</filter>
<filter id="filter7_f_55_349" x="-265.741" y="339.537" width="1086.31" height="735.292" filterUnits="userSpaceOnUse" color-interpolation-filters="sRGB">
<feFlood flood-opacity="0" result="BackgroundImageFix"/>
<feBlend mode="normal" in="SourceGraphic" in2="BackgroundImageFix" result="shape"/>
<feGaussianBlur stdDeviation="13.896" result="effect1_foregroundBlur_55_349"/>
</filter>
<filter id="filter8_f_55_349" x="-548.804" y="253.286" width="1741.49" height="786.373" filterUnits="userSpaceOnUse" color-interpolation-filters="sRGB">
<feFlood flood-opacity="0" result="BackgroundImageFix"/>
<feBlend mode="normal" in="SourceGraphic" in2="BackgroundImageFix" result="shape"/>
<feGaussianBlur stdDeviation="37.5192" result="effect1_foregroundBlur_55_349"/>
</filter>
<filter id="filter9_f_55_349" x="-743.232" y="201.066" width="2131.86" height="1085.9" filterUnits="userSpaceOnUse" color-interpolation-filters="sRGB">
<feFlood flood-opacity="0" result="BackgroundImageFix"/>
<feBlend mode="normal" in="SourceGraphic" in2="BackgroundImageFix" result="shape"/>
<feGaussianBlur stdDeviation="105.305" result="effect1_foregroundBlur_55_349"/>
</filter>
<filter id="filter10_f_55_349" x="-743.232" y="201.066" width="2131.86" height="1085.9" filterUnits="userSpaceOnUse" color-interpolation-filters="sRGB">
<feFlood flood-opacity="0" result="BackgroundImageFix"/>
<feBlend mode="normal" in="SourceGraphic" in2="BackgroundImageFix" result="shape"/>
<feGaussianBlur stdDeviation="105.305" result="effect1_foregroundBlur_55_349"/>
</filter>
<filter id="filter11_f_55_349" x="-743.232" y="201.066" width="2131.86" height="1085.9" filterUnits="userSpaceOnUse" color-interpolation-filters="sRGB">
<feFlood flood-opacity="0" result="BackgroundImageFix"/>
<feBlend mode="normal" in="SourceGraphic" in2="BackgroundImageFix" result="shape"/>
<feGaussianBlur stdDeviation="105.305" result="effect1_foregroundBlur_55_349"/>
</filter>
<filter id="filter12_f_55_349" x="-743.232" y="201.066" width="2131.86" height="1085.9" filterUnits="userSpaceOnUse" color-interpolation-filters="sRGB">
<feFlood flood-opacity="0" result="BackgroundImageFix"/>
<feBlend mode="normal" in="SourceGraphic" in2="BackgroundImageFix" result="shape"/>
<feGaussianBlur stdDeviation="105.305" result="effect1_foregroundBlur_55_349"/>
</filter>
<filter id="filter13_f_55_349" x="-289.715" y="218.783" width="1185.94" height="809.503" filterUnits="userSpaceOnUse" color-interpolation-filters="sRGB">
<feFlood flood-opacity="0" result="BackgroundImageFix"/>
<feBlend mode="normal" in="SourceGraphic" in2="BackgroundImageFix" result="shape"/>
<feGaussianBlur stdDeviation="43.0776" result="effect1_foregroundBlur_55_349"/>
</filter>
<filter id="filter14_f_55_349" x="61.6336" y="289.566" width="1291.78" height="1251.38" filterUnits="userSpaceOnUse" color-interpolation-filters="sRGB">
<feFlood flood-opacity="0" result="BackgroundImageFix"/>
<feBlend mode="normal" in="SourceGraphic" in2="BackgroundImageFix" result="shape"/>
<feGaussianBlur stdDeviation="134" result="effect1_foregroundBlur_55_349"/>
</filter>
<filter id="filter15_f_55_349" x="-240.761" y="242.053" width="2486.11" height="1017.06" filterUnits="userSpaceOnUse" color-interpolation-filters="sRGB">
<feFlood flood-opacity="0" result="BackgroundImageFix"/>
<feBlend mode="normal" in="SourceGraphic" in2="BackgroundImageFix" result="shape"/>
<feGaussianBlur stdDeviation="29.4454" result="effect1_foregroundBlur_55_349"/>
</filter>
<filter id="filter16_f_55_349" x="-274.302" y="208.594" width="2553.57" height="1077.67" filterUnits="userSpaceOnUse" color-interpolation-filters="sRGB">
<feFlood flood-opacity="0" result="BackgroundImageFix"/>
<feBlend mode="normal" in="SourceGraphic" in2="BackgroundImageFix" result="shape"/>
<feGaussianBlur stdDeviation="46.175" result="effect1_foregroundBlur_55_349"/>
</filter>
<filter id="filter17_f_55_349" x="-353.156" y="142.421" width="2697.56" height="1305.92" filterUnits="userSpaceOnUse" color-interpolation-filters="sRGB">
<feFlood flood-opacity="0" result="BackgroundImageFix"/>
<feBlend mode="normal" in="SourceGraphic" in2="BackgroundImageFix" result="shape"/>
<feGaussianBlur stdDeviation="86.175" result="effect1_foregroundBlur_55_349"/>
</filter>
<filter id="filter18_f_55_349" x="-439.196" y="32.6647" width="2859.41" height="1466.04" filterUnits="userSpaceOnUse" color-interpolation-filters="sRGB">
<feFlood flood-opacity="0" result="BackgroundImageFix"/>
<feBlend mode="normal" in="SourceGraphic" in2="BackgroundImageFix" result="shape"/>
<feGaussianBlur stdDeviation="134.14" result="effect1_foregroundBlur_55_349"/>
</filter>
<filter id="filter19_f_55_349" x="-289.527" y="189.706" width="2552.7" height="1121.16" filterUnits="userSpaceOnUse" color-interpolation-filters="sRGB">
<feFlood flood-opacity="0" result="BackgroundImageFix"/>
<feBlend mode="normal" in="SourceGraphic" in2="BackgroundImageFix" result="shape"/>
<feGaussianBlur stdDeviation="55.619" result="effect1_foregroundBlur_55_349"/>
</filter>
<filter id="filter20_f_55_349" x="376.145" y="-301.168" width="1620.28" height="686.972" filterUnits="userSpaceOnUse" color-interpolation-filters="sRGB">
<feFlood flood-opacity="0" result="BackgroundImageFix"/>
<feBlend mode="normal" in="SourceGraphic" in2="BackgroundImageFix" result="shape"/>
<feGaussianBlur stdDeviation="34" result="effect1_foregroundBlur_55_349"/>
</filter>
<filter id="filter21_f_55_349" x="933.756" y="206.136" width="797.351" height="610.245" filterUnits="userSpaceOnUse" color-interpolation-filters="sRGB">
<feFlood flood-opacity="0" result="BackgroundImageFix"/>
<feBlend mode="normal" in="SourceGraphic" in2="BackgroundImageFix" result="shape"/>
<feGaussianBlur stdDeviation="2.7792" result="effect1_foregroundBlur_55_349"/>
</filter>
<filter id="filter22_f_55_349" x="848.415" y="197.363" width="960.962" height="627.724" filterUnits="userSpaceOnUse" color-interpolation-filters="sRGB">
<feFlood flood-opacity="0" result="BackgroundImageFix"/>
<feBlend mode="normal" in="SourceGraphic" in2="BackgroundImageFix" result="shape"/>
<feGaussianBlur stdDeviation="9.7272" result="effect1_foregroundBlur_55_349"/>
</filter>
<filter id="filter23_f_55_349" x="765.131" y="245.882" width="1086.31" height="735.292" filterUnits="userSpaceOnUse" color-interpolation-filters="sRGB">
<feFlood flood-opacity="0" result="BackgroundImageFix"/>
<feBlend mode="normal" in="SourceGraphic" in2="BackgroundImageFix" result="shape"/>
<feGaussianBlur stdDeviation="13.896" result="effect1_foregroundBlur_55_349"/>
</filter>
<filter id="filter24_f_55_349" x="482.068" y="159.631" width="1741.49" height="786.373" filterUnits="userSpaceOnUse" color-interpolation-filters="sRGB">
<feFlood flood-opacity="0" result="BackgroundImageFix"/>
<feBlend mode="normal" in="SourceGraphic" in2="BackgroundImageFix" result="shape"/>
<feGaussianBlur stdDeviation="37.5192" result="effect1_foregroundBlur_55_349"/>
</filter>
<filter id="filter25_f_55_349" x="287.64" y="107.411" width="2131.86" height="1085.9" filterUnits="userSpaceOnUse" color-interpolation-filters="sRGB">
<feFlood flood-opacity="0" result="BackgroundImageFix"/>
<feBlend mode="normal" in="SourceGraphic" in2="BackgroundImageFix" result="shape"/>
<feGaussianBlur stdDeviation="105.305" result="effect1_foregroundBlur_55_349"/>
</filter>
<filter id="filter26_f_55_349" x="287.64" y="107.411" width="2131.86" height="1085.9" filterUnits="userSpaceOnUse" color-interpolation-filters="sRGB">
<feFlood flood-opacity="0" result="BackgroundImageFix"/>
<feBlend mode="normal" in="SourceGraphic" in2="BackgroundImageFix" result="shape"/>
<feGaussianBlur stdDeviation="105.305" result="effect1_foregroundBlur_55_349"/>
</filter>
<filter id="filter27_f_55_349" x="287.64" y="107.411" width="2131.86" height="1085.9" filterUnits="userSpaceOnUse" color-interpolation-filters="sRGB">
<feFlood flood-opacity="0" result="BackgroundImageFix"/>
<feBlend mode="normal" in="SourceGraphic" in2="BackgroundImageFix" result="shape"/>
<feGaussianBlur stdDeviation="105.305" result="effect1_foregroundBlur_55_349"/>
</filter>
<filter id="filter28_f_55_349" x="287.64" y="107.411" width="2131.86" height="1085.9" filterUnits="userSpaceOnUse" color-interpolation-filters="sRGB">
<feFlood flood-opacity="0" result="BackgroundImageFix"/>
<feBlend mode="normal" in="SourceGraphic" in2="BackgroundImageFix" result="shape"/>
<feGaussianBlur stdDeviation="105.305" result="effect1_foregroundBlur_55_349"/>
</filter>
<filter id="filter29_f_55_349" x="741.157" y="125.128" width="1185.94" height="809.503" filterUnits="userSpaceOnUse" color-interpolation-filters="sRGB">
<feFlood flood-opacity="0" result="BackgroundImageFix"/>
<feBlend mode="normal" in="SourceGraphic" in2="BackgroundImageFix" result="shape"/>
<feGaussianBlur stdDeviation="43.0776" result="effect1_foregroundBlur_55_349"/>
</filter>
<filter id="filter30_f_55_349" x="-731" y="-55.362" width="2685.14" height="1144.7" filterUnits="userSpaceOnUse" color-interpolation-filters="sRGB">
<feFlood flood-opacity="0" result="BackgroundImageFix"/>
<feBlend mode="normal" in="SourceGraphic" in2="BackgroundImageFix" result="shape"/>
<feGaussianBlur stdDeviation="134" result="effect1_foregroundBlur_55_349"/>
</filter>
<filter id="filter31_f_55_349" x="-387.31" y="318.704" width="2374.89" height="1358.8" filterUnits="userSpaceOnUse" color-interpolation-filters="sRGB">
<feFlood flood-opacity="0" result="BackgroundImageFix"/>
<feBlend mode="normal" in="SourceGraphic" in2="BackgroundImageFix" result="shape"/>
<feGaussianBlur stdDeviation="141.655" result="effect1_foregroundBlur_55_349"/>
</filter>
<filter id="filter32_f_55_349" x="-484.81" y="415.195" width="1373.06" height="921.597" filterUnits="userSpaceOnUse" color-interpolation-filters="sRGB">
<feFlood flood-opacity="0" result="BackgroundImageFix"/>
<feBlend mode="normal" in="SourceGraphic" in2="BackgroundImageFix" result="shape"/>
<feGaussianBlur stdDeviation="80" result="effect1_foregroundBlur_55_349"/>
</filter>
<filter id="filter33_f_55_349" x="-620.31" y="332.637" width="2597.17" height="1519.23" filterUnits="userSpaceOnUse" color-interpolation-filters="sRGB">
<feFlood flood-opacity="0" result="BackgroundImageFix"/>
<feBlend mode="normal" in="SourceGraphic" in2="BackgroundImageFix" result="shape"/>
<feGaussianBlur stdDeviation="141.655" result="effect1_foregroundBlur_55_349"/>
</filter>
<linearGradient id="paint0_linear_55_349" x1="-27.0558" y1="827.786" x2="1837.19" y2="788.207" gradientUnits="userSpaceOnUse">
<stop offset="0.12882" stop-color="#C4C4C4" stop-opacity="0"/>
<stop offset="0.496484" stop-color="#C4C4C4"/>
<stop offset="0.606591" stop-color="#C4C4C4"/>
<stop offset="1" stop-color="#C4C4C4" stop-opacity="0"/>
</linearGradient>
<linearGradient id="paint1_linear_55_349" x1="1346.81" y1="689.76" x2="-626.638" y2="1285.38" gradientUnits="userSpaceOnUse">
<stop stop-color="#C4C4C4" stop-opacity="0"/>
<stop offset="0.430547" stop-color="#C4C4C4"/>
<stop offset="0.498519" stop-color="#C4C4C4"/>
<stop offset="1" stop-color="#C4C4C4" stop-opacity="0"/>
</linearGradient>
<linearGradient id="paint2_linear_55_349" x1="229.721" y1="324.144" x2="251.951" y2="1015.57" gradientUnits="userSpaceOnUse">
<stop stop-color="#C4C4C4"/>
<stop offset="1" stop-color="#C4C4C4" stop-opacity="0"/>
</linearGradient>
<linearGradient id="paint3_linear_55_349" x1="2108.59" y1="385.709" x2="274.964" y2="631.834" gradientUnits="userSpaceOnUse">
<stop stop-color="#CD2F8D"/>
<stop offset="0.536458" stop-color="#F72D55"/>
<stop offset="1" stop-color="#FF974D"/>
</linearGradient>
<linearGradient id="paint4_linear_55_349" x1="2392.02" y1="578.834" x2="418.575" y2="1174.46" gradientUnits="userSpaceOnUse">
<stop stop-color="#C4C4C4" stop-opacity="0"/>
<stop offset="0.430547" stop-color="#C4C4C4"/>
<stop offset="0.498519" stop-color="#C4C4C4"/>
<stop offset="1" stop-color="#C4C4C4" stop-opacity="0"/>
</linearGradient>
<linearGradient id="paint5_linear_55_349" x1="1274.94" y1="213.22" x2="1297.16" y2="904.65" gradientUnits="userSpaceOnUse">
<stop stop-color="#C4C4C4"/>
<stop offset="1" stop-color="#C4C4C4" stop-opacity="0"/>
</linearGradient>
<clipPath id="clip0_55_349">
<rect y="0.451172" width="1406" height="480" rx="24" fill="white"/>
</clipPath>
</defs>
</svg>
