<svg width="36" height="36" viewBox="0 0 36 36" fill="none" xmlns="http://www.w3.org/2000/svg">
<path opacity="0.4" d="M11.7148 3.75H24.2852C26.8659 3.75003 28.8354 4.51645 30.1572 5.83984C31.4789 7.16322 32.2424 9.13254 32.2354 11.7129V24.2852C32.2353 26.8659 31.4684 28.8362 30.1445 30.1602C28.8206 31.4839 26.8502 32.25 24.2695 32.25H11.7148C9.13416 32.25 7.16464 31.4836 5.84082 30.1582C4.51687 28.8326 3.75 26.8584 3.75 24.2695V11.7148C3.75003 9.13407 4.51593 7.16375 5.83984 5.83984C7.16375 4.51593 9.13407 3.75003 11.7148 3.75Z" fill="#36AAF3" stroke="#36AAF3" stroke-width="1.5"/>
<path d="M18 11.625C18.2008 11.625 18.375 11.7992 18.375 12V17.625H24C24.2008 17.625 24.375 17.7992 24.375 18C24.375 18.2008 24.2008 18.375 24 18.375H18.375V24C18.375 24.2008 18.2008 24.375 18 24.375C17.7992 24.375 17.625 24.2008 17.625 24V18.375H12C11.7992 18.375 11.625 18.2008 11.625 18C11.625 17.7992 11.7992 17.625 12 17.625H17.625V12C17.625 11.7992 17.7992 11.625 18 11.625Z" fill="#36AAF3" stroke="#36AAF3" stroke-width="1.5"/>
</svg>
