<svg width="110" height="32" viewBox="0 0 110 32" fill="none" xmlns="http://www.w3.org/2000/svg">
<g clip-path="url(#clip0_66_677)">
<mask id="mask0_66_677" style="mask-type:luminance" maskUnits="userSpaceOnUse" x="0" y="0" width="48" height="32">
<path d="M47.5303 0H0.353271V31.4513H47.5303V0Z" fill="white"/>
</mask>
<g mask="url(#mask0_66_677)">
<path d="M16.0789 31.4513H20.8535L19.4635 30.0613C19.0949 29.6927 18.5949 29.4856 18.0736 29.4856H16.0789C8.47951 29.4856 2.31898 23.3251 2.31898 15.7257C2.31898 8.12624 8.47951 1.96572 16.0789 1.96571H31.8046C39.404 1.96571 45.5646 8.12624 45.5646 15.7257C45.5646 23.3251 39.404 29.4856 31.8046 29.4856H25.922C25.1399 29.4856 24.39 29.175 23.837 28.6221L22.2086 26.9936C21.287 26.072 20.0369 25.5542 18.7336 25.5542H16.0789C10.6508 25.5542 6.2504 21.1539 6.2504 15.7257C6.2504 10.2975 10.6508 5.89713 16.0789 5.89713H31.8046C37.2328 5.89713 41.6332 10.2975 41.6332 15.7257C41.6332 21.1539 37.2328 25.5542 31.8046 25.5542H28.0274C27.2453 25.5542 26.4954 25.2436 25.9424 24.6906L24.3139 23.0622C23.3923 22.1406 22.1424 21.6228 20.839 21.6228H16.0789C12.8221 21.6228 10.1818 18.9825 10.1818 15.7257C10.1818 12.4688 12.8221 9.82854 16.0789 9.82854H31.8046C35.0615 9.82854 37.7017 12.4688 37.7017 15.7257C37.7017 18.9428 35.1255 21.5583 31.9235 21.6216L31.9229 21.6228H30.4845C29.7025 21.6228 28.9525 21.3121 28.3995 20.7592L26.7711 19.1308C26.0149 18.3745 25.0376 17.8902 23.9912 17.7408L23.9418 17.6914H16.0789C14.9933 17.6914 14.1132 16.8113 14.1132 15.7257C14.1132 14.64 14.9933 13.76 16.0789 13.76H31.8046C32.8902 13.76 33.7703 14.64 33.7703 15.7257C33.7703 16.8113 32.8902 17.6914 31.8046 17.6914H27.8732L29.2632 19.0814C29.6318 19.45 30.1318 19.6571 30.6531 19.6571H31.8046C33.9759 19.6571 35.736 17.8969 35.736 15.7257C35.736 13.5544 33.9759 11.7943 31.8046 11.7943H16.0789C13.9077 11.7943 12.1475 13.5544 12.1475 15.7257C12.1475 17.8969 13.9077 19.6571 16.0789 19.6571H23.2962C24.0782 19.6571 24.8282 19.9677 25.3811 20.5207L27.0096 22.1491C27.9312 23.0707 29.1812 23.5885 30.4845 23.5885H32.296V23.5734C36.4096 23.3198 39.6674 19.9031 39.6674 15.7257C39.6674 11.3832 36.1471 7.86283 31.8046 7.86283H16.0789C11.7365 7.86283 8.21611 11.3832 8.21611 15.7257C8.21611 20.0682 11.7365 23.5885 16.0789 23.5885H20.839C21.6211 23.5885 22.371 23.8992 22.924 24.4521L24.5525 26.0806C25.4741 27.0022 26.724 27.5199 28.0274 27.5199H31.8046C38.3184 27.5199 43.5989 22.2395 43.5989 15.7257C43.5989 9.21186 38.3184 3.93142 31.8046 3.93142H16.0789C9.56513 3.93142 4.28469 9.21186 4.28469 15.7257C4.28469 22.2395 9.56513 27.5199 16.0789 27.5199H18.7336C19.5156 27.5199 20.2656 27.8306 20.8186 28.3835L22.4471 30.012C23.3687 30.9336 24.6186 31.4513 25.922 31.4513H31.8046C40.4897 31.4513 47.5303 24.4107 47.5303 15.7257C47.5303 7.04062 40.4897 -7.59271e-07 31.8046 0L16.0789 3.24943e-06C7.39389 4.0087e-06 0.353271 7.04063 0.353271 15.7257C0.353272 24.4107 7.3939 31.4513 16.0789 31.4513Z" fill="#77788C"/>
</g>
<path d="M69.9315 23.1011C70.0573 23.337 70.1202 23.5414 70.1202 23.7144C70.1359 23.8717 70.0888 24.0211 69.9787 24.1626C69.8686 24.2884 69.6956 24.4063 69.4597 24.5164C69.0823 24.6894 68.7835 24.7287 68.5634 24.6344C68.3589 24.54 68.1702 24.312 67.9973 23.9503L62.1001 11.4012L56.2502 23.9267C56.0772 24.2884 55.8806 24.5164 55.6605 24.6108C55.456 24.7051 55.1572 24.6658 54.7641 24.4928C54.5282 24.3985 54.3552 24.2805 54.2452 24.139C54.1508 23.9975 54.1115 23.8245 54.1272 23.6201C54.1587 23.4156 54.2373 23.1797 54.3631 22.9124L61.133 8.78289C61.2274 8.59418 61.361 8.44478 61.534 8.3347C61.7227 8.2089 61.9193 8.146 62.1237 8.146C62.2652 8.146 62.3989 8.16958 62.5247 8.21676C62.6505 8.26394 62.7606 8.3347 62.855 8.42906C62.9493 8.52341 63.0279 8.64922 63.0908 8.80647L69.9315 23.1011ZM57.6655 19.9167L58.4675 18.1003H65.7799L66.5584 19.9167H57.6655ZM75.0054 24.7287C74.628 24.7287 74.2348 24.6894 73.826 24.6108C73.4171 24.5321 73.0161 24.4221 72.623 24.2805C72.2455 24.1233 71.9074 23.9424 71.6087 23.738C71.3256 23.5336 71.1133 23.3055 70.9718 23.0539C70.8931 22.8967 70.846 22.7551 70.8302 22.6293C70.8145 22.4878 70.8381 22.3541 70.901 22.2283C70.9639 22.1025 71.0583 21.9767 71.1841 21.8509C71.3413 21.6622 71.4986 21.5757 71.6558 21.5914C71.8131 21.5914 72.0097 21.6937 72.2455 21.8981C72.4185 22.0082 72.623 22.134 72.8588 22.2755C73.0947 22.4013 73.3385 22.5193 73.5901 22.6293C73.8417 22.7237 74.0933 22.8102 74.3449 22.8888C74.6123 22.9517 74.8717 22.9832 75.1233 22.9832C75.8467 22.9832 76.4286 22.8495 76.8689 22.5822C77.3092 22.2991 77.5294 21.9295 77.5294 21.4735C77.5294 21.2062 77.4743 20.9781 77.3642 20.7894C77.2542 20.6007 77.1048 20.4435 76.9161 20.3177C76.7274 20.1761 76.5151 20.0582 76.2792 19.9638C76.0433 19.8695 75.776 19.783 75.4772 19.7044C75.1941 19.61 74.911 19.5235 74.628 19.4449C74.2034 19.3348 73.7867 19.209 73.3778 19.0675C72.9689 18.9259 72.5994 18.7451 72.2691 18.5249C71.9389 18.2891 71.6716 17.9981 71.4671 17.6522C71.2627 17.2905 71.1605 16.8344 71.1605 16.284C71.1605 15.6393 71.3256 15.081 71.6558 14.6092C71.9861 14.1375 72.45 13.7758 73.0476 13.5242C73.6451 13.2568 74.3449 13.1232 75.1469 13.1232C75.4929 13.1232 75.8153 13.1468 76.1141 13.1939C76.4128 13.2411 76.6959 13.3197 76.9632 13.4298C77.2463 13.5242 77.5136 13.6421 77.7653 13.7836C78.0169 13.9095 78.2606 14.0667 78.4965 14.2554C78.7796 14.4441 78.929 14.6486 78.9447 14.8687C78.9604 15.0889 78.8739 15.3169 78.6852 15.5528C78.5437 15.7572 78.3864 15.8909 78.2134 15.9538C78.0405 16.001 77.8675 15.9538 77.6945 15.8123C77.4429 15.6236 77.1755 15.4584 76.8925 15.3169C76.6094 15.1754 76.3185 15.0574 76.0197 14.9631C75.7209 14.8687 75.4143 14.8215 75.0998 14.8215C74.7066 14.8215 74.3528 14.8844 74.0383 15.0103C73.7395 15.1203 73.5036 15.2933 73.3306 15.5292C73.1734 15.7494 73.0947 16.001 73.0947 16.284C73.0947 16.5356 73.1576 16.7401 73.2834 16.8973C73.425 17.0546 73.5979 17.1883 73.8024 17.2983C74.0225 17.4084 74.2742 17.5106 74.5572 17.605C74.856 17.6836 75.1627 17.7622 75.4772 17.8409C75.9332 17.951 76.3971 18.0846 76.8689 18.2419C77.3564 18.3834 77.7888 18.58 78.1663 18.8316C78.5594 19.0675 78.8739 19.3899 79.1098 19.7987C79.3614 20.1919 79.4872 20.7187 79.4872 21.3791C79.4872 22.417 79.0783 23.2348 78.2606 23.8324C77.4429 24.4299 76.3578 24.7287 75.0054 24.7287ZM86.3365 24.6108C85.5974 24.6108 84.9684 24.54 84.4494 24.3985C83.9462 24.2569 83.5295 24.0368 83.1993 23.738C82.869 23.4392 82.6331 23.0539 82.4916 22.5822C82.3501 22.0947 82.2793 21.4971 82.2793 20.7894V10.3633C82.2793 10.1432 82.3029 9.95445 82.3501 9.79719C82.3972 9.63994 82.4916 9.52199 82.6331 9.44336C82.7747 9.34901 82.9948 9.30183 83.2936 9.30183C83.5924 9.30183 83.8204 9.34901 83.9777 9.44336C84.1349 9.52199 84.2372 9.63994 84.2843 9.79719C84.3315 9.93872 84.3551 10.1196 84.3551 10.3397V20.7894C84.3551 21.1983 84.3865 21.5285 84.4494 21.7802C84.5281 22.016 84.6382 22.1969 84.7797 22.3227C84.9369 22.4485 85.1414 22.5271 85.393 22.5586C85.6446 22.59 85.9512 22.6058 86.3129 22.6058C86.5645 22.6058 86.769 22.6293 86.9262 22.6765C87.0835 22.7237 87.2014 22.818 87.2801 22.9596C87.3587 23.1011 87.398 23.3134 87.398 23.5965C87.398 23.8953 87.3508 24.1233 87.2565 24.2805C87.1779 24.4221 87.052 24.5086 86.8791 24.54C86.7218 24.5872 86.541 24.6108 86.3365 24.6108ZM81.0527 13.4534L83.3172 13.477L86.596 13.4298C86.8162 13.4298 87.0049 13.4534 87.1621 13.5006C87.3194 13.532 87.4373 13.6264 87.5159 13.7836C87.6103 13.9252 87.6575 14.1453 87.6575 14.4441C87.6575 14.7429 87.6182 14.9709 87.5395 15.1282C87.4609 15.2697 87.343 15.3641 87.1857 15.4113C87.0285 15.4584 86.8397 15.482 86.6196 15.482L83.388 15.4348L81.0055 15.4584C80.6753 15.4584 80.4473 15.3798 80.3215 15.2225C80.2114 15.0653 80.1563 14.8058 80.1563 14.4441C80.1563 14.0982 80.2271 13.8466 80.3686 13.6893C80.5102 13.532 80.7382 13.4534 81.0527 13.4534ZM90.1571 24.6108C89.8583 24.6108 89.6303 24.5636 89.473 24.4692C89.3315 24.3906 89.2371 24.2727 89.1899 24.1154C89.1585 23.9424 89.1428 23.7459 89.1428 23.5257V14.2318C89.1428 13.9959 89.1664 13.7994 89.2135 13.6421C89.2607 13.4849 89.3551 13.3748 89.4966 13.3119C89.6381 13.2333 89.8661 13.1939 90.1807 13.1939C90.4637 13.1939 90.676 13.2333 90.8176 13.3119C90.9748 13.3748 91.077 13.477 91.1242 13.6185C91.1871 13.7443 91.2186 13.8937 91.2186 14.0667L91.1242 14.7744C91.2343 14.5699 91.3601 14.3655 91.5016 14.1611C91.6589 13.9566 91.8476 13.7758 92.0677 13.6185C92.3036 13.4455 92.5788 13.304 92.8933 13.1939C93.2236 13.0839 93.6246 13.0288 94.0964 13.0288C94.3322 13.0288 94.5524 13.0524 94.7568 13.0996C94.977 13.131 95.1814 13.1861 95.3701 13.2647C95.5746 13.3433 95.7476 13.4377 95.8891 13.5478C96.0306 13.6421 96.1407 13.7522 96.2193 13.878C96.3137 13.9881 96.3609 14.1218 96.3609 14.279C96.3609 14.625 96.2508 14.9238 96.0306 15.1754C95.8105 15.4113 95.5824 15.5292 95.3465 15.5292C95.1421 15.5292 94.9927 15.5056 94.8984 15.4584C94.804 15.3955 94.7097 15.3326 94.6153 15.2697C94.5367 15.2068 94.4187 15.1518 94.2615 15.1046C94.1042 15.0417 93.8526 15.0103 93.5066 15.0103C93.2708 15.0103 93.0191 15.0574 92.7518 15.1518C92.5002 15.2461 92.2565 15.3877 92.0206 15.5764C91.7847 15.7494 91.5881 15.9774 91.4309 16.2604C91.2893 16.5435 91.2186 16.8737 91.2186 17.2512V23.5729C91.2186 23.793 91.195 23.9817 91.1478 24.139C91.1006 24.2963 90.9984 24.4142 90.8411 24.4928C90.6996 24.5715 90.4716 24.6108 90.1571 24.6108ZM106.653 24.5872C106.307 24.5872 106.056 24.5164 105.898 24.3749C105.757 24.2334 105.67 24.0132 105.639 23.7144L105.733 22.535C105.576 22.7866 105.332 23.0775 105.002 23.4078C104.672 23.7223 104.239 24.0053 103.705 24.2569C103.17 24.4928 102.517 24.6108 101.747 24.6108C100.992 24.6108 100.284 24.4614 99.6239 24.1626C98.9792 23.8638 98.4052 23.4471 97.902 22.9124C97.4145 22.3777 97.0292 21.7644 96.7461 21.0725C96.4788 20.3806 96.3451 19.6415 96.3451 18.8552C96.3451 18.0846 96.4788 17.3612 96.7461 16.685C97.0292 15.9931 97.4223 15.3877 97.9256 14.8687C98.4288 14.3498 99.0028 13.9409 99.6475 13.6421C100.308 13.3433 101.008 13.1939 101.747 13.1939C102.439 13.1939 103.029 13.2883 103.516 13.477C104.004 13.65 104.42 13.8859 104.766 14.1847C105.128 14.4677 105.442 14.7901 105.71 15.1518L105.663 14.1611C105.647 13.8151 105.718 13.5714 105.875 13.4298C106.048 13.2726 106.315 13.1939 106.677 13.1939C106.976 13.1939 107.188 13.2411 107.314 13.3355C107.455 13.4298 107.55 13.5635 107.597 13.7365C107.644 13.9095 107.668 14.1218 107.668 14.3734V23.4785C107.668 23.6987 107.644 23.8953 107.597 24.0682C107.55 24.2412 107.455 24.367 107.314 24.4457C107.172 24.54 106.952 24.5872 106.653 24.5872ZM102.101 22.6293C102.73 22.6293 103.304 22.4642 103.823 22.134C104.357 21.8037 104.774 21.3634 105.073 20.813C105.387 20.2469 105.545 19.6021 105.545 18.8788C105.545 18.1397 105.38 17.4949 105.049 16.9445C104.735 16.3784 104.31 15.9381 103.776 15.6236C103.257 15.2933 102.683 15.1282 102.054 15.1282C101.314 15.1282 100.67 15.3012 100.119 15.6471C99.5846 15.9774 99.16 16.4256 98.8455 16.9917C98.531 17.5578 98.3737 18.2026 98.3737 18.9259C98.3737 19.6336 98.531 20.2705 98.8455 20.8366C99.16 21.387 99.5925 21.8273 100.143 22.1576C100.709 22.4721 101.362 22.6293 102.101 22.6293Z" fill="#77788C"/>
</g>
<defs>
<clipPath id="clip0_66_677">
<rect width="109.293" height="31.4513" fill="white" transform="translate(0.353271)"/>
</clipPath>
</defs>
</svg>
