<svg width="100" height="32" viewBox="0 0 100 32" fill="none" xmlns="http://www.w3.org/2000/svg">
<path d="M17.7817 25.2488C17.8099 22.362 17.0781 20.0145 16.1471 20.0054C15.2161 19.9964 14.4385 22.3292 14.4103 25.2159C14.382 28.1027 15.1139 30.4502 16.0449 30.4594C16.9759 30.4685 17.7536 28.1356 17.7817 25.2488Z" fill="#77788C"/>
<path d="M12.3824 24.5932C13.9669 22.1801 14.6206 19.8095 13.8423 19.2985C13.0641 18.7875 11.1486 20.3295 9.56408 22.7426C7.97947 25.1559 7.32585 27.5264 8.10408 28.0375C8.88237 28.5485 10.7978 27.0065 12.3824 24.5932Z" fill="#77788C"/>
<path d="M8.18811 21.1309C10.8259 19.9576 12.6574 18.3168 12.279 17.4662C11.9007 16.6154 9.45563 16.877 6.81784 18.0503C4.1801 19.2236 2.34855 20.8643 2.72694 21.715C3.10532 22.5657 5.55037 22.3042 8.18811 21.1309Z" fill="#77788C"/>
<path d="M11.9624 15.0808C12.104 14.1606 9.90578 13.0586 7.05249 12.6194C4.19916 12.1803 1.77128 12.5703 1.62965 13.4904C1.48801 14.4106 3.68626 15.5126 6.53958 15.9517C9.39289 16.391 11.8208 16.001 11.9624 15.0808Z" fill="#77788C"/>
<path d="M12.9867 12.8881C13.6033 12.1906 12.3495 10.0752 10.1863 8.16344C8.02317 6.25164 5.76975 5.26737 5.15319 5.965C4.53664 6.66263 5.79041 8.778 7.9536 10.6898C10.1167 12.6016 12.3701 13.5858 12.9867 12.8881Z" fill="#77788C"/>
<path d="M15.027 11.6071C15.9229 11.3536 16.0119 8.89612 15.2259 6.11831C14.4398 3.34047 13.0764 1.29409 12.1805 1.54759C11.2846 1.8011 11.1956 4.25848 11.9817 7.03635C12.7677 9.81411 14.1312 11.8606 15.027 11.6071Z" fill="#77788C"/>
<path d="M20.5669 7.12292C21.4076 4.36112 21.3671 1.90245 20.4764 1.63134C19.5857 1.36022 18.1821 3.3793 17.3414 6.1411C16.5008 8.9029 16.5413 11.3615 17.432 11.6326C18.3227 11.9038 19.7263 9.88473 20.5669 7.12292Z" fill="#77788C"/>
<path d="M24.5253 10.8545C26.7255 8.98534 28.0203 6.89487 27.4175 6.18535C26.8147 5.47581 24.5424 6.41587 22.3424 8.285C20.1422 10.1542 18.8474 12.2446 19.4502 12.9541C20.053 13.6636 22.3252 12.7236 24.5253 10.8545Z" fill="#77788C"/>
<path d="M25.8342 16.1356C28.6956 15.7528 30.9152 14.6944 30.7917 13.7715C30.6683 12.8487 28.2486 12.411 25.3871 12.7938C22.5257 13.1766 20.3061 14.235 20.4296 15.1578C20.5531 16.0806 22.9727 16.5184 25.8342 16.1356Z" fill="#77788C"/>
<path d="M29.5253 21.9785C29.9204 21.1355 28.1215 19.459 25.5074 18.2338C22.8933 17.0087 20.4539 16.6991 20.0589 17.5421C19.6638 18.3852 21.4625 20.0617 24.0767 21.2868C26.6907 22.5119 29.1302 22.8216 29.5253 21.9785Z" fill="#77788C"/>
<path d="M24.0267 28.1991C24.8149 27.7036 24.2081 25.3206 22.6715 22.8766C21.1348 20.4326 19.2501 18.8532 18.4619 19.3487C17.6738 19.8443 18.2805 22.2273 19.8172 24.6713C21.3539 27.1153 23.2385 28.6947 24.0267 28.1991Z" fill="#77788C"/>
<path d="M42.3337 19.6726L41.2014 23.5883H38.3944L43.5839 7.31224H46.9806L52.1701 23.5883H49.2687L48.1365 19.6726H42.3337ZM47.5703 17.5496L45.2351 9.4352L42.8998 17.5496H47.5703ZM62.4927 22.9278C62.0209 23.2266 61.4705 23.4625 60.8415 23.6355C60.2124 23.8085 59.552 23.895 58.86 23.895C57.4447 23.895 56.3518 23.5333 55.5812 22.8099C54.8107 22.0708 54.4254 21.0722 54.4254 19.8141V13.0678H51.6655V11.1336H54.4254V8.35013L57.0673 8.04348V11.1336H61.2896L60.983 13.0678H57.0673V19.7906C57.0673 20.4668 57.2403 20.97 57.5863 21.3002C57.9322 21.6147 58.4826 21.772 59.2374 21.772C60.0709 21.772 60.8415 21.5754 61.5491 21.1823L62.4927 22.9278ZM69.3477 20.1916C69.3477 21.2452 69.9767 21.772 71.2348 21.772C71.8638 21.772 72.5243 21.6305 73.2162 21.3474L73.8767 23.1873C73.0118 23.6591 71.9425 23.895 70.6687 23.895C69.4263 23.895 68.4513 23.549 67.7437 22.8571C67.0518 22.1494 66.7058 21.1823 66.7058 19.9557V8.06707H62.9552V6.13281H69.3477V20.1916ZM85.1901 20.5454C85.1901 21.0172 85.2608 21.371 85.4024 21.6069C85.5439 21.827 85.7876 21.9922 86.1336 22.1022L85.5203 23.895C84.2151 23.7377 83.358 23.1637 82.9492 22.173C82.4931 22.7391 81.9191 23.1716 81.2272 23.4704C80.551 23.7534 79.804 23.895 78.9861 23.895C77.7281 23.895 76.7295 23.5411 75.9904 22.8335C75.2513 22.1258 74.8817 21.1901 74.8817 20.0264C74.8817 18.7212 75.3928 17.7148 76.415 17.0071C77.4529 16.2995 78.9154 15.9456 80.8026 15.9456H82.5717V15.1436C82.5717 14.3573 82.3359 13.7834 81.8641 13.4217C81.3923 13.06 80.7083 12.8791 79.8119 12.8791C79.3716 12.8791 78.8603 12.9342 78.2785 13.0442C77.6966 13.1543 77.1069 13.3116 76.5093 13.516L75.8489 11.6525C77.3428 11.0864 78.7974 10.8033 80.2129 10.8033C81.8641 10.8033 83.1064 11.165 83.9399 11.8884C84.7733 12.6118 85.1901 13.6418 85.1901 14.9785V20.5454ZM79.7647 21.9607C80.3151 21.9607 80.8419 21.8192 81.3451 21.5361C81.8641 21.253 82.273 20.8599 82.5717 20.3567V17.5968H81.1093C79.9141 17.5968 79.0412 17.8013 78.4908 18.2101C77.9404 18.6033 77.6652 19.1773 77.6652 19.9321C77.6652 20.5926 77.8382 21.0958 78.1841 21.4418C78.5458 21.7877 79.0726 21.9607 79.7647 21.9607ZM91.9741 21.8899C92.8076 21.8899 93.4602 21.7405 93.932 21.4418C94.4195 21.143 94.6632 20.7341 94.6632 20.2151C94.6632 19.8535 94.5924 19.5625 94.4509 19.3424C94.3094 19.1065 94.0263 18.8942 93.6017 18.7055C93.1771 18.5011 92.5403 18.2888 91.6911 18.0686C90.3229 17.7226 89.2929 17.2823 88.601 16.7476C87.9248 16.1972 87.5867 15.411 87.5867 14.3888C87.5867 13.3037 88.0348 12.4388 88.9312 11.7941C89.8276 11.1336 91.0385 10.8033 92.5638 10.8033C94.4037 10.8033 95.9842 11.283 97.3051 12.2422L96.1729 13.917C95.0564 13.1779 93.8769 12.8084 92.6346 12.8084C91.062 12.8084 90.2758 13.2644 90.2758 14.1765C90.2758 14.491 90.3622 14.7505 90.5352 14.9549C90.7239 15.1593 91.0384 15.3559 91.4788 15.5446C91.9191 15.7176 92.5717 15.922 93.4366 16.1579C94.789 16.5353 95.7955 16.9993 96.4559 17.5496C97.1321 18.1 97.4702 18.9256 97.4702 20.0264C97.4702 21.3002 96.9434 22.2674 95.8898 22.9278C94.8362 23.5726 93.531 23.895 91.9741 23.895C89.9141 23.895 88.2078 23.3131 86.8554 22.1494L88.2471 20.5454C88.7661 20.9543 89.3401 21.2845 89.9691 21.5361C90.6139 21.772 91.2822 21.8899 91.9741 21.8899Z" fill="#77788C"/>
</svg>
