<svg width="120" height="32" viewBox="0 0 120 32" fill="none" xmlns="http://www.w3.org/2000/svg">
<g clip-path="url(#clip0_66_681)">
<mask id="mask0_66_681" style="mask-type:luminance" maskUnits="userSpaceOnUse" x="0" y="0" width="36" height="32">
<path d="M35.6252 0H0.242432V31.4513H35.6252V0Z" fill="white"/>
</mask>
<g mask="url(#mask0_66_681)">
<path d="M5.08343 23.7755C6.38094 24.6647 8.48463 24.6647 9.78216 23.7755C11.0796 22.8864 11.0796 21.4447 9.78216 20.5556C8.48463 19.6664 6.38094 19.6664 5.08343 20.5556C3.78591 21.4447 3.78591 22.8864 5.08343 23.7755Z" fill="#77788C"/>
<path d="M18.5505 11.7008C20.4968 13.0345 23.6523 13.0345 25.5986 11.7008C27.5448 10.367 27.5448 8.2046 25.5986 6.87091C23.6523 5.53717 20.4968 5.53717 18.5505 6.87091C16.6043 8.2046 16.6043 10.367 18.5505 11.7008Z" fill="#77788C"/>
<path d="M11.4019 17.7379C13.0238 18.8493 15.6535 18.8493 17.2753 17.7379C18.8972 16.6264 18.8972 14.8244 17.2753 13.713C15.6535 12.6015 13.0238 12.6015 11.4019 13.713C9.78008 14.8244 9.78008 16.6264 11.4019 17.7379Z" fill="#77788C"/>
<path d="M0.972281 16.9332C1.94541 17.6 3.52317 17.6 4.4963 16.9332C5.46943 16.2663 5.46943 15.1851 4.4963 14.5182C3.52317 13.8514 1.94541 13.8514 0.972281 14.5182C-0.000851795 15.1851 -0.00085105 16.2663 0.972281 16.9332Z" fill="#77788C"/>
<path d="M11.4019 4.85847C13.0238 5.96991 15.6535 5.96991 17.2753 4.85847C18.8972 3.74703 18.8972 1.94502 17.2753 0.833586C15.6535 -0.277862 13.0238 -0.277862 11.4019 0.833586C9.78008 1.94502 9.78008 3.74703 11.4019 4.85847Z" fill="#77788C"/>
<path d="M5.08342 10.896C6.38093 11.7852 8.48463 11.7852 9.78216 10.896C11.0796 10.0069 11.0796 8.56525 9.78216 7.67614C8.48463 6.78699 6.38093 6.78699 5.08342 7.67614C3.78591 8.56525 3.78592 10.0069 5.08342 10.896Z" fill="#77788C"/>
<path d="M11.4019 30.6178C13.0238 31.7292 15.6535 31.7292 17.2753 30.6178C18.8972 29.5063 18.8972 27.7043 17.2753 26.5928C15.6535 25.4814 13.0238 25.4814 11.4019 26.5928C9.78008 27.7043 9.78008 29.5063 11.4019 30.6178Z" fill="#77788C"/>
<path d="M27.1174 18.1403C29.0637 19.474 32.2192 19.474 34.1654 18.1403C36.1117 16.8066 36.1117 14.6441 34.1654 13.3104C32.2192 11.9766 29.0637 11.9766 27.1174 13.3104C25.1711 14.6441 25.1711 16.8066 27.1174 18.1403Z" fill="#77788C"/>
<path d="M18.5505 24.5807C20.4968 25.9144 23.6523 25.9144 25.5986 24.5807C27.5448 23.247 27.5448 21.0846 25.5986 19.7508C23.6523 18.4171 20.4968 18.4171 18.5505 19.7508C16.6043 21.0846 16.6043 23.247 18.5505 24.5807Z" fill="#77788C"/>
</g>
<path d="M42.4108 23.5886L47.1285 7.07666H51.6103L56.3045 23.5886H53.6861L52.6011 19.6965H46.1378L45.0527 23.5886H42.4108ZM46.7747 17.3377H51.9642L49.5581 8.65709H49.1807L46.7747 17.3377ZM60.7117 23.8009C59.831 23.8009 59.0447 23.6043 58.3528 23.2112C57.6609 22.8181 57.1183 22.2598 56.7252 21.5364C56.3321 20.813 56.1355 19.9481 56.1355 18.9417V11.9595H58.5651V18.7766C58.5651 19.783 58.8167 20.53 59.3199 21.0175C59.8232 21.4892 60.5229 21.7251 61.4193 21.7251C62.41 21.7251 63.2042 21.3949 63.8017 20.7344C64.415 20.0582 64.7217 19.0911 64.7217 17.833V11.9595H67.1513V23.5886H64.7689V21.8431H64.3915C64.1713 22.3148 63.7782 22.763 63.212 23.1876C62.6459 23.5965 61.8124 23.8009 60.7117 23.8009ZM73.196 23.9189C72.2368 23.9189 71.3483 23.683 70.5305 23.2112C69.7128 22.7394 69.0523 22.0632 68.5491 21.1826C68.0616 20.2862 67.8179 19.209 67.8179 17.951V17.5971C67.8179 16.3548 68.0616 15.2855 68.5491 14.3891C69.0366 13.4927 69.6892 12.8087 70.5069 12.3369C71.3247 11.8651 72.221 11.6292 73.196 11.6292C73.9509 11.6292 74.5799 11.7236 75.0831 11.9123C75.6021 12.101 76.0266 12.3448 76.3569 12.6435C76.6871 12.9266 76.9387 13.2254 77.1117 13.5399H77.4891V7.07666H79.9189V23.5886H77.5363V21.9374H77.1589C76.8601 22.4406 76.4041 22.8967 75.7908 23.3055C75.1932 23.7144 74.3283 23.9189 73.196 23.9189ZM73.8801 21.7959C74.9337 21.7959 75.7986 21.4578 76.4748 20.7816C77.1668 20.1054 77.5127 19.1382 77.5127 17.8802V17.6679C77.5127 16.4256 77.1746 15.4663 76.4984 14.7901C75.8222 14.1139 74.9494 13.7758 73.8801 13.7758C72.8422 13.7758 71.9773 14.1139 71.2854 14.7901C70.6092 15.4663 70.2711 16.4256 70.2711 17.6679V17.8802C70.2711 19.1382 70.6092 20.1054 71.2854 20.7816C71.9773 21.4578 72.8422 21.7959 73.8801 21.7959ZM81.4199 23.5886V7.07666H82.8352V23.5886H81.4199ZM88.1497 23.9189C87.3477 23.9189 86.6165 23.7852 85.956 23.5178C85.3112 23.2348 84.8002 22.8259 84.4227 22.2912C84.0453 21.7566 83.8566 21.1118 83.8566 20.357C83.8566 19.5864 84.0453 18.9495 84.4227 18.4463C84.8002 17.9431 85.3112 17.5657 85.956 17.3141C86.6007 17.0625 87.3163 16.9367 88.1025 16.9367H92.3013V16.0167C92.3013 15.0889 92.034 14.3655 91.4993 13.8466C90.9646 13.3276 90.1862 13.0681 89.164 13.0681C88.1576 13.0681 87.3556 13.3198 86.758 13.823C86.1762 14.3105 85.783 14.9709 85.5786 15.8044L84.2104 15.4034C84.3992 14.7272 84.6979 14.1218 85.1068 13.5871C85.5157 13.0367 86.0582 12.6042 86.7344 12.2897C87.4106 11.9595 88.2205 11.7944 89.164 11.7944C90.6108 11.7944 91.7273 12.1718 92.5136 12.9266C93.3156 13.6814 93.7166 14.7351 93.7166 16.0875V21.6544C93.7166 22.1261 93.9368 22.362 94.3771 22.362H95.4857V23.5886H93.9761C93.4886 23.5886 93.1033 23.4471 92.8202 23.164C92.5372 22.8652 92.3957 22.4642 92.3957 21.961V21.7959H92.1598C91.9553 22.1419 91.688 22.48 91.3578 22.8102C91.0432 23.1404 90.6265 23.4078 90.1076 23.6122C89.5886 23.8166 88.936 23.9189 88.1497 23.9189ZM88.2441 22.6451C89.455 22.6451 90.4299 22.2834 91.1691 21.56C91.9239 20.8209 92.3013 19.783 92.3013 18.4463V18.1633H88.1261C87.3084 18.1633 86.6243 18.3441 86.0739 18.7058C85.5393 19.0518 85.2719 19.5943 85.2719 20.3334C85.2719 21.0725 85.5471 21.6465 86.0975 22.0554C86.6637 22.4485 87.3792 22.6451 88.2441 22.6451ZM101.955 23.9189C100.696 23.9189 99.7136 23.6751 99.0059 23.1876C98.314 22.6844 97.8029 22.1183 97.4727 21.4892H97.1896V23.5886H95.8215V7.07666H97.2368V14.1296H97.5199C97.7243 13.7365 98.0074 13.3669 98.369 13.021C98.7465 12.6593 99.2261 12.3683 99.8079 12.1482C100.406 11.9123 101.121 11.7944 101.955 11.7944C102.992 11.7944 103.928 12.0381 104.762 12.5256C105.595 12.9974 106.255 13.6814 106.743 14.5778C107.23 15.4584 107.474 16.5042 107.474 17.7151V17.9981C107.474 19.209 107.223 20.2626 106.719 21.159C106.232 22.0396 105.571 22.7237 104.738 23.2112C103.904 23.683 102.977 23.9189 101.955 23.9189ZM101.624 22.6451C102.929 22.6451 103.983 22.2283 104.785 21.3949C105.603 20.5614 106.012 19.4134 106.012 17.951V17.7623C106.012 16.2998 105.603 15.1518 104.785 14.3183C103.983 13.4849 102.929 13.0681 101.624 13.0681C100.335 13.0681 99.2811 13.4849 98.4634 14.3183C97.6457 15.1518 97.2368 16.2998 97.2368 17.7623V17.951C97.2368 19.4134 97.6457 20.5614 98.4634 21.3949C99.2811 22.2283 100.335 22.6451 101.624 22.6451ZM113.265 23.9189C111.881 23.9189 110.694 23.5886 109.703 22.9281C108.728 22.2677 108.131 21.1747 107.911 19.6493L109.302 19.3899C109.428 20.2233 109.68 20.8838 110.057 21.3713C110.45 21.8431 110.922 22.1812 111.472 22.3856C112.039 22.59 112.636 22.6922 113.265 22.6922C114.209 22.6922 114.964 22.5035 115.53 22.1261C116.112 21.733 116.402 21.1983 116.402 20.5221C116.402 19.8302 116.127 19.3505 115.577 19.0832C115.042 18.8159 114.327 18.6036 113.43 18.4463L112.345 18.2576C111.622 18.1318 110.969 17.9431 110.387 17.6915C109.806 17.4242 109.342 17.0703 108.996 16.63C108.665 16.1897 108.5 15.6393 108.5 14.9788C108.5 13.9881 108.886 13.2097 109.656 12.6435C110.442 12.0774 111.48 11.7944 112.77 11.7944C114.075 11.7944 115.121 12.0931 115.907 12.6907C116.709 13.2726 117.212 14.1218 117.417 15.2383L116.096 15.5213C115.939 14.6093 115.561 13.9645 114.964 13.5871C114.382 13.2097 113.65 13.021 112.77 13.021C111.905 13.021 111.213 13.1861 110.694 13.5163C110.175 13.8466 109.916 14.3341 109.916 14.9788C109.916 15.6078 110.152 16.0717 110.623 16.3705C111.095 16.6536 111.74 16.8659 112.558 17.0074L113.643 17.1961C114.429 17.3219 115.137 17.5106 115.766 17.7623C116.395 17.9981 116.89 18.3362 117.252 18.7766C117.629 19.2169 117.818 19.7987 117.818 20.5221C117.818 21.6072 117.409 22.4485 116.591 23.0461C115.773 23.6279 114.665 23.9189 113.265 23.9189Z" fill="#77788C"/>
</g>
<defs>
<clipPath id="clip0_66_681">
<rect width="119.515" height="31.4513" fill="white" transform="translate(0.242432)"/>
</clipPath>
</defs>
</svg>
