<svg width="1406" height="964" viewBox="0 0 1406 964" fill="none" xmlns="http://www.w3.org/2000/svg">
<g clip-path="url(#clip0_42_219)">
<rect width="1406" height="964" rx="24" fill="white"/>
<mask id="mask0_42_219" style="mask-type:alpha" maskUnits="userSpaceOnUse" x="-104" y="-66" width="1648" height="1210">
<rect x="-103.891" y="-65.6895" width="1647.78" height="1209.69" fill="#C4C4C4"/>
</mask>
<g mask="url(#mask0_42_219)">
<rect width="1648.36" height="1071.18" transform="matrix(0.999644 -0.00277832 0.00261545 1.00033 -117.83 -152.46)" fill="#105C97"/>
<mask id="mask1_42_219" style="mask-type:alpha" maskUnits="userSpaceOnUse" x="-315" y="-663" width="2343" height="2300">
<rect width="1882.35" height="1458.42" transform="matrix(-0.816824 0.573169 -0.552073 -0.836322 2027.73 557.377)" fill="url(#paint0_linear_42_219)"/>
</mask>
<g mask="url(#mask1_42_219)">
<path d="M1447.4 267.188C1369.65 282.094 1282.78 313.656 1197.42 279.677C1127.43 251.88 1066.14 205.2 992.888 173.681C861.066 116.963 743.726 164.703 666.037 184.743C508.357 225.482 329.129 119.618 172.052 170.704C116.709 188.687 69.9239 226.737 29.9741 272.999C-94.2118 417.15 -81.0466 452.935 -133.83 550.021C-162.835 603.387 -200.331 656.746 -248.167 686.736C-266.562 698.313 -287.5 704.284 -304.989 717.694C-324.96 732.925 -338.008 761.868 -349.15 790.108C-351.576 796.3 -361.348 813.929 -360.011 821.046L220.006 1930.47C220.006 1930.47 1900.88 683.404 1904.43 690.588C1907.94 697.699 1853.82 319.441 1853.82 319.441C1771.52 288.634 1646.03 229.054 1447.4 267.188Z" fill="#7EC6FA"/>
<g filter="url(#filter0_f_42_219)">
<path d="M1447.4 267.188C1369.66 282.094 1282.78 313.656 1197.42 279.676C1127.43 251.879 1066.14 205.2 992.89 173.681C861.068 116.962 761.887 194.88 684.198 214.92C526.518 255.659 347.29 149.795 190.213 200.882C134.87 218.864 88.0849 256.914 48.1351 303.176C-76.0508 447.327 -81.0446 452.934 -133.828 550.02C-162.833 603.387 -200.33 656.745 -248.165 686.735C-266.56 698.312 -287.498 704.284 -304.988 717.693C-324.958 732.925 -338.006 761.867 -349.148 790.108C-351.574 796.299 -361.346 813.929 -360.009 821.046L150.724 2023.36C150.724 2023.36 1831.6 776.294 1835.15 783.478C1838.66 790.589 1853.82 319.44 1853.82 319.44C1771.53 288.633 1646.03 229.053 1447.4 267.188Z" fill="#7EC6FA"/>
</g>
<g filter="url(#filter1_f_42_219)">
<path d="M1460.64 227.555C1382.89 242.462 1296.02 274.023 1210.66 240.044C1140.67 212.247 1079.38 165.567 1006.13 134.049C874.303 77.3296 761.879 194.879 684.191 214.919C526.511 255.658 359.389 169.913 202.312 220.999C146.969 238.982 100.184 277.032 60.2339 323.294C-63.952 467.445 -81.0519 452.933 -133.835 550.019C-162.84 603.386 -200.337 656.744 -248.173 686.735C-266.567 698.311 -287.505 704.283 -304.995 717.693C-324.965 732.924 -338.014 761.866 -349.155 790.107C-351.581 796.298 -361.353 813.928 -360.016 821.045L206.625 1993.48C206.625 1993.48 1887.5 746.418 1891.05 753.602C1894.56 760.712 1853.81 319.439 1853.81 319.439C1771.52 288.633 1659.26 189.421 1460.64 227.555Z" fill="#7EC6FA"/>
</g>
<g filter="url(#filter2_f_42_219)">
<path d="M1534.69 402.849C1456.13 397.52 1365.84 406.147 1288.05 351.046C1224.26 305.93 1172.16 244.571 1105.8 194.978C986.388 105.734 858.229 196.204 778.862 195.911C617.763 195.381 510.995 182.607 348.747 192.353C291.584 195.771 239.419 221.011 192.559 256.035C46.8344 365.243 -11.3344 228.492 -79.296 309.947C-116.644 354.723 -162.298 397.317 -214.136 414.403C-234.077 421.017 -255.563 421.497 -274.927 430.135C-297.024 439.921 -314.656 464.891 -330.305 489.663C-333.719 495.099 -346.243 509.842 -346.132 517.146L-17.8274 1766.46C-17.8274 1766.46 1836.18 977.024 1838.44 984.961C1840.68 992.816 1903.85 593.425 1903.85 593.425C1828.53 542.214 1735.41 416.414 1534.69 402.849Z" fill="#7EC6FA"/>
</g>
<g filter="url(#filter3_f_42_219)">
<path d="M1460.64 227.554C1382.9 242.46 1296.03 274.022 1210.66 240.042C1140.68 212.245 1079.39 165.566 1006.13 134.047C874.311 77.3278 764.157 198.65 686.468 218.689C528.788 259.429 422.197 274.276 265.12 325.362C209.777 343.345 162.992 381.395 123.042 427.657C-1.14407 571.808 -81.0444 452.932 -133.828 550.018C-162.832 603.384 -200.329 656.743 -248.165 686.733C-266.56 698.31 -287.497 704.281 -304.987 717.691C-324.957 732.922 -338.006 761.865 -349.148 790.105C-351.574 796.297 -361.345 813.926 -360.009 821.043L272.88 1950.76C272.88 1950.76 1953.76 703.699 1957.3 710.883C1960.82 717.994 1853.82 319.437 1853.82 319.437C1771.53 288.631 1659.27 189.419 1460.64 227.554Z" fill="#7EC6FA"/>
</g>
</g>
<mask id="mask2_42_219" style="mask-type:alpha" maskUnits="userSpaceOnUse" x="-361" y="146" width="2266" height="1785">
<path d="M1447.4 267.175C1369.65 282.081 1282.78 313.643 1197.42 279.663C1127.43 251.866 1066.14 205.187 992.887 173.668C861.065 116.949 743.725 164.69 666.037 184.729C508.357 225.469 329.128 119.605 172.051 170.691C116.708 188.674 69.9233 226.724 29.9736 272.986C-94.2123 417.137 -81.0471 452.922 -133.83 550.007C-162.835 603.374 -200.332 656.733 -248.168 686.723C-266.563 698.299 -287.5 704.271 -304.99 717.681C-324.96 732.912 -338.009 761.854 -349.15 790.095C-351.576 796.286 -361.348 813.916 -360.012 821.033L220.006 1930.45C220.006 1930.45 1900.88 683.391 1904.43 690.575C1907.94 697.686 1853.82 319.427 1853.82 319.427C1771.52 288.621 1646.02 229.041 1447.4 267.175Z" fill="#4F8BFF"/>
</mask>
<g mask="url(#mask2_42_219)">
<g filter="url(#filter4_f_42_219)">
<path d="M-78.9652 218.41C-78.9652 208.844 -95.5575 147.994 -103.854 118.765L-69.5248 57.4835C89.675 46.8547 414.34 26.195 439.4 28.5865C464.46 30.978 620.913 89.702 696.007 118.765C654.67 130.39 562.382 154.438 523.934 157.627C475.874 161.612 401.209 142.68 254.882 137.698C108.556 132.715 14.1516 235.848 -45.4946 282.681C-105.141 329.514 -78.9652 230.367 -78.9652 218.41Z" fill="#C9E6FE"/>
</g>
</g>
<mask id="mask3_42_219" style="mask-type:alpha" maskUnits="userSpaceOnUse" x="-835" y="143" width="2562" height="937">
<path d="M-834.26 1079.1L1006.43 1060.71L1726.09 686.626L314.012 143.965L-566.478 383.418L-834.26 1079.1Z" fill="black"/>
</mask>
<g mask="url(#mask3_42_219)">
<mask id="mask4_42_219" style="mask-type:alpha" maskUnits="userSpaceOnUse" x="-1144" y="-106" width="2615" height="1327">
<path d="M1360.82 -105.853L1470.09 1159.94L-866.418 1220.61C-963.898 958.325 -1155.74 432.386 -1143.27 426.933C-1130.8 421.479 531.323 69.4699 1360.82 -105.853Z" fill="url(#paint1_linear_42_219)"/>
</mask>
<g mask="url(#mask4_42_219)">
<mask id="mask5_42_219" style="mask-type:alpha" maskUnits="userSpaceOnUse" x="-1123" y="83" width="2525" height="1020">
<path d="M1401.04 914.362C1330.79 557.102 1241.05 101.368 1240.08 83.3742L-1122.45 271.442L-961.496 1102.43L1401.04 914.362Z" fill="url(#paint2_linear_42_219)"/>
</mask>
<g mask="url(#mask5_42_219)">
<path d="M224.127 304.349C38.6205 319.117 -92.5597 459.511 -70.3364 574.246C-48.1131 688.982 56.1445 833.574 255.177 817.73C353.808 809.878 488.419 877.043 594.533 810.579C702.554 742.921 645.12 588.595 633.91 530.717C611.686 415.982 409.634 289.582 224.127 304.349Z" fill="#608BEF"/>
<g filter="url(#filter5_f_42_219)">
<path d="M225.054 306.256C11.8953 323.224 -113.142 477.426 -88.4734 604.784C-63.8052 732.142 48.9906 892.875 262.149 875.906C367.78 867.498 513.167 945.736 626.381 872.324C741.628 797.593 678.935 626.205 666.491 561.959C641.823 434.601 438.213 289.287 225.054 306.256Z" fill="#608BEF"/>
</g>
<g filter="url(#filter6_f_42_219)">
<path d="M221.928 326.045C117.56 283.258 -185.129 495.356 -161.717 616.232C-138.304 737.109 -12.3202 888.154 240.159 868.056C365.275 858.096 535.63 941.21 672.619 869.183C812.069 795.862 743.749 623.517 731.938 562.54C708.525 441.664 352.006 253.928 221.928 326.045Z" fill="#608BEF"/>
</g>
<g filter="url(#filter7_f_42_219)">
<path d="M207.071 375.886C-62.7525 426.112 -261.802 593.96 -235.638 729.04C-209.474 864.12 -41.4569 999.025 225.97 977.736C358.493 967.187 557.369 1100.85 701.789 1021.05C848.803 939.813 776.674 758.482 763.476 690.341C737.312 555.262 519.646 317.702 207.071 375.886Z" fill="#608BEF"/>
</g>
<g filter="url(#filter8_f_42_219)">
<path d="M60.4088 390.487C-114.975 463.44 -499.368 669.622 -472.419 808.754C-445.47 947.887 293.693 980.379 581.642 957.457C724.335 946.098 907.875 985.404 1063.99 902.623C1222.9 818.356 995.461 660.033 815.358 520.809C576.196 335.93 227.756 266.163 60.4088 390.487Z" fill="#608BEF"/>
</g>
<g filter="url(#filter9_f_42_219)">
<path d="M254.012 412.814C-43.5567 436.502 -559.125 774.28 -531.561 916.585C-503.998 1058.89 68.7768 1075.01 366.346 1051.33C513.805 1039.59 930.952 1121.87 1092.42 1037.06C1256.79 950.727 1136.4 849.827 1122.49 778.041C1094.93 635.736 551.581 389.126 254.012 412.814Z" fill="#608BEF"/>
</g>
<g filter="url(#filter10_f_42_219)">
<path d="M254.012 412.814C-43.5567 436.502 -559.125 774.28 -531.561 916.585C-503.998 1058.89 68.7768 1075.01 366.346 1051.33C513.805 1039.59 930.952 1121.87 1092.42 1037.06C1256.79 950.727 1136.4 849.827 1122.49 778.041C1094.93 635.736 551.581 389.126 254.012 412.814Z" fill="#608BEF"/>
</g>
<g filter="url(#filter11_f_42_219)">
<path d="M254.012 412.814C-43.5567 436.502 -559.125 774.28 -531.561 916.585C-503.998 1058.89 68.7768 1075.01 366.346 1051.33C513.805 1039.59 930.952 1121.87 1092.42 1037.06C1256.79 950.727 1136.4 849.827 1122.49 778.041C1094.93 635.736 551.581 389.126 254.012 412.814Z" fill="#608BEF"/>
</g>
<g filter="url(#filter12_f_42_219)">
<path d="M254.012 412.814C-43.5567 436.502 -559.125 774.28 -531.561 916.585C-503.998 1058.89 68.7768 1075.01 366.346 1051.33C513.805 1039.59 930.952 1121.87 1092.42 1037.06C1256.79 950.727 1136.4 849.827 1122.49 778.041C1094.93 635.736 551.581 389.126 254.012 412.814Z" fill="#608BEF"/>
</g>
<g filter="url(#filter13_f_42_219)">
<path d="M219.764 306.677C-40.6089 327.404 -228.439 532.775 -200.876 675.08C-173.313 817.385 -7.46799 960.394 252.905 939.668C381.932 929.396 591.092 948.588 730.661 865.52C872.738 780.96 783.654 629.66 769.749 557.874C742.186 415.569 480.136 285.951 219.764 306.677Z" fill="#608BEF"/>
</g>
</g>
</g>
</g>
<g filter="url(#filter14_f_42_219)">
<ellipse cx="378.114" cy="357.413" rx="378.114" ry="357.413" transform="matrix(0.996927 0.0783479 -0.073731 0.997279 356.922 528.739)" fill="#105C97"/>
</g>
<g filter="url(#filter15_f_42_219)">
<path d="M1716.21 348.325C1791.89 324.206 1937.16 304.486 2151.94 373.896L2186.46 1199.77L-96.7999 1177.45L-146.502 817.132C-206.106 833.21 -179.258 824.343 -146.875 814.43L-146.502 817.132C-117.617 809.341 -68.4295 795.691 10.271 773.463C311.644 688.346 388.572 534.897 460.733 457.164C542.821 368.74 638.034 547.09 771.093 541.099C844.208 537.807 875.477 504.799 961.687 427.486C1047.9 350.173 1111.2 249.414 1319.17 330.427C1527.13 411.441 1640.54 372.444 1716.21 348.325Z" fill="#608BEF"/>
</g>
<g filter="url(#filter16_f_42_219)">
<path d="M1716.21 348.326C1791.89 324.207 1937.15 304.486 2151.93 373.896L2186.92 1193.46L-96.8049 1177.45L-149.711 747.591C-197.787 762.308 -225.085 715.732 17.1822 675.216C325.627 623.633 426.739 507.169 565.234 405.91C689.585 375.234 637.25 528.705 770.31 522.714C843.424 519.423 875.471 504.8 961.682 427.487C1047.89 350.174 1111.19 249.414 1319.16 330.428C1527.13 411.442 1640.53 372.445 1716.21 348.326Z" fill="#608BEF"/>
</g>
<g filter="url(#filter17_f_42_219)">
<path d="M1739.03 400.149C1816.13 381.409 1962.36 371.953 2172.05 456.31L2111.48 1275.54L-124.623 1099.81L-148.96 667.23C-197.898 678.531 -222.05 630.143 22.3332 606.763C333.473 576.997 442.056 467.917 586.93 376.636C713.021 354.778 650.652 504.211 783.798 507.594C856.96 509.452 889.9 497.118 981.025 426.049C1072.15 354.981 1141.97 258.909 1344.1 354.363C1546.22 449.817 1661.93 418.888 1739.03 400.149Z" fill="#608BEF"/>
</g>
<g filter="url(#filter18_f_42_219)">
<path d="M1716.21 348.326C1791.89 324.207 1937.15 304.487 2151.93 373.896L2137.78 1229.97L-82.2321 1124.33L-133.581 731.238C-181.656 745.955 -225.985 705.405 23.5653 690.271C363.028 669.683 387.326 591.848 459.488 514.115C541.575 425.69 638.523 558.774 771.583 552.783C844.697 549.491 875.471 504.8 961.681 427.487C1047.89 350.174 1111.19 249.415 1319.16 330.428C1527.13 411.442 1640.53 372.445 1716.21 348.326Z" fill="#608BEF"/>
</g>
<g filter="url(#filter19_f_42_219)">
<path d="M1716.21 348.325C1791.89 324.206 1937.15 304.486 2151.94 373.896L2090.92 1199.18L-96.8032 1177.45L-142.986 769.373C-202.505 785.427 -175.665 776.563 -143.294 766.654L-142.986 769.373C-114.11 761.584 -64.9076 747.931 13.852 725.687C315.225 640.569 391.611 606.717 463.772 528.984C545.86 440.559 637.252 528.705 770.312 522.714C843.426 519.422 875.473 504.799 961.683 427.486C1047.89 350.173 1111.2 249.414 1319.16 330.428C1527.13 411.441 1640.53 372.444 1716.21 348.325Z" fill="#608BEF"/>
</g>
<path d="M1310.24 119.949C1518.21 200.963 1631.61 161.965 1707.29 137.847L1731.26 1204.95L-164.736 1055.94L-147.093 817.29C-205.936 833.152 -179.158 824.311 -146.882 814.431L-147.093 817.29C-118.289 809.526 -68.9693 795.842 10.2642 773.464C311.638 688.346 387.786 516.512 459.948 438.779C542.035 350.355 628.333 318.226 761.393 312.235C834.507 308.943 866.554 294.321 952.764 217.008C1038.97 139.694 1102.28 38.9352 1310.24 119.949Z" fill="#608BEF"/>
<mask id="mask6_42_219" style="mask-type:alpha" maskUnits="userSpaceOnUse" x="-182" y="90" width="1946" height="942">
<path d="M1310.25 119.947C1518.22 200.961 1631.62 161.964 1707.3 137.845L1763.71 1031L-32.1182 927.987L-144.65 816.631C-206.653 833.39 -179.588 824.444 -146.874 814.43L-144.65 816.631C-115.532 808.761 -66.7715 795.222 10.2715 773.463C311.645 688.345 387.794 516.511 459.955 438.778C542.043 350.353 628.341 318.225 761.4 312.234C834.515 308.942 866.562 294.319 952.772 217.006C1038.98 139.693 1102.28 38.9337 1310.25 119.947Z" fill="url(#paint3_linear_42_219)"/>
</mask>
<g mask="url(#mask6_42_219)">
<g filter="url(#filter20_f_42_219)">
<path d="M1351.78 154.749C1793.32 294.857 1806.26 -3.78317 1928.42 -197.66L1589.9 -233.619C1217.59 -102.725 467.734 169.252 446.815 210.009C420.667 260.954 591.437 285.052 745.976 313.381C869.606 336.045 937.533 257.478 1008.3 185.476C1079.06 113.473 1233.99 93.8837 1351.78 154.749Z" fill="#C9E6FE"/>
</g>
</g>
<mask id="mask7_42_219" style="mask-type:alpha" maskUnits="userSpaceOnUse" x="210" y="33" width="2562" height="936">
<path d="M210.954 968.171L2051.65 949.786L2771.31 575.699L1359.23 33.0376L478.736 272.49L210.954 968.171Z" fill="black"/>
</mask>
<g mask="url(#mask7_42_219)">
<mask id="mask8_42_219" style="mask-type:alpha" maskUnits="userSpaceOnUse" x="-99" y="-217" width="2615" height="1327">
<path d="M2406.04 -216.779L2515.3 1049.02L178.796 1109.69C81.3154 847.4 -110.527 321.461 -98.0561 316.008C-85.5848 310.554 1576.54 -41.4554 2406.04 -216.779Z" fill="url(#paint4_linear_42_219)"/>
</mask>
<g mask="url(#mask8_42_219)">
<mask id="mask9_42_219" style="mask-type:alpha" maskUnits="userSpaceOnUse" x="-78" y="-28" width="2525" height="1020">
<path d="M2446.25 803.438C2376 446.178 2286.26 -9.55588 2285.3 -27.5501L-77.2375 160.518L83.7178 991.506L2446.25 803.438Z" fill="url(#paint5_linear_42_219)"/>
</mask>
<g mask="url(#mask9_42_219)">
<path d="M1255 210.694C1069.49 225.461 938.312 365.856 960.536 480.591C982.759 595.327 1087.02 739.918 1286.05 724.075C1384.68 716.223 1519.29 783.388 1625.41 716.924C1733.43 649.266 1675.99 494.94 1664.78 437.062C1642.56 322.326 1440.51 195.927 1255 210.694Z" fill="#233993"/>
<g filter="url(#filter21_f_42_219)">
<path d="M1255.93 212.6C1042.77 229.569 917.73 383.771 942.399 511.129C967.067 638.487 1079.86 799.219 1293.02 782.251C1398.65 773.842 1544.04 852.08 1657.25 778.669C1772.5 703.938 1709.81 532.55 1697.36 468.304C1672.69 340.946 1469.09 195.632 1255.93 212.6Z" fill="#233993"/>
</g>
<g filter="url(#filter22_f_42_219)">
<path d="M1252.8 232.39C1148.43 189.603 845.743 401.701 869.155 522.577C892.568 643.454 1018.55 794.499 1271.03 774.401C1396.15 764.441 1566.5 847.555 1703.49 775.528C1842.94 702.207 1774.62 529.861 1762.81 468.885C1739.4 348.009 1382.88 160.273 1252.8 232.39Z" fill="#233993"/>
</g>
<g filter="url(#filter23_f_42_219)">
<path d="M1237.94 282.231C968.12 332.457 769.07 500.305 795.234 635.385C821.398 770.464 989.415 905.369 1256.84 884.081C1389.37 873.531 1588.24 1007.19 1732.66 927.392C1879.68 846.158 1807.55 664.827 1794.35 596.686C1768.18 461.606 1550.52 224.046 1237.94 282.231Z" fill="#233993"/>
</g>
<g filter="url(#filter24_f_42_219)">
<path d="M1091.28 296.832C915.897 369.784 531.505 575.966 558.453 715.099C585.402 854.232 1324.57 886.723 1612.51 863.801C1755.21 852.442 1938.75 891.749 2094.86 808.968C2253.77 724.7 2026.33 566.378 1846.23 427.154C1607.07 242.275 1258.63 172.507 1091.28 296.832Z" fill="#233993"/>
</g>
<g filter="url(#filter25_f_42_219)">
<path d="M1284.88 319.159C987.315 342.847 471.748 680.625 499.311 822.93C526.874 965.235 1099.65 981.358 1397.22 957.67C1544.68 945.932 1961.82 1028.22 2123.29 943.407C2287.66 857.072 2167.27 756.172 2153.36 684.386C2125.8 542.081 1582.45 295.471 1284.88 319.159Z" fill="#233993"/>
</g>
<g filter="url(#filter26_f_42_219)">
<path d="M1284.88 319.159C987.315 342.847 471.748 680.625 499.311 822.93C526.874 965.235 1099.65 981.358 1397.22 957.67C1544.68 945.932 1961.82 1028.22 2123.29 943.407C2287.66 857.072 2167.27 756.172 2153.36 684.386C2125.8 542.081 1582.45 295.471 1284.88 319.159Z" fill="#233993"/>
</g>
<g filter="url(#filter27_f_42_219)">
<path d="M1284.88 319.159C987.315 342.847 471.748 680.625 499.311 822.93C526.874 965.235 1099.65 981.358 1397.22 957.67C1544.68 945.932 1961.82 1028.22 2123.29 943.407C2287.66 857.072 2167.27 756.172 2153.36 684.386C2125.8 542.081 1582.45 295.471 1284.88 319.159Z" fill="#233993"/>
</g>
<g filter="url(#filter28_f_42_219)">
<path d="M1284.88 319.159C987.315 342.847 471.748 680.625 499.311 822.93C526.874 965.235 1099.65 981.358 1397.22 957.67C1544.68 945.932 1961.82 1028.22 2123.29 943.407C2287.66 857.072 2167.27 756.172 2153.36 684.386C2125.8 542.081 1582.45 295.471 1284.88 319.159Z" fill="#233993"/>
</g>
<g filter="url(#filter29_f_42_219)">
<path d="M1250.64 213.022C990.263 233.749 802.433 439.119 829.996 581.424C857.56 723.729 1023.4 866.739 1283.78 846.012C1412.8 835.741 1621.96 854.933 1761.53 771.865C1903.61 687.305 1814.53 536.004 1800.62 464.218C1773.06 321.913 1511.01 192.295 1250.64 213.022Z" fill="#233993"/>
</g>
</g>
</g>
</g>
<g filter="url(#filter30_f_42_219)">
<path d="M-403.345 895.177C-258.368 879.036 -243.873 1183.78 308.918 983.318C653.146 792.694 882.119 719.902 1219.27 748.969C1345.02 759.81 1500.91 587.6 1614.19 440.265C1727.46 292.93 1673.11 1346.87 1673.11 1346.87L-463 1648.61L-403.345 895.177Z" fill="#CBDCFB"/>
</g>
<g filter="url(#filter31_f_42_219)">
<path d="M1370.24 656.984C1429.19 641.062 1541.47 630.93 1704.27 691.723L1704.27 1393.74L-50.0651 1393.74L-76.5329 1115.02C-122.862 1125.32 -101.941 1119.43 -76.7314 1112.93L-76.5329 1115.02C-54.0811 1110.03 -15.8354 1101.24 45.3703 1086.88C279.749 1031.88 343.864 902.413 401.851 845.153C467.815 780.018 535.181 758.306 637.634 758.306C693.93 758.306 719.035 748.174 787.805 691.723C856.575 635.272 908.503 560.004 1065.69 629.482C1222.88 698.96 1311.3 672.906 1370.24 656.984Z" fill="white"/>
</g>
<g opacity="0.5" filter="url(#filter32_f_42_219)">
<path d="M250.968 965.739C-36.7572 1086.85 -297.581 1230.04 -322.834 1156.04C-348.087 1082.05 -128.206 818.881 159.519 697.774C447.244 576.667 700.962 538.476 726.215 612.472C751.468 686.469 538.693 844.631 250.968 965.739Z" fill="white"/>
</g>
<g filter="url(#filter33_f_42_219)">
<path d="M-337 1099.8V1568.1H1693.55V615.495L-337 1099.8Z" fill="white"/>
</g>
</g>
<rect x="476" y="657" width="449" height="444" rx="16" fill="white"/>
<g filter="url(#filter34_d_42_219)">
<rect x="775" y="732.788" width="449" height="444" rx="16" transform="rotate(-14.8122 775 732.788)" fill="white"/>
</g>
<g filter="url(#filter35_d_42_219)">
<rect x="122.776" y="629.16" width="449" height="444" rx="16" transform="rotate(7.63417 122.776 629.16)" fill="white"/>
</g>
</g>
<defs>
<filter id="filter0_f_42_219" x="-436.406" y="77.0888" width="2366.5" height="2022.54" filterUnits="userSpaceOnUse" color-interpolation-filters="sRGB">
<feFlood flood-opacity="0" result="BackgroundImageFix"/>
<feBlend mode="normal" in="SourceGraphic" in2="BackgroundImageFix" result="shape"/>
<feGaussianBlur stdDeviation="38.1358" result="effect1_foregroundBlur_42_219"/>
</filter>
<filter id="filter1_f_42_219" x="-507.6" y="-28.7308" width="2546.32" height="2169.67" filterUnits="userSpaceOnUse" color-interpolation-filters="sRGB">
<feFlood flood-opacity="0" result="BackgroundImageFix"/>
<feBlend mode="normal" in="SourceGraphic" in2="BackgroundImageFix" result="shape"/>
<feGaussianBlur stdDeviation="73.7292" result="effect1_foregroundBlur_42_219"/>
</filter>
<filter id="filter2_f_42_219" x="-493.591" y="8.16032" width="2544.9" height="1905.76" filterUnits="userSpaceOnUse" color-interpolation-filters="sRGB">
<feFlood flood-opacity="0" result="BackgroundImageFix"/>
<feBlend mode="normal" in="SourceGraphic" in2="BackgroundImageFix" result="shape"/>
<feGaussianBlur stdDeviation="73.7292" result="effect1_foregroundBlur_42_219"/>
</filter>
<filter id="filter3_f_42_219" x="-527.931" y="-48.7188" width="2653.12" height="2167.28" filterUnits="userSpaceOnUse" color-interpolation-filters="sRGB">
<feFlood flood-opacity="0" result="BackgroundImageFix"/>
<feBlend mode="normal" in="SourceGraphic" in2="BackgroundImageFix" result="shape"/>
<feGaussianBlur stdDeviation="83.8987" result="effect1_foregroundBlur_42_219"/>
</filter>
<filter id="filter4_f_42_219" x="-171.854" y="-39.6045" width="935.861" height="402.771" filterUnits="userSpaceOnUse" color-interpolation-filters="sRGB">
<feFlood flood-opacity="0" result="BackgroundImageFix"/>
<feBlend mode="normal" in="SourceGraphic" in2="BackgroundImageFix" result="shape"/>
<feGaussianBlur stdDeviation="34" result="effect1_foregroundBlur_42_219"/>
</filter>
<filter id="filter5_f_42_219" x="-97.1157" y="299.34" width="797.351" height="610.245" filterUnits="userSpaceOnUse" color-interpolation-filters="sRGB">
<feFlood flood-opacity="0" result="BackgroundImageFix"/>
<feBlend mode="normal" in="SourceGraphic" in2="BackgroundImageFix" result="shape"/>
<feGaussianBlur stdDeviation="2.7792" result="effect1_foregroundBlur_42_219"/>
</filter>
<filter id="filter6_f_42_219" x="-182.457" y="290.567" width="960.962" height="627.724" filterUnits="userSpaceOnUse" color-interpolation-filters="sRGB">
<feFlood flood-opacity="0" result="BackgroundImageFix"/>
<feBlend mode="normal" in="SourceGraphic" in2="BackgroundImageFix" result="shape"/>
<feGaussianBlur stdDeviation="9.7272" result="effect1_foregroundBlur_42_219"/>
</filter>
<filter id="filter7_f_42_219" x="-265.741" y="339.086" width="1086.31" height="735.293" filterUnits="userSpaceOnUse" color-interpolation-filters="sRGB">
<feFlood flood-opacity="0" result="BackgroundImageFix"/>
<feBlend mode="normal" in="SourceGraphic" in2="BackgroundImageFix" result="shape"/>
<feGaussianBlur stdDeviation="13.896" result="effect1_foregroundBlur_42_219"/>
</filter>
<filter id="filter8_f_42_219" x="-548.804" y="252.835" width="1741.49" height="786.373" filterUnits="userSpaceOnUse" color-interpolation-filters="sRGB">
<feFlood flood-opacity="0" result="BackgroundImageFix"/>
<feBlend mode="normal" in="SourceGraphic" in2="BackgroundImageFix" result="shape"/>
<feGaussianBlur stdDeviation="37.5192" result="effect1_foregroundBlur_42_219"/>
</filter>
<filter id="filter9_f_42_219" x="-743.232" y="200.615" width="2131.86" height="1085.9" filterUnits="userSpaceOnUse" color-interpolation-filters="sRGB">
<feFlood flood-opacity="0" result="BackgroundImageFix"/>
<feBlend mode="normal" in="SourceGraphic" in2="BackgroundImageFix" result="shape"/>
<feGaussianBlur stdDeviation="105.305" result="effect1_foregroundBlur_42_219"/>
</filter>
<filter id="filter10_f_42_219" x="-743.232" y="200.615" width="2131.86" height="1085.9" filterUnits="userSpaceOnUse" color-interpolation-filters="sRGB">
<feFlood flood-opacity="0" result="BackgroundImageFix"/>
<feBlend mode="normal" in="SourceGraphic" in2="BackgroundImageFix" result="shape"/>
<feGaussianBlur stdDeviation="105.305" result="effect1_foregroundBlur_42_219"/>
</filter>
<filter id="filter11_f_42_219" x="-743.232" y="200.615" width="2131.86" height="1085.9" filterUnits="userSpaceOnUse" color-interpolation-filters="sRGB">
<feFlood flood-opacity="0" result="BackgroundImageFix"/>
<feBlend mode="normal" in="SourceGraphic" in2="BackgroundImageFix" result="shape"/>
<feGaussianBlur stdDeviation="105.305" result="effect1_foregroundBlur_42_219"/>
</filter>
<filter id="filter12_f_42_219" x="-743.232" y="200.615" width="2131.86" height="1085.9" filterUnits="userSpaceOnUse" color-interpolation-filters="sRGB">
<feFlood flood-opacity="0" result="BackgroundImageFix"/>
<feBlend mode="normal" in="SourceGraphic" in2="BackgroundImageFix" result="shape"/>
<feGaussianBlur stdDeviation="105.305" result="effect1_foregroundBlur_42_219"/>
</filter>
<filter id="filter13_f_42_219" x="-289.715" y="218.332" width="1185.94" height="809.503" filterUnits="userSpaceOnUse" color-interpolation-filters="sRGB">
<feFlood flood-opacity="0" result="BackgroundImageFix"/>
<feBlend mode="normal" in="SourceGraphic" in2="BackgroundImageFix" result="shape"/>
<feGaussianBlur stdDeviation="43.0776" result="effect1_foregroundBlur_42_219"/>
</filter>
<filter id="filter14_f_42_219" x="61.6336" y="289.115" width="1291.78" height="1251.38" filterUnits="userSpaceOnUse" color-interpolation-filters="sRGB">
<feFlood flood-opacity="0" result="BackgroundImageFix"/>
<feBlend mode="normal" in="SourceGraphic" in2="BackgroundImageFix" result="shape"/>
<feGaussianBlur stdDeviation="134" result="effect1_foregroundBlur_42_219"/>
</filter>
<filter id="filter15_f_42_219" x="-240.761" y="241.602" width="2486.11" height="1017.06" filterUnits="userSpaceOnUse" color-interpolation-filters="sRGB">
<feFlood flood-opacity="0" result="BackgroundImageFix"/>
<feBlend mode="normal" in="SourceGraphic" in2="BackgroundImageFix" result="shape"/>
<feGaussianBlur stdDeviation="29.4454" result="effect1_foregroundBlur_42_219"/>
</filter>
<filter id="filter16_f_42_219" x="-274.302" y="208.143" width="2553.57" height="1077.67" filterUnits="userSpaceOnUse" color-interpolation-filters="sRGB">
<feFlood flood-opacity="0" result="BackgroundImageFix"/>
<feBlend mode="normal" in="SourceGraphic" in2="BackgroundImageFix" result="shape"/>
<feGaussianBlur stdDeviation="46.175" result="effect1_foregroundBlur_42_219"/>
</filter>
<filter id="filter17_f_42_219" x="-353.156" y="141.97" width="2697.56" height="1305.92" filterUnits="userSpaceOnUse" color-interpolation-filters="sRGB">
<feFlood flood-opacity="0" result="BackgroundImageFix"/>
<feBlend mode="normal" in="SourceGraphic" in2="BackgroundImageFix" result="shape"/>
<feGaussianBlur stdDeviation="86.175" result="effect1_foregroundBlur_42_219"/>
</filter>
<filter id="filter18_f_42_219" x="-439.196" y="32.2135" width="2859.41" height="1466.04" filterUnits="userSpaceOnUse" color-interpolation-filters="sRGB">
<feFlood flood-opacity="0" result="BackgroundImageFix"/>
<feBlend mode="normal" in="SourceGraphic" in2="BackgroundImageFix" result="shape"/>
<feGaussianBlur stdDeviation="134.14" result="effect1_foregroundBlur_42_219"/>
</filter>
<filter id="filter19_f_42_219" x="-289.527" y="189.255" width="2552.7" height="1121.16" filterUnits="userSpaceOnUse" color-interpolation-filters="sRGB">
<feFlood flood-opacity="0" result="BackgroundImageFix"/>
<feBlend mode="normal" in="SourceGraphic" in2="BackgroundImageFix" result="shape"/>
<feGaussianBlur stdDeviation="55.619" result="effect1_foregroundBlur_42_219"/>
</filter>
<filter id="filter20_f_42_219" x="376.145" y="-301.619" width="1620.28" height="686.972" filterUnits="userSpaceOnUse" color-interpolation-filters="sRGB">
<feFlood flood-opacity="0" result="BackgroundImageFix"/>
<feBlend mode="normal" in="SourceGraphic" in2="BackgroundImageFix" result="shape"/>
<feGaussianBlur stdDeviation="34" result="effect1_foregroundBlur_42_219"/>
</filter>
<filter id="filter21_f_42_219" x="933.756" y="205.684" width="797.351" height="610.245" filterUnits="userSpaceOnUse" color-interpolation-filters="sRGB">
<feFlood flood-opacity="0" result="BackgroundImageFix"/>
<feBlend mode="normal" in="SourceGraphic" in2="BackgroundImageFix" result="shape"/>
<feGaussianBlur stdDeviation="2.7792" result="effect1_foregroundBlur_42_219"/>
</filter>
<filter id="filter22_f_42_219" x="848.415" y="196.912" width="960.962" height="627.724" filterUnits="userSpaceOnUse" color-interpolation-filters="sRGB">
<feFlood flood-opacity="0" result="BackgroundImageFix"/>
<feBlend mode="normal" in="SourceGraphic" in2="BackgroundImageFix" result="shape"/>
<feGaussianBlur stdDeviation="9.7272" result="effect1_foregroundBlur_42_219"/>
</filter>
<filter id="filter23_f_42_219" x="765.131" y="245.431" width="1086.31" height="735.293" filterUnits="userSpaceOnUse" color-interpolation-filters="sRGB">
<feFlood flood-opacity="0" result="BackgroundImageFix"/>
<feBlend mode="normal" in="SourceGraphic" in2="BackgroundImageFix" result="shape"/>
<feGaussianBlur stdDeviation="13.896" result="effect1_foregroundBlur_42_219"/>
</filter>
<filter id="filter24_f_42_219" x="482.068" y="159.18" width="1741.49" height="786.373" filterUnits="userSpaceOnUse" color-interpolation-filters="sRGB">
<feFlood flood-opacity="0" result="BackgroundImageFix"/>
<feBlend mode="normal" in="SourceGraphic" in2="BackgroundImageFix" result="shape"/>
<feGaussianBlur stdDeviation="37.5192" result="effect1_foregroundBlur_42_219"/>
</filter>
<filter id="filter25_f_42_219" x="287.64" y="106.96" width="2131.86" height="1085.9" filterUnits="userSpaceOnUse" color-interpolation-filters="sRGB">
<feFlood flood-opacity="0" result="BackgroundImageFix"/>
<feBlend mode="normal" in="SourceGraphic" in2="BackgroundImageFix" result="shape"/>
<feGaussianBlur stdDeviation="105.305" result="effect1_foregroundBlur_42_219"/>
</filter>
<filter id="filter26_f_42_219" x="287.64" y="106.96" width="2131.86" height="1085.9" filterUnits="userSpaceOnUse" color-interpolation-filters="sRGB">
<feFlood flood-opacity="0" result="BackgroundImageFix"/>
<feBlend mode="normal" in="SourceGraphic" in2="BackgroundImageFix" result="shape"/>
<feGaussianBlur stdDeviation="105.305" result="effect1_foregroundBlur_42_219"/>
</filter>
<filter id="filter27_f_42_219" x="287.64" y="106.96" width="2131.86" height="1085.9" filterUnits="userSpaceOnUse" color-interpolation-filters="sRGB">
<feFlood flood-opacity="0" result="BackgroundImageFix"/>
<feBlend mode="normal" in="SourceGraphic" in2="BackgroundImageFix" result="shape"/>
<feGaussianBlur stdDeviation="105.305" result="effect1_foregroundBlur_42_219"/>
</filter>
<filter id="filter28_f_42_219" x="287.64" y="106.96" width="2131.86" height="1085.9" filterUnits="userSpaceOnUse" color-interpolation-filters="sRGB">
<feFlood flood-opacity="0" result="BackgroundImageFix"/>
<feBlend mode="normal" in="SourceGraphic" in2="BackgroundImageFix" result="shape"/>
<feGaussianBlur stdDeviation="105.305" result="effect1_foregroundBlur_42_219"/>
</filter>
<filter id="filter29_f_42_219" x="741.157" y="124.676" width="1185.94" height="809.503" filterUnits="userSpaceOnUse" color-interpolation-filters="sRGB">
<feFlood flood-opacity="0" result="BackgroundImageFix"/>
<feBlend mode="normal" in="SourceGraphic" in2="BackgroundImageFix" result="shape"/>
<feGaussianBlur stdDeviation="43.0776" result="effect1_foregroundBlur_42_219"/>
</filter>
<filter id="filter30_f_42_219" x="-731" y="158.141" width="2685.14" height="1758.47" filterUnits="userSpaceOnUse" color-interpolation-filters="sRGB">
<feFlood flood-opacity="0" result="BackgroundImageFix"/>
<feBlend mode="normal" in="SourceGraphic" in2="BackgroundImageFix" result="shape"/>
<feGaussianBlur stdDeviation="134" result="effect1_foregroundBlur_42_219"/>
</filter>
<filter id="filter31_f_42_219" x="-387.31" y="318.253" width="2374.89" height="1358.8" filterUnits="userSpaceOnUse" color-interpolation-filters="sRGB">
<feFlood flood-opacity="0" result="BackgroundImageFix"/>
<feBlend mode="normal" in="SourceGraphic" in2="BackgroundImageFix" result="shape"/>
<feGaussianBlur stdDeviation="141.655" result="effect1_foregroundBlur_42_219"/>
</filter>
<filter id="filter32_f_42_219" x="-484.81" y="414.743" width="1373.06" height="921.597" filterUnits="userSpaceOnUse" color-interpolation-filters="sRGB">
<feFlood flood-opacity="0" result="BackgroundImageFix"/>
<feBlend mode="normal" in="SourceGraphic" in2="BackgroundImageFix" result="shape"/>
<feGaussianBlur stdDeviation="80" result="effect1_foregroundBlur_42_219"/>
</filter>
<filter id="filter33_f_42_219" x="-620.31" y="332.185" width="2597.17" height="1519.23" filterUnits="userSpaceOnUse" color-interpolation-filters="sRGB">
<feFlood flood-opacity="0" result="BackgroundImageFix"/>
<feBlend mode="normal" in="SourceGraphic" in2="BackgroundImageFix" result="shape"/>
<feGaussianBlur stdDeviation="141.655" result="effect1_foregroundBlur_42_219"/>
</filter>
<filter id="filter34_d_42_219" x="727" y="602" width="643.589" height="640.033" filterUnits="userSpaceOnUse" color-interpolation-filters="sRGB">
<feFlood flood-opacity="0" result="BackgroundImageFix"/>
<feColorMatrix in="SourceAlpha" type="matrix" values="0 0 0 0 0 0 0 0 0 0 0 0 0 0 0 0 0 0 127 0" result="hardAlpha"/>
<feMorphology radius="16" operator="erode" in="SourceAlpha" result="effect1_dropShadow_42_219"/>
<feOffset dy="32"/>
<feGaussianBlur stdDeviation="32"/>
<feColorMatrix type="matrix" values="0 0 0 0 0.0625882 0 0 0 0 0.0926346 0 0 0 0 0.15702 0 0 0 0.14 0"/>
<feBlend mode="normal" in2="BackgroundImageFix" result="effect1_dropShadow_42_219"/>
<feBlend mode="normal" in="SourceGraphic" in2="effect1_dropShadow_42_219" result="shape"/>
</filter>
<filter id="filter35_d_42_219" x="15.7921" y="613.16" width="600.005" height="595.713" filterUnits="userSpaceOnUse" color-interpolation-filters="sRGB">
<feFlood flood-opacity="0" result="BackgroundImageFix"/>
<feColorMatrix in="SourceAlpha" type="matrix" values="0 0 0 0 0 0 0 0 0 0 0 0 0 0 0 0 0 0 127 0" result="hardAlpha"/>
<feMorphology radius="16" operator="erode" in="SourceAlpha" result="effect1_dropShadow_42_219"/>
<feOffset dy="32"/>
<feGaussianBlur stdDeviation="32"/>
<feColorMatrix type="matrix" values="0 0 0 0 0.0625882 0 0 0 0 0.0926346 0 0 0 0 0.15702 0 0 0 0.14 0"/>
<feBlend mode="normal" in2="BackgroundImageFix" result="effect1_dropShadow_42_219"/>
<feBlend mode="normal" in="SourceGraphic" in2="effect1_dropShadow_42_219" result="shape"/>
</filter>
<linearGradient id="paint0_linear_42_219" x1="-27.0558" y1="827.786" x2="1837.19" y2="788.207" gradientUnits="userSpaceOnUse">
<stop offset="0.12882" stop-color="#C4C4C4" stop-opacity="0"/>
<stop offset="0.496484" stop-color="#C4C4C4"/>
<stop offset="0.606591" stop-color="#C4C4C4"/>
<stop offset="1" stop-color="#C4C4C4" stop-opacity="0"/>
</linearGradient>
<linearGradient id="paint1_linear_42_219" x1="1346.81" y1="689.308" x2="-626.638" y2="1284.93" gradientUnits="userSpaceOnUse">
<stop stop-color="#C4C4C4" stop-opacity="0"/>
<stop offset="0.430547" stop-color="#C4C4C4"/>
<stop offset="0.498519" stop-color="#C4C4C4"/>
<stop offset="1" stop-color="#C4C4C4" stop-opacity="0"/>
</linearGradient>
<linearGradient id="paint2_linear_42_219" x1="229.721" y1="323.693" x2="251.951" y2="1015.12" gradientUnits="userSpaceOnUse">
<stop stop-color="#C4C4C4"/>
<stop offset="1" stop-color="#C4C4C4" stop-opacity="0"/>
</linearGradient>
<linearGradient id="paint3_linear_42_219" x1="2108.59" y1="385.258" x2="274.964" y2="631.383" gradientUnits="userSpaceOnUse">
<stop stop-color="#CD2F8D"/>
<stop offset="0.536458" stop-color="#F72D55"/>
<stop offset="1" stop-color="#FF974D"/>
</linearGradient>
<linearGradient id="paint4_linear_42_219" x1="2392.02" y1="578.383" x2="418.575" y2="1174.01" gradientUnits="userSpaceOnUse">
<stop stop-color="#C4C4C4" stop-opacity="0"/>
<stop offset="0.430547" stop-color="#C4C4C4"/>
<stop offset="0.498519" stop-color="#C4C4C4"/>
<stop offset="1" stop-color="#C4C4C4" stop-opacity="0"/>
</linearGradient>
<linearGradient id="paint5_linear_42_219" x1="1274.94" y1="212.769" x2="1297.16" y2="904.199" gradientUnits="userSpaceOnUse">
<stop stop-color="#C4C4C4"/>
<stop offset="1" stop-color="#C4C4C4" stop-opacity="0"/>
</linearGradient>
<clipPath id="clip0_42_219">
<rect width="1406" height="964" rx="24" fill="white"/>
</clipPath>
</defs>
</svg>
