<svg width="92" height="32" viewBox="0 0 92 32" fill="none" xmlns="http://www.w3.org/2000/svg">
<g clip-path="url(#clip0_66_685)">
<path fill-rule="evenodd" clip-rule="evenodd" d="M16.5144 31.4513C25.1995 31.4513 32.24 24.4107 32.24 15.7257C32.24 7.04062 25.1995 0 16.5144 0C7.82931 0 0.788696 7.04062 0.788696 15.7257C0.788696 24.4107 7.82931 31.4513 16.5144 31.4513ZM18.9416 12.1501C20.2821 10.8096 20.2821 8.63622 18.9416 7.29566C17.6011 5.95514 15.4277 5.95514 14.0872 7.29566C12.7467 8.63622 12.7467 10.8096 14.0872 12.1501L16.5144 14.5773L18.9416 12.1501ZM20.09 18.1529C21.4305 19.4935 23.6039 19.4935 24.9444 18.1529C26.2849 16.8124 26.2849 14.639 24.9444 13.2985C23.6039 11.958 21.4305 11.958 20.09 13.2985L17.6628 15.7257L20.09 18.1529ZM18.9416 24.1557C20.2821 22.8152 20.2821 20.6418 18.9416 19.3013L16.5144 16.8741L14.0872 19.3013C12.7467 20.6418 12.7467 22.8152 14.0872 24.1557C15.4277 25.4963 17.6011 25.4963 18.9416 24.1557ZM8.08433 18.1529C6.74384 16.8124 6.74384 14.639 8.08433 13.2985C9.42492 11.958 11.5983 11.958 12.9388 13.2985L15.366 15.7257L12.9388 18.1529C11.5983 19.4935 9.42492 19.4935 8.08433 18.1529Z" fill="#77788C"/>
<path d="M47.5175 23.9189C46.7627 23.9189 46.0944 23.7695 45.5125 23.4707C44.9464 23.1562 44.4825 22.7001 44.1208 22.1025C43.7591 21.4892 43.5075 20.7344 43.366 19.838H43.0121L42.965 23.5886H39.7805V18.0925V6.77002H43.5783V10.7329C43.5783 11.126 43.5547 11.5428 43.5075 11.9831C43.4603 12.4234 43.3974 12.8873 43.3188 13.3748C43.2402 13.8466 43.1458 14.3419 43.0357 14.8609H43.4839C43.6726 13.9488 43.9478 13.2018 44.3095 12.62C44.6712 12.0224 45.1272 11.5742 45.6776 11.2754C46.228 10.9766 46.8728 10.8272 47.6119 10.8272C48.6026 10.8272 49.4597 11.0867 50.183 11.6057C50.9222 12.1089 51.4961 12.848 51.905 13.823C52.3139 14.7822 52.5183 15.9617 52.5183 17.3613C52.5183 18.7608 52.306 19.9481 51.8814 20.9231C51.4726 21.8981 50.8907 22.6451 50.1359 23.164C49.3968 23.6672 48.524 23.9189 47.5175 23.9189ZM46.1258 20.8524C46.629 20.8524 47.0615 20.7108 47.4232 20.4278C47.8006 20.129 48.0837 19.7201 48.2724 19.2012C48.4768 18.6665 48.579 18.0689 48.579 17.4084C48.579 16.7165 48.4847 16.1111 48.296 15.5921C48.1073 15.0732 47.8321 14.6643 47.4704 14.3655C47.1244 14.0667 46.692 13.9173 46.173 13.9173C45.8742 13.9173 45.5912 13.9724 45.3238 14.0825C45.0565 14.1925 44.8127 14.3498 44.5926 14.5542C44.3881 14.7429 44.2073 14.971 44.05 15.2383C43.8928 15.5056 43.7748 15.8044 43.6962 16.1347C43.6176 16.4649 43.5783 16.8109 43.5783 17.1726V17.55C43.5783 17.9746 43.6333 18.3834 43.7434 18.7766C43.8535 19.1697 44.0107 19.5235 44.2152 19.838C44.4353 20.1526 44.7027 20.4042 45.0172 20.5929C45.3317 20.7659 45.7012 20.8524 46.1258 20.8524ZM56.8131 23.9189C56.1211 23.9189 55.5 23.7931 54.9496 23.5414C54.4149 23.2898 53.9824 22.9124 53.6522 22.4092C53.3377 21.8903 53.1804 21.2455 53.1804 20.4749C53.1804 19.6415 53.3613 18.9731 53.723 18.4699C54.1004 17.9667 54.58 17.5814 55.1619 17.3141C55.7594 17.031 56.3806 16.8266 57.0254 16.7008C57.6858 16.575 58.307 16.4649 58.8889 16.3705C59.4864 16.2762 59.9503 16.1897 60.2806 16.1111C60.6265 16.0324 60.8703 15.9145 61.0118 15.7572C61.1691 15.6 61.2477 15.3955 61.2477 15.1439C61.2477 14.8609 61.1769 14.6171 61.0354 14.4127C60.9096 14.1925 60.713 14.0274 60.4457 13.9173C60.1784 13.7915 59.8481 13.7286 59.455 13.7286C59.0461 13.7286 58.6608 13.7994 58.2991 13.9409C57.9532 14.0825 57.6544 14.3105 57.4028 14.625C57.1669 14.9238 57.0096 15.3169 56.931 15.8044L53.5814 15.0732C53.7072 14.3026 53.951 13.65 54.3127 13.1153C54.6744 12.5649 55.1226 12.1167 55.6572 11.7708C56.1919 11.4248 56.7816 11.1811 57.4264 11.0395C58.0868 10.8823 58.7866 10.8037 59.5257 10.8037C60.4693 10.8037 61.2792 10.9216 61.9554 11.1575C62.6473 11.3934 63.2134 11.7551 63.6537 12.2426C64.1098 12.7143 64.44 13.3119 64.6445 14.0353C64.8646 14.7587 64.9747 15.6078 64.9747 16.5828V18.5879C64.9747 19.1383 64.9826 19.6965 64.9983 20.2626C65.014 20.813 65.0297 21.3634 65.0455 21.9138C65.0769 22.4642 65.1162 23.0225 65.1634 23.5886H61.8374C61.7902 23.1483 61.7431 22.6687 61.6959 22.1497C61.6644 21.6151 61.6409 21.0568 61.6251 20.4749H61.2713C61.114 21.1197 60.8231 21.7015 60.3985 22.2205C59.9897 22.7394 59.4786 23.1562 58.8653 23.4707C58.2677 23.7695 57.5836 23.9189 56.8131 23.9189ZM58.4643 21.2062C58.7316 21.2062 59.0147 21.159 59.3134 21.0647C59.6122 20.9546 59.8953 20.7973 60.1626 20.5929C60.43 20.3885 60.6659 20.129 60.8703 19.8145C61.0747 19.4999 61.2163 19.1304 61.2949 18.7058L61.2713 17.2905L61.8138 17.3377C61.5779 17.5421 61.2949 17.6994 60.9646 17.8094C60.6344 17.9195 60.2806 18.0139 59.9032 18.0925C59.5415 18.1554 59.1798 18.2262 58.8181 18.3048C58.4564 18.3677 58.1262 18.4542 57.8274 18.5643C57.5443 18.6744 57.3163 18.8237 57.1433 19.0125C56.986 19.2012 56.9074 19.4685 56.9074 19.8145C56.9074 20.2391 57.049 20.5772 57.332 20.8288C57.6308 21.0804 58.0082 21.2062 58.4643 21.2062ZM71.843 23.9189C71.0096 23.9189 70.2469 23.8402 69.5549 23.683C68.863 23.5257 68.2576 23.2977 67.7386 22.9989C67.2354 22.6844 66.8265 22.2913 66.512 21.8195C66.2132 21.3477 66.0324 20.7973 65.9695 20.1683L68.9888 19.2483C69.0675 19.61 69.2326 19.9403 69.4842 20.2391C69.7358 20.5378 70.0739 20.7737 70.4985 20.9467C70.9231 21.104 71.442 21.1826 72.0553 21.1826C72.6372 21.1826 73.1011 21.0961 73.4471 20.9231C73.8087 20.7501 73.9896 20.4828 73.9896 20.1211C73.9896 19.8852 73.9031 19.6965 73.7301 19.555C73.5571 19.4135 73.2819 19.2877 72.9045 19.1776C72.5271 19.0518 72.0396 18.926 71.442 18.8002C70.7816 18.6429 70.1368 18.4778 69.5078 18.3048C68.8787 18.1161 68.3126 17.8802 67.8094 17.5971C67.3062 17.2984 66.9052 16.9209 66.6064 16.4649C66.3076 16.0089 66.1582 15.4349 66.1582 14.7429C66.1582 13.9409 66.3705 13.249 66.7951 12.6671C67.2354 12.0853 67.8566 11.6293 68.6586 11.299C69.4763 10.9688 70.4513 10.8037 71.5836 10.8037C72.59 10.8037 73.4942 10.9452 74.2962 11.2282C75.0982 11.4956 75.7509 11.9123 76.2541 12.4784C76.773 13.0288 77.0797 13.7286 77.174 14.5778L74.0604 15.3798C74.0289 15.0024 73.9031 14.68 73.6829 14.4127C73.4628 14.1296 73.1719 13.9173 72.8102 13.7758C72.4485 13.6185 72.0239 13.5399 71.5364 13.5399C70.9545 13.5399 70.4985 13.6421 70.1682 13.8466C69.8537 14.0353 69.6965 14.279 69.6965 14.5778C69.6965 14.8294 69.7987 15.0417 70.0031 15.2147C70.2233 15.372 70.5378 15.5056 70.9467 15.6157C71.3555 15.7258 71.8588 15.8516 72.4563 15.9931C73.0539 16.1032 73.6436 16.2447 74.2255 16.4177C74.8231 16.5907 75.3734 16.8187 75.8767 17.1018C76.3799 17.3691 76.7809 17.7387 77.0797 18.2104C77.3785 18.6665 77.5279 19.2483 77.5279 19.956C77.5279 20.758 77.3077 21.4578 76.8674 22.0554C76.4271 22.6529 75.7823 23.1169 74.9331 23.4471C74.0997 23.7616 73.0696 23.9189 71.843 23.9189ZM84.6506 23.9189C83.5655 23.9189 82.6141 23.7695 81.7964 23.4707C80.9944 23.1719 80.3181 22.7473 79.7677 22.1969C79.2333 21.6308 78.8244 20.9624 78.5414 20.1919C78.274 19.4213 78.1404 18.5564 78.1404 17.5971C78.1404 16.6536 78.274 15.7651 78.5414 14.9316C78.8087 14.0982 79.2019 13.3748 79.7206 12.7615C80.2552 12.1482 80.9157 11.6686 81.702 11.3226C82.4883 10.9766 83.3847 10.8037 84.3911 10.8037C85.4133 10.8037 86.3018 10.9766 87.0566 11.3226C87.8272 11.6528 88.4562 12.1403 88.9437 12.7851C89.4312 13.4298 89.7693 14.2004 89.958 15.0968C90.1624 15.9774 90.2096 16.9681 90.0995 18.0689L80.5933 18.1633V16.1582L87.6699 16.0639L86.632 17.0782C86.7264 16.3234 86.687 15.7022 86.5141 15.2147C86.3411 14.7115 86.0737 14.3419 85.7121 14.106C85.3504 13.8544 84.9258 13.7286 84.4383 13.7286C83.8722 13.7286 83.3925 13.878 82.9994 14.1768C82.6062 14.4756 82.3074 14.9081 82.103 15.4742C81.8986 16.0246 81.7964 16.7008 81.7964 17.5028C81.7964 18.7766 82.048 19.7044 82.5512 20.2862C83.0701 20.8681 83.7699 21.159 84.6506 21.159C85.0594 21.159 85.3975 21.104 85.6649 20.9939C85.9322 20.8838 86.1524 20.7423 86.3254 20.5693C86.4983 20.3806 86.6241 20.1683 86.7028 19.9324C86.7971 19.6965 86.86 19.4528 86.8915 19.2012L90.2646 19.7437C90.2017 20.3098 90.0523 20.8445 89.8165 21.3477C89.5963 21.8352 89.2582 22.2755 88.8021 22.6687C88.3618 23.0461 87.8036 23.3527 87.1274 23.5886C86.4512 23.8088 85.6256 23.9189 84.6506 23.9189Z" fill="#77788C"/>
</g>
<defs>
<clipPath id="clip0_66_685">
<rect width="90.4226" height="31.4513" fill="white" transform="translate(0.788696)"/>
</clipPath>
</defs>
</svg>
