<svg width="919" height="338" viewBox="0 0 919 338" fill="none" xmlns="http://www.w3.org/2000/svg">
<rect x="0.5" y="0.5" width="918" height="364" rx="15.5" fill="white"/>
<rect x="0.5" y="0.5" width="918" height="364" rx="15.5" stroke="#E2E8F0"/>
<rect x="20.5" y="27.5" width="23" height="23" rx="7.5" fill="white"/>
<rect x="20.5" y="27.5" width="23" height="23" rx="7.5" stroke="#E2E8F0"/>
<path d="M33.3333 33.0481C33.993 33.4289 34.5635 33.9466 35.0064 34.5663C35.4492 35.1861 35.7542 35.8935 35.9007 36.641C36.0472 37.3885 36.032 38.1587 35.8559 38.8998C35.6798 39.6409 35.3471 40.3357 34.88 40.9374L38.4713 44.5287C38.5928 44.6545 38.66 44.8229 38.6584 44.9977C38.6569 45.1725 38.5868 45.3397 38.4632 45.4633C38.3396 45.5869 38.1724 45.657 37.9976 45.6585C37.8228 45.66 37.6544 45.5928 37.5287 45.4714L33.9367 41.8801C33.1483 42.4919 32.2041 42.8703 31.2113 42.9722C30.2186 43.0742 29.2172 42.8955 28.3209 42.4566C27.4247 42.0177 26.6696 41.3361 26.1414 40.4894C25.6133 39.6426 25.3333 38.6647 25.3333 37.6667L25.3367 37.4767C25.3695 36.5572 25.6396 35.6618 26.1208 34.8776C26.6019 34.0934 27.2778 33.447 28.0827 33.0012C28.8876 32.5555 29.7941 32.3255 30.7142 32.3337C31.6342 32.3419 32.5365 32.588 33.3333 33.0481ZM32 35.0001H30.3333C29.8913 35.0001 29.4674 35.1757 29.1548 35.4882C28.8423 35.8008 28.6667 36.2247 28.6667 36.6667C28.6667 37.1088 28.8423 37.5327 29.1548 37.8452C29.4674 38.1578 29.8913 38.3334 30.3333 38.3334H31C31.0884 38.3334 31.1732 38.3685 31.2357 38.431C31.2982 38.4935 31.3333 38.5783 31.3333 38.6667C31.3333 38.7551 31.2982 38.8399 31.2357 38.9024C31.1732 38.9649 31.0884 39.0001 31 39.0001H29.3333C29.1565 39.0001 28.9869 39.0703 28.8619 39.1953C28.7369 39.3203 28.6667 39.4899 28.6667 39.6667C28.6667 39.8435 28.7369 40.0131 28.8619 40.1381C28.9869 40.2632 29.1565 40.3334 29.3333 40.3334H31C31.442 40.3334 31.8659 40.1578 32.1785 39.8452C32.4911 39.5327 32.6667 39.1088 32.6667 38.6667C32.6667 38.2247 32.4911 37.8008 32.1785 37.4882C31.8659 37.1757 31.442 37.0001 31 37.0001H30.3333C30.2449 37.0001 30.1601 36.9649 30.0976 36.9024C30.0351 36.8399 30 36.7551 30 36.6667C30 36.5783 30.0351 36.4935 30.0976 36.431C30.1601 36.3685 30.2449 36.3334 30.3333 36.3334H32C32.1768 36.3334 32.3464 36.2632 32.4714 36.1381C32.5964 36.0131 32.6667 35.8435 32.6667 35.6667C32.6667 35.4899 32.5964 35.3203 32.4714 35.1953C32.3464 35.0703 32.1768 35.0001 32 35.0001Z" fill="#2563EB"/>
<path d="M52.98 35V24.92H56.942C57.5813 24.92 58.118 25.0507 58.552 25.312C58.986 25.5733 59.3127 25.9117 59.532 26.327C59.7513 26.7377 59.861 27.1717 59.861 27.629C59.861 28.1843 59.7233 28.6603 59.448 29.057C59.1773 29.4537 58.811 29.7243 58.349 29.869L58.335 29.526C58.979 29.6847 59.4737 29.995 59.819 30.457C60.1643 30.9143 60.337 31.4487 60.337 32.06C60.337 32.6527 60.218 33.1683 59.98 33.607C59.7467 34.0457 59.4037 34.3887 58.951 34.636C58.503 34.8787 57.9593 35 57.32 35H52.98ZM54.464 33.607H57.096C57.4273 33.607 57.7237 33.544 57.985 33.418C58.251 33.292 58.4587 33.1123 58.608 32.879C58.762 32.641 58.839 32.3587 58.839 32.032C58.839 31.7287 58.7713 31.4557 58.636 31.213C58.5053 30.9657 58.314 30.772 58.062 30.632C57.8147 30.4873 57.523 30.415 57.187 30.415H54.464V33.607ZM54.464 29.036H56.921C57.1917 29.036 57.4343 28.9823 57.649 28.875C57.8683 28.763 58.041 28.6043 58.167 28.399C58.2977 28.189 58.363 27.937 58.363 27.643C58.363 27.251 58.2323 26.929 57.971 26.677C57.7097 26.425 57.3597 26.299 56.921 26.299H54.464V29.036ZM61.73 35V27.44H63.032V29.274L62.85 29.036C62.9433 28.7933 63.0647 28.5717 63.214 28.371C63.3633 28.1657 63.536 27.9977 63.732 27.867C63.9233 27.727 64.1357 27.6197 64.369 27.545C64.607 27.4657 64.8497 27.419 65.097 27.405C65.3443 27.3863 65.5823 27.398 65.811 27.44V28.812C65.5637 28.7467 65.2883 28.728 64.985 28.756C64.6863 28.784 64.411 28.8797 64.159 29.043C63.921 29.197 63.732 29.3837 63.592 29.603C63.4567 29.8223 63.3587 30.0673 63.298 30.338C63.2373 30.604 63.207 30.8863 63.207 31.185V35H61.73ZM69.0603 35.21C68.5003 35.21 68.0313 35.1073 67.6533 34.902C67.2753 34.692 66.9883 34.4167 66.7923 34.076C66.601 33.7307 66.5053 33.3527 66.5053 32.942C66.5053 32.5593 66.573 32.2233 66.7083 31.934C66.8436 31.6447 67.0443 31.3997 67.3103 31.199C67.5763 30.9937 67.903 30.828 68.2903 30.702C68.6263 30.604 69.0066 30.5177 69.4313 30.443C69.856 30.3683 70.3016 30.2983 70.7683 30.233C71.2396 30.1677 71.7063 30.1023 72.1683 30.037L71.6363 30.331C71.6456 29.7383 71.5196 29.2997 71.2583 29.015C71.0016 28.7257 70.5583 28.581 69.9283 28.581C69.5316 28.581 69.1676 28.6743 68.8363 28.861C68.505 29.043 68.274 29.3463 68.1433 29.771L66.7783 29.351C66.965 28.7023 67.3196 28.1867 67.8423 27.804C68.3696 27.4213 69.0696 27.23 69.9423 27.23C70.619 27.23 71.207 27.3467 71.7063 27.58C72.2103 27.8087 72.579 28.1727 72.8123 28.672C72.9336 28.9193 73.0083 29.1807 73.0363 29.456C73.0643 29.7313 73.0783 30.0277 73.0783 30.345V35H71.7833V33.271L72.0353 33.495C71.7226 34.0737 71.3236 34.5053 70.8383 34.79C70.3576 35.07 69.765 35.21 69.0603 35.21ZM69.3193 34.013C69.7346 34.013 70.0916 33.9407 70.3903 33.796C70.689 33.6467 70.9293 33.4577 71.1113 33.229C71.2933 33.0003 71.4123 32.7623 71.4683 32.515C71.5476 32.291 71.592 32.039 71.6013 31.759C71.6153 31.479 71.6223 31.255 71.6223 31.087L72.0983 31.262C71.6363 31.332 71.2163 31.395 70.8383 31.451C70.4603 31.507 70.1173 31.563 69.8093 31.619C69.506 31.6703 69.2353 31.7333 68.9973 31.808C68.7966 31.878 68.617 31.962 68.4583 32.06C68.3043 32.158 68.1806 32.277 68.0873 32.417C67.9986 32.557 67.9543 32.7273 67.9543 32.928C67.9543 33.124 68.0033 33.306 68.1013 33.474C68.1993 33.6373 68.3486 33.768 68.5493 33.866C68.75 33.964 69.0066 34.013 69.3193 34.013ZM80.202 35V31.283C80.202 30.989 80.1763 30.688 80.125 30.38C80.0783 30.0673 79.985 29.778 79.845 29.512C79.7097 29.246 79.516 29.0313 79.264 28.868C79.0167 28.7047 78.6923 28.623 78.291 28.623C78.0297 28.623 77.7823 28.6673 77.549 28.756C77.3157 28.84 77.1103 28.9777 76.933 29.169C76.7603 29.3603 76.6227 29.6123 76.52 29.925C76.422 30.2377 76.373 30.618 76.373 31.066L75.463 30.723C75.463 30.037 75.5913 29.4327 75.848 28.91C76.1047 28.3827 76.4733 27.972 76.954 27.678C77.4347 27.384 78.0157 27.237 78.697 27.237C79.2197 27.237 79.6583 27.321 80.013 27.489C80.3677 27.657 80.6547 27.8787 80.874 28.154C81.098 28.4247 81.2683 28.721 81.385 29.043C81.5017 29.365 81.581 29.68 81.623 29.988C81.665 30.296 81.686 30.5667 81.686 30.8V35H80.202ZM74.889 35V27.44H76.198V29.624H76.373V35H74.889ZM86.4166 35.21C85.7119 35.21 85.1029 35.035 84.5896 34.685C84.0809 34.335 83.6866 33.859 83.4066 33.257C83.1313 32.6503 82.9936 31.969 82.9936 31.213C82.9936 30.4523 83.1336 29.7733 83.4136 29.176C83.6936 28.574 84.0903 28.1003 84.6036 27.755C85.1216 27.405 85.7353 27.23 86.4446 27.23C87.1586 27.23 87.7583 27.405 88.2436 27.755C88.7336 28.1003 89.1023 28.574 89.3496 29.176C89.6016 29.778 89.7276 30.457 89.7276 31.213C89.7276 31.969 89.6016 32.648 89.3496 33.25C89.0976 33.852 88.7266 34.3303 88.2366 34.685C87.7466 35.035 87.1399 35.21 86.4166 35.21ZM86.6196 33.887C87.1003 33.887 87.4923 33.7727 87.7956 33.544C88.0989 33.3153 88.3206 33.0003 88.4606 32.599C88.6006 32.1977 88.6706 31.7357 88.6706 31.213C88.6706 30.6903 88.5983 30.2283 88.4536 29.827C88.3136 29.4257 88.0943 29.113 87.7956 28.889C87.5016 28.665 87.1259 28.553 86.6686 28.553C86.1833 28.553 85.7843 28.672 85.4716 28.91C85.1589 29.148 84.9256 29.4677 84.7716 29.869C84.6223 30.2703 84.5476 30.7183 84.5476 31.213C84.5476 31.7123 84.6223 32.165 84.7716 32.571C84.9256 32.9723 85.1543 33.292 85.4576 33.53C85.7656 33.768 86.1529 33.887 86.6196 33.887ZM88.6706 35V29.561H88.5026V24.92H89.9726V35H88.6706ZM94.7339 35V24.92H96.0569L99.7109 32.501L103.344 24.92H104.681V34.993H103.295V28.098L100.04 35H99.3749L96.1129 28.098V35H94.7339ZM109.995 35.21C109.244 35.21 108.583 35.0467 108.014 34.72C107.449 34.3887 107.008 33.929 106.691 33.341C106.378 32.7483 106.222 32.0623 106.222 31.283C106.222 30.457 106.376 29.7407 106.684 29.134C106.997 28.5273 107.431 28.0583 107.986 27.727C108.541 27.3957 109.188 27.23 109.925 27.23C110.695 27.23 111.351 27.4097 111.892 27.769C112.433 28.1237 112.837 28.63 113.103 29.288C113.374 29.946 113.481 30.7277 113.425 31.633H111.962V31.101C111.953 30.2237 111.785 29.575 111.458 29.155C111.136 28.735 110.644 28.525 109.981 28.525C109.248 28.525 108.698 28.756 108.329 29.218C107.96 29.68 107.776 30.3473 107.776 31.22C107.776 32.0507 107.96 32.6947 108.329 33.152C108.698 33.6047 109.23 33.831 109.925 33.831C110.382 33.831 110.777 33.7283 111.108 33.523C111.444 33.313 111.705 33.0143 111.892 32.627L113.327 33.082C113.033 33.7587 112.587 34.2837 111.99 34.657C111.393 35.0257 110.728 35.21 109.995 35.21ZM107.3 31.633V30.492H112.697V31.633H107.3ZM120.097 35V31.283C120.097 30.989 120.071 30.688 120.02 30.38C119.973 30.0673 119.88 29.778 119.74 29.512C119.604 29.246 119.411 29.0313 119.159 28.868C118.911 28.7047 118.587 28.623 118.186 28.623C117.924 28.623 117.677 28.6673 117.444 28.756C117.21 28.84 117.005 28.9777 116.828 29.169C116.655 29.3603 116.517 29.6123 116.415 29.925C116.317 30.2377 116.268 30.618 116.268 31.066L115.358 30.723C115.358 30.037 115.486 29.4327 115.743 28.91C115.999 28.3827 116.368 27.972 116.849 27.678C117.329 27.384 117.91 27.237 118.592 27.237C119.114 27.237 119.553 27.321 119.908 27.489C120.262 27.657 120.549 27.8787 120.769 28.154C120.993 28.4247 121.163 28.721 121.28 29.043C121.396 29.365 121.476 29.68 121.518 29.988C121.56 30.296 121.581 30.5667 121.581 30.8V35H120.097ZM114.784 35V27.44H116.093V29.624H116.268V35H114.784ZM127.73 35C127.254 35.0933 126.787 35.133 126.33 35.119C125.872 35.105 125.464 35.0163 125.105 34.853C124.745 34.6897 124.475 34.433 124.293 34.083C124.129 33.7703 124.041 33.453 124.027 33.131C124.017 32.8043 124.013 32.4357 124.013 32.025V25.34H125.483V31.955C125.483 32.2583 125.485 32.522 125.49 32.746C125.499 32.97 125.548 33.159 125.637 33.313C125.805 33.6023 126.071 33.768 126.435 33.81C126.803 33.8473 127.235 33.831 127.73 33.761V35ZM122.564 28.616V27.44H127.73V28.616H122.564ZM129.464 26.201V24.78H130.927V26.201H129.464ZM129.464 35V27.44H130.927V35H129.464ZM136.312 35.21C135.556 35.21 134.9 35.0397 134.345 34.699C133.789 34.3583 133.36 33.8893 133.057 33.292C132.758 32.69 132.609 31.997 132.609 31.213C132.609 30.4243 132.763 29.7313 133.071 29.134C133.379 28.532 133.81 28.0653 134.366 27.734C134.921 27.398 135.57 27.23 136.312 27.23C137.068 27.23 137.723 27.4003 138.279 27.741C138.834 28.0817 139.263 28.5507 139.567 29.148C139.87 29.7453 140.022 30.4337 140.022 31.213C140.022 32.0017 139.868 32.697 139.56 33.299C139.256 33.8963 138.827 34.3653 138.272 34.706C137.716 35.042 137.063 35.21 136.312 35.21ZM136.312 33.831C137.035 33.831 137.574 33.5883 137.929 33.103C138.288 32.613 138.468 31.983 138.468 31.213C138.468 30.4243 138.286 29.7943 137.922 29.323C137.562 28.847 137.026 28.609 136.312 28.609C135.822 28.609 135.418 28.721 135.101 28.945C134.783 29.1643 134.548 29.47 134.394 29.862C134.24 30.2493 134.163 30.6997 134.163 31.213C134.163 32.0063 134.345 32.641 134.709 33.117C135.073 33.593 135.607 33.831 136.312 33.831ZM146.866 35V31.283C146.866 30.989 146.84 30.688 146.789 30.38C146.742 30.0673 146.649 29.778 146.509 29.512C146.374 29.246 146.18 29.0313 145.928 28.868C145.681 28.7047 145.356 28.623 144.955 28.623C144.694 28.623 144.446 28.6673 144.213 28.756C143.98 28.84 143.774 28.9777 143.597 29.169C143.424 29.3603 143.287 29.6123 143.184 29.925C143.086 30.2377 143.037 30.618 143.037 31.066L142.127 30.723C142.127 30.037 142.255 29.4327 142.512 28.91C142.769 28.3827 143.137 27.972 143.618 27.678C144.099 27.384 144.68 27.237 145.361 27.237C145.884 27.237 146.322 27.321 146.677 27.489C147.032 27.657 147.319 27.8787 147.538 28.154C147.762 28.4247 147.932 28.721 148.049 29.043C148.166 29.365 148.245 29.68 148.287 29.988C148.329 30.296 148.35 30.5667 148.35 30.8V35H146.866ZM141.553 35V27.44H142.862V29.624H143.037V35H141.553ZM153.064 35.203C152.145 35.203 151.396 35 150.817 34.594C150.239 34.188 149.884 33.6163 149.753 32.879L151.251 32.648C151.345 33.04 151.559 33.3503 151.895 33.579C152.236 33.803 152.658 33.915 153.162 33.915C153.62 33.915 153.977 33.8217 154.233 33.635C154.495 33.4483 154.625 33.1917 154.625 32.865C154.625 32.6737 154.579 32.5197 154.485 32.403C154.397 32.2817 154.208 32.1673 153.918 32.06C153.629 31.9527 153.188 31.8197 152.595 31.661C151.947 31.493 151.431 31.3133 151.048 31.122C150.67 30.926 150.4 30.6997 150.236 30.443C150.078 30.1817 149.998 29.8667 149.998 29.498C149.998 29.0407 150.12 28.6417 150.362 28.301C150.605 27.9603 150.946 27.6967 151.384 27.51C151.828 27.3233 152.346 27.23 152.938 27.23C153.517 27.23 154.033 27.321 154.485 27.503C154.938 27.685 155.304 27.944 155.584 28.28C155.864 28.6113 156.032 29.001 156.088 29.449L154.59 29.722C154.539 29.358 154.369 29.071 154.079 28.861C153.79 28.651 153.414 28.5367 152.952 28.518C152.509 28.4993 152.15 28.574 151.874 28.742C151.599 28.9053 151.461 29.1317 151.461 29.421C151.461 29.589 151.513 29.7313 151.615 29.848C151.723 29.9647 151.928 30.0767 152.231 30.184C152.535 30.2913 152.983 30.4197 153.575 30.569C154.21 30.7323 154.714 30.9143 155.087 31.115C155.461 31.311 155.727 31.5467 155.885 31.822C156.049 32.0927 156.13 32.4217 156.13 32.809C156.13 33.5557 155.857 34.1413 155.311 34.566C154.77 34.9907 154.021 35.203 153.064 35.203Z" fill="#26262B"/>
<path d="M55.066 54V46.374H52.12V45.36H59.08V46.374H56.134V54H55.066ZM59.4377 54V47.52H60.3917V49.086L60.2357 48.882C60.3117 48.682 60.4097 48.498 60.5297 48.33C60.6537 48.162 60.7917 48.024 60.9437 47.916C61.1117 47.78 61.3017 47.676 61.5137 47.604C61.7257 47.532 61.9417 47.49 62.1617 47.478C62.3817 47.462 62.5877 47.476 62.7797 47.52V48.522C62.5557 48.462 62.3097 48.446 62.0417 48.474C61.7737 48.502 61.5257 48.6 61.2977 48.768C61.0897 48.916 60.9277 49.096 60.8117 49.308C60.6997 49.52 60.6217 49.75 60.5777 49.998C60.5337 50.242 60.5117 50.492 60.5117 50.748V54H59.4377ZM65.5453 54.18C65.0613 54.18 64.6553 54.092 64.3273 53.916C64.0033 53.736 63.7573 53.5 63.5893 53.208C63.4253 52.916 63.3433 52.596 63.3433 52.248C63.3433 51.908 63.4073 51.614 63.5353 51.366C63.6673 51.114 63.8513 50.906 64.0873 50.742C64.3233 50.574 64.6053 50.442 64.9333 50.346C65.2413 50.262 65.5853 50.19 65.9653 50.13C66.3493 50.066 66.7373 50.008 67.1293 49.956C67.5213 49.904 67.8873 49.854 68.2273 49.806L67.8433 50.028C67.8553 49.452 67.7393 49.026 67.4953 48.75C67.2553 48.474 66.8393 48.336 66.2473 48.336C65.8553 48.336 65.5113 48.426 65.2153 48.606C64.9233 48.782 64.7173 49.07 64.5973 49.47L63.5833 49.164C63.7393 48.596 64.0413 48.15 64.4893 47.826C64.9373 47.502 65.5273 47.34 66.2593 47.34C66.8473 47.34 67.3513 47.446 67.7713 47.658C68.1953 47.866 68.4993 48.182 68.6833 48.606C68.7753 48.806 68.8333 49.024 68.8573 49.26C68.8813 49.492 68.8933 49.736 68.8933 49.992V54H67.9453V52.446L68.1673 52.59C67.9233 53.114 67.5813 53.51 67.1413 53.778C66.7053 54.046 66.1733 54.18 65.5453 54.18ZM65.7073 53.286C66.0913 53.286 66.4233 53.218 66.7033 53.082C66.9873 52.942 67.2153 52.76 67.3873 52.536C67.5593 52.308 67.6713 52.06 67.7233 51.792C67.7833 51.592 67.8153 51.37 67.8193 51.126C67.8273 50.878 67.8313 50.688 67.8313 50.556L68.2033 50.718C67.8553 50.766 67.5133 50.812 67.1773 50.856C66.8413 50.9 66.5233 50.948 66.2233 51C65.9233 51.048 65.6533 51.106 65.4133 51.174C65.2373 51.23 65.0713 51.302 64.9153 51.39C64.7633 51.478 64.6393 51.592 64.5433 51.732C64.4513 51.868 64.4053 52.038 64.4053 52.242C64.4053 52.418 64.4493 52.586 64.5373 52.746C64.6293 52.906 64.7693 53.036 64.9573 53.136C65.1493 53.236 65.3993 53.286 65.7073 53.286ZM73.1833 54.18C72.5273 54.18 71.9693 54.034 71.5093 53.742C71.0533 53.446 70.7053 53.04 70.4653 52.524C70.2253 52.008 70.1013 51.42 70.0933 50.76C70.1013 50.084 70.2273 49.49 70.4713 48.978C70.7193 48.462 71.0733 48.06 71.5333 47.772C71.9933 47.484 72.5473 47.34 73.1953 47.34C73.8793 47.34 74.4673 47.508 74.9593 47.844C75.4553 48.18 75.7873 48.64 75.9553 49.224L74.8993 49.542C74.7633 49.166 74.5413 48.874 74.2333 48.666C73.9293 48.458 73.5793 48.354 73.1833 48.354C72.7393 48.354 72.3733 48.458 72.0853 48.666C71.7973 48.87 71.5833 49.154 71.4433 49.518C71.3033 49.878 71.2313 50.292 71.2273 50.76C71.2353 51.48 71.4013 52.062 71.7253 52.506C72.0533 52.946 72.5393 53.166 73.1833 53.166C73.6073 53.166 73.9593 53.07 74.2393 52.878C74.5193 52.682 74.7313 52.4 74.8753 52.032L75.9553 52.314C75.7313 52.918 75.3813 53.38 74.9053 53.7C74.4293 54.02 73.8553 54.18 73.1833 54.18ZM77.1738 54L77.1798 45.36H78.2598V50.64L80.9778 47.52H82.3638L79.5018 50.76L82.6998 54H81.2058L78.2598 50.88V54H77.1738ZM83.417 46.374V45.27H84.485V46.374H83.417ZM83.417 54V47.52H84.485V54H83.417ZM90.8993 54V50.754C90.8993 50.446 90.8713 50.15 90.8153 49.866C90.7633 49.582 90.6693 49.328 90.5333 49.104C90.4013 48.876 90.2213 48.696 89.9933 48.564C89.7693 48.432 89.4853 48.366 89.1413 48.366C88.8733 48.366 88.6293 48.412 88.4093 48.504C88.1933 48.592 88.0073 48.728 87.8513 48.912C87.6953 49.096 87.5733 49.328 87.4853 49.608C87.4013 49.884 87.3593 50.21 87.3593 50.586L86.6573 50.37C86.6573 49.742 86.7693 49.204 86.9933 48.756C87.2213 48.304 87.5393 47.958 87.9473 47.718C88.3593 47.474 88.8433 47.352 89.3993 47.352C89.8193 47.352 90.1773 47.418 90.4733 47.55C90.7693 47.682 91.0153 47.858 91.2113 48.078C91.4073 48.294 91.5613 48.538 91.6733 48.81C91.7853 49.078 91.8633 49.352 91.9073 49.632C91.9553 49.908 91.9793 50.17 91.9793 50.418V54H90.8993ZM86.2793 54V47.52H87.2393V49.254H87.3593V54H86.2793ZM96.1612 57.06C95.8212 57.06 95.4892 57.008 95.1652 56.904C94.8412 56.8 94.5432 56.642 94.2712 56.43C94.0032 56.222 93.7792 55.958 93.5992 55.638L94.5772 55.122C94.7372 55.438 94.9632 55.668 95.2552 55.812C95.5512 55.956 95.8552 56.028 96.1672 56.028C96.5792 56.028 96.9212 55.952 97.1932 55.8C97.4652 55.652 97.6652 55.43 97.7932 55.134C97.9252 54.838 97.9892 54.47 97.9852 54.03V52.26H98.1112V47.52H99.0592V54.042C99.0592 54.218 99.0532 54.388 99.0412 54.552C99.0332 54.716 99.0132 54.878 98.9812 55.038C98.8972 55.498 98.7312 55.876 98.4832 56.172C98.2352 56.472 97.9152 56.694 97.5232 56.838C97.1312 56.986 96.6772 57.06 96.1612 57.06ZM96.0832 54.18C95.4792 54.18 94.9612 54.03 94.5292 53.73C94.0972 53.426 93.7632 53.016 93.5272 52.5C93.2952 51.984 93.1792 51.402 93.1792 50.754C93.1792 50.106 93.2952 49.524 93.5272 49.008C93.7632 48.492 94.0972 48.086 94.5292 47.79C94.9612 47.49 95.4772 47.34 96.0772 47.34C96.6892 47.34 97.2032 47.488 97.6192 47.784C98.0352 48.08 98.3492 48.486 98.5612 49.002C98.7772 49.518 98.8852 50.102 98.8852 50.754C98.8852 51.398 98.7772 51.98 98.5612 52.5C98.3492 53.016 98.0352 53.426 97.6192 53.73C97.2032 54.03 96.6912 54.18 96.0832 54.18ZM96.2152 53.202C96.6512 53.202 97.0092 53.098 97.2892 52.89C97.5692 52.678 97.7752 52.388 97.9072 52.02C98.0432 51.648 98.1112 51.226 98.1112 50.754C98.1112 50.274 98.0432 49.852 97.9072 49.488C97.7752 49.12 97.5712 48.834 97.2952 48.63C97.0192 48.422 96.6692 48.318 96.2452 48.318C95.8052 48.318 95.4412 48.426 95.1532 48.642C94.8692 48.858 94.6572 49.15 94.5172 49.518C94.3812 49.886 94.3132 50.298 94.3132 50.754C94.3132 51.214 94.3832 51.63 94.5232 52.002C94.6632 52.37 94.8732 52.662 95.1532 52.878C95.4372 53.094 95.7912 53.202 96.2152 53.202ZM110.883 54L110.889 49.854C110.889 49.37 110.759 48.992 110.499 48.72C110.243 48.444 109.909 48.306 109.497 48.306C109.257 48.306 109.029 48.362 108.813 48.474C108.597 48.582 108.421 48.754 108.285 48.99C108.149 49.222 108.081 49.52 108.081 49.884L107.517 49.656C107.509 49.196 107.603 48.794 107.799 48.45C107.999 48.102 108.271 47.832 108.615 47.64C108.959 47.448 109.347 47.352 109.779 47.352C110.455 47.352 110.987 47.558 111.375 47.97C111.763 48.378 111.957 48.928 111.957 49.62L111.951 54H110.883ZM103.131 54V47.52H104.085V49.254H104.205V54H103.131ZM107.013 54L107.019 49.896C107.019 49.4 106.891 49.012 106.635 48.732C106.379 48.448 106.039 48.306 105.615 48.306C105.195 48.306 104.855 48.45 104.595 48.738C104.335 49.026 104.205 49.408 104.205 49.884L103.641 49.548C103.641 49.128 103.741 48.752 103.941 48.42C104.141 48.088 104.413 47.828 104.757 47.64C105.101 47.448 105.491 47.352 105.927 47.352C106.363 47.352 106.743 47.444 107.067 47.628C107.391 47.812 107.641 48.076 107.817 48.42C107.993 48.76 108.081 49.166 108.081 49.638L108.075 54H107.013ZM116.269 54.18C115.633 54.18 115.077 54.04 114.601 53.76C114.129 53.476 113.761 53.082 113.497 52.578C113.233 52.07 113.101 51.478 113.101 50.802C113.101 50.094 113.231 49.482 113.491 48.966C113.751 48.446 114.113 48.046 114.577 47.766C115.045 47.482 115.593 47.34 116.221 47.34C116.873 47.34 117.427 47.49 117.883 47.79C118.343 48.09 118.687 48.518 118.915 49.074C119.147 49.63 119.247 50.292 119.215 51.06H118.135V50.676C118.123 49.88 117.961 49.286 117.649 48.894C117.337 48.498 116.873 48.3 116.257 48.3C115.597 48.3 115.095 48.512 114.751 48.936C114.407 49.36 114.235 49.968 114.235 50.76C114.235 51.524 114.407 52.116 114.751 52.536C115.095 52.956 115.585 53.166 116.221 53.166C116.649 53.166 117.021 53.068 117.337 52.872C117.653 52.676 117.901 52.394 118.081 52.026L119.107 52.38C118.855 52.952 118.475 53.396 117.967 53.712C117.463 54.024 116.897 54.18 116.269 54.18ZM113.875 51.06V50.202H118.663V51.06H113.875ZM124.989 54V50.754C124.989 50.446 124.961 50.15 124.905 49.866C124.853 49.582 124.759 49.328 124.623 49.104C124.491 48.876 124.311 48.696 124.083 48.564C123.859 48.432 123.575 48.366 123.231 48.366C122.963 48.366 122.719 48.412 122.499 48.504C122.283 48.592 122.097 48.728 121.941 48.912C121.785 49.096 121.663 49.328 121.575 49.608C121.491 49.884 121.449 50.21 121.449 50.586L120.747 50.37C120.747 49.742 120.859 49.204 121.083 48.756C121.311 48.304 121.629 47.958 122.037 47.718C122.449 47.474 122.933 47.352 123.489 47.352C123.909 47.352 124.267 47.418 124.563 47.55C124.859 47.682 125.105 47.858 125.301 48.078C125.497 48.294 125.651 48.538 125.763 48.81C125.875 49.078 125.953 49.352 125.997 49.632C126.045 49.908 126.069 50.17 126.069 50.418V54H124.989ZM120.369 54V47.52H121.329V49.254H121.449V54H120.369ZM131.247 54C130.863 54.076 130.483 54.106 130.107 54.09C129.735 54.078 129.403 54.004 129.111 53.868C128.819 53.728 128.597 53.512 128.445 53.22C128.317 52.964 128.247 52.706 128.235 52.446C128.227 52.182 128.223 51.884 128.223 51.552V45.72H129.291V51.504C129.291 51.768 129.293 51.994 129.297 52.182C129.305 52.37 129.347 52.532 129.423 52.668C129.567 52.924 129.795 53.074 130.107 53.118C130.423 53.162 130.803 53.15 131.247 53.082V54ZM126.909 48.402V47.52H131.247V48.402H126.909ZM132.683 46.374V45.27H133.751V46.374H132.683ZM132.683 54V47.52H133.751V54H132.683ZM138.311 54.18C137.667 54.18 137.111 54.034 136.643 53.742C136.179 53.45 135.821 53.046 135.569 52.53C135.317 52.014 135.191 51.422 135.191 50.754C135.191 50.074 135.319 49.478 135.575 48.966C135.831 48.454 136.193 48.056 136.661 47.772C137.129 47.484 137.679 47.34 138.311 47.34C138.959 47.34 139.517 47.486 139.985 47.778C140.453 48.066 140.811 48.468 141.059 48.984C141.311 49.496 141.437 50.086 141.437 50.754C141.437 51.43 141.311 52.026 141.059 52.542C140.807 53.054 140.447 53.456 139.979 53.748C139.511 54.036 138.955 54.18 138.311 54.18ZM138.311 53.166C138.983 53.166 139.483 52.942 139.811 52.494C140.139 52.046 140.303 51.466 140.303 50.754C140.303 50.022 140.137 49.44 139.805 49.008C139.473 48.572 138.975 48.354 138.311 48.354C137.859 48.354 137.487 48.456 137.195 48.66C136.903 48.864 136.685 49.146 136.541 49.506C136.397 49.866 136.325 50.282 136.325 50.754C136.325 51.482 136.493 52.066 136.829 52.506C137.165 52.946 137.659 53.166 138.311 53.166ZM147.372 54V50.754C147.372 50.446 147.344 50.15 147.288 49.866C147.236 49.582 147.142 49.328 147.006 49.104C146.874 48.876 146.694 48.696 146.466 48.564C146.242 48.432 145.958 48.366 145.614 48.366C145.346 48.366 145.102 48.412 144.882 48.504C144.666 48.592 144.48 48.728 144.324 48.912C144.168 49.096 144.046 49.328 143.958 49.608C143.874 49.884 143.832 50.21 143.832 50.586L143.13 50.37C143.13 49.742 143.242 49.204 143.466 48.756C143.694 48.304 144.012 47.958 144.42 47.718C144.832 47.474 145.316 47.352 145.872 47.352C146.292 47.352 146.65 47.418 146.946 47.55C147.242 47.682 147.488 47.858 147.684 48.078C147.88 48.294 148.034 48.538 148.146 48.81C148.258 49.078 148.336 49.352 148.38 49.632C148.428 49.908 148.452 50.17 148.452 50.418V54H147.372ZM142.752 54V47.52H143.712V49.254H143.832V54H142.752ZM152.46 54.174C151.688 54.174 151.054 54.006 150.558 53.67C150.066 53.33 149.764 52.856 149.652 52.248L150.744 52.074C150.832 52.426 151.034 52.706 151.35 52.914C151.666 53.118 152.058 53.22 152.526 53.22C152.97 53.22 153.318 53.128 153.57 52.944C153.822 52.76 153.948 52.51 153.948 52.194C153.948 52.01 153.906 51.862 153.822 51.75C153.738 51.634 153.564 51.526 153.3 51.426C153.04 51.326 152.646 51.206 152.118 51.066C151.546 50.914 151.096 50.756 150.768 50.592C150.44 50.428 150.206 50.238 150.066 50.022C149.926 49.806 149.856 49.544 149.856 49.236C149.856 48.856 149.96 48.524 150.168 48.24C150.376 47.952 150.666 47.73 151.038 47.574C151.414 47.418 151.85 47.34 152.346 47.34C152.838 47.34 153.278 47.418 153.666 47.574C154.054 47.73 154.366 47.952 154.602 48.24C154.842 48.524 154.984 48.856 155.028 49.236L153.936 49.434C153.884 49.086 153.716 48.812 153.432 48.612C153.152 48.412 152.79 48.306 152.346 48.294C151.926 48.278 151.584 48.352 151.32 48.516C151.06 48.68 150.93 48.902 150.93 49.182C150.93 49.338 150.978 49.472 151.074 49.584C151.174 49.696 151.356 49.802 151.62 49.902C151.888 50.002 152.276 50.116 152.784 50.244C153.356 50.388 153.806 50.546 154.134 50.718C154.466 50.886 154.702 51.086 154.842 51.318C154.982 51.546 155.052 51.828 155.052 52.164C155.052 52.788 154.822 53.28 154.362 53.64C153.902 53.996 153.268 54.174 152.46 54.174ZM161.538 54.18C160.894 54.18 160.338 54.034 159.87 53.742C159.406 53.45 159.048 53.046 158.796 52.53C158.544 52.014 158.418 51.422 158.418 50.754C158.418 50.074 158.546 49.478 158.802 48.966C159.058 48.454 159.42 48.056 159.888 47.772C160.356 47.484 160.906 47.34 161.538 47.34C162.186 47.34 162.744 47.486 163.212 47.778C163.68 48.066 164.038 48.468 164.286 48.984C164.538 49.496 164.664 50.086 164.664 50.754C164.664 51.43 164.538 52.026 164.286 52.542C164.034 53.054 163.674 53.456 163.206 53.748C162.738 54.036 162.182 54.18 161.538 54.18ZM161.538 53.166C162.21 53.166 162.71 52.942 163.038 52.494C163.366 52.046 163.53 51.466 163.53 50.754C163.53 50.022 163.364 49.44 163.032 49.008C162.7 48.572 162.202 48.354 161.538 48.354C161.086 48.354 160.714 48.456 160.422 48.66C160.13 48.864 159.912 49.146 159.768 49.506C159.624 49.866 159.552 50.282 159.552 50.754C159.552 51.482 159.72 52.066 160.056 52.506C160.392 52.946 160.886 53.166 161.538 53.166ZM166.603 54V47.166C166.603 46.998 166.611 46.828 166.627 46.656C166.643 46.48 166.679 46.31 166.735 46.146C166.791 45.978 166.883 45.824 167.011 45.684C167.159 45.52 167.321 45.404 167.497 45.336C167.673 45.264 167.851 45.22 168.031 45.204C168.215 45.188 168.389 45.18 168.553 45.18H169.375V46.068H168.613C168.297 46.068 168.061 46.146 167.905 46.302C167.749 46.454 167.671 46.686 167.671 46.998V54H166.603ZM165.505 48.402V47.52H169.375V48.402H165.505ZM176.389 54.18C175.525 54.18 174.785 53.992 174.169 53.616C173.553 53.236 173.079 52.708 172.747 52.032C172.419 51.356 172.255 50.572 172.255 49.68C172.255 48.788 172.419 48.004 172.747 47.328C173.079 46.652 173.553 46.126 174.169 45.75C174.785 45.37 175.525 45.18 176.389 45.18C177.385 45.18 178.215 45.43 178.879 45.93C179.543 46.426 180.009 47.096 180.277 47.94L178.819 48.342C178.651 47.778 178.365 47.338 177.961 47.022C177.557 46.702 177.033 46.542 176.389 46.542C175.809 46.542 175.325 46.672 174.937 46.932C174.553 47.192 174.263 47.558 174.067 48.03C173.875 48.498 173.777 49.048 173.773 49.68C173.773 50.312 173.869 50.864 174.061 51.336C174.257 51.804 174.549 52.168 174.937 52.428C175.325 52.688 175.809 52.818 176.389 52.818C177.033 52.818 177.557 52.658 177.961 52.338C178.365 52.018 178.651 51.578 178.819 51.018L180.277 51.42C180.009 52.264 179.543 52.936 178.879 53.436C178.215 53.932 177.385 54.18 176.389 54.18ZM184.456 54.18C183.808 54.18 183.242 54.034 182.758 53.742C182.274 53.45 181.898 53.048 181.63 52.536C181.366 52.02 181.234 51.428 181.234 50.76C181.234 50.08 181.37 49.484 181.642 48.972C181.914 48.46 182.292 48.06 182.776 47.772C183.26 47.484 183.82 47.34 184.456 47.34C185.108 47.34 185.676 47.486 186.16 47.778C186.644 48.07 187.02 48.474 187.288 48.99C187.556 49.502 187.69 50.092 187.69 50.76C187.69 51.432 187.554 52.026 187.282 52.542C187.014 53.054 186.638 53.456 186.154 53.748C185.67 54.036 185.104 54.18 184.456 54.18ZM184.456 52.824C185.032 52.824 185.46 52.632 185.74 52.248C186.02 51.864 186.16 51.368 186.16 50.76C186.16 50.132 186.018 49.632 185.734 49.26C185.45 48.884 185.024 48.696 184.456 48.696C184.068 48.696 183.748 48.784 183.496 48.96C183.248 49.132 183.064 49.374 182.944 49.686C182.824 49.994 182.764 50.352 182.764 50.76C182.764 51.388 182.906 51.89 183.19 52.266C183.478 52.638 183.9 52.824 184.456 52.824ZM196.794 54V50.064C196.794 49.62 196.684 49.274 196.464 49.026C196.244 48.774 195.946 48.648 195.57 48.648C195.338 48.648 195.13 48.702 194.946 48.81C194.762 48.914 194.616 49.07 194.508 49.278C194.4 49.482 194.346 49.726 194.346 50.01L193.704 49.632C193.7 49.184 193.8 48.79 194.004 48.45C194.212 48.106 194.492 47.838 194.844 47.646C195.196 47.454 195.588 47.358 196.02 47.358C196.736 47.358 197.284 47.574 197.664 48.006C198.048 48.434 198.24 48.998 198.24 49.698V54H196.794ZM189 54V47.52H190.278V49.53H190.458V54H189ZM192.906 54V50.082C192.906 49.63 192.796 49.278 192.576 49.026C192.356 48.774 192.056 48.648 191.676 48.648C191.308 48.648 191.012 48.774 190.788 49.026C190.568 49.278 190.458 49.606 190.458 50.01L189.81 49.578C189.81 49.158 189.914 48.78 190.122 48.444C190.33 48.108 190.61 47.844 190.962 47.652C191.318 47.456 191.716 47.358 192.156 47.358C192.64 47.358 193.044 47.462 193.368 47.67C193.696 47.874 193.94 48.154 194.1 48.51C194.264 48.862 194.346 49.26 194.346 49.704V54H192.906ZM202.919 54.18C202.287 54.18 201.757 54.03 201.329 53.73C200.901 53.43 200.579 53.022 200.363 52.506C200.147 51.986 200.039 51.404 200.039 50.76C200.039 50.108 200.147 49.524 200.363 49.008C200.579 48.492 200.895 48.086 201.311 47.79C201.731 47.49 202.249 47.34 202.865 47.34C203.477 47.34 204.007 47.49 204.455 47.79C204.907 48.086 205.257 48.492 205.505 49.008C205.753 49.52 205.877 50.104 205.877 50.76C205.877 51.408 205.755 51.99 205.511 52.506C205.267 53.022 204.923 53.43 204.479 53.73C204.035 54.03 203.515 54.18 202.919 54.18ZM199.793 56.88V47.52H201.071V52.068H201.251V56.88H199.793ZM202.697 52.884C203.073 52.884 203.383 52.79 203.627 52.602C203.871 52.414 204.051 52.16 204.167 51.84C204.287 51.516 204.347 51.156 204.347 50.76C204.347 50.368 204.287 50.012 204.167 49.692C204.047 49.368 203.861 49.112 203.609 48.924C203.357 48.732 203.037 48.636 202.649 48.636C202.281 48.636 201.981 48.726 201.749 48.906C201.517 49.082 201.345 49.33 201.233 49.65C201.125 49.966 201.071 50.336 201.071 50.76C201.071 51.18 201.125 51.55 201.233 51.87C201.345 52.19 201.519 52.44 201.755 52.62C201.995 52.796 202.309 52.884 202.697 52.884ZM209.011 54.18C208.543 54.18 208.147 54.092 207.823 53.916C207.499 53.736 207.253 53.498 207.085 53.202C206.921 52.906 206.839 52.58 206.839 52.224C206.839 51.912 206.891 51.632 206.995 51.384C207.099 51.132 207.259 50.916 207.475 50.736C207.691 50.552 207.971 50.402 208.315 50.286C208.575 50.202 208.879 50.126 209.227 50.058C209.579 49.99 209.959 49.928 210.367 49.872C210.779 49.812 211.209 49.748 211.657 49.68L211.141 49.974C211.145 49.526 211.045 49.196 210.841 48.984C210.637 48.772 210.293 48.666 209.809 48.666C209.517 48.666 209.235 48.734 208.963 48.87C208.691 49.006 208.501 49.24 208.393 49.572L207.073 49.158C207.233 48.61 207.537 48.17 207.985 47.838C208.437 47.506 209.045 47.34 209.809 47.34C210.385 47.34 210.891 47.434 211.327 47.622C211.767 47.81 212.093 48.118 212.305 48.546C212.421 48.774 212.491 49.008 212.515 49.248C212.539 49.484 212.551 49.742 212.551 50.022V54H211.285V52.596L211.495 52.824C211.203 53.292 210.861 53.636 210.469 53.856C210.081 54.072 209.595 54.18 209.011 54.18ZM209.299 53.028C209.627 53.028 209.907 52.97 210.139 52.854C210.371 52.738 210.555 52.596 210.691 52.428C210.831 52.26 210.925 52.102 210.973 51.954C211.049 51.77 211.091 51.56 211.099 51.324C211.111 51.084 211.117 50.89 211.117 50.742L211.561 50.874C211.125 50.942 210.751 51.002 210.439 51.054C210.127 51.106 209.859 51.156 209.635 51.204C209.411 51.248 209.213 51.298 209.041 51.354C208.873 51.414 208.731 51.484 208.615 51.564C208.499 51.644 208.409 51.736 208.345 51.84C208.285 51.944 208.255 52.066 208.255 52.206C208.255 52.366 208.295 52.508 208.375 52.632C208.455 52.752 208.571 52.848 208.723 52.92C208.879 52.992 209.071 53.028 209.299 53.028ZM218.595 54V50.88C218.595 50.676 218.581 50.45 218.553 50.202C218.525 49.954 218.459 49.716 218.355 49.488C218.255 49.256 218.103 49.066 217.899 48.918C217.699 48.77 217.427 48.696 217.083 48.696C216.899 48.696 216.717 48.726 216.537 48.786C216.357 48.846 216.193 48.95 216.045 49.098C215.901 49.242 215.785 49.442 215.697 49.698C215.609 49.95 215.565 50.274 215.565 50.67L214.707 50.304C214.707 49.752 214.813 49.252 215.025 48.804C215.241 48.356 215.557 48 215.973 47.736C216.389 47.468 216.901 47.334 217.509 47.334C217.989 47.334 218.385 47.414 218.697 47.574C219.009 47.734 219.257 47.938 219.441 48.186C219.625 48.434 219.761 48.698 219.849 48.978C219.937 49.258 219.993 49.524 220.017 49.776C220.045 50.024 220.059 50.226 220.059 50.382V54H218.595ZM214.101 54V47.52H215.391V49.53H215.565V54H214.101ZM222.243 56.88L223.491 53.454L223.515 54.462L220.689 47.52H222.195L224.199 52.656H223.815L225.765 47.52H227.211L223.599 56.88H222.243ZM230.508 54V45.36H231.972L235.98 51.45V45.36H237.444V54H235.98L231.972 47.91V54H230.508ZM240.933 54.18C240.465 54.18 240.069 54.092 239.745 53.916C239.421 53.736 239.175 53.498 239.007 53.202C238.843 52.906 238.761 52.58 238.761 52.224C238.761 51.912 238.813 51.632 238.917 51.384C239.021 51.132 239.181 50.916 239.397 50.736C239.613 50.552 239.893 50.402 240.237 50.286C240.497 50.202 240.801 50.126 241.149 50.058C241.501 49.99 241.881 49.928 242.289 49.872C242.701 49.812 243.131 49.748 243.579 49.68L243.063 49.974C243.067 49.526 242.967 49.196 242.763 48.984C242.559 48.772 242.215 48.666 241.731 48.666C241.439 48.666 241.157 48.734 240.885 48.87C240.613 49.006 240.423 49.24 240.315 49.572L238.995 49.158C239.155 48.61 239.459 48.17 239.907 47.838C240.359 47.506 240.967 47.34 241.731 47.34C242.307 47.34 242.813 47.434 243.249 47.622C243.689 47.81 244.015 48.118 244.227 48.546C244.343 48.774 244.413 49.008 244.437 49.248C244.461 49.484 244.473 49.742 244.473 50.022V54H243.207V52.596L243.417 52.824C243.125 53.292 242.783 53.636 242.391 53.856C242.003 54.072 241.517 54.18 240.933 54.18ZM241.221 53.028C241.549 53.028 241.829 52.97 242.061 52.854C242.293 52.738 242.477 52.596 242.613 52.428C242.753 52.26 242.847 52.102 242.895 51.954C242.971 51.77 243.013 51.56 243.021 51.324C243.033 51.084 243.039 50.89 243.039 50.742L243.483 50.874C243.047 50.942 242.673 51.002 242.361 51.054C242.049 51.106 241.781 51.156 241.557 51.204C241.333 51.248 241.135 51.298 240.963 51.354C240.795 51.414 240.653 51.484 240.537 51.564C240.421 51.644 240.331 51.736 240.267 51.84C240.207 51.944 240.177 52.066 240.177 52.206C240.177 52.366 240.217 52.508 240.297 52.632C240.377 52.752 240.493 52.848 240.645 52.92C240.801 52.992 240.993 53.028 241.221 53.028ZM253.817 54V50.064C253.817 49.62 253.707 49.274 253.487 49.026C253.267 48.774 252.969 48.648 252.593 48.648C252.361 48.648 252.153 48.702 251.969 48.81C251.785 48.914 251.639 49.07 251.531 49.278C251.423 49.482 251.369 49.726 251.369 50.01L250.727 49.632C250.723 49.184 250.823 48.79 251.027 48.45C251.235 48.106 251.515 47.838 251.867 47.646C252.219 47.454 252.611 47.358 253.043 47.358C253.759 47.358 254.307 47.574 254.687 48.006C255.071 48.434 255.263 48.998 255.263 49.698V54H253.817ZM246.023 54V47.52H247.301V49.53H247.481V54H246.023ZM249.929 54V50.082C249.929 49.63 249.819 49.278 249.599 49.026C249.379 48.774 249.079 48.648 248.699 48.648C248.331 48.648 248.035 48.774 247.811 49.026C247.591 49.278 247.481 49.606 247.481 50.01L246.833 49.578C246.833 49.158 246.937 48.78 247.145 48.444C247.353 48.108 247.633 47.844 247.985 47.652C248.341 47.456 248.739 47.358 249.179 47.358C249.663 47.358 250.067 47.462 250.391 47.67C250.719 47.874 250.963 48.154 251.123 48.51C251.287 48.862 251.369 49.26 251.369 49.704V54H249.929ZM259.669 54.18C259.013 54.18 258.437 54.038 257.941 53.754C257.445 53.47 257.057 53.076 256.777 52.572C256.501 52.068 256.363 51.488 256.363 50.832C256.363 50.124 256.499 49.51 256.771 48.99C257.043 48.466 257.421 48.06 257.905 47.772C258.389 47.484 258.949 47.34 259.585 47.34C260.257 47.34 260.827 47.498 261.295 47.814C261.767 48.126 262.117 48.568 262.345 49.14C262.573 49.712 262.659 50.386 262.603 51.162H261.169V50.634C261.165 49.93 261.041 49.416 260.797 49.092C260.553 48.768 260.169 48.606 259.645 48.606C259.053 48.606 258.613 48.79 258.325 49.158C258.037 49.522 257.893 50.056 257.893 50.76C257.893 51.416 258.037 51.924 258.325 52.284C258.613 52.644 259.033 52.824 259.585 52.824C259.941 52.824 260.247 52.746 260.503 52.59C260.763 52.43 260.963 52.2 261.103 51.9L262.531 52.332C262.283 52.916 261.899 53.37 261.379 53.694C260.863 54.018 260.293 54.18 259.669 54.18ZM257.437 51.162V50.07H261.895V51.162H257.437ZM268.186 54.18C267.702 54.18 267.296 54.092 266.968 53.916C266.644 53.736 266.398 53.5 266.23 53.208C266.066 52.916 265.984 52.596 265.984 52.248C265.984 51.908 266.048 51.614 266.176 51.366C266.308 51.114 266.492 50.906 266.728 50.742C266.964 50.574 267.246 50.442 267.574 50.346C267.882 50.262 268.226 50.19 268.606 50.13C268.99 50.066 269.378 50.008 269.77 49.956C270.162 49.904 270.528 49.854 270.868 49.806L270.484 50.028C270.496 49.452 270.38 49.026 270.136 48.75C269.896 48.474 269.48 48.336 268.888 48.336C268.496 48.336 268.152 48.426 267.856 48.606C267.564 48.782 267.358 49.07 267.238 49.47L266.224 49.164C266.38 48.596 266.682 48.15 267.13 47.826C267.578 47.502 268.168 47.34 268.9 47.34C269.488 47.34 269.992 47.446 270.412 47.658C270.836 47.866 271.14 48.182 271.324 48.606C271.416 48.806 271.474 49.024 271.498 49.26C271.522 49.492 271.534 49.736 271.534 49.992V54H270.586V52.446L270.808 52.59C270.564 53.114 270.222 53.51 269.782 53.778C269.346 54.046 268.814 54.18 268.186 54.18ZM268.348 53.286C268.732 53.286 269.064 53.218 269.344 53.082C269.628 52.942 269.856 52.76 270.028 52.536C270.2 52.308 270.312 52.06 270.364 51.792C270.424 51.592 270.456 51.37 270.46 51.126C270.468 50.878 270.472 50.688 270.472 50.556L270.844 50.718C270.496 50.766 270.154 50.812 269.818 50.856C269.482 50.9 269.164 50.948 268.864 51C268.564 51.048 268.294 51.106 268.054 51.174C267.878 51.23 267.712 51.302 267.556 51.39C267.404 51.478 267.28 51.592 267.184 51.732C267.092 51.868 267.046 52.038 267.046 52.242C267.046 52.418 267.09 52.586 267.178 52.746C267.27 52.906 267.41 53.036 267.598 53.136C267.79 53.236 268.04 53.286 268.348 53.286ZM275.824 54.18C275.168 54.18 274.61 54.034 274.15 53.742C273.694 53.446 273.346 53.04 273.106 52.524C272.866 52.008 272.742 51.42 272.734 50.76C272.742 50.084 272.868 49.49 273.112 48.978C273.36 48.462 273.714 48.06 274.174 47.772C274.634 47.484 275.188 47.34 275.836 47.34C276.52 47.34 277.108 47.508 277.6 47.844C278.096 48.18 278.428 48.64 278.596 49.224L277.54 49.542C277.404 49.166 277.182 48.874 276.874 48.666C276.57 48.458 276.22 48.354 275.824 48.354C275.38 48.354 275.014 48.458 274.726 48.666C274.438 48.87 274.224 49.154 274.084 49.518C273.944 49.878 273.872 50.292 273.868 50.76C273.876 51.48 274.042 52.062 274.366 52.506C274.694 52.946 275.18 53.166 275.824 53.166C276.248 53.166 276.6 53.07 276.88 52.878C277.16 52.682 277.372 52.4 277.516 52.032L278.596 52.314C278.372 52.918 278.022 53.38 277.546 53.7C277.07 54.02 276.496 54.18 275.824 54.18ZM279.82 54V47.52H280.774V49.086L280.618 48.882C280.694 48.682 280.792 48.498 280.912 48.33C281.036 48.162 281.174 48.024 281.326 47.916C281.494 47.78 281.684 47.676 281.896 47.604C282.108 47.532 282.324 47.49 282.544 47.478C282.764 47.462 282.97 47.476 283.162 47.52V48.522C282.938 48.462 282.692 48.446 282.424 48.474C282.156 48.502 281.908 48.6 281.68 48.768C281.472 48.916 281.31 49.096 281.194 49.308C281.082 49.52 281.004 49.75 280.96 49.998C280.916 50.242 280.894 50.492 280.894 50.748V54H279.82ZM286.94 54.18C286.296 54.18 285.74 54.034 285.272 53.742C284.808 53.45 284.45 53.046 284.198 52.53C283.946 52.014 283.82 51.422 283.82 50.754C283.82 50.074 283.948 49.478 284.204 48.966C284.46 48.454 284.822 48.056 285.29 47.772C285.758 47.484 286.308 47.34 286.94 47.34C287.588 47.34 288.146 47.486 288.614 47.778C289.082 48.066 289.44 48.468 289.688 48.984C289.94 49.496 290.066 50.086 290.066 50.754C290.066 51.43 289.94 52.026 289.688 52.542C289.436 53.054 289.076 53.456 288.608 53.748C288.14 54.036 287.584 54.18 286.94 54.18ZM286.94 53.166C287.612 53.166 288.112 52.942 288.44 52.494C288.768 52.046 288.932 51.466 288.932 50.754C288.932 50.022 288.766 49.44 288.434 49.008C288.102 48.572 287.604 48.354 286.94 48.354C286.488 48.354 286.116 48.456 285.824 48.66C285.532 48.864 285.314 49.146 285.17 49.506C285.026 49.866 284.954 50.282 284.954 50.754C284.954 51.482 285.122 52.066 285.458 52.506C285.794 52.946 286.288 53.166 286.94 53.166ZM293.741 54.174C292.969 54.174 292.335 54.006 291.839 53.67C291.347 53.33 291.045 52.856 290.933 52.248L292.025 52.074C292.113 52.426 292.315 52.706 292.631 52.914C292.947 53.118 293.339 53.22 293.807 53.22C294.251 53.22 294.599 53.128 294.851 52.944C295.103 52.76 295.229 52.51 295.229 52.194C295.229 52.01 295.187 51.862 295.103 51.75C295.019 51.634 294.845 51.526 294.581 51.426C294.321 51.326 293.927 51.206 293.399 51.066C292.827 50.914 292.377 50.756 292.049 50.592C291.721 50.428 291.487 50.238 291.347 50.022C291.207 49.806 291.137 49.544 291.137 49.236C291.137 48.856 291.241 48.524 291.449 48.24C291.657 47.952 291.947 47.73 292.319 47.574C292.695 47.418 293.131 47.34 293.627 47.34C294.119 47.34 294.559 47.418 294.947 47.574C295.335 47.73 295.647 47.952 295.883 48.24C296.123 48.524 296.265 48.856 296.309 49.236L295.217 49.434C295.165 49.086 294.997 48.812 294.713 48.612C294.433 48.412 294.071 48.306 293.627 48.294C293.207 48.278 292.865 48.352 292.601 48.516C292.341 48.68 292.211 48.902 292.211 49.182C292.211 49.338 292.259 49.472 292.355 49.584C292.455 49.696 292.637 49.802 292.901 49.902C293.169 50.002 293.557 50.116 294.065 50.244C294.637 50.388 295.087 50.546 295.415 50.718C295.747 50.886 295.983 51.086 296.123 51.318C296.263 51.546 296.333 51.828 296.333 52.164C296.333 52.788 296.103 53.28 295.643 53.64C295.183 53.996 294.549 54.174 293.741 54.174ZM300.104 54.174C299.332 54.174 298.698 54.006 298.202 53.67C297.71 53.33 297.408 52.856 297.296 52.248L298.388 52.074C298.476 52.426 298.678 52.706 298.994 52.914C299.31 53.118 299.702 53.22 300.17 53.22C300.614 53.22 300.962 53.128 301.214 52.944C301.466 52.76 301.592 52.51 301.592 52.194C301.592 52.01 301.55 51.862 301.466 51.75C301.382 51.634 301.208 51.526 300.944 51.426C300.684 51.326 300.29 51.206 299.762 51.066C299.19 50.914 298.74 50.756 298.412 50.592C298.084 50.428 297.85 50.238 297.71 50.022C297.57 49.806 297.5 49.544 297.5 49.236C297.5 48.856 297.604 48.524 297.812 48.24C298.02 47.952 298.31 47.73 298.682 47.574C299.058 47.418 299.494 47.34 299.99 47.34C300.482 47.34 300.922 47.418 301.31 47.574C301.698 47.73 302.01 47.952 302.246 48.24C302.486 48.524 302.628 48.856 302.672 49.236L301.58 49.434C301.528 49.086 301.36 48.812 301.076 48.612C300.796 48.412 300.434 48.306 299.99 48.294C299.57 48.278 299.228 48.352 298.964 48.516C298.704 48.68 298.574 48.902 298.574 49.182C298.574 49.338 298.622 49.472 298.718 49.584C298.818 49.696 299 49.802 299.264 49.902C299.532 50.002 299.92 50.116 300.428 50.244C301 50.388 301.45 50.546 301.778 50.718C302.11 50.886 302.346 51.086 302.486 51.318C302.626 51.546 302.696 51.828 302.696 52.164C302.696 52.788 302.466 53.28 302.006 53.64C301.546 53.996 300.912 54.174 300.104 54.174ZM305.822 54L308.714 45.36H310.202L313.094 54H311.984L309.278 45.984H309.614L306.932 54H305.822ZM307.214 51.978V50.976H311.702V51.978H307.214ZM314.288 54V45.36H315.356V54H314.288ZM322.535 54.18C321.927 54.18 321.415 54.03 320.999 53.73C320.583 53.426 320.267 53.016 320.051 52.5C319.839 51.98 319.733 51.398 319.733 50.754C319.733 50.102 319.839 49.518 320.051 49.002C320.267 48.486 320.583 48.08 320.999 47.784C321.419 47.488 321.933 47.34 322.541 47.34C323.141 47.34 323.657 47.49 324.089 47.79C324.525 48.086 324.859 48.492 325.091 49.008C325.323 49.524 325.439 50.106 325.439 50.754C325.439 51.402 325.323 51.984 325.091 52.5C324.859 53.016 324.525 53.426 324.089 53.73C323.657 54.03 323.139 54.18 322.535 54.18ZM319.553 56.88V47.52H320.507V52.29H320.627V56.88H319.553ZM322.403 53.202C322.831 53.202 323.185 53.094 323.465 52.878C323.745 52.662 323.955 52.37 324.095 52.002C324.235 51.63 324.305 51.214 324.305 50.754C324.305 50.298 324.235 49.886 324.095 49.518C323.959 49.15 323.747 48.858 323.459 48.642C323.175 48.426 322.813 48.318 322.373 48.318C321.953 48.318 321.605 48.422 321.329 48.63C321.053 48.834 320.847 49.12 320.711 49.488C320.575 49.852 320.507 50.274 320.507 50.754C320.507 51.226 320.573 51.648 320.705 52.02C320.841 52.388 321.049 52.678 321.329 52.89C321.609 53.098 321.967 53.202 322.403 53.202ZM326.874 54V45.18H327.942V54H326.874ZM331.584 54.18C331.1 54.18 330.694 54.092 330.366 53.916C330.042 53.736 329.796 53.5 329.628 53.208C329.464 52.916 329.382 52.596 329.382 52.248C329.382 51.908 329.446 51.614 329.574 51.366C329.706 51.114 329.89 50.906 330.126 50.742C330.362 50.574 330.644 50.442 330.972 50.346C331.28 50.262 331.624 50.19 332.004 50.13C332.388 50.066 332.776 50.008 333.168 49.956C333.56 49.904 333.926 49.854 334.266 49.806L333.882 50.028C333.894 49.452 333.778 49.026 333.534 48.75C333.294 48.474 332.878 48.336 332.286 48.336C331.894 48.336 331.55 48.426 331.254 48.606C330.962 48.782 330.756 49.07 330.636 49.47L329.622 49.164C329.778 48.596 330.08 48.15 330.528 47.826C330.976 47.502 331.566 47.34 332.298 47.34C332.886 47.34 333.39 47.446 333.81 47.658C334.234 47.866 334.538 48.182 334.722 48.606C334.814 48.806 334.872 49.024 334.896 49.26C334.92 49.492 334.932 49.736 334.932 49.992V54H333.984V52.446L334.206 52.59C333.962 53.114 333.62 53.51 333.18 53.778C332.744 54.046 332.212 54.18 331.584 54.18ZM331.746 53.286C332.13 53.286 332.462 53.218 332.742 53.082C333.026 52.942 333.254 52.76 333.426 52.536C333.598 52.308 333.71 52.06 333.762 51.792C333.822 51.592 333.854 51.37 333.858 51.126C333.866 50.878 333.87 50.688 333.87 50.556L334.242 50.718C333.894 50.766 333.552 50.812 333.216 50.856C332.88 50.9 332.562 50.948 332.262 51C331.962 51.048 331.692 51.106 331.452 51.174C331.276 51.23 331.11 51.302 330.954 51.39C330.802 51.478 330.678 51.592 330.582 51.732C330.49 51.868 330.444 52.038 330.444 52.242C330.444 52.418 330.488 52.586 330.576 52.746C330.668 52.906 330.808 53.036 330.996 53.136C331.188 53.236 331.438 53.286 331.746 53.286ZM340.11 54C339.726 54.076 339.346 54.106 338.97 54.09C338.598 54.078 338.266 54.004 337.974 53.868C337.682 53.728 337.46 53.512 337.308 53.22C337.18 52.964 337.11 52.706 337.098 52.446C337.09 52.182 337.086 51.884 337.086 51.552V45.72H338.154V51.504C338.154 51.768 338.156 51.994 338.16 52.182C338.168 52.37 338.21 52.532 338.286 52.668C338.43 52.924 338.658 53.074 338.97 53.118C339.286 53.162 339.666 53.15 340.11 53.082V54ZM335.772 48.402V47.52H340.11V48.402H335.772ZM342.044 54V47.166C342.044 46.998 342.052 46.828 342.068 46.656C342.084 46.48 342.12 46.31 342.176 46.146C342.232 45.978 342.324 45.824 342.452 45.684C342.6 45.52 342.762 45.404 342.938 45.336C343.114 45.264 343.292 45.22 343.472 45.204C343.656 45.188 343.83 45.18 343.994 45.18H344.816V46.068H344.054C343.738 46.068 343.502 46.146 343.346 46.302C343.19 46.454 343.112 46.686 343.112 46.998V54H342.044ZM340.946 48.402V47.52H344.816V48.402H340.946ZM348.299 54.18C347.655 54.18 347.099 54.034 346.631 53.742C346.167 53.45 345.809 53.046 345.557 52.53C345.305 52.014 345.179 51.422 345.179 50.754C345.179 50.074 345.307 49.478 345.563 48.966C345.819 48.454 346.181 48.056 346.649 47.772C347.117 47.484 347.667 47.34 348.299 47.34C348.947 47.34 349.505 47.486 349.973 47.778C350.441 48.066 350.799 48.468 351.047 48.984C351.299 49.496 351.425 50.086 351.425 50.754C351.425 51.43 351.299 52.026 351.047 52.542C350.795 53.054 350.435 53.456 349.967 53.748C349.499 54.036 348.943 54.18 348.299 54.18ZM348.299 53.166C348.971 53.166 349.471 52.942 349.799 52.494C350.127 52.046 350.291 51.466 350.291 50.754C350.291 50.022 350.125 49.44 349.793 49.008C349.461 48.572 348.963 48.354 348.299 48.354C347.847 48.354 347.475 48.456 347.183 48.66C346.891 48.864 346.673 49.146 346.529 49.506C346.385 49.866 346.313 50.282 346.313 50.754C346.313 51.482 346.481 52.066 346.817 52.506C347.153 52.946 347.647 53.166 348.299 53.166ZM352.746 54V47.52H353.7V49.086L353.544 48.882C353.62 48.682 353.718 48.498 353.838 48.33C353.962 48.162 354.1 48.024 354.252 47.916C354.42 47.78 354.61 47.676 354.822 47.604C355.034 47.532 355.25 47.49 355.47 47.478C355.69 47.462 355.896 47.476 356.088 47.52V48.522C355.864 48.462 355.618 48.446 355.35 48.474C355.082 48.502 354.834 48.6 354.606 48.768C354.398 48.916 354.236 49.096 354.12 49.308C354.008 49.52 353.93 49.75 353.886 49.998C353.842 50.242 353.82 50.492 353.82 50.748V54H352.746ZM364.969 54L364.975 49.854C364.975 49.37 364.845 48.992 364.585 48.72C364.329 48.444 363.995 48.306 363.583 48.306C363.343 48.306 363.115 48.362 362.899 48.474C362.683 48.582 362.507 48.754 362.371 48.99C362.235 49.222 362.167 49.52 362.167 49.884L361.603 49.656C361.595 49.196 361.689 48.794 361.885 48.45C362.085 48.102 362.357 47.832 362.701 47.64C363.045 47.448 363.433 47.352 363.865 47.352C364.541 47.352 365.073 47.558 365.461 47.97C365.849 48.378 366.043 48.928 366.043 49.62L366.037 54H364.969ZM357.217 54V47.52H358.171V49.254H358.291V54H357.217ZM361.099 54L361.105 49.896C361.105 49.4 360.977 49.012 360.721 48.732C360.465 48.448 360.125 48.306 359.701 48.306C359.281 48.306 358.941 48.45 358.681 48.738C358.421 49.026 358.291 49.408 358.291 49.884L357.727 49.548C357.727 49.128 357.827 48.752 358.027 48.42C358.227 48.088 358.499 47.828 358.843 47.64C359.187 47.448 359.577 47.352 360.013 47.352C360.449 47.352 360.829 47.444 361.153 47.628C361.477 47.812 361.727 48.076 361.903 48.42C362.079 48.76 362.167 49.166 362.167 49.638L362.161 54H361.099ZM372.768 54.18C372.124 54.18 371.568 54.034 371.1 53.742C370.636 53.45 370.278 53.046 370.026 52.53C369.774 52.014 369.648 51.422 369.648 50.754C369.648 50.074 369.776 49.478 370.032 48.966C370.288 48.454 370.65 48.056 371.118 47.772C371.586 47.484 372.136 47.34 372.768 47.34C373.416 47.34 373.974 47.486 374.442 47.778C374.91 48.066 375.268 48.468 375.516 48.984C375.768 49.496 375.894 50.086 375.894 50.754C375.894 51.43 375.768 52.026 375.516 52.542C375.264 53.054 374.904 53.456 374.436 53.748C373.968 54.036 373.412 54.18 372.768 54.18ZM372.768 53.166C373.44 53.166 373.94 52.942 374.268 52.494C374.596 52.046 374.76 51.466 374.76 50.754C374.76 50.022 374.594 49.44 374.262 49.008C373.93 48.572 373.432 48.354 372.768 48.354C372.316 48.354 371.944 48.456 371.652 48.66C371.36 48.864 371.142 49.146 370.998 49.506C370.854 49.866 370.782 50.282 370.782 50.754C370.782 51.482 370.95 52.066 371.286 52.506C371.622 52.946 372.116 53.166 372.768 53.166ZM378.733 54L376.381 47.52H377.461L379.279 52.638L381.091 47.52H382.177L379.825 54H378.733ZM385.836 54.18C385.2 54.18 384.644 54.04 384.168 53.76C383.696 53.476 383.328 53.082 383.064 52.578C382.8 52.07 382.668 51.478 382.668 50.802C382.668 50.094 382.798 49.482 383.058 48.966C383.318 48.446 383.68 48.046 384.144 47.766C384.612 47.482 385.16 47.34 385.788 47.34C386.44 47.34 386.994 47.49 387.45 47.79C387.91 48.09 388.254 48.518 388.482 49.074C388.714 49.63 388.814 50.292 388.782 51.06H387.702V50.676C387.69 49.88 387.528 49.286 387.216 48.894C386.904 48.498 386.44 48.3 385.824 48.3C385.164 48.3 384.662 48.512 384.318 48.936C383.974 49.36 383.802 49.968 383.802 50.76C383.802 51.524 383.974 52.116 384.318 52.536C384.662 52.956 385.152 53.166 385.788 53.166C386.216 53.166 386.588 53.068 386.904 52.872C387.22 52.676 387.468 52.394 387.648 52.026L388.674 52.38C388.422 52.952 388.042 53.396 387.534 53.712C387.03 54.024 386.464 54.18 385.836 54.18ZM383.442 51.06V50.202H388.23V51.06H383.442ZM390.117 54V47.52H391.071V49.086L390.915 48.882C390.991 48.682 391.089 48.498 391.209 48.33C391.333 48.162 391.471 48.024 391.623 47.916C391.791 47.78 391.981 47.676 392.193 47.604C392.405 47.532 392.621 47.49 392.841 47.478C393.061 47.462 393.267 47.476 393.459 47.52V48.522C393.235 48.462 392.989 48.446 392.721 48.474C392.453 48.502 392.205 48.6 391.977 48.768C391.769 48.916 391.607 49.096 391.491 49.308C391.379 49.52 391.301 49.75 391.257 49.998C391.213 50.242 391.191 50.492 391.191 50.748V54H390.117ZM398.212 54C397.828 54.076 397.448 54.106 397.072 54.09C396.7 54.078 396.368 54.004 396.076 53.868C395.784 53.728 395.562 53.512 395.41 53.22C395.282 52.964 395.212 52.706 395.2 52.446C395.192 52.182 395.188 51.884 395.188 51.552V45.72H396.256V51.504C396.256 51.768 396.258 51.994 396.262 52.182C396.27 52.37 396.312 52.532 396.388 52.668C396.532 52.924 396.76 53.074 397.072 53.118C397.388 53.162 397.768 53.15 398.212 53.082V54ZM393.874 48.402V47.52H398.212V48.402H393.874ZM399.648 46.374V45.27H400.716V46.374H399.648ZM399.648 54V47.52H400.716V54H399.648ZM410.262 54L410.268 49.854C410.268 49.37 410.138 48.992 409.878 48.72C409.622 48.444 409.288 48.306 408.876 48.306C408.636 48.306 408.408 48.362 408.192 48.474C407.976 48.582 407.8 48.754 407.664 48.99C407.528 49.222 407.46 49.52 407.46 49.884L406.896 49.656C406.888 49.196 406.982 48.794 407.178 48.45C407.378 48.102 407.65 47.832 407.994 47.64C408.338 47.448 408.726 47.352 409.158 47.352C409.834 47.352 410.366 47.558 410.754 47.97C411.142 48.378 411.336 48.928 411.336 49.62L411.33 54H410.262ZM402.51 54V47.52H403.464V49.254H403.584V54H402.51ZM406.392 54L406.398 49.896C406.398 49.4 406.27 49.012 406.014 48.732C405.758 48.448 405.418 48.306 404.994 48.306C404.574 48.306 404.234 48.45 403.974 48.738C403.714 49.026 403.584 49.408 403.584 49.884L403.02 49.548C403.02 49.128 403.12 48.752 403.32 48.42C403.52 48.088 403.792 47.828 404.136 47.64C404.48 47.448 404.87 47.352 405.306 47.352C405.742 47.352 406.122 47.444 406.446 47.628C406.77 47.812 407.02 48.076 407.196 48.42C407.372 48.76 407.46 49.166 407.46 49.638L407.454 54H406.392ZM415.648 54.18C415.012 54.18 414.456 54.04 413.98 53.76C413.508 53.476 413.14 53.082 412.876 52.578C412.612 52.07 412.48 51.478 412.48 50.802C412.48 50.094 412.61 49.482 412.87 48.966C413.13 48.446 413.492 48.046 413.956 47.766C414.424 47.482 414.972 47.34 415.6 47.34C416.252 47.34 416.806 47.49 417.262 47.79C417.722 48.09 418.066 48.518 418.294 49.074C418.526 49.63 418.626 50.292 418.594 51.06H417.514V50.676C417.502 49.88 417.34 49.286 417.028 48.894C416.716 48.498 416.252 48.3 415.636 48.3C414.976 48.3 414.474 48.512 414.13 48.936C413.786 49.36 413.614 49.968 413.614 50.76C413.614 51.524 413.786 52.116 414.13 52.536C414.474 52.956 414.964 53.166 415.6 53.166C416.028 53.166 416.4 53.068 416.716 52.872C417.032 52.676 417.28 52.394 417.46 52.026L418.486 52.38C418.234 52.952 417.854 53.396 417.346 53.712C416.842 54.024 416.276 54.18 415.648 54.18ZM413.254 51.06V50.202H418.042V51.06H413.254Z" fill="#77788C"/>
<path d="M38.3324 92.995L38.3374 92.325L41.5924 89.385C41.8724 89.1317 42.0574 88.8917 42.1474 88.665C42.2408 88.435 42.2874 88.195 42.2874 87.945C42.2874 87.6483 42.2174 87.38 42.0774 87.14C41.9374 86.9 41.7491 86.71 41.5124 86.57C41.2758 86.4267 41.0108 86.355 40.7174 86.355C40.4108 86.355 40.1374 86.4283 39.8974 86.575C39.6574 86.7217 39.4674 86.915 39.3274 87.155C39.1908 87.395 39.1241 87.6567 39.1274 87.94H38.3774C38.3774 87.5033 38.4808 87.1117 38.6874 86.765C38.8941 86.4183 39.1741 86.1467 39.5274 85.95C39.8808 85.75 40.2808 85.65 40.7274 85.65C41.1641 85.65 41.5558 85.7533 41.9024 85.96C42.2524 86.1633 42.5274 86.44 42.7274 86.79C42.9308 87.1367 43.0324 87.5233 43.0324 87.95C43.0324 88.25 42.9958 88.515 42.9224 88.745C42.8524 88.9717 42.7408 89.1833 42.5874 89.38C42.4374 89.5733 42.2458 89.7733 42.0124 89.98L39.1224 92.59L39.0074 92.29H43.0324V92.995H38.3324ZM46.2855 93.15C45.8422 93.15 45.4422 93.0467 45.0855 92.84C44.7322 92.6333 44.4522 92.3533 44.2455 92C44.0389 91.6433 43.9355 91.2433 43.9355 90.8V88C43.9355 87.5567 44.0389 87.1583 44.2455 86.805C44.4522 86.4483 44.7322 86.1667 45.0855 85.96C45.4422 85.7533 45.8422 85.65 46.2855 85.65C46.7289 85.65 47.1272 85.7533 47.4805 85.96C47.8372 86.1667 48.1189 86.4483 48.3255 86.805C48.5322 87.1583 48.6355 87.5567 48.6355 88V90.8C48.6355 91.2433 48.5322 91.6433 48.3255 92C48.1189 92.3533 47.8372 92.6333 47.4805 92.84C47.1272 93.0467 46.7289 93.15 46.2855 93.15ZM46.2855 92.44C46.5822 92.44 46.8522 92.3683 47.0955 92.225C47.3389 92.0783 47.5322 91.8833 47.6755 91.64C47.8189 91.3967 47.8905 91.1283 47.8905 90.835V87.965C47.8905 87.6683 47.8189 87.3983 47.6755 87.155C47.5322 86.9117 47.3389 86.7183 47.0955 86.575C46.8522 86.4283 46.5822 86.355 46.2855 86.355C45.9889 86.355 45.7189 86.4283 45.4755 86.575C45.2322 86.7183 45.0389 86.9117 44.8955 87.155C44.7522 87.3983 44.6805 87.6683 44.6805 87.965V90.835C44.6805 91.1283 44.7522 91.3967 44.8955 91.64C45.0389 91.8833 45.2322 92.0783 45.4755 92.225C45.7189 92.3683 45.9889 92.44 46.2855 92.44ZM49.7341 93L49.7391 85.8H50.4791V90.2L52.8891 87.6H53.8691L51.3391 90.3L54.1991 93H53.1291L50.4791 90.4V93H49.7341Z" fill="#9CA3AF"/>
<path d="M41.4964 131V124.62L40.1414 125.435V124.61L41.4964 123.8H42.2414V131H41.4964ZM46.2729 131.15C45.8229 131.15 45.4129 131.042 45.0429 130.825C44.6762 130.605 44.3829 130.308 44.1629 129.935C43.9462 129.558 43.8379 129.135 43.8379 128.665V126.17C43.8379 125.687 43.9462 125.257 44.1629 124.88C44.3796 124.5 44.6746 124.202 45.0479 123.985C45.4246 123.765 45.8512 123.655 46.3279 123.655C46.7379 123.655 47.1179 123.745 47.4679 123.925C47.8212 124.105 48.1096 124.357 48.3329 124.68L47.7679 125.145C47.6146 124.905 47.4112 124.713 47.1579 124.57C46.9046 124.427 46.6279 124.355 46.3279 124.355C45.9912 124.355 45.6912 124.437 45.4279 124.6C45.1646 124.763 44.9579 124.978 44.8079 125.245C44.6579 125.508 44.5829 125.795 44.5829 126.105V127.675L44.3979 127.465C44.6079 127.135 44.8829 126.868 45.2229 126.665C45.5662 126.462 45.9396 126.36 46.3429 126.36C46.7896 126.36 47.1912 126.467 47.5479 126.68C47.9046 126.89 48.1879 127.175 48.3979 127.535C48.6079 127.895 48.7129 128.298 48.7129 128.745C48.7129 129.188 48.6012 129.592 48.3779 129.955C48.1579 130.318 47.8629 130.608 47.4929 130.825C47.1262 131.042 46.7196 131.15 46.2729 131.15ZM46.2729 130.435C46.5862 130.435 46.8712 130.36 47.1279 130.21C47.3879 130.06 47.5929 129.857 47.7429 129.6C47.8962 129.343 47.9729 129.058 47.9729 128.745C47.9729 128.432 47.8962 128.147 47.7429 127.89C47.5929 127.63 47.3896 127.425 47.1329 127.275C46.8762 127.122 46.5912 127.045 46.2779 127.045C45.9646 127.045 45.6796 127.122 45.4229 127.275C45.1662 127.425 44.9612 127.63 44.8079 127.89C44.6579 128.147 44.5829 128.432 44.5829 128.745C44.5829 129.055 44.6579 129.338 44.8079 129.595C44.9579 129.852 45.1612 130.057 45.4179 130.21C45.6746 130.36 45.9596 130.435 46.2729 130.435ZM49.7341 131L49.7391 123.8H50.4791V128.2L52.8891 125.6H53.8691L51.3391 128.3L54.1991 131H53.1291L50.4791 128.4V131H49.7341Z" fill="#9CA3AF"/>
<path d="M41.5941 169V162.62L40.2391 163.435V162.61L41.5941 161.8H42.3391V169H41.5941ZM46.2855 169.15C45.8422 169.15 45.4422 169.047 45.0855 168.84C44.7322 168.633 44.4522 168.353 44.2455 168C44.0389 167.643 43.9355 167.243 43.9355 166.8V164C43.9355 163.557 44.0389 163.158 44.2455 162.805C44.4522 162.448 44.7322 162.167 45.0855 161.96C45.4422 161.753 45.8422 161.65 46.2855 161.65C46.7289 161.65 47.1272 161.753 47.4805 161.96C47.8372 162.167 48.1189 162.448 48.3255 162.805C48.5322 163.158 48.6355 163.557 48.6355 164V166.8C48.6355 167.243 48.5322 167.643 48.3255 168C48.1189 168.353 47.8372 168.633 47.4805 168.84C47.1272 169.047 46.7289 169.15 46.2855 169.15ZM46.2855 168.44C46.5822 168.44 46.8522 168.368 47.0955 168.225C47.3389 168.078 47.5322 167.883 47.6755 167.64C47.8189 167.397 47.8905 167.128 47.8905 166.835V163.965C47.8905 163.668 47.8189 163.398 47.6755 163.155C47.5322 162.912 47.3389 162.718 47.0955 162.575C46.8522 162.428 46.5822 162.355 46.2855 162.355C45.9889 162.355 45.7189 162.428 45.4755 162.575C45.2322 162.718 45.0389 162.912 44.8955 163.155C44.7522 163.398 44.6805 163.668 44.6805 163.965V166.835C44.6805 167.128 44.7522 167.397 44.8955 167.64C45.0389 167.883 45.2322 168.078 45.4755 168.225C45.7189 168.368 45.9889 168.44 46.2855 168.44ZM49.7341 169L49.7391 161.8H50.4791V166.2L52.8891 163.6H53.8691L51.3391 166.3L54.1991 169H53.1291L50.4791 166.4V169H49.7341Z" fill="#9CA3AF"/>
<path d="M46.4333 207.15C45.9833 207.15 45.5849 207.06 45.2383 206.88C44.8949 206.7 44.6249 206.448 44.4283 206.125C44.2349 205.798 44.1383 205.417 44.1383 204.98C44.1383 204.533 44.2466 204.137 44.4633 203.79C44.6799 203.44 45.0099 203.175 45.4533 202.995L45.4433 203.285C45.0733 203.148 44.7916 202.925 44.5983 202.615C44.4049 202.305 44.3083 201.962 44.3083 201.585C44.3083 201.185 44.3999 200.842 44.5833 200.555C44.7666 200.265 45.0166 200.042 45.3333 199.885C45.6533 199.728 46.0199 199.65 46.4333 199.65C46.8466 199.65 47.2133 199.728 47.5333 199.885C47.8533 200.042 48.1049 200.265 48.2883 200.555C48.4716 200.842 48.5633 201.185 48.5633 201.585C48.5633 201.962 48.4699 202.303 48.2833 202.61C48.0999 202.917 47.8183 203.142 47.4383 203.285L47.4133 202.995C47.8566 203.172 48.1883 203.435 48.4083 203.785C48.6316 204.135 48.7433 204.533 48.7433 204.98C48.7433 205.417 48.6449 205.798 48.4483 206.125C48.2516 206.448 47.9799 206.7 47.6333 206.88C47.2866 207.06 46.8866 207.15 46.4333 207.15ZM46.4333 206.445C46.8866 206.445 47.2549 206.32 47.5383 206.07C47.8216 205.817 47.9633 205.453 47.9633 204.98C47.9633 204.5 47.8233 204.137 47.5433 203.89C47.2633 203.64 46.8933 203.515 46.4333 203.515C45.9733 203.515 45.6049 203.64 45.3283 203.89C45.0516 204.137 44.9133 204.5 44.9133 204.98C44.9133 205.453 45.0533 205.817 45.3333 206.07C45.6133 206.32 45.9799 206.445 46.4333 206.445ZM46.4333 202.805C46.8333 202.805 47.1583 202.703 47.4083 202.5C47.6583 202.293 47.7833 201.988 47.7833 201.585C47.7833 201.182 47.6583 200.88 47.4083 200.68C47.1583 200.477 46.8333 200.375 46.4333 200.375C46.0333 200.375 45.7083 200.477 45.4583 200.68C45.2116 200.88 45.0883 201.182 45.0883 201.585C45.0883 201.988 45.2116 202.293 45.4583 202.5C45.7083 202.703 46.0333 202.805 46.4333 202.805ZM49.7341 207L49.7391 199.8H50.4791V204.2L52.8891 201.6H53.8691L51.3391 204.3L54.1991 207H53.1291L50.4791 204.4V207H49.7341Z" fill="#9CA3AF"/>
<path d="M50.9465 245.15C50.5032 245.15 50.1032 245.047 49.7465 244.84C49.3932 244.633 49.1132 244.353 48.9065 244C48.6998 243.643 48.5965 243.243 48.5965 242.8V240C48.5965 239.557 48.6998 239.158 48.9065 238.805C49.1132 238.448 49.3932 238.167 49.7465 237.96C50.1032 237.753 50.5032 237.65 50.9465 237.65C51.3898 237.65 51.7882 237.753 52.1415 237.96C52.4982 238.167 52.7798 238.448 52.9865 238.805C53.1932 239.158 53.2965 239.557 53.2965 240V242.8C53.2965 243.243 53.1932 243.643 52.9865 244C52.7798 244.353 52.4982 244.633 52.1415 244.84C51.7882 245.047 51.3898 245.15 50.9465 245.15ZM50.9465 244.44C51.2432 244.44 51.5132 244.368 51.7565 244.225C51.9998 244.078 52.1932 243.883 52.3365 243.64C52.4798 243.397 52.5515 243.128 52.5515 242.835V239.965C52.5515 239.668 52.4798 239.398 52.3365 239.155C52.1932 238.912 51.9998 238.718 51.7565 238.575C51.5132 238.428 51.2432 238.355 50.9465 238.355C50.6498 238.355 50.3798 238.428 50.1365 238.575C49.8932 238.718 49.6998 238.912 49.5565 239.155C49.4132 239.398 49.3415 239.668 49.3415 239.965V242.835C49.3415 243.128 49.4132 243.397 49.5565 243.64C49.6998 243.883 49.8932 244.078 50.1365 244.225C50.3798 244.368 50.6498 244.44 50.9465 244.44Z" fill="#9CA3AF"/>
<mask id="mask0_611_990" style="mask-type:alpha" maskUnits="userSpaceOnUse" x="66" y="82" width="833" height="241">
<rect x="66.5" y="82.5" width="832" height="240" fill="#D9D9D9" stroke="#2563EB"/>
</mask>
<g mask="url(#mask0_611_990)">
<line x1="66" y1="90.3281" x2="899" y2="90.3281" stroke="#F1F5F9"/>
<line x1="66" y1="204.649" x2="899" y2="204.649" stroke="#F1F5F9"/>
<line x1="66" y1="260.264" x2="899" y2="260.264" stroke="#F1F5F9"/>
<line x1="66" y1="150.578" x2="899" y2="150.578" stroke="#F1F5F9"/>
<line x1="66" y1="322.5" x2="899" y2="322.5" stroke="#F1F5F9"/>
<path d="M1053.6 101.571C1074.44 93.2326 1095.09 91.0567 1115.59 95.7451C1136.09 100.435 1156.49 112 1176.79 131.209L1176.79 131.215C1218.24 169.185 1259.71 237.684 1279.25 271.418L1279.26 271.432L1300.35 305.354V330.225H-1042.77V229.735L-1023.08 246.04C-1012.74 254.692 -997.075 267.423 -978.888 276.42C-960.702 285.417 -939.929 290.714 -919.407 284.402L-919.402 284.4C-898.842 277.861 -878.414 259.773 -857.895 239.653C-837.336 219.495 -816.666 197.278 -795.547 182.279L-795.54 182.274C-755.324 152.65 -714.462 152.634 -673.801 156.855V156.856C-632.155 161.398 -590.841 169.365 -550.182 182.349L-550.175 182.351C-539.845 185.478 -529.494 188.918 -519.134 192.32C-508.777 195.721 -498.411 199.083 -488.064 202.046C-467.374 207.97 -446.73 212.309 -426.314 212.189V212.19L-426.312 212.189H-426.31C-405.754 212.309 -385.333 207.974 -364.876 205.25C-344.386 202.522 -323.799 201.398 -302.741 207.863C-282.484 214.094 -262.199 227.936 -241.641 242.89C-221.114 257.821 -200.317 273.857 -179.11 284.365V284.366C-138.595 305.73 -97.4022 305.729 -56.5635 284.37L-56.5625 284.371C-35.6687 273.858 -14.8759 257.819 5.76758 239.672C26.4072 221.528 46.9374 201.239 67.2705 182.238C87.945 162.983 108.659 145.026 129.27 133.968C149.87 122.915 170.299 118.79 190.457 127.083H190.459C200.637 131.237 210.802 138.619 221 147.714C231.196 156.807 241.396 167.587 251.653 178.517C272.135 200.341 292.875 222.804 314.133 233.34V233.341C334.554 244.065 355.046 242.987 375.486 237.126C395.89 231.276 416.355 220.619 436.646 212.152C478.425 194.875 519.527 186.924 560.123 190.9H560.124C600.242 194.753 640.386 211.3 679.844 231.388L683.66 233.343C704.229 243.975 725.02 255.694 745.741 264.216C766.469 272.74 787.192 278.096 807.659 275.971L807.662 275.97C828.205 273.685 848.631 264.13 869.194 250.355C889.759 236.58 910.498 218.559 931.661 199.304L931.667 199.299C951.949 180.269 972.276 160.017 992.635 142.416C1012.99 124.817 1033.33 109.912 1053.6 101.571Z" fill="url(#paint0_linear_611_990)" stroke="#7C3AED"/>
<path d="M823.374 101.571C844.21 93.2326 864.862 91.0567 885.363 95.7451C905.869 100.435 926.262 112 946.562 131.209L946.568 131.215C988.013 169.185 1029.49 237.684 1049.03 271.418L1049.03 271.425L1049.04 271.432L1070.12 305.354V330.225H-1273V229.735L-1253.31 246.04C-1242.97 254.692 -1227.3 267.423 -1209.11 276.42C-1190.93 285.417 -1170.15 290.714 -1149.63 284.402L-1149.63 284.4C-1129.07 277.861 -1108.64 259.773 -1088.12 239.653C-1067.56 219.495 -1046.89 197.278 -1025.77 182.279L-1025.77 182.274C-985.55 152.65 -944.688 152.634 -904.027 156.855V156.856C-862.381 161.398 -821.067 169.365 -780.408 182.349L-780.4 182.351C-770.07 185.478 -759.72 188.919 -749.36 192.32C-739.002 195.721 -728.637 199.083 -718.29 202.046C-697.6 207.97 -676.956 212.309 -656.54 212.189V212.19L-656.537 212.189H-656.536C-635.98 212.309 -615.559 207.974 -595.102 205.25C-574.612 202.522 -554.025 201.398 -532.967 207.863C-512.71 214.094 -492.425 227.936 -471.867 242.89C-451.34 257.821 -430.543 273.857 -409.336 284.365V284.366C-368.821 305.73 -327.628 305.729 -286.789 284.37L-286.788 284.371C-265.895 273.858 -245.102 257.819 -224.458 239.672C-203.819 221.528 -183.289 201.239 -162.955 182.238C-142.281 162.983 -121.567 145.026 -100.956 133.968C-80.3558 122.915 -59.9272 118.79 -39.7689 127.083H-39.767C-29.5887 131.237 -19.4238 138.619 -9.22595 147.714C0.969667 156.807 11.1698 167.587 21.4274 178.517C41.9095 200.341 62.6487 222.804 83.9069 233.34V233.341C104.328 244.065 124.82 242.987 145.26 237.126C165.664 231.276 186.129 220.619 206.42 212.152C248.199 194.875 289.301 186.924 329.897 190.9H329.898C370.016 194.753 410.161 211.3 449.619 231.388L453.434 233.343C474.004 243.975 494.794 255.694 515.515 264.216C536.243 272.74 556.966 278.096 577.433 275.971L577.436 275.97C597.979 273.685 618.405 264.13 638.968 250.355C658.248 237.441 677.68 220.795 697.472 202.898L701.435 199.304L701.441 199.299C721.724 180.269 742.051 160.017 762.41 142.416C782.765 124.818 803.103 109.912 823.374 101.571Z" fill="url(#paint1_linear_611_990)" stroke="#F43F5E"/>
</g>
<rect x="20" y="331" width="99.375" height="14" fill="white"/>
<path d="M178.368 342V335.62L177.013 336.435V335.61L178.368 334.8H179.113V342H178.368ZM180.509 341.995L180.514 341.325L183.769 338.385C184.049 338.132 184.234 337.892 184.324 337.665C184.418 337.435 184.464 337.195 184.464 336.945C184.464 336.648 184.394 336.38 184.254 336.14C184.114 335.9 183.926 335.71 183.689 335.57C183.453 335.427 183.188 335.355 182.894 335.355C182.588 335.355 182.314 335.428 182.074 335.575C181.834 335.722 181.644 335.915 181.504 336.155C181.368 336.395 181.301 336.657 181.304 336.94H180.554C180.554 336.503 180.658 336.112 180.864 335.765C181.071 335.418 181.351 335.147 181.704 334.95C182.058 334.75 182.458 334.65 182.904 334.65C183.341 334.65 183.733 334.753 184.079 334.96C184.429 335.163 184.704 335.44 184.904 335.79C185.108 336.137 185.209 336.523 185.209 336.95C185.209 337.25 185.173 337.515 185.099 337.745C185.029 337.972 184.918 338.183 184.764 338.38C184.614 338.573 184.423 338.773 184.189 338.98L181.299 341.59L181.184 341.29H185.209V341.995H180.509Z" fill="#9CA3AF"/>
<path d="M289.831 342V335.62L288.476 336.435V335.61L289.831 334.8H290.576V342H289.831ZM294.107 342.145C293.75 342.145 293.422 342.082 293.122 341.955C292.822 341.828 292.564 341.648 292.347 341.415C292.13 341.178 291.972 340.897 291.872 340.57L292.572 340.36C292.692 340.717 292.889 340.987 293.162 341.17C293.439 341.353 293.75 341.442 294.097 341.435C294.417 341.428 294.692 341.357 294.922 341.22C295.155 341.083 295.334 340.893 295.457 340.65C295.58 340.407 295.642 340.125 295.642 339.805C295.642 339.315 295.499 338.922 295.212 338.625C294.929 338.325 294.554 338.175 294.087 338.175C293.957 338.175 293.82 338.193 293.677 338.23C293.534 338.263 293.4 338.312 293.277 338.375L292.907 337.79L295.707 335.205L295.827 335.505H292.157V334.8H296.317V335.515L293.877 337.845L293.867 337.555C294.367 337.492 294.807 337.548 295.187 337.725C295.567 337.902 295.864 338.172 296.077 338.535C296.294 338.895 296.402 339.318 296.402 339.805C296.402 340.265 296.302 340.672 296.102 341.025C295.905 341.375 295.634 341.65 295.287 341.85C294.94 342.047 294.547 342.145 294.107 342.145Z" fill="#9CA3AF"/>
<path d="M401.02 342V335.62L399.665 336.435V335.61L401.02 334.8H401.765V342H401.02ZM406.532 342V340.605H403.162V339.905L405.572 334.8H406.397L403.987 339.905H406.532V337.805H407.272V339.905H408.057V340.605H407.272V342H406.532Z" fill="#9CA3AF"/>
<path d="M512.459 342V335.62L511.104 336.435V335.61L512.459 334.8H513.204V342H512.459ZM516.925 342.15C516.552 342.15 516.207 342.073 515.89 341.92C515.573 341.767 515.303 341.555 515.08 341.285C514.857 341.015 514.697 340.705 514.6 340.355L515.305 340.165C515.368 340.425 515.483 340.65 515.65 340.84C515.817 341.027 516.012 341.172 516.235 341.275C516.462 341.378 516.698 341.43 516.945 341.43C517.265 341.43 517.552 341.353 517.805 341.2C518.062 341.043 518.265 340.837 518.415 340.58C518.565 340.323 518.64 340.042 518.64 339.735C518.64 339.418 518.562 339.133 518.405 338.88C518.248 338.623 518.042 338.42 517.785 338.27C517.528 338.12 517.248 338.045 516.945 338.045C516.605 338.045 516.312 338.12 516.065 338.27C515.818 338.417 515.622 338.602 515.475 338.825L514.805 338.545L515.025 334.8H518.87V335.505H515.35L515.715 335.16L515.52 338.355L515.335 338.11C515.542 337.873 515.792 337.688 516.085 337.555C516.378 337.422 516.687 337.355 517.01 337.355C517.453 337.355 517.853 337.462 518.21 337.675C518.567 337.885 518.85 338.17 519.06 338.53C519.27 338.89 519.375 339.292 519.375 339.735C519.375 340.175 519.263 340.578 519.04 340.945C518.817 341.308 518.52 341.6 518.15 341.82C517.78 342.04 517.372 342.15 516.925 342.15Z" fill="#9CA3AF"/>
<path d="M623.619 342V335.62L622.264 336.435V335.61L623.619 334.8H624.364V342H623.619ZM628.395 342.15C627.945 342.15 627.535 342.042 627.165 341.825C626.798 341.605 626.505 341.308 626.285 340.935C626.068 340.558 625.96 340.135 625.96 339.665V337.17C625.96 336.687 626.068 336.257 626.285 335.88C626.502 335.5 626.797 335.202 627.17 334.985C627.547 334.765 627.973 334.655 628.45 334.655C628.86 334.655 629.24 334.745 629.59 334.925C629.943 335.105 630.232 335.357 630.455 335.68L629.89 336.145C629.737 335.905 629.533 335.713 629.28 335.57C629.027 335.427 628.75 335.355 628.45 335.355C628.113 335.355 627.813 335.437 627.55 335.6C627.287 335.763 627.08 335.978 626.93 336.245C626.78 336.508 626.705 336.795 626.705 337.105V338.675L626.52 338.465C626.73 338.135 627.005 337.868 627.345 337.665C627.688 337.462 628.062 337.36 628.465 337.36C628.912 337.36 629.313 337.467 629.67 337.68C630.027 337.89 630.31 338.175 630.52 338.535C630.73 338.895 630.835 339.298 630.835 339.745C630.835 340.188 630.723 340.592 630.5 340.955C630.28 341.318 629.985 341.608 629.615 341.825C629.248 342.042 628.842 342.15 628.395 342.15ZM628.395 341.435C628.708 341.435 628.993 341.36 629.25 341.21C629.51 341.06 629.715 340.857 629.865 340.6C630.018 340.343 630.095 340.058 630.095 339.745C630.095 339.432 630.018 339.147 629.865 338.89C629.715 338.63 629.512 338.425 629.255 338.275C628.998 338.122 628.713 338.045 628.4 338.045C628.087 338.045 627.802 338.122 627.545 338.275C627.288 338.425 627.083 338.63 626.93 338.89C626.78 339.147 626.705 339.432 626.705 339.745C626.705 340.055 626.78 340.338 626.93 340.595C627.08 340.852 627.283 341.057 627.54 341.21C627.797 341.36 628.082 341.435 628.395 341.435Z" fill="#9CA3AF"/>
<path d="M735.584 342V335.62L734.229 336.435V335.61L735.584 334.8H736.329V342H735.584ZM738.311 342L740.961 335.515H737.626V334.8H741.746V335.515L739.101 342H738.311Z" fill="#9CA3AF"/>
<path d="M846.569 342V335.62L845.214 336.435V335.61L846.569 334.8H847.314V342H846.569ZM851.105 342.15C850.655 342.15 850.257 342.06 849.91 341.88C849.567 341.7 849.297 341.448 849.1 341.125C848.907 340.798 848.81 340.417 848.81 339.98C848.81 339.533 848.919 339.137 849.135 338.79C849.352 338.44 849.682 338.175 850.125 337.995L850.115 338.285C849.745 338.148 849.464 337.925 849.27 337.615C849.077 337.305 848.98 336.962 848.98 336.585C848.98 336.185 849.072 335.842 849.255 335.555C849.439 335.265 849.689 335.042 850.005 334.885C850.325 334.728 850.692 334.65 851.105 334.65C851.519 334.65 851.885 334.728 852.205 334.885C852.525 335.042 852.777 335.265 852.96 335.555C853.144 335.842 853.235 336.185 853.235 336.585C853.235 336.962 853.142 337.303 852.955 337.61C852.772 337.917 852.49 338.142 852.11 338.285L852.085 337.995C852.529 338.172 852.86 338.435 853.08 338.785C853.304 339.135 853.415 339.533 853.415 339.98C853.415 340.417 853.317 340.798 853.12 341.125C852.924 341.448 852.652 341.7 852.305 341.88C851.959 342.06 851.559 342.15 851.105 342.15ZM851.105 341.445C851.559 341.445 851.927 341.32 852.21 341.07C852.494 340.817 852.635 340.453 852.635 339.98C852.635 339.5 852.495 339.137 852.215 338.89C851.935 338.64 851.565 338.515 851.105 338.515C850.645 338.515 850.277 338.64 850 338.89C849.724 339.137 849.585 339.5 849.585 339.98C849.585 340.453 849.725 340.817 850.005 341.07C850.285 341.32 850.652 341.445 851.105 341.445ZM851.105 337.805C851.505 337.805 851.83 337.703 852.08 337.5C852.33 337.293 852.455 336.988 852.455 336.585C852.455 336.182 852.33 335.88 852.08 335.68C851.83 335.477 851.505 335.375 851.105 335.375C850.705 335.375 850.38 335.477 850.13 335.68C849.884 335.88 849.76 336.182 849.76 336.585C849.76 336.988 849.884 337.293 850.13 337.5C850.38 337.703 850.705 337.805 851.105 337.805Z" fill="#9CA3AF"/>
<defs>
<linearGradient id="paint0_linear_611_990" x1="128.789" y1="92.8145" x2="128.789" y2="330.725" gradientUnits="userSpaceOnUse">
<stop stop-color="#7C3AED" stop-opacity="0.1"/>
<stop offset="1" stop-color="#7C3AED" stop-opacity="0"/>
</linearGradient>
<linearGradient id="paint1_linear_611_990" x1="-101.437" y1="92.8145" x2="-101.437" y2="330.725" gradientUnits="userSpaceOnUse">
<stop stop-color="#F43F5E" stop-opacity="0.1"/>
<stop offset="1" stop-color="#F43F5E" stop-opacity="0"/>
</linearGradient>
</defs>
</svg>
