<svg width="1051" height="441" viewBox="0 0 1051 441" fill="none" xmlns="http://www.w3.org/2000/svg">
<g clip-path="url(#clip0_655_1538)">
<path d="M1032.7 0.604492H18.2955C8.50556 0.604492 0.569214 8.98903 0.569214 19.3319V421.669C0.569214 432.012 8.50556 440.396 18.2955 440.396H1032.7C1042.49 440.396 1050.43 432.012 1050.43 421.669V19.3319C1050.43 8.98903 1042.49 0.604492 1032.7 0.604492Z" fill="white"/>
<path d="M1032.7 0.604492H18.2955C8.50556 0.604492 0.569214 8.98903 0.569214 19.3319V421.669C0.569214 432.012 8.50556 440.396 18.2955 440.396H1032.7C1042.49 440.396 1050.43 432.012 1050.43 421.669V19.3319C1050.43 8.98903 1042.49 0.604492 1032.7 0.604492Z" stroke="#E2E8F0"/>
<path d="M52.6046 30.8096H32.0192C27.2821 30.8096 23.4419 34.8666 23.4419 39.8712V61.6192C23.4419 66.6238 27.2821 70.6808 32.0192 70.6808H52.6046C57.3417 70.6808 61.1818 66.6238 61.1818 61.6192V39.8712C61.1818 34.8666 57.3417 30.8096 52.6046 30.8096Z" fill="white"/>
<path d="M52.6046 30.8096H32.0192C27.2821 30.8096 23.4419 34.8666 23.4419 39.8712V61.6192C23.4419 66.6238 27.2821 70.6808 32.0192 70.6808H52.6046C57.3417 70.6808 61.1818 66.6238 61.1818 61.6192V39.8712C61.1818 34.8666 57.3417 30.8096 52.6046 30.8096Z" stroke="#E2E8F0"/>
<path d="M43.8367 43.5538C44.5912 44.0139 45.2436 44.6394 45.75 45.3882C46.2565 46.137 46.6052 46.9917 46.7729 47.8948C46.9404 48.798 46.9229 49.7286 46.7216 50.624C46.5202 51.5194 46.1396 52.3589 45.6056 53.0858L49.7127 57.4249C49.8515 57.5769 49.9284 57.7804 49.9267 57.9916C49.925 58.2028 49.8448 58.4048 49.7034 58.5541C49.5621 58.7035 49.3709 58.7882 49.171 58.79C48.971 58.7918 48.7785 58.7106 48.6346 58.5639L44.5267 54.2248C43.6251 54.964 42.5452 55.4212 41.4099 55.5443C40.2746 55.6676 39.1294 55.4517 38.1043 54.9214C37.0794 54.3911 36.2157 53.5676 35.6118 52.5446C35.0078 51.5214 34.6876 50.3399 34.6876 49.1341L34.6914 48.9046C34.7289 47.7936 35.0378 46.7118 35.5881 45.7643C36.1384 44.8168 36.9114 44.0358 37.8319 43.4972C38.7524 42.9587 39.7891 42.6808 40.8414 42.6907C41.8935 42.7006 42.9255 42.9979 43.8367 43.5538ZM42.3119 45.9123H40.4058C39.9003 45.9123 39.4154 46.1244 39.058 46.502C38.7005 46.8797 38.4997 47.3919 38.4997 47.9259C38.4997 48.4601 38.7005 48.9722 39.058 49.3498C39.4154 49.7275 39.9003 49.9396 40.4058 49.9396H41.1683C41.2694 49.9396 41.3663 49.982 41.4378 50.0576C41.5093 50.1331 41.5494 50.2355 41.5494 50.3423C41.5494 50.4491 41.5093 50.5516 41.4378 50.6271C41.3663 50.7026 41.2694 50.7452 41.1683 50.7452H39.2622C39.06 50.7452 38.866 50.83 38.7231 50.981C38.5801 51.132 38.4997 51.3369 38.4997 51.5506C38.4997 51.7642 38.5801 51.9691 38.7231 52.1201C38.866 52.2713 39.06 52.3561 39.2622 52.3561H41.1683C41.6737 52.3561 42.1585 52.1439 42.516 51.7662C42.8734 51.3887 43.0742 50.8765 43.0742 50.3423C43.0742 49.8083 42.8734 49.2961 42.516 48.9185C42.1585 48.5409 41.6737 48.3287 41.1683 48.3287H40.4058C40.3047 48.3287 40.2077 48.2862 40.1362 48.2107C40.0648 48.1352 40.0246 48.0327 40.0246 47.9259C40.0246 47.8191 40.0648 47.7166 40.1362 47.6411C40.2077 47.5656 40.3047 47.5232 40.4058 47.5232H42.3119C42.5141 47.5232 42.7079 47.4384 42.851 47.2872C42.994 47.1362 43.0742 46.9313 43.0742 46.7177C43.0742 46.5041 42.994 46.2992 42.851 46.1481C42.7079 45.9971 42.5141 45.9123 42.3119 45.9123Z" fill="#2563EB"/>
<path d="M81.3326 45.9128V31.9941H86.511C87.3466 31.9941 88.0481 32.1745 88.6153 32.5354C89.1826 32.8963 89.6095 33.3634 89.8962 33.9369C90.1828 34.5039 90.3262 35.1032 90.3262 35.7347C90.3262 36.5016 90.1462 37.1589 89.7864 37.7066C89.4325 38.2542 88.9538 38.6281 88.35 38.8278L88.3317 38.3542C89.1734 38.5732 89.8199 39.0018 90.2713 39.6397C90.7226 40.2712 90.9483 41.009 90.9483 41.8532C90.9483 42.6715 90.7928 43.3836 90.4817 43.9893C90.1767 44.595 89.7284 45.0686 89.1368 45.4102C88.5513 45.7452 87.8406 45.9128 87.0051 45.9128H81.3326ZM83.2722 43.9893H86.7123C87.1453 43.9893 87.5326 43.9023 87.8742 43.7283C88.2219 43.5543 88.4933 43.3063 88.6885 42.9841C88.8898 42.6554 88.9904 42.2655 88.9904 41.8145C88.9904 41.3956 88.9019 41.0186 88.7251 40.6836C88.5542 40.342 88.3042 40.0747 87.9749 39.8814C87.6516 39.6816 87.2704 39.5817 86.8312 39.5817H83.2722V43.9893ZM83.2722 37.6776H86.4836C86.8373 37.6776 87.1544 37.6035 87.4351 37.4552C87.7217 37.3006 87.9474 37.0815 88.1121 36.798C88.2829 36.508 88.3683 36.16 88.3683 35.7541C88.3683 35.2128 88.1974 34.7682 87.8559 34.4202C87.5143 34.0722 87.0569 33.8982 86.4836 33.8982H83.2722V37.6776ZM92.769 45.9128V35.4738H94.4707V38.0062L94.2328 37.6776C94.3547 37.3425 94.5134 37.0364 94.7086 36.7593C94.9037 36.4757 95.1294 36.2438 95.3856 36.0634C95.6356 35.8701 95.9132 35.7218 96.2182 35.6188C96.5293 35.5092 96.8464 35.4448 97.1697 35.4254C97.4929 35.3997 97.804 35.4158 98.1029 35.4738V37.3683C97.7796 37.278 97.4197 37.2523 97.0233 37.2909C96.6329 37.3296 96.2731 37.4617 95.9437 37.6872C95.6326 37.8999 95.3856 38.1576 95.2026 38.4605C95.0257 38.7634 94.8976 39.1017 94.8184 39.4754C94.739 39.8427 94.6994 40.2326 94.6994 40.6449V45.9128H92.769ZM102.35 46.2028C101.618 46.2028 101.005 46.061 100.511 45.7775C100.017 45.4875 99.6417 45.1073 99.3855 44.6369C99.1354 44.16 99.0104 43.6381 99.0104 43.071C99.0104 42.5427 99.0988 42.0787 99.2757 41.6792C99.4525 41.2796 99.7149 40.9413 100.063 40.6643C100.41 40.3807 100.837 40.152 101.343 39.978C101.783 39.8427 102.28 39.7234 102.835 39.6204C103.39 39.5173 103.972 39.4207 104.582 39.3304C105.198 39.2401 105.808 39.15 106.412 39.0598L105.717 39.4657C105.729 38.6474 105.564 38.0416 105.223 37.6486C104.887 37.249 104.308 37.0493 103.484 37.0493C102.966 37.0493 102.49 37.1782 102.057 37.4359C101.624 37.6872 101.322 38.1061 101.151 38.6925L99.3672 38.1125C99.6111 37.2169 100.075 36.5047 100.758 35.9764C101.447 35.448 102.362 35.1838 103.503 35.1838C104.387 35.1838 105.155 35.3449 105.808 35.6671C106.467 35.9828 106.949 36.4854 107.254 37.1749C107.412 37.5165 107.51 37.8773 107.546 38.2575C107.583 38.6377 107.601 39.0468 107.601 39.4851V45.9128H105.909V43.5253L106.238 43.8346C105.829 44.6336 105.308 45.2298 104.674 45.6228C104.045 46.0094 103.271 46.2028 102.35 46.2028ZM102.688 44.5499C103.231 44.5499 103.698 44.45 104.088 44.2503C104.478 44.044 104.793 43.7831 105.03 43.4673C105.268 43.1516 105.424 42.823 105.497 42.4814C105.601 42.1721 105.659 41.8242 105.671 41.4375C105.689 41.0509 105.698 40.7416 105.698 40.5096L106.32 40.7513C105.717 40.8479 105.168 40.9349 104.674 41.0122C104.18 41.0896 103.731 41.1669 103.329 41.2442C102.932 41.3151 102.579 41.4021 102.267 41.5052C102.005 41.6019 101.77 41.7178 101.563 41.8532C101.362 41.9885 101.2 42.1528 101.078 42.3461C100.962 42.5394 100.904 42.7747 100.904 43.0517C100.904 43.3224 100.968 43.5737 101.096 43.8056C101.224 44.0312 101.42 44.2116 101.682 44.3469C101.944 44.4822 102.28 44.5499 102.688 44.5499ZM116.913 45.9128V40.7803C116.913 40.3743 116.878 39.9587 116.812 39.5334C116.75 39.1017 116.629 38.7021 116.446 38.3348C116.269 37.9675 116.016 37.6712 115.687 37.4456C115.363 37.22 114.939 37.1073 114.415 37.1073C114.073 37.1073 113.75 37.1685 113.445 37.2909C113.14 37.4069 112.871 37.597 112.64 37.8612C112.414 38.1254 112.234 38.4734 112.1 38.9051C111.972 39.3368 111.908 39.862 111.908 40.4806L110.718 40.007C110.718 39.0598 110.886 38.2252 111.221 37.5036C111.557 36.7754 112.039 36.2084 112.667 35.8024C113.295 35.3964 114.055 35.1935 114.946 35.1935C115.628 35.1935 116.201 35.3095 116.666 35.5414C117.129 35.7734 117.504 36.0794 117.791 36.4597C118.084 36.8334 118.306 37.2426 118.459 37.6872C118.611 38.1318 118.715 38.5668 118.77 38.9921C118.825 39.4174 118.852 39.7911 118.852 40.1133V45.9128H116.913ZM109.968 45.9128V35.4738H111.679V38.4895H111.908V45.9128H109.968ZM125.035 46.2028C124.114 46.2028 123.318 45.9611 122.647 45.4778C121.982 44.9945 121.467 44.3373 121.101 43.506C120.74 42.6683 120.561 41.7275 120.561 40.6836C120.561 39.6333 120.744 38.6957 121.11 37.8709C121.476 37.0396 121.994 36.3856 122.665 35.9087C123.342 35.4254 124.144 35.1838 125.071 35.1838C126.004 35.1838 126.788 35.4254 127.423 35.9087C128.063 36.3856 128.545 37.0396 128.868 37.8709C129.198 38.7021 129.362 39.6397 129.362 40.6836C129.362 41.7275 129.198 42.6651 128.868 43.4963C128.539 44.3276 128.054 44.9881 127.413 45.4778C126.773 45.9611 125.98 46.2028 125.035 46.2028ZM125.3 44.3759C125.928 44.3759 126.44 44.218 126.837 43.9023C127.234 43.5866 127.523 43.1516 127.706 42.5974C127.889 42.0432 127.981 41.4053 127.981 40.6836C127.981 39.9619 127.886 39.324 127.697 38.7698C127.514 38.2156 127.227 37.7839 126.837 37.4746C126.453 37.1653 125.962 37.0106 125.364 37.0106C124.729 37.0106 124.208 37.1749 123.8 37.5036C123.391 37.8322 123.086 38.2736 122.885 38.8278C122.689 39.382 122.592 40.0006 122.592 40.6836C122.592 41.3731 122.689 41.9982 122.885 42.5588C123.086 43.113 123.384 43.5543 123.781 43.883C124.184 44.2116 124.69 44.3759 125.3 44.3759ZM127.981 45.9128V38.4025H127.761V31.9941H129.682V45.9128H127.981ZM135.905 45.9128V31.9941H137.634L142.41 42.4621L147.158 31.9941H148.906V45.9031H147.094V36.3823L142.84 45.9128H141.971L137.707 36.3823V45.9128H135.905ZM155.852 46.2028C154.87 46.2028 154.006 45.9772 153.263 45.5262C152.524 45.0686 151.948 44.4339 151.534 43.622C151.124 42.8037 150.921 41.8564 150.921 40.7803C150.921 39.6397 151.122 38.6505 151.525 37.8129C151.933 36.9752 152.5 36.3276 153.226 35.8701C153.951 35.4125 154.797 35.1838 155.761 35.1838C156.767 35.1838 157.624 35.4318 158.332 35.9281C159.038 36.4177 159.567 37.1169 159.914 38.0255C160.268 38.9341 160.408 40.0134 160.335 41.2636H158.423V40.529C158.411 39.3175 158.191 38.4218 157.764 37.8419C157.344 37.2619 156.7 36.972 155.834 36.972C154.876 36.972 154.156 37.2909 153.675 37.9289C153.192 38.5668 152.952 39.4883 152.952 40.6933C152.952 41.8402 153.192 42.7295 153.675 43.361C154.156 43.986 154.852 44.2986 155.761 44.2986C156.358 44.2986 156.873 44.1569 157.307 43.8733C157.746 43.5833 158.087 43.171 158.332 42.6361L160.207 43.2644C159.823 44.1987 159.24 44.9236 158.46 45.4392C157.679 45.9482 156.809 46.2028 155.852 46.2028ZM152.33 41.2636V39.688H159.384V41.2636H152.33ZM169.054 45.9128V40.7803C169.054 40.3743 169.021 39.9587 168.954 39.5334C168.893 39.1017 168.771 38.7021 168.588 38.3348C168.412 37.9675 168.158 37.6712 167.828 37.4456C167.506 37.22 167.082 37.1073 166.557 37.1073C166.216 37.1073 165.892 37.1685 165.587 37.2909C165.283 37.4069 165.014 37.597 164.782 37.8612C164.556 38.1254 164.377 38.4734 164.242 38.9051C164.114 39.3368 164.05 39.862 164.05 40.4806L162.86 40.007C162.86 39.0598 163.029 38.2252 163.364 37.5036C163.7 36.7754 164.181 36.2084 164.809 35.8024C165.438 35.3964 166.198 35.1935 167.087 35.1935C167.771 35.1935 168.344 35.3095 168.807 35.5414C169.272 35.7734 169.647 36.0794 169.933 36.4597C170.225 36.8334 170.448 37.2426 170.601 37.6872C170.754 38.1318 170.857 38.5668 170.912 38.9921C170.966 39.4174 170.994 39.7911 170.994 40.1133V45.9128H169.054ZM162.11 45.9128V35.4738H163.821V38.4895H164.05V45.9128H162.11ZM179.031 45.9128C178.409 46.0417 177.8 46.0964 177.202 46.0771C176.603 46.0578 176.071 45.9354 175.6 45.7098C175.13 45.4842 174.777 45.1299 174.539 44.6466C174.325 44.2149 174.21 43.7766 174.192 43.332C174.179 42.881 174.173 42.3719 174.173 41.8048V32.574H176.095V41.7082C176.095 42.1271 176.098 42.4911 176.104 42.8004C176.116 43.1097 176.18 43.3707 176.296 43.5833C176.515 43.9829 176.863 44.2116 177.339 44.2696C177.82 44.3212 178.385 44.2986 179.031 44.2019V45.9128ZM172.279 37.0976V35.4738H179.031V37.0976H172.279ZM181.298 33.7629V31.8008H183.21V33.7629H181.298ZM181.298 45.9128V35.4738H183.21V45.9128H181.298ZM190.248 46.2028C189.26 46.2028 188.403 45.9675 187.677 45.4972C186.951 45.0268 186.391 44.3792 185.994 43.5543C185.604 42.7231 185.408 41.7662 185.408 40.6836C185.408 39.5946 185.61 38.6377 186.012 37.8129C186.415 36.9816 186.979 36.3373 187.705 35.8797C188.431 35.4158 189.278 35.1838 190.248 35.1838C191.236 35.1838 192.093 35.419 192.819 35.8894C193.545 36.3598 194.106 37.0074 194.502 37.8322C194.899 38.6571 195.097 39.6074 195.097 40.6836C195.097 41.7726 194.896 42.7327 194.493 43.564C194.096 44.3889 193.536 45.0365 192.81 45.5068C192.084 45.9708 191.231 46.2028 190.248 46.2028ZM190.248 44.2986C191.194 44.2986 191.898 43.9636 192.362 43.2934C192.832 42.6168 193.066 41.7468 193.066 40.6836C193.066 39.5946 192.828 38.7247 192.352 38.0739C191.882 37.4166 191.181 37.0879 190.248 37.0879C189.608 37.0879 189.081 37.2426 188.665 37.5519C188.25 37.8548 187.943 38.2768 187.741 38.8181C187.54 39.353 187.439 39.9747 187.439 40.6836C187.439 41.7791 187.677 42.6554 188.153 43.3127C188.629 43.97 189.328 44.2986 190.248 44.2986ZM204.043 45.9128V40.7803C204.043 40.3743 204.01 39.9587 203.942 39.5334C203.881 39.1017 203.759 38.7021 203.576 38.3348C203.399 37.9675 203.146 37.6712 202.817 37.4456C202.493 37.22 202.07 37.1073 201.545 37.1073C201.203 37.1073 200.881 37.1685 200.575 37.2909C200.27 37.4069 200.002 37.597 199.77 37.8612C199.545 38.1254 199.364 38.4734 199.23 38.9051C199.102 39.3368 199.038 39.862 199.038 40.4806L197.849 40.007C197.849 39.0598 198.017 38.2252 198.352 37.5036C198.687 36.7754 199.17 36.2084 199.797 35.8024C200.425 35.3964 201.185 35.1935 202.076 35.1935C202.758 35.1935 203.332 35.3095 203.796 35.5414C204.259 35.7734 204.634 36.0794 204.921 36.4597C205.214 36.8334 205.437 37.2426 205.589 37.6872C205.741 38.1318 205.845 38.5668 205.9 38.9921C205.955 39.4174 205.982 39.7911 205.982 40.1133V45.9128H204.043ZM197.099 45.9128V35.4738H198.809V38.4895H199.038V45.9128H197.099ZM212.144 46.1931C210.942 46.1931 209.963 45.9128 209.207 45.3522C208.45 44.7916 207.987 44.0022 207.817 42.9841L209.775 42.6651C209.896 43.2064 210.177 43.6349 210.616 43.9506C211.061 44.2599 211.614 44.4146 212.272 44.4146C212.869 44.4146 213.336 44.2857 213.672 44.028C214.013 43.7702 214.184 43.4158 214.184 42.9647C214.184 42.7005 214.123 42.4878 214.001 42.3268C213.885 42.1592 213.638 42.0014 213.26 41.8532C212.882 41.7049 212.305 41.5213 211.531 41.3022C210.683 41.0702 210.009 40.8222 209.509 40.558C209.015 40.2873 208.661 39.9747 208.448 39.6204C208.24 39.2595 208.137 38.8245 208.137 38.3155C208.137 37.684 208.295 37.133 208.613 36.6627C208.929 36.1923 209.374 35.8281 209.948 35.5704C210.527 35.3127 211.204 35.1838 211.98 35.1838C212.735 35.1838 213.409 35.3094 214.001 35.5608C214.593 35.8121 215.072 36.1697 215.438 36.6337C215.804 37.0912 216.023 37.6292 216.097 38.2478L214.139 38.6248C214.071 38.1222 213.848 37.7259 213.471 37.4359C213.092 37.1459 212.602 36.988 211.998 36.9623C211.418 36.9366 210.948 37.0396 210.589 37.2716C210.229 37.4972 210.049 37.8096 210.049 38.2092C210.049 38.4412 210.115 38.6377 210.25 38.7988C210.39 38.9598 210.659 39.1145 211.055 39.2627C211.451 39.411 212.037 39.5881 212.812 39.7944C213.641 40.0199 214.3 40.2712 214.788 40.5483C215.275 40.8189 215.623 41.1443 215.831 41.5245C216.044 41.8982 216.151 42.3525 216.151 42.8874C216.151 43.9184 215.795 44.7272 215.081 45.3135C214.373 45.8999 213.394 46.1931 212.144 46.1931Z" fill="#26262B"/>
<path d="M84.1426 71.2851V60.5356H80.2119V59.1063H89.4982V60.5356H85.5676V71.2851H84.1426ZM89.9753 71.2851V62.151H91.2482V64.3584L91.0401 64.0708C91.1415 63.789 91.2722 63.5296 91.4323 63.2927C91.5978 63.0559 91.7819 62.8614 91.9847 62.7092C92.2089 62.5174 92.4624 62.3709 92.7452 62.2694C93.0282 62.1679 93.3164 62.1087 93.6098 62.0918C93.9034 62.0692 94.1782 62.089 94.4344 62.151V63.5634C94.1355 63.4788 93.8073 63.4562 93.4497 63.4957C93.0922 63.5352 92.7612 63.6733 92.457 63.9101C92.1796 64.1188 91.9634 64.3725 91.8086 64.6713C91.6592 64.9701 91.5552 65.2944 91.4964 65.6439C91.4377 65.9879 91.4083 66.3402 91.4083 66.7011V71.2851H89.9753ZM98.1244 71.5388C97.4786 71.5388 96.937 71.4148 96.4993 71.1667C96.067 70.913 95.7388 70.5804 95.5147 70.1687C95.2959 69.7571 95.1864 69.3061 95.1864 68.8155C95.1864 68.3362 95.2719 67.9218 95.4426 67.5723C95.6187 67.217 95.8643 66.9238 96.1791 66.6927C96.494 66.4559 96.8702 66.2698 97.3079 66.1345C97.7188 66.0161 98.1778 65.9146 98.6848 65.83C99.1972 65.7398 99.7149 65.6581 100.238 65.5847C100.761 65.5114 101.249 65.441 101.703 65.3733L101.191 65.6862C101.207 64.8743 101.052 64.2738 100.726 63.8848C100.406 63.4957 99.851 63.3012 99.0611 63.3012C98.5381 63.3012 98.079 63.4281 97.6841 63.6818C97.2945 63.9298 97.0197 64.3358 96.8596 64.8997L95.5066 64.4683C95.7148 63.6677 96.1177 63.039 96.7155 62.5823C97.3132 62.1256 98.1004 61.8973 99.0771 61.8973C99.8616 61.8973 100.534 62.0467 101.094 62.3455C101.66 62.6387 102.066 63.0841 102.311 63.6818C102.434 63.9637 102.511 64.271 102.543 64.6037C102.575 64.9307 102.591 65.2746 102.591 65.6355V71.2851H101.327V69.0946L101.623 69.2976C101.297 70.0362 100.841 70.5944 100.254 70.9722C99.6721 71.35 98.9624 71.5388 98.1244 71.5388ZM98.3406 70.2787C98.8529 70.2787 99.2958 70.1829 99.6695 69.9911C100.048 69.7938 100.353 69.5372 100.582 69.2215C100.812 68.9001 100.961 68.5506 101.03 68.1727C101.11 67.8909 101.153 67.5779 101.158 67.234C101.169 66.8844 101.174 66.6166 101.174 66.4305L101.671 66.6588C101.207 66.7265 100.75 66.7914 100.302 66.8534C99.8536 66.9154 99.4293 66.983 99.029 67.0563C98.6288 67.124 98.2685 67.2058 97.9483 67.3016C97.7135 67.3805 97.492 67.482 97.2839 67.6061C97.0811 67.7302 96.9156 67.8909 96.7875 68.0882C96.6648 68.2799 96.6034 68.5195 96.6034 68.8071C96.6034 69.0551 96.6621 69.2919 96.7795 69.5175C96.9022 69.7431 97.0891 69.9262 97.3399 70.0672C97.5961 70.2082 97.9297 70.2787 98.3406 70.2787ZM108.315 71.5388C107.44 71.5388 106.696 71.3331 106.082 70.9214C105.473 70.5042 105.009 69.9319 104.689 69.2046C104.369 68.4772 104.203 67.6484 104.193 66.718C104.203 65.7651 104.371 64.9278 104.697 64.2062C105.028 63.4788 105.5 62.9122 106.114 62.5062C106.728 62.1002 107.467 61.8973 108.331 61.8973C109.244 61.8973 110.029 62.1341 110.685 62.6077C111.347 63.0813 111.79 63.7298 112.014 64.5529L110.605 65.0012C110.423 64.4711 110.127 64.0596 109.716 63.7664C109.311 63.4731 108.844 63.3266 108.315 63.3266C107.723 63.3266 107.235 63.4731 106.85 63.7664C106.466 64.0539 106.181 64.4542 105.994 64.9673C105.807 65.4748 105.711 66.0584 105.706 66.718C105.716 67.733 105.938 68.5533 106.37 69.1792C106.808 69.7994 107.456 70.1095 108.315 70.1095C108.881 70.1095 109.351 69.9742 109.724 69.7036C110.098 69.4272 110.381 69.0297 110.573 68.511L112.014 68.9085C111.715 69.76 111.248 70.4112 110.613 70.8622C109.978 71.3133 109.212 71.5388 108.315 71.5388ZM113.64 71.2851L113.648 59.1063H115.089V66.5489L118.715 62.151H120.564L116.746 66.718L121.013 71.2851H119.019L115.089 66.8872V71.2851H113.64ZM121.97 60.5356V58.9794H123.395V60.5356H121.97ZM121.97 71.2851V62.151H123.395V71.2851H121.97ZM131.953 71.2851V66.7096C131.953 66.2755 131.916 65.8582 131.84 65.4579C131.772 65.0576 131.646 64.6995 131.464 64.3838C131.288 64.0624 131.048 63.8087 130.744 63.6226C130.445 63.4365 130.067 63.3435 129.607 63.3435C129.25 63.3435 128.924 63.4084 128.63 63.538C128.342 63.6621 128.094 63.8537 127.886 64.1131C127.678 64.3725 127.515 64.6995 127.397 65.0942C127.285 65.4832 127.229 65.9427 127.229 66.4728L126.293 66.1683C126.293 65.283 126.443 64.5248 126.741 63.8932C127.045 63.2561 127.47 62.7684 128.014 62.4301C128.564 62.0861 129.21 61.9142 129.951 61.9142C130.512 61.9142 130.99 62.0072 131.384 62.1933C131.78 62.3793 132.108 62.6274 132.369 62.9375C132.631 63.242 132.837 63.586 132.985 63.9693C133.135 64.3472 133.239 64.7333 133.297 65.128C133.362 65.5171 133.394 65.8864 133.394 66.236V71.2851H131.953ZM125.788 71.2851V62.151H127.069V64.5952H127.229V71.2851H125.788ZM138.973 75.5985C138.519 75.5985 138.077 75.5251 137.644 75.3786C137.212 75.232 136.814 75.0092 136.452 74.7104C136.094 74.4172 135.795 74.045 135.555 73.594L136.86 72.8667C137.074 73.3121 137.375 73.6363 137.765 73.8393C138.159 74.0423 138.565 74.1438 138.981 74.1438C139.531 74.1438 139.988 74.0366 140.35 73.8224C140.713 73.6137 140.98 73.3008 141.151 72.8836C141.327 72.4664 141.413 71.9476 141.407 71.3274V68.8324H141.575V62.151H142.84V71.3443C142.84 71.5924 142.832 71.8321 142.816 72.0632C142.806 72.2943 142.778 72.5227 142.736 72.7483C142.624 73.3967 142.402 73.9295 142.071 74.3467C141.741 74.7696 141.313 75.0825 140.791 75.2855C140.268 75.4942 139.662 75.5985 138.973 75.5985ZM138.869 71.5388C138.063 71.5388 137.372 71.3274 136.796 70.9045C136.219 70.476 135.773 69.8981 135.459 69.1707C135.149 68.4434 134.995 67.623 134.995 66.7096C134.995 65.7962 135.149 64.9758 135.459 64.2484C135.773 63.5211 136.219 62.9488 136.796 62.5316C137.372 62.1087 138.061 61.8973 138.861 61.8973C139.678 61.8973 140.364 62.1059 140.919 62.5231C141.473 62.9403 141.893 63.5126 142.176 64.24C142.464 64.9673 142.608 65.7905 142.608 66.7096C142.608 67.6173 142.464 68.4377 142.176 69.1707C141.893 69.8981 141.473 70.476 140.919 70.9045C140.364 71.3274 139.68 71.5388 138.869 71.5388ZM139.045 70.1603C139.627 70.1603 140.104 70.0137 140.478 69.7205C140.852 69.4217 141.127 69.0128 141.303 68.4941C141.485 67.9698 141.575 67.375 141.575 66.7096C141.575 66.033 141.485 65.4382 141.303 64.925C141.127 64.4064 140.855 64.0032 140.486 63.7156C140.118 63.4224 139.652 63.2758 139.085 63.2758C138.499 63.2758 138.013 63.4281 137.628 63.7325C137.25 64.037 136.966 64.4486 136.78 64.9673C136.598 65.486 136.508 66.0668 136.508 66.7096C136.508 67.358 136.601 67.9444 136.788 68.4688C136.974 68.9874 137.254 69.3991 137.628 69.7036C138.007 70.008 138.479 70.1603 139.045 70.1603ZM158.615 71.2851L158.623 65.441C158.623 64.7587 158.451 64.2259 158.103 63.8425C157.762 63.4534 157.316 63.2589 156.766 63.2589C156.446 63.2589 156.142 63.3378 155.853 63.4957C155.565 63.648 155.331 63.8905 155.149 64.2231C154.968 64.5501 154.877 64.9701 154.877 65.4832L154.124 65.1619C154.114 64.5134 154.24 63.9468 154.5 63.4619C154.768 62.9714 155.131 62.5908 155.589 62.3201C156.049 62.0495 156.566 61.9142 157.142 61.9142C158.045 61.9142 158.755 62.2045 159.272 62.7853C159.79 63.3604 160.048 64.1357 160.048 65.1111L160.04 71.2851H158.615ZM148.272 71.2851V62.151H149.545V64.5952H149.705V71.2851H148.272ZM153.452 71.2851L153.46 65.5002C153.46 64.801 153.289 64.2541 152.947 63.8594C152.607 63.4591 152.153 63.2589 151.586 63.2589C151.026 63.2589 150.573 63.4619 150.226 63.8679C149.879 64.2738 149.705 64.8123 149.705 65.4832L148.953 65.0096C148.953 64.4176 149.086 63.8876 149.353 63.4196C149.621 62.9517 149.983 62.5851 150.442 62.3201C150.901 62.0495 151.422 61.9142 152.003 61.9142C152.585 61.9142 153.092 62.0438 153.524 62.3032C153.956 62.5626 154.29 62.9348 154.524 63.4196C154.76 63.8989 154.877 64.4711 154.877 65.1365L154.869 71.2851H153.452ZM165.802 71.5388C164.953 71.5388 164.212 71.3415 163.576 70.9468C162.947 70.5465 162.456 69.9911 162.103 69.2807C161.751 68.5646 161.575 67.7302 161.575 66.7773C161.575 65.7793 161.749 64.9166 162.095 64.1892C162.443 63.4562 162.926 62.8925 163.544 62.4977C164.169 62.0975 164.901 61.8973 165.738 61.8973C166.608 61.8973 167.347 62.1087 167.955 62.5316C168.569 62.9544 169.028 63.5577 169.332 64.3415C169.642 65.1252 169.776 66.0584 169.733 67.1409H168.292V66.5996C168.276 65.4776 168.059 64.6403 167.643 64.0878C167.227 63.5296 166.608 63.2505 165.786 63.2505C164.905 63.2505 164.236 63.5492 163.776 64.147C163.318 64.7447 163.088 65.6017 163.088 66.718C163.088 67.7949 163.318 68.6294 163.776 69.2215C164.236 69.8135 164.889 70.1095 165.738 70.1095C166.31 70.1095 166.806 69.9714 167.227 69.6951C167.649 69.4188 167.979 69.0213 168.219 68.5026L169.588 69.0016C169.252 69.8078 168.746 70.4337 168.067 70.8792C167.395 71.3189 166.64 71.5388 165.802 71.5388ZM162.608 67.1409V65.9315H168.996V67.1409H162.608ZM177.437 71.2851V66.7096C177.437 66.2755 177.399 65.8582 177.325 65.4579C177.255 65.0576 177.13 64.6995 176.949 64.3838C176.773 64.0624 176.533 63.8087 176.228 63.6226C175.929 63.4365 175.55 63.3435 175.092 63.3435C174.734 63.3435 174.408 63.4084 174.115 63.538C173.827 63.6621 173.579 63.8537 173.37 64.1131C173.162 64.3725 172.999 64.6995 172.882 65.0942C172.77 65.4832 172.714 65.9427 172.714 66.4728L171.777 66.1683C171.777 65.283 171.926 64.5248 172.226 63.8932C172.53 63.2561 172.954 62.7684 173.499 62.4301C174.047 62.0861 174.694 61.9142 175.436 61.9142C175.996 61.9142 176.473 62.0072 176.869 62.1933C177.263 62.3793 177.592 62.6274 177.853 62.9375C178.114 63.242 178.32 63.586 178.47 63.9693C178.619 64.3472 178.723 64.7333 178.782 65.128C178.846 65.5171 178.878 65.8864 178.878 66.236V71.2851H177.437ZM171.273 71.2851V62.151H172.554V64.5952H172.714V71.2851H171.273ZM185.787 71.2851C185.275 71.3923 184.767 71.4346 184.266 71.412C183.769 71.3951 183.326 71.2908 182.937 71.0991C182.547 70.9017 182.251 70.5973 182.048 70.1856C181.877 69.8247 181.784 69.4611 181.768 69.0946C181.757 68.7225 181.752 68.3024 181.752 67.8344V59.6137H183.177V67.7668C183.177 68.1389 183.179 68.4575 183.185 68.7225C183.195 68.9874 183.251 69.2158 183.353 69.4075C183.545 69.7684 183.85 69.9799 184.266 70.0419C184.687 70.1038 185.194 70.0869 185.787 69.9911V71.2851ZM179.999 63.3942V62.151H185.787V63.3942H179.999ZM187.701 60.5356V58.9794H189.126V60.5356H187.701ZM187.701 71.2851V62.151H189.126V71.2851H187.701ZM195.212 71.5388C194.352 71.5388 193.61 71.3331 192.986 70.9214C192.366 70.5098 191.889 69.9404 191.553 69.213C191.217 68.4857 191.049 67.6512 191.049 66.7096C191.049 65.7511 191.219 64.9109 191.561 64.1892C191.902 63.4676 192.386 62.9065 193.01 62.5062C193.634 62.1002 194.368 61.8973 195.212 61.8973C196.076 61.8973 196.821 62.103 197.445 62.5147C198.07 62.9206 198.546 63.4873 198.878 64.2146C199.214 64.9363 199.382 65.768 199.382 66.7096C199.382 67.6625 199.214 68.5026 198.878 69.2299C198.542 69.9516 198.061 70.5183 197.437 70.9299C196.813 71.3359 196.07 71.5388 195.212 71.5388ZM195.212 70.1095C196.108 70.1095 196.775 69.7938 197.213 69.1623C197.65 68.5307 197.869 67.7133 197.869 66.7096C197.869 65.6778 197.647 64.8574 197.205 64.2484C196.761 63.6338 196.097 63.3266 195.212 63.3266C194.608 63.3266 194.111 63.4704 193.723 63.7579C193.333 64.0455 193.042 64.443 192.85 64.9504C192.658 65.4579 192.562 66.0442 192.562 66.7096C192.562 67.7357 192.786 68.559 193.234 69.1792C193.683 69.7994 194.341 70.1095 195.212 70.1095ZM207.301 71.2851V66.7096C207.301 66.2755 207.263 65.8582 207.189 65.4579C207.119 65.0576 206.994 64.6995 206.813 64.3838C206.636 64.0624 206.396 63.8087 206.092 63.6226C205.794 63.4365 205.414 63.3435 204.955 63.3435C204.597 63.3435 204.273 63.4084 203.979 63.538C203.69 63.6621 203.442 63.8537 203.234 64.1131C203.026 64.3725 202.864 64.6995 202.746 65.0942C202.634 65.4832 202.578 65.9427 202.578 66.4728L201.641 66.1683C201.641 65.283 201.791 64.5248 202.089 63.8932C202.394 63.2561 202.818 62.7684 203.362 62.4301C203.912 62.0861 204.557 61.9142 205.3 61.9142C205.86 61.9142 206.338 62.0072 206.733 62.1933C207.127 62.3793 207.455 62.6274 207.717 62.9375C207.979 63.242 208.184 63.586 208.334 63.9693C208.483 64.3472 208.588 64.7333 208.646 65.128C208.71 65.5171 208.742 65.8864 208.742 66.236V71.2851H207.301ZM201.137 71.2851V62.151H202.418V64.5952H202.578V71.2851H201.137ZM214.09 71.5304C213.059 71.5304 212.214 71.2936 211.552 70.82C210.895 70.3407 210.493 69.6725 210.343 68.8155L211.8 68.5702C211.918 69.0665 212.187 69.4611 212.609 69.7543C213.031 70.0419 213.553 70.1856 214.178 70.1856C214.77 70.1856 215.234 70.056 215.571 69.7966C215.907 69.5372 216.075 69.1849 216.075 68.7394C216.075 68.48 216.019 68.2715 215.907 68.1135C215.795 67.9501 215.563 67.7978 215.21 67.6568C214.864 67.5158 214.338 67.3467 213.633 67.1494C212.87 66.9352 212.27 66.7124 211.832 66.4812C211.394 66.2501 211.082 65.9822 210.895 65.6778C210.709 65.3733 210.615 65.0039 210.615 64.5698C210.615 64.0342 210.754 63.5662 211.031 63.1659C211.309 62.7599 211.696 62.447 212.192 62.2271C212.694 62.0072 213.275 61.8973 213.937 61.8973C214.594 61.8973 215.181 62.0072 215.699 62.2271C216.217 62.447 216.633 62.7599 216.947 63.1659C217.268 63.5662 217.458 64.0342 217.516 64.5698L216.059 64.8489C215.989 64.3584 215.765 63.9721 215.386 63.6903C215.012 63.4084 214.53 63.2589 213.937 63.242C213.377 63.2194 212.921 63.3238 212.569 63.5549C212.222 63.7861 212.048 64.099 212.048 64.4937C212.048 64.7136 212.112 64.9025 212.24 65.0604C212.374 65.2183 212.617 65.3676 212.969 65.5086C213.327 65.6496 213.844 65.8103 214.522 65.9907C215.285 66.1937 215.885 66.4164 216.323 66.6588C216.766 66.8957 217.081 67.1775 217.268 67.5046C217.454 67.826 217.548 68.2235 217.548 68.6971C217.548 69.5767 217.241 70.2702 216.627 70.7777C216.013 71.2794 215.168 71.5304 214.09 71.5304ZM226.201 71.5388C225.342 71.5388 224.6 71.3331 223.975 70.9214C223.356 70.5098 222.878 69.9404 222.542 69.213C222.206 68.4857 222.038 67.6512 222.038 66.7096C222.038 65.7511 222.209 64.9109 222.55 64.1892C222.892 63.4676 223.375 62.9065 223.999 62.5062C224.624 62.1002 225.358 61.8973 226.201 61.8973C227.065 61.8973 227.81 62.103 228.434 62.5147C229.059 62.9206 229.537 63.4873 229.867 64.2146C230.203 64.9363 230.371 65.768 230.371 66.7096C230.371 67.6625 230.203 68.5026 229.867 69.2299C229.531 69.9516 229.051 70.5183 228.426 70.9299C227.802 71.3359 227.061 71.5388 226.201 71.5388ZM226.201 70.1095C227.097 70.1095 227.765 69.7938 228.202 69.1623C228.64 68.5307 228.858 67.7133 228.858 66.7096C228.858 65.6778 228.638 64.8574 228.194 64.2484C227.751 63.6338 227.087 63.3266 226.201 63.3266C225.598 63.3266 225.102 63.4704 224.712 63.7579C224.323 64.0455 224.031 64.443 223.839 64.9504C223.647 65.4579 223.551 66.0442 223.551 66.7096C223.551 67.7357 223.775 68.559 224.223 69.1792C224.672 69.7994 225.331 70.1095 226.201 70.1095ZM232.959 71.2851V61.652C232.959 61.4152 232.97 61.1756 232.992 60.9331C233.012 60.685 233.06 60.4453 233.136 60.2142C233.21 59.9774 233.332 59.7603 233.504 59.563C233.701 59.3318 233.917 59.1682 234.152 59.0724C234.387 58.9709 234.625 58.909 234.865 58.8864C235.11 58.8638 235.342 58.8525 235.561 58.8525H236.658V60.1043H235.641C235.219 60.1043 234.905 60.2142 234.697 60.4341C234.489 60.6483 234.384 60.9754 234.384 61.4152V71.2851H232.959ZM231.494 63.3942V62.151H236.658V63.3942H231.494ZM246.016 71.5388C244.864 71.5388 243.875 71.2739 243.054 70.7438C242.232 70.2082 241.6 69.464 241.157 68.511C240.719 67.5581 240.501 66.4531 240.501 65.1957C240.501 63.9383 240.719 62.8333 241.157 61.8803C241.6 60.9274 242.232 60.1861 243.054 59.656C243.875 59.1204 244.864 58.8525 246.016 58.8525C247.345 58.8525 248.452 59.205 249.339 59.9097C250.224 60.6089 250.846 61.5533 251.204 62.743L249.259 63.3097C249.034 62.5147 248.652 61.8945 248.114 61.449C247.574 60.998 246.875 60.7724 246.016 60.7724C245.242 60.7724 244.596 60.9557 244.079 61.3221C243.567 61.6886 243.179 62.2045 242.918 62.8699C242.662 63.5296 242.531 64.3049 242.526 65.1957C242.526 66.0865 242.654 66.8646 242.91 67.53C243.171 68.1897 243.561 68.7028 244.079 69.0692C244.596 69.4357 245.242 69.619 246.016 69.619C246.875 69.619 247.574 69.3934 248.114 68.9424C248.652 68.4914 249.034 67.8711 249.259 67.0817L251.204 67.6484C250.846 68.8381 250.224 69.7854 249.339 70.4901C248.452 71.1893 247.345 71.5388 246.016 71.5388ZM256.78 71.5388C255.916 71.5388 255.16 71.3331 254.515 70.9214C253.869 70.5098 253.367 69.9431 253.01 69.2215C252.657 68.4941 252.481 67.6596 252.481 66.718C252.481 65.7596 252.662 64.9194 253.026 64.1977C253.388 63.476 253.893 62.9122 254.539 62.5062C255.184 62.1002 255.932 61.8973 256.78 61.8973C257.649 61.8973 258.408 62.103 259.054 62.5147C259.699 62.9263 260.201 63.4957 260.559 64.2231C260.916 64.9447 261.095 65.7765 261.095 66.718C261.095 67.6653 260.913 68.5026 260.551 69.2299C260.193 69.9516 259.691 70.5183 259.046 70.9299C258.4 71.3359 257.645 71.5388 256.78 71.5388ZM256.78 69.6274C257.549 69.6274 258.119 69.3568 258.493 68.8155C258.866 68.2742 259.054 67.575 259.054 66.718C259.054 65.8328 258.864 65.128 258.485 64.6037C258.106 64.0736 257.537 63.8087 256.78 63.8087C256.262 63.8087 255.836 63.9327 255.499 64.1808C255.168 64.4233 254.923 64.7644 254.763 65.2041C254.603 65.6383 254.523 66.1429 254.523 66.718C254.523 67.6033 254.711 68.3108 255.091 68.8409C255.475 69.3653 256.038 69.6274 256.78 69.6274ZM273.242 71.2851V65.737C273.242 65.1111 273.095 64.6234 272.801 64.2738C272.508 63.9186 272.111 63.741 271.609 63.741C271.299 63.741 271.022 63.8171 270.776 63.9693C270.53 64.1159 270.336 64.3358 270.192 64.629C270.048 64.9166 269.976 65.2606 269.976 65.6609L269.119 65.128C269.113 64.4965 269.247 63.9412 269.519 63.4619C269.797 62.977 270.17 62.5992 270.64 62.3286C271.11 62.0579 271.633 61.9226 272.209 61.9226C273.164 61.9226 273.896 62.2271 274.403 62.836C274.915 63.4393 275.171 64.2343 275.171 65.2211V71.2851H273.242ZM262.843 71.2851V62.151H264.548V64.9843H264.788V71.2851H262.843ZM268.054 71.2851V65.7623C268.054 65.1253 267.908 64.629 267.614 64.2738C267.32 63.9186 266.92 63.741 266.413 63.741C265.922 63.741 265.527 63.9186 265.228 64.2738C264.934 64.629 264.788 65.0914 264.788 65.6609L263.923 65.0519C263.923 64.4599 264.062 63.9271 264.34 63.4534C264.618 62.9798 264.99 62.6077 265.46 62.337C265.935 62.0607 266.467 61.9226 267.054 61.9226C267.7 61.9226 268.238 62.0692 268.671 62.3624C269.109 62.65 269.433 63.0447 269.647 63.5465C269.866 64.0427 269.976 64.6037 269.976 65.2295V71.2851H268.054ZM281.414 71.5388C280.57 71.5388 279.863 71.3274 279.293 70.9045C278.721 70.4817 278.292 69.9065 278.004 69.1792C277.716 68.4462 277.572 67.6258 277.572 66.718C277.572 65.799 277.716 64.9758 278.004 64.2484C278.292 63.5211 278.713 62.9488 279.269 62.5316C279.829 62.1087 280.52 61.8973 281.342 61.8973C282.159 61.8973 282.865 62.1087 283.464 62.5316C284.066 62.9488 284.533 63.5211 284.865 64.2484C285.195 64.9701 285.361 65.7934 285.361 66.718C285.361 67.6315 285.197 68.4518 284.873 69.1792C284.547 69.9065 284.088 70.4817 283.496 70.9045C282.903 71.3274 282.209 71.5388 281.414 71.5388ZM277.243 75.3447V62.151H278.948V68.5618H279.189V75.3447H277.243ZM281.118 69.712C281.619 69.712 282.033 69.5795 282.359 69.3145C282.684 69.0495 282.924 68.6914 283.079 68.2404C283.239 67.7837 283.319 67.2762 283.319 66.718C283.319 66.1655 283.239 65.6636 283.079 65.2126C282.919 64.7559 282.671 64.395 282.335 64.13C281.999 63.8594 281.571 63.7241 281.054 63.7241C280.562 63.7241 280.162 63.8509 279.853 64.1047C279.543 64.3527 279.313 64.7024 279.165 65.1534C279.021 65.5989 278.948 66.1203 278.948 66.718C278.948 67.3101 279.021 67.8317 279.165 68.2827C279.313 68.7337 279.545 69.0862 279.861 69.3399C280.181 69.5879 280.6 69.712 281.118 69.712ZM289.543 71.5388C288.919 71.5388 288.39 71.4148 287.958 71.1667C287.526 70.913 287.198 70.5775 286.973 70.1603C286.754 69.7431 286.645 69.2835 286.645 68.7817C286.645 68.3419 286.714 67.9472 286.853 67.5976C286.992 67.2424 287.206 66.9379 287.494 66.6842C287.782 66.4248 288.155 66.2134 288.614 66.0499C288.961 65.9315 289.367 65.8243 289.831 65.7285C290.3 65.6327 290.808 65.5452 291.352 65.4663C291.901 65.3818 292.475 65.2915 293.074 65.1957L292.385 65.6101C292.39 64.9786 292.257 64.5134 291.985 64.2146C291.713 63.9158 291.253 63.7664 290.608 63.7664C290.218 63.7664 289.842 63.8622 289.479 64.0539C289.115 64.2457 288.863 64.5755 288.719 65.0435L286.957 64.4599C287.17 63.6875 287.576 63.0672 288.174 62.5992C288.777 62.1313 289.588 61.8973 290.608 61.8973C291.376 61.8973 292.051 62.0298 292.633 62.2948C293.22 62.5597 293.654 62.994 293.938 63.5972C294.092 63.9186 294.186 64.2484 294.218 64.5867C294.25 64.9194 294.266 65.283 294.266 65.6778V71.2851H292.577V69.3061L292.857 69.6274C292.467 70.2871 292.011 70.772 291.488 71.0821C290.97 71.3866 290.322 71.5388 289.543 71.5388ZM289.927 69.915C290.364 69.915 290.738 69.8332 291.048 69.6697C291.357 69.5063 291.603 69.3061 291.785 69.0692C291.971 68.8324 292.097 68.6098 292.161 68.4011C292.262 68.1417 292.318 67.8457 292.329 67.5131C292.345 67.1748 292.353 66.9013 292.353 66.6927L292.945 66.8787C292.363 66.9746 291.865 67.0591 291.448 67.1325C291.032 67.2058 290.674 67.2762 290.376 67.3439C290.076 67.4059 289.812 67.4764 289.583 67.5553C289.359 67.6399 289.169 67.7386 289.015 67.8514C288.859 67.9641 288.739 68.0938 288.655 68.2404C288.574 68.387 288.534 68.559 288.534 68.7563C288.534 68.9819 288.587 69.182 288.695 69.3568C288.801 69.5259 288.955 69.6613 289.159 69.7628C289.367 69.8643 289.623 69.915 289.927 69.915ZM302.33 71.2851V66.8872C302.33 66.5996 302.312 66.281 302.274 65.9315C302.236 65.582 302.148 65.2464 302.01 64.925C301.876 64.598 301.674 64.3302 301.401 64.1216C301.135 63.9129 300.771 63.8087 300.313 63.8087C300.067 63.8087 299.824 63.8509 299.584 63.9355C299.344 64.0201 299.126 64.1666 298.928 64.3753C298.736 64.5783 298.581 64.8602 298.463 65.2211C298.346 65.5763 298.287 66.033 298.287 66.5912L297.143 66.0753C297.143 65.2972 297.284 64.5924 297.567 63.9609C297.855 63.3294 298.277 62.8276 298.832 62.4555C299.386 62.0776 300.07 61.8888 300.881 61.8888C301.522 61.8888 302.05 62.0015 302.466 62.2271C302.882 62.4527 303.213 62.7402 303.459 63.0898C303.705 63.4393 303.885 63.8114 304.003 64.2062C304.121 64.6009 304.195 64.9758 304.227 65.331C304.265 65.6805 304.283 65.9653 304.283 66.1852V71.2851H302.33ZM296.334 71.2851V62.151H298.055V64.9843H298.287V71.2851H296.334ZM307.196 75.3447L308.861 70.5155L308.893 71.9363L305.123 62.151H307.132L309.806 69.3906H309.294L311.895 62.151H313.825L309.005 75.3447H307.196ZM318.224 71.2851V59.1063H320.178L325.525 67.6907V59.1063H327.479V71.2851H325.525L320.178 62.7007V71.2851H318.224ZM332.134 71.5388C331.51 71.5388 330.982 71.4148 330.549 71.1667C330.117 70.913 329.789 70.5775 329.565 70.1603C329.345 69.7431 329.236 69.2835 329.236 68.7817C329.236 68.3419 329.305 67.9472 329.445 67.5976C329.583 67.2424 329.797 66.9379 330.085 66.6842C330.373 66.4248 330.746 66.2134 331.206 66.0499C331.552 65.9315 331.958 65.8243 332.423 65.7285C332.891 65.6327 333.399 65.5452 333.944 65.4663C334.493 65.3818 335.067 65.2915 335.665 65.1957L334.976 65.6101C334.981 64.9786 334.848 64.5134 334.576 64.2146C334.304 63.9158 333.844 63.7664 333.199 63.7664C332.809 63.7664 332.433 63.8622 332.07 64.0539C331.707 64.2457 331.454 64.5755 331.31 65.0435L329.549 64.4599C329.761 63.6875 330.167 63.0672 330.765 62.5992C331.368 62.1313 332.179 61.8973 333.199 61.8973C333.968 61.8973 334.642 62.0298 335.224 62.2948C335.811 62.5597 336.246 62.994 336.529 63.5972C336.684 63.9186 336.777 64.2484 336.81 64.5867C336.842 64.9194 336.858 65.283 336.858 65.6778V71.2851H335.168V69.3061L335.449 69.6274C335.059 70.2871 334.602 70.772 334.08 71.0821C333.562 71.3866 332.913 71.5388 332.134 71.5388ZM332.519 69.915C332.955 69.915 333.329 69.8332 333.639 69.6697C333.948 69.5063 334.194 69.3061 334.376 69.0692C334.562 68.8324 334.688 68.6098 334.752 68.4011C334.853 68.1417 334.909 67.8457 334.92 67.5131C334.936 67.1748 334.944 66.9013 334.944 66.6927L335.537 66.8787C334.955 66.9746 334.456 67.0591 334.04 67.1325C333.623 67.2058 333.265 67.2762 332.967 67.3439C332.667 67.4059 332.403 67.4764 332.174 67.5553C331.95 67.6399 331.76 67.7386 331.606 67.8514C331.45 67.9641 331.33 68.0938 331.246 68.2404C331.166 68.387 331.126 68.559 331.126 68.7563C331.126 68.9819 331.178 69.182 331.286 69.3568C331.392 69.5259 331.547 69.6613 331.75 69.7628C331.958 69.8643 332.214 69.915 332.519 69.915ZM349.324 71.2851V65.737C349.324 65.1111 349.178 64.6234 348.884 64.2738C348.591 63.9186 348.193 63.741 347.691 63.741C347.382 63.741 347.105 63.8171 346.859 63.9693C346.614 64.1159 346.418 64.3358 346.274 64.629C346.13 64.9166 346.058 65.2606 346.058 65.6609L345.202 65.128C345.197 64.4965 345.33 63.9412 345.602 63.4619C345.88 62.977 346.254 62.5992 346.723 62.3286C347.193 62.0579 347.715 61.9226 348.292 61.9226C349.248 61.9226 349.978 62.2271 350.485 62.836C350.997 63.4393 351.254 64.2343 351.254 65.2211V71.2851H349.324ZM338.925 71.2851V62.151H340.63V64.9843H340.871V71.2851H338.925ZM344.137 71.2851V65.7623C344.137 65.1253 343.99 64.629 343.696 64.2738C343.404 63.9186 343.003 63.741 342.496 63.741C342.005 63.741 341.61 63.9186 341.311 64.2738C341.018 64.629 340.871 65.0914 340.871 65.6609L340.006 65.0519C340.006 64.4599 340.145 63.9271 340.422 63.4534C340.7 62.9798 341.074 62.6077 341.543 62.337C342.019 62.0607 342.549 61.9226 343.136 61.9226C343.782 61.9226 344.321 62.0692 344.753 62.3624C345.191 62.65 345.517 63.0447 345.73 63.5465C345.949 64.0427 346.058 64.6037 346.058 65.2295V71.2851H344.137ZM357.132 71.5388C356.257 71.5388 355.488 71.3386 354.826 70.9384C354.164 70.5381 353.647 69.9827 353.273 69.2722C352.905 68.5618 352.721 67.7442 352.721 66.8195C352.721 65.8215 352.903 64.9561 353.265 64.2231C353.628 63.4845 354.132 62.9122 354.778 62.5062C355.424 62.1002 356.171 61.8973 357.02 61.8973C357.916 61.8973 358.677 62.1199 359.301 62.5654C359.932 63.0052 360.398 63.6283 360.702 64.4345C361.007 65.2408 361.121 66.1909 361.047 67.2847H359.133V66.5404C359.128 65.5481 358.963 64.8236 358.637 64.3669C358.311 63.9101 357.799 63.6818 357.1 63.6818C356.31 63.6818 355.723 63.9412 355.339 64.4599C354.954 64.973 354.762 65.7257 354.762 66.718C354.762 67.6427 354.954 68.3588 355.339 68.8663C355.723 69.3737 356.283 69.6274 357.02 69.6274C357.494 69.6274 357.903 69.5175 358.245 69.2976C358.591 69.072 358.859 68.7479 359.045 68.325L360.951 68.9339C360.62 69.7571 360.108 70.3971 359.413 70.8538C358.725 71.3105 357.964 71.5388 357.132 71.5388ZM354.154 67.2847V65.7454H360.102V67.2847H354.154ZM368.496 71.5388C367.85 71.5388 367.308 71.4148 366.871 71.1667C366.439 70.913 366.111 70.5804 365.886 70.1687C365.667 69.7571 365.558 69.3061 365.558 68.8155C365.558 68.3362 365.643 67.9218 365.814 67.5723C365.99 67.217 366.235 66.9238 366.551 66.6927C366.865 66.4559 367.242 66.2698 367.68 66.1345C368.09 66.0161 368.549 65.9146 369.057 65.83C369.569 65.7398 370.086 65.6581 370.61 65.5847C371.132 65.5114 371.621 65.441 372.075 65.3733L371.562 65.6862C371.578 64.8743 371.423 64.2738 371.098 63.8848C370.778 63.4957 370.222 63.3012 369.433 63.3012C368.909 63.3012 368.45 63.4281 368.056 63.6818C367.666 63.9298 367.391 64.3358 367.231 64.8997L365.878 64.4683C366.087 63.6677 366.489 63.039 367.087 62.5823C367.684 62.1256 368.472 61.8973 369.449 61.8973C370.233 61.8973 370.906 62.0467 371.466 62.3455C372.031 62.6387 372.437 63.0841 372.683 63.6818C372.805 63.9637 372.883 64.271 372.915 64.6037C372.947 64.9307 372.963 65.2746 372.963 65.6355V71.2851H371.698V69.0946L371.995 69.2976C371.669 70.0362 371.212 70.5944 370.626 70.9722C370.044 71.35 369.333 71.5388 368.496 71.5388ZM368.712 70.2787C369.225 70.2787 369.667 70.1829 370.041 69.9911C370.42 69.7938 370.724 69.5372 370.954 69.2215C371.183 68.9001 371.332 68.5506 371.402 68.1727C371.482 67.8909 371.525 67.5779 371.53 67.234C371.541 66.8844 371.546 66.6166 371.546 66.4305L372.043 66.6588C371.578 66.7265 371.122 66.7914 370.674 66.8534C370.225 66.9154 369.801 66.983 369.401 67.0563C369.001 67.124 368.64 67.2058 368.32 67.3016C368.084 67.3805 367.864 67.482 367.656 67.6061C367.452 67.7302 367.287 67.8909 367.159 68.0882C367.036 68.2799 366.975 68.5195 366.975 68.8071C366.975 69.0551 367.033 69.2919 367.151 69.5175C367.274 69.7431 367.46 69.9262 367.712 70.0672C367.968 70.2082 368.301 70.2787 368.712 70.2787ZM378.687 71.5388C377.811 71.5388 377.067 71.3331 376.454 70.9214C375.845 70.5042 375.381 69.9319 375.061 69.2046C374.74 68.4772 374.575 67.6484 374.564 66.718C374.575 65.7651 374.743 64.9278 375.069 64.2062C375.399 63.4788 375.871 62.9122 376.486 62.5062C377.099 62.1002 377.839 61.8973 378.703 61.8973C379.616 61.8973 380.4 62.1341 381.057 62.6077C381.718 63.0813 382.161 63.7298 382.386 64.5529L380.977 65.0012C380.795 64.4711 380.499 64.0596 380.088 63.7664C379.682 63.4731 379.215 63.3266 378.687 63.3266C378.095 63.3266 377.606 63.4731 377.222 63.7664C376.838 64.0539 376.552 64.4542 376.366 64.9673C376.178 65.4748 376.082 66.0584 376.077 66.718C376.088 67.733 376.309 68.5533 376.742 69.1792C377.179 69.7994 377.827 70.1095 378.687 70.1095C379.252 70.1095 379.722 69.9742 380.096 69.7036C380.469 69.4272 380.753 69.0297 380.945 68.511L382.386 68.9085C382.086 69.76 381.619 70.4112 380.985 70.8622C380.349 71.3133 379.584 71.5388 378.687 71.5388ZM384.019 71.2851V62.151H385.292V64.3584L385.083 64.0708C385.185 63.789 385.316 63.5296 385.476 63.2927C385.642 63.0559 385.826 62.8614 386.028 62.7092C386.252 62.5174 386.506 62.3709 386.789 62.2694C387.072 62.1679 387.36 62.1087 387.653 62.0918C387.947 62.0692 388.222 62.089 388.478 62.151V63.5634C388.179 63.4788 387.851 63.4562 387.493 63.4957C387.136 63.5352 386.805 63.6733 386.5 63.9101C386.224 64.1188 386.008 64.3725 385.852 64.6713C385.703 64.9701 385.599 65.2944 385.54 65.6439C385.481 65.9879 385.452 66.3402 385.452 66.7011V71.2851H384.019ZM393.518 71.5388C392.659 71.5388 391.917 71.3331 391.292 70.9214C390.674 70.5098 390.196 69.9404 389.859 69.213C389.523 68.4857 389.355 67.6512 389.355 66.7096C389.355 65.7511 389.525 64.9109 389.867 64.1892C390.209 63.4676 390.692 62.9065 391.316 62.5062C391.941 62.1002 392.675 61.8973 393.518 61.8973C394.382 61.8973 395.127 62.103 395.751 62.5147C396.376 62.9206 396.854 63.4873 397.184 64.2146C397.52 64.9363 397.689 65.768 397.689 66.7096C397.689 67.6625 397.52 68.5026 397.184 69.2299C396.848 69.9516 396.368 70.5183 395.743 70.9299C395.119 71.3359 394.377 71.5388 393.518 71.5388ZM393.518 70.1095C394.414 70.1095 395.081 69.7938 395.519 69.1623C395.957 68.5307 396.176 67.7133 396.176 66.7096C396.176 65.6778 395.954 64.8574 395.511 64.2484C395.069 63.6338 394.404 63.3266 393.518 63.3266C392.915 63.3266 392.419 63.4704 392.029 63.7579C391.639 64.0455 391.348 64.443 391.156 64.9504C390.964 65.4579 390.868 66.0442 390.868 66.7096C390.868 67.7357 391.092 68.559 391.54 69.1792C391.989 69.7994 392.647 70.1095 393.518 70.1095ZM402.593 71.5304C401.562 71.5304 400.717 71.2936 400.055 70.82C399.398 70.3407 398.996 69.6725 398.846 68.8155L400.303 68.5702C400.421 69.0665 400.69 69.4611 401.112 69.7543C401.534 70.0419 402.056 70.1856 402.681 70.1856C403.273 70.1856 403.737 70.056 404.074 69.7966C404.41 69.5372 404.578 69.1849 404.578 68.7394C404.578 68.48 404.522 68.2715 404.41 68.1135C404.298 67.9501 404.066 67.7978 403.713 67.6568C403.367 67.5158 402.841 67.3467 402.136 67.1494C401.373 66.9352 400.773 66.7124 400.335 66.4812C399.897 66.2501 399.585 65.9822 399.398 65.6778C399.212 65.3733 399.118 65.0039 399.118 64.5698C399.118 64.0342 399.257 63.5662 399.534 63.1659C399.812 62.7599 400.199 62.447 400.695 62.2271C401.197 62.0072 401.778 61.8973 402.44 61.8973C403.097 61.8973 403.684 62.0072 404.202 62.2271C404.72 62.447 405.136 62.7599 405.45 63.1659C405.771 63.5662 405.961 64.0342 406.019 64.5698L404.562 64.8489C404.492 64.3584 404.268 63.9721 403.889 63.6903C403.515 63.4084 403.033 63.2589 402.44 63.242C401.88 63.2194 401.424 63.3238 401.071 63.5549C400.725 63.7861 400.551 64.099 400.551 64.4937C400.551 64.7136 400.615 64.9025 400.743 65.0604C400.877 65.2183 401.12 65.3676 401.472 65.5086C401.83 65.6496 402.347 65.8103 403.025 65.9907C403.788 66.1937 404.388 66.4164 404.826 66.6588C405.269 66.8957 405.584 67.1775 405.771 67.5046C405.957 67.826 406.051 68.2235 406.051 68.6971C406.051 69.5767 405.744 70.2702 405.13 70.7777C404.516 71.2794 403.671 71.5304 402.593 71.5304ZM411.083 71.5304C410.052 71.5304 409.206 71.2936 408.545 70.82C407.889 70.3407 407.485 69.6725 407.336 68.8155L408.793 68.5702C408.91 69.0665 409.18 69.4611 409.602 69.7543C410.023 70.0419 410.546 70.1856 411.171 70.1856C411.763 70.1856 412.228 70.056 412.564 69.7966C412.9 69.5372 413.068 69.1849 413.068 68.7394C413.068 68.48 413.012 68.2715 412.9 68.1135C412.788 67.9501 412.556 67.7978 412.204 67.6568C411.856 67.5158 411.331 67.3467 410.627 67.1494C409.863 66.9352 409.262 66.7124 408.825 66.4812C408.387 66.2501 408.075 65.9822 407.889 65.6778C407.701 65.3733 407.609 65.0039 407.609 64.5698C407.609 64.0342 407.747 63.5662 408.025 63.1659C408.302 62.7599 408.689 62.447 409.186 62.2271C409.686 62.0072 410.269 61.8973 410.931 61.8973C411.587 61.8973 412.174 62.0072 412.692 62.2271C413.209 62.447 413.625 62.7599 413.941 63.1659C414.261 63.5662 414.45 64.0342 414.509 64.5698L413.052 64.8489C412.982 64.3584 412.758 63.9721 412.38 63.6903C412.006 63.4084 411.523 63.2589 410.931 63.242C410.37 63.2194 409.914 63.3238 409.562 63.5549C409.214 63.7861 409.041 64.099 409.041 64.4937C409.041 64.7136 409.106 64.9025 409.234 65.0604C409.366 65.2183 409.61 65.3676 409.962 65.5086C410.319 65.6496 410.837 65.8103 411.515 65.9907C412.278 66.1937 412.878 66.4164 413.316 66.6588C413.759 66.8957 414.073 67.1775 414.261 67.5046C414.447 67.826 414.541 68.2235 414.541 68.6971C414.541 69.5767 414.234 70.2702 413.621 70.7777C413.006 71.2794 412.16 71.5304 411.083 71.5304ZM418.711 71.2851L422.57 59.1063H424.555L428.413 71.2851H426.933L423.322 59.9858H423.77L420.192 71.2851H418.711ZM420.568 68.4349V67.0225H426.556V68.4349H420.568ZM430.007 71.2851V59.1063H431.432V71.2851H430.007ZM441.011 71.5388C440.199 71.5388 439.516 71.3274 438.961 70.9045C438.405 70.476 437.985 69.8981 437.696 69.1707C437.413 68.4377 437.272 67.6173 437.272 66.7096C437.272 65.7905 437.413 64.9673 437.696 64.24C437.985 63.5126 438.405 62.9403 438.961 62.5231C439.522 62.1059 440.207 61.8973 441.019 61.8973C441.819 61.8973 442.508 62.1087 443.084 62.5316C443.665 62.9488 444.111 63.5211 444.421 64.2484C444.73 64.9758 444.885 65.7962 444.885 66.7096C444.885 67.623 444.73 68.4434 444.421 69.1707C444.111 69.8981 443.665 70.476 443.084 70.9045C442.508 71.3274 441.816 71.5388 441.011 71.5388ZM437.032 75.3447V62.151H438.305V68.8747H438.465V75.3447H437.032ZM440.834 70.1603C441.405 70.1603 441.878 70.008 442.251 69.7036C442.624 69.3991 442.904 68.9874 443.092 68.4688C443.278 67.9444 443.372 67.358 443.372 66.7096C443.372 66.0668 443.278 65.486 443.092 64.9673C442.91 64.4486 442.628 64.037 442.243 63.7325C441.864 63.4281 441.381 63.2758 440.794 63.2758C440.234 63.2758 439.77 63.4224 439.402 63.7156C439.033 64.0032 438.758 64.4064 438.577 64.925C438.395 65.4382 438.305 66.033 438.305 66.7096C438.305 67.375 438.393 67.9698 438.569 68.4941C438.75 69.0128 439.028 69.4217 439.402 69.7205C439.774 70.0137 440.252 70.1603 440.834 70.1603ZM446.8 71.2851V58.8525H448.225V71.2851H446.8ZM453.084 71.5388C452.439 71.5388 451.897 71.4148 451.459 71.1667C451.027 70.913 450.698 70.5804 450.474 70.1687C450.256 69.7571 450.146 69.3061 450.146 68.8155C450.146 68.3362 450.232 67.9218 450.402 67.5723C450.578 67.217 450.824 66.9238 451.139 66.6927C451.454 66.4559 451.831 66.2698 452.267 66.1345C452.679 66.0161 453.138 65.9146 453.644 65.83C454.157 65.7398 454.675 65.6581 455.197 65.5847C455.721 65.5114 456.21 65.441 456.662 65.3733L456.15 65.6862C456.166 64.8743 456.012 64.2738 455.686 63.8848C455.366 63.4957 454.811 63.3012 454.021 63.3012C453.498 63.3012 453.039 63.4281 452.644 63.6818C452.255 63.9298 451.979 64.3358 451.819 64.8997L450.466 64.4683C450.674 63.6677 451.078 63.039 451.675 62.5823C452.273 62.1256 453.06 61.8973 454.037 61.8973C454.821 61.8973 455.494 62.0467 456.054 62.3455C456.62 62.6387 457.026 63.0841 457.271 63.6818C457.394 63.9637 457.471 64.271 457.503 64.6037C457.535 64.9307 457.551 65.2746 457.551 65.6355V71.2851H456.286V69.0946L456.582 69.2976C456.258 70.0362 455.801 70.5944 455.213 70.9722C454.632 71.35 453.922 71.5388 453.084 71.5388ZM453.3 70.2787C453.812 70.2787 454.256 70.1829 454.629 69.9911C455.009 69.7938 455.313 69.5372 455.542 69.2215C455.772 68.9001 455.921 68.5506 455.99 68.1727C456.07 67.8909 456.113 67.5779 456.118 67.234C456.129 66.8844 456.134 66.6166 456.134 66.4305L456.63 66.6588C456.166 66.7265 455.71 66.7914 455.261 66.8534C454.813 66.9154 454.389 66.983 453.989 67.0563C453.588 67.124 453.228 67.2058 452.908 67.3016C452.673 67.3805 452.452 67.482 452.243 67.6061C452.041 67.7302 451.875 67.8909 451.747 68.0882C451.625 68.2799 451.563 68.5195 451.563 68.8071C451.563 69.0551 451.622 69.2919 451.739 69.5175C451.863 69.7431 452.049 69.9262 452.299 70.0672C452.556 70.2082 452.89 70.2787 453.3 70.2787ZM464.46 71.2851C463.947 71.3923 463.441 71.4346 462.939 71.412C462.442 71.3951 462 71.2908 461.61 71.0991C461.221 70.9017 460.925 70.5973 460.721 70.1856C460.551 69.8247 460.457 69.4611 460.441 69.0946C460.431 68.7225 460.425 68.3024 460.425 67.8344V59.6137H461.85V67.7668C461.85 68.1389 461.853 68.4575 461.858 68.7225C461.869 68.9874 461.925 69.2158 462.026 69.4075C462.218 69.7684 462.522 69.9799 462.939 70.0419C463.361 70.1038 463.867 70.0869 464.46 69.9911V71.2851ZM458.672 63.3942V62.151H464.46V63.3942H458.672ZM467.04 71.2851V61.652C467.04 61.4152 467.051 61.1756 467.072 60.9331C467.094 60.685 467.142 60.4453 467.216 60.2142C467.291 59.9774 467.414 59.7603 467.584 59.563C467.782 59.3318 467.998 59.1682 468.233 59.0724C468.468 58.9709 468.705 58.909 468.945 58.8864C469.191 58.8638 469.423 58.8525 469.642 58.8525H470.738V60.1043H469.722C469.301 60.1043 468.985 60.2142 468.777 60.4341C468.569 60.6483 468.465 60.9754 468.465 61.4152V71.2851H467.04ZM465.575 63.3942V62.151H470.738V63.3942H465.575ZM475.386 71.5388C474.527 71.5388 473.785 71.3331 473.16 70.9214C472.542 70.5098 472.064 69.9404 471.727 69.213C471.391 68.4857 471.223 67.6512 471.223 66.7096C471.223 65.7511 471.394 64.9109 471.736 64.1892C472.077 63.4676 472.56 62.9065 473.185 62.5062C473.809 62.1002 474.543 61.8973 475.386 61.8973C476.251 61.8973 476.995 62.103 477.62 62.5147C478.244 62.9206 478.722 63.4873 479.052 64.2146C479.389 64.9363 479.557 65.768 479.557 66.7096C479.557 67.6625 479.389 68.5026 479.052 69.2299C478.716 69.9516 478.236 70.5183 477.612 70.9299C476.987 71.3359 476.245 71.5388 475.386 71.5388ZM475.386 70.1095C476.283 70.1095 476.949 69.7938 477.387 69.1623C477.825 68.5307 478.044 67.7133 478.044 66.7096C478.044 65.6778 477.822 64.8574 477.379 64.2484C476.937 63.6338 476.272 63.3266 475.386 63.3266C474.783 63.3266 474.287 63.4704 473.897 63.7579C473.507 64.0455 473.217 64.443 473.024 64.9504C472.832 65.4579 472.736 66.0442 472.736 66.7096C472.736 67.7357 472.96 68.559 473.409 69.1792C473.857 69.7994 474.516 70.1095 475.386 70.1095ZM481.319 71.2851V62.151H482.592V64.3584L482.384 64.0708C482.486 63.789 482.616 63.5296 482.776 63.2927C482.942 63.0559 483.126 62.8614 483.329 62.7092C483.553 62.5174 483.807 62.3709 484.089 62.2694C484.373 62.1679 484.661 62.1087 484.954 62.0918C485.248 62.0692 485.522 62.089 485.778 62.151V63.5634C485.48 63.4788 485.151 63.4562 484.794 63.4957C484.437 63.5352 484.105 63.6733 483.801 63.9101C483.524 64.1188 483.308 64.3725 483.152 64.6713C483.004 64.9701 482.9 65.2944 482.84 65.6439C482.782 65.9879 482.752 66.3402 482.752 66.7011V71.2851H481.319ZM497.627 71.2851L497.635 65.441C497.635 64.7587 497.462 64.2259 497.115 63.8425C496.773 63.4534 496.328 63.2589 495.778 63.2589C495.458 63.2589 495.154 63.3378 494.866 63.4957C494.577 63.648 494.343 63.8905 494.161 64.2231C493.979 64.5501 493.889 64.9701 493.889 65.4832L493.136 65.1619C493.126 64.5134 493.251 63.9468 493.513 63.4619C493.779 62.9714 494.143 62.5908 494.601 62.3201C495.06 62.0495 495.578 61.9142 496.154 61.9142C497.057 61.9142 497.766 62.2045 498.284 62.7853C498.802 63.3604 499.06 64.1357 499.06 65.1111L499.052 71.2851H497.627ZM487.284 71.2851V62.151H488.557V64.5952H488.717V71.2851H487.284ZM492.464 71.2851L492.472 65.5002C492.472 64.801 492.301 64.2541 491.96 63.8594C491.618 63.4591 491.165 63.2589 490.599 63.2589C490.038 63.2589 489.584 63.4619 489.238 63.8679C488.891 64.2738 488.717 64.8123 488.717 65.4832L487.965 65.0096C487.965 64.4176 488.099 63.8876 488.365 63.4196C488.632 62.9517 488.995 62.5851 489.454 62.3201C489.912 62.0495 490.433 61.9142 491.015 61.9142C491.597 61.9142 492.104 62.0438 492.536 62.3032C492.968 62.5626 493.302 62.9348 493.537 63.4196C493.771 63.8989 493.889 64.4711 493.889 65.1365L493.881 71.2851H492.464ZM508.033 71.5388C507.174 71.5388 506.432 71.3331 505.808 70.9214C505.189 70.5098 504.711 69.9404 504.375 69.213C504.039 68.4857 503.871 67.6512 503.871 66.7096C503.871 65.7511 504.041 64.9109 504.383 64.1892C504.725 63.4676 505.207 62.9065 505.832 62.5062C506.456 62.1002 507.19 61.8973 508.033 61.8973C508.898 61.8973 509.642 62.103 510.267 62.5147C510.891 62.9206 511.369 63.4873 511.7 64.2146C512.036 64.9363 512.204 65.768 512.204 66.7096C512.204 67.6625 512.036 68.5026 511.7 69.2299C511.364 69.9516 510.883 70.5183 510.259 70.9299C509.634 71.3359 508.892 71.5388 508.033 71.5388ZM508.033 70.1095C508.93 70.1095 509.597 69.7938 510.035 69.1623C510.473 68.5307 510.691 67.7133 510.691 66.7096C510.691 65.6778 510.469 64.8574 510.027 64.2484C509.584 63.6338 508.92 63.3266 508.033 63.3266C507.431 63.3266 506.934 63.4704 506.544 63.7579C506.154 64.0455 505.864 64.443 505.672 64.9504C505.48 65.4579 505.384 66.0442 505.384 66.7096C505.384 67.7357 505.608 68.559 506.056 69.1792C506.504 69.7994 507.163 70.1095 508.033 70.1095ZM515.992 71.2851L512.854 62.151H514.295L516.72 69.3653L519.138 62.151H520.587L517.449 71.2851H515.992ZM525.468 71.5388C524.619 71.5388 523.878 71.3415 523.243 70.9468C522.614 70.5465 522.122 69.9911 521.77 69.2807C521.417 68.5646 521.241 67.7302 521.241 66.7773C521.241 65.7793 521.415 64.9166 521.761 64.1892C522.109 63.4562 522.592 62.8925 523.21 62.4977C523.835 62.0975 524.567 61.8973 525.404 61.8973C526.274 61.8973 527.013 62.1087 527.622 62.5316C528.236 62.9544 528.694 63.5577 528.998 64.3415C529.308 65.1252 529.442 66.0584 529.399 67.1409H527.958V66.5996C527.942 65.4776 527.726 64.6403 527.309 64.0878C526.893 63.5296 526.274 63.2505 525.452 63.2505C524.571 63.2505 523.902 63.5492 523.443 64.147C522.984 64.7447 522.754 65.6017 522.754 66.718C522.754 67.7949 522.984 68.6294 523.443 69.2215C523.902 69.8135 524.555 70.1095 525.404 70.1095C525.976 70.1095 526.472 69.9714 526.893 69.6951C527.315 69.4188 527.646 69.0213 527.886 68.5026L529.255 69.0016C528.918 69.8078 528.412 70.4337 527.734 70.8792C527.061 71.3189 526.306 71.5388 525.468 71.5388ZM522.274 67.1409V65.9315H528.662V67.1409H522.274ZM531.182 71.2851V62.151H532.454V64.3584L532.246 64.0708C532.348 63.789 532.479 63.5296 532.639 63.2927C532.804 63.0559 532.989 62.8614 533.191 62.7092C533.415 62.5174 533.669 62.3709 533.952 62.2694C534.234 62.1679 534.522 62.1087 534.816 62.0918C535.11 62.0692 535.384 62.089 535.641 62.151V63.5634C535.342 63.4788 535.014 63.4562 534.656 63.4957C534.298 63.5352 533.968 63.6733 533.663 63.9101C533.385 64.1188 533.169 64.3725 533.015 64.6713C532.865 64.9701 532.761 65.2944 532.703 65.6439C532.644 65.9879 532.615 66.3402 532.615 66.7011V71.2851H531.182ZM541.982 71.2851C541.47 71.3923 540.962 71.4346 540.461 71.412C539.965 71.3951 539.521 71.2908 539.132 71.0991C538.742 70.9017 538.446 70.5973 538.244 70.1856C538.072 69.8247 537.979 69.4611 537.963 69.0946C537.952 68.7225 537.947 68.3024 537.947 67.8344V59.6137H539.372V67.7668C539.372 68.1389 539.375 68.4575 539.38 68.7225C539.391 68.9874 539.447 69.2158 539.548 69.4075C539.741 69.7684 540.045 69.9799 540.461 70.0419C540.882 70.1038 541.39 70.0869 541.982 69.9911V71.2851ZM536.194 63.3942V62.151H541.982V63.3942H536.194ZM543.897 60.5356V58.9794H545.322V60.5356H543.897ZM543.897 71.2851V62.151H545.322V71.2851H543.897ZM558.059 71.2851L558.067 65.441C558.067 64.7587 557.894 64.2259 557.547 63.8425C557.205 63.4534 556.759 63.2589 556.21 63.2589C555.89 63.2589 555.586 63.3378 555.297 63.4957C555.009 63.648 554.774 63.8905 554.593 64.2231C554.411 64.5501 554.321 64.9701 554.321 65.4832L553.568 65.1619C553.557 64.5134 553.683 63.9468 553.945 63.4619C554.211 62.9714 554.574 62.5908 555.033 62.3201C555.492 62.0495 556.01 61.9142 556.586 61.9142C557.488 61.9142 558.198 62.2045 558.716 62.7853C559.233 63.3604 559.492 64.1357 559.492 65.1111L559.484 71.2851H558.059ZM547.716 71.2851V62.151H548.989V64.5952H549.149V71.2851H547.716ZM552.896 71.2851L552.904 65.5002C552.904 64.801 552.732 64.2541 552.391 63.8594C552.05 63.4591 551.596 63.2589 551.031 63.2589C550.47 63.2589 550.016 63.4619 549.67 63.8679C549.322 64.2738 549.149 64.8123 549.149 65.4832L548.397 65.0096C548.397 64.4176 548.529 63.8876 548.797 63.4196C549.064 62.9517 549.426 62.5851 549.886 62.3201C550.344 62.0495 550.865 61.9142 551.447 61.9142C552.028 61.9142 552.536 62.0438 552.968 62.3032C553.4 62.5626 553.733 62.9348 553.969 63.4196C554.203 63.8989 554.321 64.4711 554.321 65.1365L554.313 71.2851H552.896ZM565.246 71.5388C564.397 71.5388 563.655 71.3415 563.02 70.9468C562.39 70.5465 561.9 69.9911 561.547 69.2807C561.195 68.5646 561.019 67.7302 561.019 66.7773C561.019 65.7793 561.192 64.9166 561.539 64.1892C561.886 63.4562 562.369 62.8925 562.988 62.4977C563.613 62.0975 564.344 61.8973 565.182 61.8973C566.051 61.8973 566.791 62.1087 567.399 62.5316C568.012 62.9544 568.472 63.5577 568.776 64.3415C569.085 65.1252 569.219 66.0584 569.177 67.1409H567.736V66.5996C567.72 65.4776 567.503 64.6403 567.087 64.0878C566.671 63.5296 566.051 63.2505 565.23 63.2505C564.349 63.2505 563.679 63.5492 563.221 64.147C562.761 64.7447 562.532 65.6017 562.532 66.718C562.532 67.7949 562.761 68.6294 563.221 69.2215C563.679 69.8135 564.333 70.1095 565.182 70.1095C565.753 70.1095 566.249 69.9714 566.671 69.6951C567.092 69.4188 567.423 69.0213 567.664 68.5026L569.033 69.0016C568.696 69.8078 568.188 70.4337 567.511 70.8792C566.839 71.3189 566.083 71.5388 565.246 71.5388ZM562.052 67.1409V65.9315H568.44V67.1409H562.052Z" fill="#77788C"/>
<path d="M43.8356 119.608L43.8413 118.798L47.5638 115.246C47.884 114.94 48.0956 114.65 48.1985 114.376C48.3052 114.098 48.3586 113.808 48.3586 113.506C48.3586 113.148 48.2786 112.824 48.1185 112.534C47.9584 112.244 47.743 112.014 47.4723 111.845C47.2016 111.672 46.8986 111.585 46.5631 111.585C46.2124 111.585 45.8998 111.674 45.6254 111.851C45.3509 112.028 45.1336 112.262 44.9735 112.552C44.8172 112.842 44.741 113.158 44.7448 113.5H43.887C43.887 112.973 44.0052 112.499 44.2416 112.081C44.478 111.662 44.7982 111.334 45.2022 111.096C45.6063 110.854 46.0637 110.733 46.5746 110.733C47.074 110.733 47.5218 110.858 47.9183 111.108C48.3186 111.354 48.6331 111.688 48.8618 112.111C49.0943 112.53 49.2107 112.997 49.2107 113.512C49.2107 113.875 49.1687 114.195 49.0849 114.473C49.0048 114.747 48.8771 115.002 48.7017 115.24C48.5302 115.474 48.311 115.715 48.0441 115.965L44.739 119.118L44.6075 118.756H49.2107V119.608H43.8356ZM52.931 119.795C52.424 119.795 51.9666 119.67 51.5586 119.42C51.1546 119.171 50.8344 118.832 50.598 118.406C50.3617 117.975 50.2435 117.491 50.2435 116.956V113.573C50.2435 113.037 50.3617 112.556 50.598 112.129C50.8344 111.698 51.1546 111.358 51.5586 111.108C51.9666 110.858 52.424 110.733 52.931 110.733C53.4381 110.733 53.8936 110.858 54.2977 111.108C54.7056 111.358 55.0277 111.698 55.264 112.129C55.5004 112.556 55.6186 113.037 55.6186 113.573V116.956C55.6186 117.491 55.5004 117.975 55.264 118.406C55.0277 118.832 54.7056 119.171 54.2977 119.42C53.8936 119.67 53.4381 119.795 52.931 119.795ZM52.931 118.937C53.2703 118.937 53.5791 118.851 53.8574 118.677C54.1357 118.5 54.3568 118.265 54.5207 117.971C54.6847 117.677 54.7665 117.352 54.7665 116.998V113.53C54.7665 113.172 54.6847 112.846 54.5207 112.552C54.3568 112.258 54.1357 112.024 53.8574 111.851C53.5791 111.674 53.2703 111.585 52.931 111.585C52.5918 111.585 52.283 111.674 52.0047 111.851C51.7264 112.024 51.5054 112.258 51.3414 112.552C51.1775 112.846 51.0955 113.172 51.0955 113.53V116.998C51.0955 117.352 51.1775 117.677 51.3414 117.971C51.5054 118.265 51.7264 118.5 52.0047 118.677C52.283 118.851 52.5918 118.937 52.931 118.937ZM56.8748 119.614L56.8805 110.915H57.7268V116.231L60.483 113.089H61.6038L58.7104 116.352L61.9812 119.614H60.7575L57.7268 116.472V119.614H56.8748Z" fill="#9CA3AF"/>
<path d="M47.454 165.526V157.817L45.9044 158.802V157.805L47.454 156.827H48.3061V165.526H47.454ZM52.9166 165.707C52.402 165.707 51.9331 165.576 51.5099 165.314C51.0906 165.048 50.7551 164.69 50.5035 164.239C50.2557 163.783 50.1319 163.272 50.1319 162.705V159.69C50.1319 159.106 50.2557 158.587 50.5035 158.131C50.7513 157.672 51.0886 157.312 51.5157 157.05C51.9464 156.784 52.4343 156.651 52.9795 156.651C53.4484 156.651 53.883 156.76 54.2833 156.978C54.6873 157.195 55.017 157.5 55.2725 157.89L54.6263 158.452C54.4509 158.162 54.2184 157.93 53.9287 157.757C53.6389 157.584 53.3226 157.497 52.9795 157.497C52.5945 157.497 52.2514 157.596 51.9502 157.793C51.649 157.99 51.4127 158.25 51.2412 158.572C51.0696 158.89 50.9839 159.237 50.9839 159.612V161.508L50.7723 161.255C51.0125 160.856 51.327 160.533 51.7158 160.288C52.1084 160.043 52.5353 159.92 52.9967 159.92C53.5074 159.92 53.9668 160.049 54.3747 160.306C54.7826 160.56 55.1067 160.904 55.3468 161.339C55.587 161.774 55.7071 162.261 55.7071 162.801C55.7071 163.336 55.5793 163.825 55.324 164.263C55.0724 164.702 54.735 165.052 54.3118 165.314C53.8925 165.576 53.4274 165.707 52.9166 165.707ZM52.9166 164.843C53.2749 164.843 53.6008 164.752 53.8944 164.571C54.1918 164.39 54.4262 164.145 54.5978 163.834C54.7731 163.524 54.8608 163.179 54.8608 162.801C54.8608 162.423 54.7731 162.079 54.5978 161.768C54.4262 161.454 54.1936 161.206 53.9001 161.025C53.6066 160.84 53.2806 160.747 52.9223 160.747C52.5639 160.747 52.238 160.84 51.9445 161.025C51.651 161.206 51.4165 161.454 51.2412 161.768C51.0696 162.079 50.9839 162.423 50.9839 162.801C50.9839 163.176 51.0696 163.518 51.2412 163.828C51.4127 164.139 51.6452 164.386 51.9388 164.571C52.2323 164.752 52.5582 164.843 52.9166 164.843ZM56.8748 165.526L56.8806 156.827H57.7269V162.143L60.483 159.001H61.6038L58.7104 162.264L61.9812 165.526H60.7575L57.7269 162.384V165.526H56.8748Z" fill="#9CA3AF"/>
<path d="M47.5657 211.438V203.73L46.0161 204.714V203.718L47.5657 202.739H48.4177V211.438H47.5657ZM52.9311 211.619C52.4241 211.619 51.9667 211.495 51.5587 211.245C51.1547 210.995 50.8345 210.656 50.5981 210.23C50.3618 209.798 50.2436 209.315 50.2436 208.78V205.397C50.2436 204.862 50.3618 204.38 50.5981 203.953C50.8345 203.522 51.1547 203.182 51.5587 202.932C51.9667 202.682 52.4241 202.558 52.9311 202.558C53.4382 202.558 53.8937 202.682 54.2977 202.932C54.7057 203.182 55.0278 203.522 55.2641 203.953C55.5005 204.38 55.6186 204.862 55.6186 205.397V208.78C55.6186 209.315 55.5005 209.798 55.2641 210.23C55.0278 210.656 54.7057 210.995 54.2977 211.245C53.8937 211.495 53.4382 211.619 52.9311 211.619ZM52.9311 210.761C53.2704 210.761 53.5792 210.674 53.8574 210.502C54.1358 210.324 54.3569 210.088 54.5208 209.795C54.6847 209.501 54.7666 209.176 54.7666 208.822V205.355C54.7666 204.996 54.6847 204.67 54.5208 204.376C54.3569 204.082 54.1358 203.848 53.8574 203.675C53.5792 203.498 53.2704 203.409 52.9311 203.409C52.5919 203.409 52.2831 203.498 52.0048 203.675C51.7265 203.848 51.5054 204.082 51.3414 204.376C51.1776 204.67 51.0956 204.996 51.0956 205.355V208.822C51.0956 209.176 51.1776 209.501 51.3414 209.795C51.5054 210.088 51.7265 210.324 52.0048 210.502C52.2831 210.674 52.5919 210.761 52.9311 210.761ZM56.8749 211.438L56.8806 202.739H57.7269V208.055L60.4831 204.914H61.6039L58.7105 208.176L61.9813 211.438H60.7576L57.7269 208.297V211.438H56.8749Z" fill="#9CA3AF"/>
<path d="M53.1001 257.532C52.5855 257.532 52.1298 257.424 51.7335 257.206C51.3407 256.989 51.032 256.684 50.8071 256.294C50.5859 255.899 50.4755 255.439 50.4755 254.911C50.4755 254.37 50.5993 253.892 50.8471 253.473C51.0949 253.05 51.4723 252.73 51.9793 252.512L51.9679 252.863C51.5448 252.697 51.2226 252.428 51.0015 252.053C50.7804 251.679 50.6699 251.264 50.6699 250.809C50.6699 250.325 50.7746 249.911 50.9844 249.564C51.194 249.214 51.4799 248.944 51.8421 248.755C52.2081 248.565 52.6273 248.471 53.1001 248.471C53.5728 248.471 53.9921 248.565 54.3581 248.755C54.7241 248.944 55.0118 249.214 55.2215 249.564C55.4312 249.911 55.536 250.325 55.536 250.809C55.536 251.264 55.4292 251.676 55.2158 252.047C55.0061 252.418 54.684 252.69 54.2495 252.863L54.2209 252.512C54.7278 252.726 55.1072 253.044 55.3588 253.467C55.6142 253.89 55.7419 254.37 55.7419 254.911C55.7419 255.439 55.6294 255.899 55.4045 256.294C55.1796 256.684 54.8688 256.989 54.4725 257.206C54.076 257.424 53.6185 257.532 53.1001 257.532ZM53.1001 256.681C53.6185 256.681 54.0397 256.53 54.3638 256.227C54.6878 255.922 54.8499 255.482 54.8499 254.911C54.8499 254.331 54.6898 253.892 54.3695 253.594C54.0493 253.292 53.6262 253.14 53.1001 253.14C52.574 253.14 52.1527 253.292 51.8364 253.594C51.5199 253.892 51.3618 254.331 51.3618 254.911C51.3618 255.482 51.5219 255.922 51.8421 256.227C52.1623 256.53 52.5816 256.681 53.1001 256.681ZM53.1001 252.283C53.5576 252.283 53.9292 252.159 54.2151 251.914C54.5011 251.664 54.644 251.296 54.644 250.809C54.644 250.322 54.5011 249.957 54.2151 249.715C53.9292 249.47 53.5576 249.347 53.1001 249.347C52.6426 249.347 52.271 249.47 51.9851 249.715C51.7029 249.957 51.5619 250.322 51.5619 250.809C51.5619 251.296 51.7029 251.664 51.9851 251.914C52.271 252.159 52.6426 252.283 53.1001 252.283ZM56.8749 257.351L56.8806 248.652H57.7269V253.968L60.4831 250.827H61.6038L58.7104 254.089L61.9812 257.351H60.7575L57.7269 254.21V257.351H56.8749Z" fill="#9CA3AF"/>
<path d="M58.2615 303.444C57.7544 303.444 57.297 303.32 56.8892 303.07C56.485 302.82 56.1648 302.482 55.9285 302.055C55.6921 301.624 55.574 301.14 55.574 300.605V297.222C55.574 296.687 55.6921 296.205 55.9285 295.778C56.1648 295.347 56.485 295.007 56.8892 294.757C57.297 294.507 57.7544 294.383 58.2615 294.383C58.7685 294.383 59.224 294.507 59.6282 294.757C60.036 295.007 60.3581 295.347 60.5945 295.778C60.8308 296.205 60.9491 296.687 60.9491 297.222V300.605C60.9491 301.14 60.8308 301.624 60.5945 302.055C60.3581 302.482 60.036 302.82 59.6282 303.07C59.224 303.32 58.7685 303.444 58.2615 303.444ZM58.2615 302.587C58.6007 302.587 58.9095 302.5 59.1879 302.327C59.4661 302.149 59.6872 301.914 59.8512 301.62C60.0151 301.326 60.097 301.001 60.097 300.647V297.18C60.097 296.821 60.0151 296.495 59.8512 296.201C59.6872 295.908 59.4661 295.673 59.1879 295.5C58.9095 295.323 58.6007 295.235 58.2615 295.235C57.9222 295.235 57.6134 295.323 57.3352 295.5C57.0568 295.673 56.8357 295.908 56.6719 296.201C56.5079 296.495 56.426 296.821 56.426 297.18V300.647C56.426 301.001 56.5079 301.326 56.6719 301.62C56.8357 301.914 57.0568 302.149 57.3352 302.327C57.6134 302.5 57.9222 302.587 58.2615 302.587Z" fill="#9CA3AF"/>
<mask id="mask0_655_1538" style="mask-type:alpha" maskUnits="userSpaceOnUse" x="75" y="106" width="954" height="285">
<path d="M1027.55 106.928H76.0491V389.651H1027.55V106.928Z" fill="#D9D9D9" stroke="#2563EB"/>
</mask>
<g mask="url(#mask0_655_1538)">
<path d="M75.4772 116.12H1028.12" stroke="#F1F5F9"/>
<path d="M75.4772 250.806H1028.12" stroke="#F1F5F9"/>
<path d="M75.4772 316.328H1028.12" stroke="#F1F5F9"/>
<path d="M75.4772 187.103H1028.12" stroke="#F1F5F9"/>
<path d="M75.4772 389.651H1028.12" stroke="#F1F5F9"/>
<path d="M1204.93 129.395C1228.76 119.572 1252.38 117.009 1275.83 122.533C1298.92 127.971 1321.87 141.262 1344.73 163.261L1345.82 164.316L1345.83 164.322C1393.22 209.056 1440.66 289.754 1462.99 329.497L1463.01 329.506V329.514L1487.13 369.471V398.753H-1192.55V280.389L-1170.03 299.599V299.6C-1158.2 309.794 -1140.29 324.793 -1119.49 335.392C-1098.69 345.992 -1074.94 352.233 -1051.47 344.797L-1051.47 344.796C-1027.96 337.091 -1004.59 315.782 -981.126 292.078C-957.614 268.328 -933.977 242.153 -909.824 224.483L-909.823 224.484L-909.815 224.478C-863.822 189.575 -817.087 189.555 -770.583 194.529V194.53C-722.954 199.881 -675.705 209.266 -629.205 224.564L-629.197 224.567C-617.383 228.251 -605.547 232.305 -593.699 236.312C-581.854 240.32 -569.999 244.279 -558.166 247.77C-534.504 254.75 -510.897 259.861 -487.551 259.719H-487.549L-487.545 259.72L-487.546 259.719C-464.039 259.861 -440.686 254.753 -417.288 251.544C-393.855 248.331 -370.309 247.005 -346.225 254.624C-323.056 261.965 -299.858 278.273 -276.346 295.891C-252.87 313.483 -229.086 332.375 -204.834 344.755V344.756C-158.502 369.923 -111.398 369.922 -64.6963 344.76L-64.6952 344.761C-40.8009 332.375 -17.0212 313.48 6.58762 292.099C30.192 270.724 53.671 246.819 76.9245 224.433L76.9256 224.434C100.569 201.75 124.257 180.593 147.828 167.565C171.388 154.542 194.756 149.682 217.815 159.454H217.818C229.459 164.348 241.084 173.045 252.747 183.76C264.406 194.473 276.07 207.174 287.801 220.05C311.225 245.763 334.944 272.227 359.254 284.639C382.606 297.273 406.038 296.003 429.413 289.099C452.748 282.207 476.151 269.653 499.356 259.677L499.355 259.676C547.136 239.321 594.145 229.953 640.576 234.639V234.64C687.937 239.326 735.332 259.946 781.859 284.641C805.383 297.168 829.16 310.974 852.857 321.015C876.561 331.057 900.259 337.367 923.662 334.863H923.666C947.157 332.171 970.515 320.915 994.032 304.687C1017.55 288.458 1041.27 267.226 1065.47 244.54L1065.48 244.534C1088.67 222.115 1111.92 198.255 1135.2 177.518C1158.48 156.784 1181.74 139.221 1204.93 129.395Z" fill="url(#paint0_linear_655_1538)" stroke="#7C3AED"/>
<path d="M941.635 129.395C965.464 119.572 989.085 117.009 1012.53 122.533C1035.62 127.971 1058.58 141.262 1081.44 163.261L1082.52 164.316L1082.53 164.322C1129.93 209.056 1177.36 289.754 1199.71 329.497V329.506L1199.72 329.514L1223.83 369.474V398.753H-1455.85V280.388L-1433.32 299.599V299.6C-1421.5 309.794 -1403.58 324.793 -1382.78 335.392C-1361.99 345.992 -1338.24 352.233 -1314.77 344.797L-1314.76 344.796C-1291.25 337.091 -1267.89 315.782 -1244.42 292.078C-1220.91 268.328 -1197.27 242.153 -1173.12 224.483L-1173.11 224.478C-1127.12 189.575 -1080.38 189.555 -1033.88 194.529V194.53C-986.249 199.881 -938.999 209.266 -892.499 224.564L-892.491 224.567C-880.677 228.251 -868.841 232.305 -856.993 236.312C-845.148 240.32 -833.293 244.279 -821.46 247.77C-797.798 254.75 -774.191 259.861 -750.845 259.719H-750.843L-750.84 259.72L-750.841 259.719C-727.333 259.861 -703.98 254.753 -680.583 251.544C-657.15 248.331 -633.603 247.005 -609.519 254.624C-586.351 261.965 -563.151 278.273 -539.64 295.891C-516.165 313.483 -492.38 332.375 -468.128 344.755V344.756C-421.796 369.923 -374.692 369.922 -327.991 344.76L-327.99 344.761C-304.095 332.375 -280.315 313.48 -256.707 292.099C-233.103 270.724 -209.624 246.819 -186.37 224.433L-186.369 224.434C-162.724 201.75 -139.037 180.593 -115.466 167.565C-91.9054 154.542 -68.5379 149.682 -45.4793 159.454H-45.4771C-33.8358 164.348 -22.2103 173.045 -10.5482 183.76C1.11168 194.473 12.777 207.174 24.508 220.05C47.936 245.767 71.6576 272.236 95.9728 284.646C119.32 297.273 142.748 296.002 166.119 289.099C189.453 282.207 212.856 269.652 236.062 259.676C283.843 239.321 330.851 229.953 377.281 234.639L377.283 234.64C423.164 239.179 469.076 258.673 514.201 282.339L518.566 284.642C542.09 297.168 565.867 310.974 589.563 321.015C613.267 331.057 636.964 337.367 660.368 334.863H660.372C683.862 332.171 707.222 320.915 730.739 304.687C754.258 288.458 777.973 267.226 802.177 244.54L802.184 244.534C825.38 222.115 848.627 198.255 871.91 177.518C895.19 156.784 918.451 139.221 941.635 129.395Z" fill="url(#paint1_linear_655_1538)" stroke="#F43F5E"/>
</g>
<path d="M136.519 399.92H22.8701V416.835H136.519V399.92Z" fill="white"/>
<path d="M203.984 413.211V405.503L202.435 406.487V405.49L203.984 404.512H204.836V413.211H203.984ZM206.434 413.205L206.44 412.395L210.162 408.843C210.482 408.538 210.694 408.248 210.797 407.973C210.903 407.695 210.957 407.406 210.957 407.103C210.957 406.745 210.877 406.421 210.717 406.131C210.557 405.841 210.342 405.611 210.071 405.442C209.8 405.269 209.497 405.182 209.162 405.182C208.81 405.182 208.498 405.271 208.224 405.448C207.949 405.626 207.732 405.859 207.572 406.149C207.415 406.439 207.34 406.755 207.343 407.097H206.485C206.485 406.569 206.603 406.097 206.84 405.678C207.077 405.259 207.397 404.931 207.801 404.693C208.204 404.451 208.662 404.331 209.173 404.331C209.673 404.331 210.12 404.455 210.517 404.705C210.917 404.95 211.232 405.285 211.46 405.708C211.692 406.127 211.809 406.594 211.809 407.109C211.809 407.472 211.767 407.792 211.683 408.07C211.603 408.344 211.475 408.599 211.3 408.837C211.129 409.07 210.909 409.312 210.643 409.562L207.337 412.716L207.206 412.353H211.809V413.205H206.434Z" fill="#9CA3AF"/>
<path d="M331.457 413.211V405.502L329.908 406.487V405.49L331.457 404.512H332.309V413.211H331.457ZM336.349 413.386C335.94 413.386 335.565 413.31 335.222 413.157C334.879 413.003 334.583 412.786 334.336 412.504C334.088 412.218 333.907 411.878 333.793 411.483L334.593 411.229C334.73 411.661 334.954 411.987 335.268 412.208C335.583 412.429 335.94 412.537 336.337 412.528C336.703 412.52 337.018 412.434 337.281 412.269C337.547 412.103 337.751 411.873 337.892 411.58C338.033 411.286 338.104 410.945 338.104 410.559C338.104 409.967 337.939 409.492 337.612 409.133C337.287 408.771 336.859 408.589 336.326 408.589C336.177 408.589 336.02 408.611 335.857 408.656C335.692 408.696 335.54 408.755 335.399 408.831L334.976 408.124L338.178 405.001L338.316 405.364H334.118V404.512H338.876V405.376L336.086 408.191L336.074 407.84C336.646 407.764 337.149 407.832 337.584 408.046C338.018 408.26 338.357 408.586 338.602 409.024C338.849 409.459 338.973 409.97 338.973 410.559C338.973 411.115 338.859 411.606 338.63 412.033C338.405 412.456 338.094 412.788 337.698 413.03C337.301 413.268 336.852 413.386 336.349 413.386Z" fill="#9CA3AF"/>
<path d="M458.618 413.211V405.502L457.068 406.487V405.49L458.618 404.512H459.47V413.211H458.618ZM464.921 413.211V411.525H461.067V410.68L463.823 404.512H464.766L462.01 410.68H464.921V408.142H465.767V410.68H466.665V411.525H465.767V413.211H464.921Z" fill="#9CA3AF"/>
<path d="M586.062 413.211V405.502L584.513 406.487V405.49L586.062 404.512H586.914V413.211H586.062ZM591.171 413.392C590.743 413.392 590.349 413.299 589.987 413.114C589.625 412.929 589.316 412.673 589.061 412.347C588.805 412.021 588.622 411.646 588.512 411.223L589.318 410.994C589.39 411.308 589.522 411.58 589.713 411.809C589.903 412.035 590.126 412.21 590.382 412.335C590.64 412.459 590.911 412.522 591.194 412.522C591.56 412.522 591.887 412.429 592.177 412.244C592.47 412.055 592.703 411.806 592.875 411.495C593.047 411.185 593.132 410.845 593.132 410.474C593.132 410.091 593.042 409.747 592.864 409.441C592.684 409.131 592.447 408.885 592.154 408.704C591.861 408.523 591.54 408.432 591.194 408.432C590.805 408.432 590.469 408.523 590.187 408.704C589.905 408.882 589.68 409.105 589.513 409.375L588.746 409.037L588.998 404.512H593.395V405.364H589.37L589.787 404.947L589.564 408.807L589.353 408.511C589.588 408.225 589.874 408.001 590.21 407.84C590.545 407.68 590.898 407.599 591.268 407.599C591.775 407.599 592.232 407.728 592.64 407.985C593.048 408.239 593.372 408.583 593.613 409.018C593.853 409.453 593.973 409.939 593.973 410.474C593.973 411.006 593.845 411.493 593.59 411.936C593.334 412.375 592.995 412.728 592.572 412.993C592.149 413.259 591.681 413.392 591.171 413.392Z" fill="#9CA3AF"/>
<path d="M713.189 413.211V405.502L711.639 406.487V405.49L713.189 404.512H714.041V413.211H713.189ZM718.652 413.392C718.137 413.392 717.668 413.262 717.245 412.999C716.825 412.734 716.49 412.375 716.239 411.924C715.991 411.469 715.867 410.957 715.867 410.39V407.375C715.867 406.792 715.991 406.272 716.239 405.817C716.487 405.357 716.824 404.997 717.251 404.735C717.682 404.469 718.169 404.336 718.715 404.336C719.184 404.336 719.618 404.445 720.018 404.663C720.422 404.88 720.753 405.185 721.008 405.575L720.362 406.137C720.187 405.847 719.953 405.615 719.664 405.442C719.375 405.269 719.058 405.182 718.715 405.182C718.329 405.182 717.986 405.281 717.685 405.478C717.385 405.675 717.148 405.935 716.976 406.257C716.805 406.575 716.719 406.922 716.719 407.297V409.193L716.508 408.94C716.748 408.541 717.062 408.218 717.451 407.973C717.843 407.728 718.271 407.605 718.732 407.605C719.243 407.605 719.702 407.734 720.11 407.991C720.518 408.245 720.842 408.589 721.082 409.024C721.322 409.459 721.442 409.946 721.442 410.486C721.442 411.021 721.314 411.51 721.059 411.948C720.808 412.387 720.47 412.737 720.047 412.999C719.627 413.262 719.163 413.392 718.652 413.392ZM718.652 412.528C719.01 412.528 719.336 412.438 719.63 412.256C719.927 412.075 720.161 411.83 720.333 411.519C720.508 411.209 720.596 410.864 720.596 410.486C720.596 410.108 720.508 409.764 720.333 409.453C720.161 409.139 719.929 408.891 719.635 408.71C719.341 408.525 719.016 408.432 718.658 408.432C718.3 408.432 717.974 408.525 717.68 408.71C717.386 408.891 717.151 409.139 716.976 409.453C716.805 409.764 716.719 410.108 716.719 410.486C716.719 410.861 716.805 411.203 716.976 411.513C717.148 411.824 717.38 412.071 717.674 412.256C717.968 412.438 718.294 412.528 718.652 412.528Z" fill="#9CA3AF"/>
<path d="M841.237 413.211V405.502L839.687 406.487V405.49L841.237 404.512H842.089V413.211H841.237ZM844.356 413.211L847.386 405.376H843.572V404.512H848.284V405.376L845.259 413.211H844.356Z" fill="#9CA3AF"/>
<path d="M968.163 413.211V405.503L966.613 406.487V405.49L968.163 404.512H969.015V413.211H968.163ZM973.351 413.392C972.836 413.392 972.381 413.283 971.984 413.066C971.592 412.849 971.283 412.544 971.058 412.154C970.837 411.759 970.726 411.298 970.726 410.77C970.726 410.23 970.85 409.752 971.098 409.333C971.346 408.91 971.723 408.59 972.23 408.372L972.218 408.722C971.795 408.557 971.473 408.287 971.252 407.913C971.031 407.538 970.92 407.124 970.92 406.668C970.92 406.185 971.026 405.771 971.235 405.424C971.444 405.074 971.73 404.804 972.093 404.615C972.459 404.425 972.878 404.331 973.351 404.331C973.823 404.331 974.243 404.425 974.609 404.615C974.975 404.804 975.263 405.074 975.472 405.424C975.681 405.771 975.787 406.185 975.787 406.668C975.787 407.124 975.68 407.536 975.466 407.907C975.257 408.278 974.935 408.55 974.5 408.722L974.471 408.372C974.978 408.586 975.358 408.904 975.609 409.327C975.864 409.749 975.992 410.23 975.992 410.77C975.992 411.298 975.88 411.759 975.655 412.154C975.43 412.544 975.12 412.849 974.723 413.066C974.326 413.283 973.869 413.392 973.351 413.392ZM973.351 412.54C973.869 412.54 974.291 412.389 974.614 412.087C974.938 411.782 975.1 411.342 975.1 410.77C975.1 410.19 974.94 409.752 974.62 409.453C974.3 409.151 973.877 409 973.351 409C972.825 409 972.404 409.151 972.087 409.453C971.77 409.752 971.612 410.19 971.612 410.77C971.612 411.342 971.772 411.782 972.093 412.087C972.413 412.389 972.833 412.54 973.351 412.54ZM973.351 408.142C973.808 408.142 974.18 408.019 974.466 407.774C974.752 407.524 974.895 407.155 974.895 406.668C974.895 406.182 974.752 405.817 974.466 405.575C974.18 405.33 973.808 405.207 973.351 405.207C972.893 405.207 972.521 405.33 972.236 405.575C971.953 405.817 971.812 406.182 971.812 406.668C971.812 407.155 971.953 407.524 972.236 407.774C972.521 408.019 972.893 408.142 973.351 408.142Z" fill="#9CA3AF"/>
</g>
<defs>
<linearGradient id="paint0_linear_655_1538" x1="147.284" y1="119.065" x2="147.284" y2="399.357" gradientUnits="userSpaceOnUse">
<stop stop-color="#7C3AED" stop-opacity="0.1"/>
<stop offset="1" stop-color="#7C3AED" stop-opacity="0"/>
</linearGradient>
<linearGradient id="paint1_linear_655_1538" x1="-116.009" y1="119.065" x2="-116.009" y2="399.357" gradientUnits="userSpaceOnUse">
<stop stop-color="#F43F5E" stop-opacity="0.1"/>
<stop offset="1" stop-color="#F43F5E" stop-opacity="0"/>
</linearGradient>
<clipPath id="clip0_655_1538">
<rect width="1051" height="441" fill="white"/>
</clipPath>
</defs>
</svg>
