<svg width="20" height="21" viewBox="0 0 20 21" fill="none" xmlns="http://www.w3.org/2000/svg">
<path opacity="0.4" d="M14.9834 9.05118V12.3845C14.9834 12.6012 14.975 12.8095 14.95 13.0095C14.7584 15.2595 13.4334 16.3762 10.9917 16.3762H10.6584C10.45 16.3762 10.25 16.4762 10.125 16.6428L9.12503 17.9762C8.68336 18.5678 7.96669 18.5678 7.52502 17.9762L6.52501 16.6428C6.41668 16.5012 6.17502 16.3762 5.99169 16.3762H5.65836C3.00003 16.3762 1.66669 15.7179 1.66669 12.3845V9.05118C1.66669 6.60952 2.79169 5.28452 5.03336 5.09285C5.23336 5.06785 5.44169 5.05951 5.65836 5.05951H10.9917C13.65 5.05951 14.9834 6.39285 14.9834 9.05118Z" fill="white"/>
<path d="M8.32522 11.7262C7.85855 11.7262 7.49188 11.3512 7.49188 10.8928C7.49188 10.4345 7.86688 10.0595 8.32522 10.0595C8.78355 10.0595 9.15855 10.4345 9.15855 10.8928C9.15855 11.3512 8.79188 11.7262 8.32522 11.7262Z" fill="white"/>
<path d="M11.2418 11.7262C10.7752 11.7262 10.4085 11.3512 10.4085 10.8928C10.4085 10.4345 10.7835 10.0595 11.2418 10.0595C11.7002 10.0595 12.0752 10.4345 12.0752 10.8928C12.0752 11.3512 11.7002 11.7262 11.2418 11.7262Z" fill="white"/>
<path d="M5.41665 11.7262C4.94998 11.7262 4.58331 11.3512 4.58331 10.8928C4.58331 10.4345 4.95831 10.0595 5.41665 10.0595C5.87498 10.0595 6.24998 10.4345 6.24998 10.8928C6.24998 11.3512 5.87498 11.7262 5.41665 11.7262Z" fill="white"/>
<path d="M18.3159 5.71787V9.0512C18.3159 11.5012 17.1909 12.8179 14.9492 13.0095C14.9742 12.8095 14.9825 12.6012 14.9825 12.3845V9.0512C14.9825 6.39287 13.6492 5.05953 10.9909 5.05953H5.65753C5.44087 5.05953 5.23253 5.06787 5.03253 5.09287C5.2242 2.8512 6.5492 1.7262 8.99086 1.7262H14.3242C16.9825 1.7262 18.3159 3.05954 18.3159 5.71787Z" fill="white"/>
</svg>
