<svg width="20" height="20" viewBox="0 0 20 20" fill="none" xmlns="http://www.w3.org/2000/svg">
<path d="M7.7667 11.0666H10.3417V17.0666C10.3417 17.95 11.4417 18.3666 12.025 17.7L18.3334 10.5333C18.8834 9.90831 18.4417 8.93331 17.6084 8.93331H15.0334V2.93331C15.0334 2.04997 13.9334 1.63331 13.35 2.29997L7.0417 9.46664C6.50003 10.0916 6.9417 11.0666 7.7667 11.0666Z" fill="white"/>
<path opacity="0.4" d="M7.08333 3.95837H1.25C0.908333 3.95837 0.625 3.67504 0.625 3.33337C0.625 2.99171 0.908333 2.70837 1.25 2.70837H7.08333C7.425 2.70837 7.70833 2.99171 7.70833 3.33337C7.70833 3.67504 7.425 3.95837 7.08333 3.95837Z" fill="white"/>
<path opacity="0.4" d="M6.25 17.2916H1.25C0.908333 17.2916 0.625 17.0083 0.625 16.6666C0.625 16.325 0.908333 16.0416 1.25 16.0416H6.25C6.59167 16.0416 6.875 16.325 6.875 16.6666C6.875 17.0083 6.59167 17.2916 6.25 17.2916Z" fill="white"/>
<path opacity="0.4" d="M3.75 10.625H1.25C0.908333 10.625 0.625 10.3417 0.625 10C0.625 9.65833 0.908333 9.375 1.25 9.375H3.75C4.09167 9.375 4.375 9.65833 4.375 10C4.375 10.3417 4.09167 10.625 3.75 10.625Z" fill="white"/>
</svg>
