<svg width="132" height="32" viewBox="0 0 132 32" fill="none" xmlns="http://www.w3.org/2000/svg">
<g clip-path="url(#clip0_66_673)">
<mask id="mask0_66_673" style="mask-type:luminance" maskUnits="userSpaceOnUse" x="0" y="0" width="32" height="32">
<path d="M31.7967 0H0.345329V31.4513H31.7967V0Z" fill="white"/>
</mask>
<g mask="url(#mask0_66_673)">
<path d="M16.0709 0C24.7562 0 31.7966 7.04038 31.7966 15.7257V26.7336C31.7966 27.9849 31.2996 29.1848 30.4149 30.0695C29.5301 30.9543 28.3301 31.4513 27.0789 31.4513H16.8572V24.5525C16.8572 22.9783 16.9531 21.3476 17.7787 20.0078C18.3699 19.0476 19.1605 18.2257 20.0972 17.598C21.0338 16.9703 22.0945 16.5513 23.2072 16.3696L23.5084 16.3209C23.6325 16.2784 23.7403 16.1982 23.8166 16.0915C23.893 15.9848 23.934 15.8569 23.934 15.7257C23.934 15.5944 23.893 15.4665 23.8166 15.3598C23.7403 15.2531 23.6325 15.1729 23.5084 15.1305L23.2072 15.0817C21.5814 14.8161 20.0799 14.0465 18.915 12.8816C17.7501 11.7166 16.9805 10.2152 16.7149 8.58936L16.6661 8.28821C16.6238 8.16406 16.5436 8.05626 16.4368 7.97999C16.3301 7.90364 16.2022 7.86264 16.0709 7.86264C15.9398 7.86264 15.8118 7.90364 15.7051 7.97999C15.5984 8.05626 15.5182 8.16406 15.4757 8.28821L15.427 8.58936C15.2453 9.70219 14.8264 10.7629 14.1986 11.6995C13.5709 12.6361 12.749 13.4268 11.7888 14.0179C10.449 14.8435 8.81824 14.9394 7.24413 14.9394H0.364143C0.77537 6.61972 7.64985 0 16.0709 0Z" fill="#77788C"/>
<path d="M0.345329 16.512H7.24418C8.81832 16.512 10.4491 16.6079 11.7889 17.4335C12.8362 18.0789 13.7178 18.9604 14.3632 20.0078C15.1888 21.3476 15.2847 22.9783 15.2847 24.5525V31.4513H5.06303C3.81182 31.4513 2.61185 30.9543 1.72711 30.0695C0.842371 29.1848 0.345329 27.9849 0.345329 26.7336V16.512ZM31.7967 1.57257C31.7967 1.98964 31.631 2.38963 31.3361 2.68454C31.0411 2.97946 30.6411 3.14513 30.2241 3.14513C29.8071 3.14513 29.4071 2.97946 29.1121 2.68454C28.8172 2.38963 28.6515 1.98964 28.6515 1.57257C28.6515 1.1555 28.8172 0.755508 29.1121 0.460594C29.4071 0.165681 29.8071 0 30.2241 0C30.6411 0 31.0411 0.165681 31.3361 0.460594C31.631 0.755508 31.7967 1.1555 31.7967 1.57257Z" fill="#77788C"/>
</g>
<path d="M39.5022 25.161V7.46959H42.9698V25.161H39.5022ZM44.8474 25.161V12.2581L48.0083 11.857V14.782C48.2599 13.6969 48.6923 12.9028 49.3056 12.3996C49.9189 11.8964 50.5951 11.6448 51.3342 11.6448C52.0733 11.6448 52.6709 11.8728 53.127 12.3288C53.5987 12.7691 53.8975 13.5004 54.0233 14.5225C54.2907 13.5161 54.7153 12.7849 55.2971 12.3288C55.8947 11.8728 56.5552 11.6448 57.2785 11.6448C58.1749 11.6448 58.859 11.975 59.3307 12.6355C59.8025 13.2959 60.0384 14.3732 60.0384 15.8671V25.161H56.736V16.8106C56.736 15.9772 56.6495 15.3953 56.4765 15.0651C56.3193 14.7348 56.0677 14.5697 55.7217 14.5697C55.2499 14.5697 54.8568 14.9 54.5423 15.5604C54.2435 16.2052 54.0941 17.1487 54.0941 18.3911V25.161H50.7917V16.8106C50.7917 15.9772 50.7052 15.3953 50.5322 15.0651C50.375 14.7348 50.1234 14.5697 49.7774 14.5697C49.3056 14.5697 48.9125 14.9 48.598 15.5604C48.2992 16.2052 48.1498 17.1487 48.1498 18.3911V25.161H44.8474ZM64.2625 25.444C63.3189 25.444 62.5641 25.1138 61.998 24.4533C61.4318 23.7771 61.1488 22.8493 61.1488 21.6699C61.1488 20.632 61.4004 19.7906 61.9036 19.1459C62.4226 18.4854 63.1224 18.0058 64.003 17.707C64.8836 17.3925 65.8822 17.2352 66.9987 17.2352V16.0322C66.9987 15.5447 66.9044 15.128 66.7157 14.782C66.5427 14.4203 66.2125 14.2395 65.725 14.2395C65.3161 14.2395 65.0094 14.4203 64.805 14.782C64.6006 15.128 64.4669 15.5447 64.404 16.0322L61.479 15.3953C61.6835 14.1373 62.1788 13.2016 62.9651 12.5883C63.7671 11.9593 64.7185 11.6448 65.8193 11.6448C67.3604 11.6448 68.4927 12.0615 69.2161 12.8949C69.9394 13.7284 70.3011 14.8921 70.3011 16.386V21.6699C70.3011 22.2989 70.3326 22.9043 70.3955 23.4862C70.4741 24.068 70.5999 24.6263 70.7729 25.161H67.5649C67.3447 24.5948 67.2268 24.0209 67.211 23.439C66.9751 24.0051 66.6135 24.4848 66.126 24.8779C65.6542 25.2553 65.033 25.444 64.2625 25.444ZM64.4276 21.1981C64.4276 21.6856 64.5298 22.0787 64.7342 22.3775C64.9544 22.6763 65.2768 22.8257 65.7014 22.8257C66.0945 22.8257 66.409 22.692 66.6449 22.4247C66.8808 22.1574 66.9987 21.8114 66.9987 21.3868V19.0044C66.181 19.0044 65.5441 19.2167 65.0881 19.6413C64.6477 20.0501 64.4276 20.5691 64.4276 21.1981ZM76.545 29.1238C75.0039 29.1238 73.7616 28.8408 72.818 28.2746C71.8745 27.7242 71.4027 26.9694 71.4027 26.0102C71.4027 25.4598 71.56 24.9801 71.8745 24.5713C72.2047 24.1624 72.6608 23.8636 73.2426 23.6749C72.5035 23.2346 72.134 22.5898 72.134 21.7406C72.134 20.7342 72.7079 19.9479 73.8559 19.3818C73.2269 19.0201 72.7315 18.5483 72.3698 17.9665C72.0081 17.3846 71.8273 16.732 71.8273 16.0086C71.8273 15.1909 72.0396 14.4596 72.4642 13.8149C72.8888 13.1701 73.4706 12.6591 74.2097 12.2816C74.9488 11.9042 75.7823 11.7155 76.7101 11.7155C77.6851 11.7155 78.5422 11.92 79.2811 12.3288C79.4384 11.574 79.7372 10.8978 80.1775 10.3002C80.6178 9.70263 81.1525 9.30949 81.7815 9.12078L82.6543 11.8099C81.7265 12.0615 80.9559 12.4939 80.3426 13.1072C80.72 13.4847 81.0109 13.925 81.2154 14.4282C81.4355 14.9157 81.5456 15.4425 81.5456 16.0086C81.5456 16.8106 81.3412 17.5183 80.9323 18.1316C80.5234 18.7449 79.9495 19.2245 79.2104 19.5705C78.4871 19.9165 77.6537 20.0894 76.7101 20.0894C76.4428 20.0894 76.1833 20.0737 75.9317 20.0423C75.6801 20.0108 75.4363 19.9715 75.2005 19.9243C74.9646 20.0658 74.8466 20.2624 74.8466 20.514C74.8466 20.7185 74.941 20.8993 75.1297 21.0566C75.3341 21.2138 75.6408 21.3082 76.0496 21.3396L78.4086 21.5519C79.6664 21.662 80.6414 22.0237 81.3333 22.637C82.0252 23.2346 82.3712 24.0838 82.3712 25.1846C82.3712 26.3797 81.8601 27.3311 80.838 28.0388C79.8315 28.7621 78.4006 29.1238 76.545 29.1238ZM76.6865 18.108C77.1426 18.108 77.5043 17.9114 77.7716 17.5183C78.0389 17.1094 78.1726 16.5747 78.1726 15.9143C78.1726 15.2381 78.0389 14.7034 77.7716 14.3103C77.5043 13.9014 77.1426 13.697 76.6865 13.697C76.2305 13.697 75.8688 13.9014 75.6015 14.3103C75.3341 14.7034 75.2005 15.2302 75.2005 15.8907C75.2005 16.5669 75.3341 17.1094 75.6015 17.5183C75.8845 17.9114 76.2462 18.108 76.6865 18.108ZM76.7809 26.765C77.5514 26.765 78.149 26.6706 78.5737 26.4819C78.9981 26.2932 79.2104 26.0023 79.2104 25.6091C79.2104 25.2475 79.0767 24.9723 78.8095 24.7835C78.5422 24.5791 78.0626 24.4454 77.3707 24.3825L74.941 24.1467C74.8624 24.1467 74.8073 24.1388 74.7759 24.1231C74.4928 24.4376 74.3513 24.7993 74.3513 25.2081C74.3513 25.7428 74.5793 26.136 75.0353 26.3876C75.4914 26.6392 76.0732 26.765 76.7809 26.765ZM83.3604 25.161V12.1873L86.6627 11.7863V25.161H83.3604ZM83.5019 10.5125V7.37523H86.5212V10.5125H83.5019ZM88.3643 25.161V12.2581L91.5251 11.857V14.782C91.7767 13.6969 92.217 12.9028 92.8461 12.3996C93.4751 11.8964 94.2142 11.6448 95.0634 11.6448C95.9912 11.6448 96.7303 11.9671 97.2807 12.6119C97.8468 13.2409 98.1299 14.2473 98.1299 15.6312V25.161H94.8275V16.9522C94.8275 16.0086 94.7253 15.3639 94.5209 15.0179C94.3164 14.6562 93.9862 14.4754 93.5301 14.4754C92.9797 14.4754 92.5316 14.8528 92.1856 15.6076C91.8396 16.3467 91.6666 17.2745 91.6666 18.3911V25.161H88.3643ZM104.164 25.4676C102.984 25.4676 102.025 25.1688 101.286 24.5713C100.563 23.958 100.028 23.1402 99.682 22.118C99.3518 21.0802 99.1867 19.9243 99.1867 18.6505C99.1867 17.2981 99.3832 16.103 99.7764 15.0651C100.17 14.0115 100.736 13.1937 101.475 12.6119C102.214 12.0143 103.102 11.7155 104.14 11.7155C105.21 11.7155 106.082 11.9593 106.759 12.4468C107.435 12.9343 107.93 13.5947 108.245 14.4282C108.559 15.2459 108.716 16.1816 108.716 17.2352C108.716 17.9586 108.693 18.7213 108.646 19.5233H102.536C102.552 20.0737 102.607 20.6162 102.701 21.1509C102.796 21.6856 102.961 22.1259 103.197 22.4719C103.433 22.8021 103.771 22.9672 104.211 22.9672C104.746 22.9672 105.107 22.7549 105.296 22.3303C105.501 21.9057 105.634 21.434 105.697 20.915L108.622 21.5283C108.402 22.7549 107.891 23.7221 107.089 24.4297C106.303 25.1217 105.328 25.4676 104.164 25.4676ZM102.536 17.4239H105.674V17.0937C105.674 16.6534 105.634 16.2131 105.556 15.7727C105.477 15.3167 105.328 14.9393 105.107 14.6405C104.903 14.326 104.604 14.1687 104.211 14.1687C103.802 14.1687 103.48 14.3338 103.244 14.6641C103.008 14.9786 102.835 15.3875 102.725 15.8907C102.631 16.3939 102.568 16.905 102.536 17.4239ZM122.058 25.4912L121.303 21.9293H117.506L116.963 25.161H113.543L117.152 7.68188L121.421 7.18652L125.526 25.161L122.058 25.4912ZM119.275 10.9371L119.086 12.0929L117.789 19.0515H120.855L119.487 12.0693L119.275 10.9371ZM126.589 25.161V7.46959H130.056V25.161H126.589Z" fill="#77788C"/>
</g>
<defs>
<clipPath id="clip0_66_673">
<rect width="131.309" height="31.4513" fill="white" transform="translate(0.345329)"/>
</clipPath>
</defs>
</svg>
