<svg width="36" height="36" viewBox="0 0 36 36" fill="none" xmlns="http://www.w3.org/2000/svg">
<path opacity="0.4" d="M13.5 10.8V25.185C13.5 30 16.5 33 21.3 33H25.185C29.985 33 32.985 30 32.985 25.2V10.8C33 6 30 3 25.2 3H21.3C16.5 3 13.5 6 13.5 10.8Z" fill="#3D6FEA"/>
<path d="M18.645 12.18L23.67 17.205C24.105 17.64 24.105 18.36 23.67 18.795L18.645 23.82C18.21 24.255 17.49 24.255 17.055 23.82C16.62 23.385 16.62 22.665 17.055 22.23L20.16 19.125H4.125C3.51 19.125 3 18.615 3 18C3 17.385 3.51 16.875 4.125 16.875H20.16L17.055 13.77C16.83 13.545 16.725 13.26 16.725 12.975C16.725 12.69 16.83 12.405 17.055 12.18C17.49 11.73 18.195 11.73 18.645 12.18Z" fill="#3D6FEA"/>
</svg>
