<svg width="116" height="32" viewBox="0 0 116 32" fill="none" xmlns="http://www.w3.org/2000/svg">
<g clip-path="url(#clip0_66_675)">
<mask id="mask0_66_675" style="mask-type:luminance" maskUnits="userSpaceOnUse" x="0" y="0" width="32" height="32">
<path d="M31.6595 0.00292969H0.20816V31.4543H31.6595V0.00292969Z" fill="white"/>
</mask>
<g mask="url(#mask0_66_675)">
<path fill-rule="evenodd" clip-rule="evenodd" d="M23.7926 0.564453C25.5472 0.564453 27.3875 1.0716 28.7293 2.19233C30.2557 3.4673 30.9851 5.47479 31.086 7.39838C31.1868 9.3232 30.6722 11.386 29.4301 12.8446C28.057 14.4571 25.8558 15.1746 23.7926 15.1746C21.7295 15.1746 19.5285 14.4571 18.1554 12.8446C16.9132 11.386 16.3985 9.3232 16.4995 7.39838C16.6004 5.47479 17.3297 3.4673 18.8561 2.19233C20.1978 1.0716 22.0383 0.564453 23.7926 0.564453ZM13.0124 17.9103C11.6707 16.7896 9.83023 16.2824 8.07579 16.2824C6.3214 16.2824 4.48093 16.7896 3.13922 17.9103C1.61284 19.1853 0.883467 21.1928 0.782586 23.1164C0.68164 25.0412 1.19636 27.104 2.4385 28.5627C3.81158 30.175 6.01256 30.8925 8.07579 30.8925C10.139 30.8925 12.34 30.175 13.7131 28.5627C14.9552 27.104 15.4699 25.0412 15.369 23.1164C15.2682 21.1928 14.5387 19.1853 13.0124 17.9103ZM12.2311 4.74367C11.3165 3.97971 10.0881 3.65095 8.94566 3.65095C7.80325 3.65095 6.57476 3.97971 5.66017 4.74367C4.61067 5.6203 4.13476 6.97329 4.06907 8.22563C4.00334 9.4792 4.335 10.8541 5.18095 11.8475C6.12386 12.9547 7.60365 13.4197 8.94566 13.4197C10.2877 13.4197 11.7675 12.9547 12.7104 11.8475C13.5563 10.8541 13.8879 9.4792 13.8222 8.22563C13.7565 6.97329 13.2806 5.6203 12.2311 4.74367ZM23.8931 19.2349C25.0354 19.2349 26.264 19.5636 27.1786 20.3276C28.2279 21.2042 28.7039 22.5572 28.7696 23.8095C28.8354 25.063 28.5038 26.4379 27.6578 27.4313C26.7149 28.5386 25.2351 29.0036 23.8931 29.0036C22.551 29.0036 21.0713 28.5386 20.1283 27.4313C19.2824 26.4379 18.9507 25.063 19.0165 23.8095C19.0822 22.5572 19.5581 21.2042 20.6076 20.3276C21.5221 19.5636 22.7507 19.2349 23.8931 19.2349Z" fill="#77788C"/>
</g>
<path d="M48.3051 25.4467C47.0785 25.4467 45.9306 25.2265 44.8612 24.7862C43.8076 24.3302 42.8798 23.7011 42.0778 22.8991C41.2758 22.0814 40.6467 21.1221 40.1907 20.0213C39.7346 18.9048 39.5066 17.6861 39.5066 16.3651C39.5066 15.0441 39.7346 13.8333 40.1907 12.7325C40.6467 11.6159 41.2758 10.6567 42.0778 9.85467C42.8798 9.03694 43.8076 8.40791 44.8612 7.96759C45.9306 7.52729 47.0785 7.30713 48.3051 7.30713C49.5317 7.30713 50.6718 7.53515 51.7255 7.99118C52.7948 8.4315 53.7305 9.06053 54.5325 9.87826C55.3345 10.6803 55.9635 11.6317 56.4196 12.7325C56.8756 13.8333 57.1036 15.0441 57.1036 16.3651C57.1036 17.6861 56.8756 18.9048 56.4196 20.0213C55.9635 21.1221 55.3345 22.0814 54.5325 22.8991C53.7305 23.7011 52.7948 24.3302 51.7255 24.7862C50.6718 25.2265 49.5317 25.4467 48.3051 25.4467ZM48.3051 23.6775C49.3273 23.6775 50.2551 23.4888 51.0886 23.1114C51.9378 22.734 52.669 22.2072 53.2823 21.531C53.8956 20.8548 54.3674 20.0764 54.6976 19.1957C55.0436 18.3151 55.2166 17.3715 55.2166 16.3651C55.2166 15.3744 55.0436 14.4387 54.6976 13.5581C54.3674 12.6774 53.8956 11.899 53.2823 11.2228C52.669 10.5466 51.9378 10.0198 51.0886 9.64238C50.2551 9.26496 49.3273 9.07625 48.3051 9.07625C47.283 9.07625 46.3473 9.26496 45.4981 9.64238C44.6646 10.0198 43.9413 10.5466 43.328 11.2228C42.7147 11.899 42.235 12.6774 41.8891 13.5581C41.5588 14.4387 41.3937 15.3744 41.3937 16.3651C41.3937 17.3715 41.5588 18.3151 41.8891 19.1957C42.235 20.0764 42.7147 20.8548 43.328 21.531C43.9413 22.2072 44.6725 22.734 45.5217 23.1114C46.3709 23.4888 47.2987 23.6775 48.3051 23.6775ZM53.3767 27.2866L47.1257 18.1342H49.2723L55.5232 27.2866H53.3767ZM65.1929 25.4467C64.3122 25.4467 63.5102 25.2422 62.7868 24.8334C62.0634 24.4088 61.4895 23.8269 61.0649 23.0878C60.656 22.333 60.4516 21.4681 60.4516 20.4931V12.5202H62.2207V20.2808C62.2207 20.957 62.3544 21.5546 62.6217 22.0735C62.9048 22.5767 63.29 22.9699 63.7775 23.2529C64.2808 23.536 64.8548 23.6775 65.4995 23.6775C66.1443 23.6775 66.7182 23.536 67.2215 23.2529C67.7247 22.9542 68.1178 22.5374 68.4009 22.0028C68.684 21.4524 68.8255 20.7997 68.8255 20.0449V12.5202H70.5946V25.1636H68.8255V22.7104L69.2265 22.8048C68.9277 23.6225 68.4166 24.2672 67.6932 24.739C66.9699 25.2108 66.1364 25.4467 65.1929 25.4467ZM80.2243 25.4467C79.0449 25.4467 77.9757 25.1636 77.0164 24.5975C76.0729 24.0156 75.3259 23.2215 74.7755 22.215C74.2251 21.2086 73.9499 20.0685 73.9499 18.7947C73.9499 17.5209 74.2173 16.3966 74.7519 15.4216C75.2866 14.4308 76.01 13.6524 76.9221 13.0863C77.8499 12.5202 78.8876 12.2371 80.0356 12.2371C80.9477 12.2371 81.7576 12.4101 82.4652 12.7561C83.1886 13.0863 83.8019 13.5423 84.3051 14.1242C84.8083 14.6903 85.1936 15.3351 85.461 16.0584C85.7283 16.7661 85.862 17.4973 85.862 18.2522C85.862 18.4094 85.8541 18.5903 85.8384 18.7947C85.8227 18.9834 85.7991 19.18 85.7676 19.3844H75.0822V17.7332H84.7533L83.9041 18.4409C84.0457 17.576 83.9434 16.8054 83.5975 16.1292C83.2672 15.4373 82.7876 14.8947 82.1586 14.5016C81.5295 14.0927 80.8219 13.8883 80.0356 13.8883C79.2493 13.8883 78.5182 14.0927 77.842 14.5016C77.1816 14.9105 76.6626 15.4845 76.2852 16.2236C75.9078 16.9469 75.7584 17.8119 75.837 18.8183C75.7584 19.8247 75.9156 20.7054 76.3088 21.4602C76.7176 22.1993 77.268 22.7733 77.96 23.1822C78.6676 23.591 79.4223 23.7955 80.2243 23.7955C81.1521 23.7955 81.9305 23.5753 82.5596 23.135C83.1886 22.6947 83.6997 22.1443 84.0928 21.4838L85.6025 22.2858C85.3509 22.8519 84.9656 23.3787 84.4467 23.8662C83.9277 24.338 83.3065 24.7233 82.5832 25.0221C81.8755 25.3051 81.0892 25.4467 80.2243 25.4467ZM93.6989 25.4467C92.8182 25.4467 92.0162 25.2422 91.2928 24.8334C90.5694 24.4088 89.9955 23.8269 89.5709 23.0878C89.162 22.333 88.9576 21.4681 88.9576 20.4931V12.5202H90.7267V20.2808C90.7267 20.957 90.8604 21.5546 91.1277 22.0735C91.4108 22.5767 91.796 22.9699 92.2835 23.2529C92.7868 23.536 93.3607 23.6775 94.0055 23.6775C94.6503 23.6775 95.2242 23.536 95.7275 23.2529C96.2307 22.9542 96.6238 22.5374 96.9069 22.0028C97.19 21.4524 97.3315 20.7997 97.3315 20.0449V12.5202H99.1006V25.1636H97.3315V22.7104L97.7325 22.8048C97.4337 23.6225 96.9226 24.2672 96.1992 24.739C95.4759 25.2108 94.6424 25.4467 93.6989 25.4467ZM108.73 25.4467C107.551 25.4467 106.481 25.1636 105.522 24.5975C104.579 24.0156 103.832 23.2215 103.281 22.215C102.731 21.2086 102.456 20.0685 102.456 18.7947C102.456 17.5209 102.723 16.3966 103.258 15.4216C103.792 14.4308 104.516 13.6524 105.428 13.0863C106.356 12.5202 107.394 12.2371 108.542 12.2371C109.454 12.2371 110.263 12.4101 110.971 12.7561C111.695 13.0863 112.308 13.5423 112.811 14.1242C113.314 14.6903 113.7 15.3351 113.967 16.0584C114.234 16.7661 114.368 17.4973 114.368 18.2522C114.368 18.4094 114.36 18.5903 114.344 18.7947C114.329 18.9834 114.305 19.18 114.274 19.3844H103.588V17.7332H113.259L112.41 18.4409C112.552 17.576 112.449 16.8054 112.103 16.1292C111.773 15.4373 111.294 14.8947 110.664 14.5016C110.035 14.0927 109.328 13.8883 108.542 13.8883C107.755 13.8883 107.024 14.0927 106.348 14.5016C105.687 14.9105 105.168 15.4845 104.791 16.2236C104.414 16.9469 104.264 17.8119 104.343 18.8183C104.264 19.8247 104.421 20.7054 104.815 21.4602C105.223 22.1993 105.774 22.7733 106.466 23.1822C107.173 23.591 107.928 23.7955 108.73 23.7955C109.658 23.7955 110.436 23.5753 111.065 23.135C111.695 22.6947 112.206 22.1443 112.599 21.4838L114.108 22.2858C113.857 22.8519 113.472 23.3787 112.953 23.8662C112.434 24.338 111.812 24.7233 111.089 25.0221C110.381 25.3051 109.595 25.4467 108.73 25.4467Z" fill="#77788C"/>
</g>
<defs>
<clipPath id="clip0_66_675">
<rect width="115.584" height="31.4513" fill="white" transform="translate(0.20816)"/>
</clipPath>
</defs>
</svg>
