<svg width="108" height="32" viewBox="0 0 108 32" fill="none" xmlns="http://www.w3.org/2000/svg">
<path d="M16.586 8.35432C16.586 12.4255 13.2858 15.7257 9.21463 15.7257H1.84326V8.35432C1.84326 4.28319 5.14355 0.98291 9.21463 0.98291C13.2858 0.98291 16.586 4.28319 16.586 8.35432Z" fill="#77788C"/>
<path d="M16.5861 23.097C16.5861 19.0259 19.8864 15.7256 23.9575 15.7256H31.3289V23.097C31.3289 27.1681 28.0286 30.4684 23.9575 30.4684C19.8864 30.4684 16.5861 27.1681 16.5861 23.097Z" fill="#77788C"/>
<path d="M1.84326 23.097C1.84326 27.1681 5.14355 30.4684 9.21463 30.4684H16.586V23.097C16.586 19.0259 13.2858 15.7256 9.21463 15.7256C5.14355 15.7256 1.84326 19.0259 1.84326 23.097Z" fill="#77788C"/>
<path d="M31.3289 8.35432C31.3289 4.28319 28.0286 0.98291 23.9575 0.98291H16.5861V8.35432C16.5861 12.4255 19.8864 15.7257 23.9575 15.7257C28.0286 15.7257 31.3289 12.4255 31.3289 8.35432Z" fill="#77788C"/>
<path d="M46.5659 24.6052C45.13 24.6052 43.8784 24.3902 42.8111 23.9602C41.7438 23.5225 40.9106 22.866 40.3117 21.9907C39.7204 21.1076 39.4171 19.9981 39.4017 18.662H43.3639C43.4023 19.2071 43.5521 19.6679 43.8131 20.0441C44.0819 20.4127 44.4428 20.693 44.8957 20.8849C45.3565 21.0769 45.894 21.1728 46.5082 21.1728C47.0688 21.1728 47.5449 21.0961 47.9364 20.9425C48.3357 20.789 48.6429 20.5778 48.8579 20.309C49.0729 20.0403 49.1804 19.7293 49.1804 19.3761C49.1804 19.0536 49.0806 18.781 48.8809 18.5583C48.6813 18.328 48.378 18.1284 47.971 17.9594C47.5718 17.7828 47.0573 17.6254 46.4276 17.4871L44.6194 17.0725C43.1451 16.7347 41.9818 16.1857 41.1294 15.4255C40.2771 14.6576 39.8509 13.6172 39.8509 12.3041C39.8509 11.2445 40.1389 10.3154 40.7148 9.51682C41.2907 8.71827 42.0815 8.09632 43.0874 7.65094C44.101 7.20559 45.2605 6.98291 46.5659 6.98291C47.8942 6.98291 49.0498 7.20943 50.0327 7.66246C51.0155 8.1078 51.7757 8.73745 52.3132 9.55141C52.8507 10.3577 53.1272 11.2944 53.1425 12.3617H49.1574C49.1113 11.7474 48.8656 11.2714 48.4202 10.9335C47.9825 10.588 47.3606 10.4152 46.5543 10.4152C46.0168 10.4152 45.5676 10.4843 45.2068 10.6226C44.8535 10.7607 44.5848 10.9527 44.4005 11.1984C44.2239 11.4442 44.1356 11.7205 44.1356 12.0277C44.1356 12.3656 44.2354 12.6535 44.435 12.8915C44.6347 13.1296 44.9226 13.3292 45.2989 13.4905C45.6828 13.6517 46.132 13.79 46.6465 13.9051L48.1093 14.2392C48.9539 14.4235 49.7025 14.6691 50.3552 14.9763C51.0079 15.2834 51.5569 15.6482 52.0022 16.0705C52.4553 16.4928 52.797 16.9804 53.0273 17.5332C53.2577 18.0861 53.3729 18.7042 53.3729 19.3876C53.3729 20.4779 53.1003 21.4148 52.5552 22.1979C52.0177 22.9735 51.2421 23.5686 50.2285 23.9833C49.2149 24.3979 47.9941 24.6052 46.5659 24.6052ZM58.2168 17.0379V24.3748H54.1165V7.21327H58.0671V13.8705H58.2168C58.5086 13.0797 58.9847 12.4615 59.645 12.0162C60.3054 11.5632 61.1193 11.3367 62.0868 11.3367C62.9852 11.3367 63.7684 11.5402 64.4365 11.9471C65.1122 12.3463 65.6343 12.9069 66.0029 13.6287C66.3714 14.3505 66.5557 15.199 66.5557 16.1741V24.3748H62.4554V16.9804C62.4554 16.2663 62.275 15.7096 61.9141 15.3103C61.5532 14.9033 61.0425 14.6998 60.3821 14.6998C59.9522 14.6998 59.5721 14.792 59.2419 14.9763C58.9194 15.1605 58.666 15.4293 58.4818 15.7826C58.3051 16.128 58.2168 16.5465 58.2168 17.0379ZM71.4457 24.6052C70.6241 24.6052 69.8908 24.467 69.2458 24.1905C68.6085 23.9064 68.1094 23.4841 67.7485 22.9236C67.3876 22.363 67.2072 21.6566 67.2072 20.8043C67.2072 20.0902 67.3301 19.4874 67.5758 18.996C67.8291 18.5046 68.1747 18.1053 68.6123 17.7981C69.0577 17.491 69.5684 17.2568 70.1442 17.0956C70.7201 16.9266 71.3344 16.8191 71.987 16.773C72.7166 16.7039 73.3039 16.6348 73.7493 16.5658C74.1946 16.4967 74.5172 16.3892 74.7168 16.2432C74.9241 16.0974 75.0278 15.8939 75.0278 15.6328V15.5752C75.0278 15.1529 74.8819 14.8227 74.5901 14.5847C74.2983 14.3466 73.8991 14.2276 73.3922 14.2276C72.8471 14.2276 72.4094 14.3466 72.0792 14.5847C71.7568 14.8227 71.5494 15.1452 71.4573 15.5522L67.691 15.4255C67.7984 14.6423 68.0825 13.9435 68.5432 13.3292C69.0116 12.7072 69.6528 12.2197 70.4667 11.8665C71.2884 11.5133 72.2788 11.3367 73.4383 11.3367C74.2523 11.3367 75.0047 11.4326 75.6958 11.6246C76.3869 11.8165 76.9896 12.0969 77.5041 12.4654C78.0186 12.834 78.4178 13.2832 78.702 13.813C78.9861 14.3428 79.1282 14.9456 79.1282 15.6213V24.3748H75.2696V22.5665H75.1775C74.9395 23.0119 74.6438 23.3843 74.2906 23.6838C73.9374 23.9833 73.5228 24.2136 73.0467 24.3748C72.5783 24.5284 72.0447 24.6052 71.4457 24.6052ZM72.7012 21.91C73.1389 21.91 73.5343 21.8217 73.8875 21.6451C74.2484 21.4608 74.5325 21.2113 74.7398 20.8965C74.9548 20.5816 75.0624 20.213 75.0624 19.7907V18.5813C74.9472 18.6428 74.8051 18.7004 74.6362 18.7542C74.4749 18.8002 74.2945 18.8463 74.0948 18.8923C73.8952 18.9384 73.6917 18.9768 73.4844 19.0075C73.2847 19.0382 73.0928 19.069 72.9085 19.0996C72.5169 19.1534 72.1828 19.2494 71.9065 19.3876C71.6377 19.5181 71.4342 19.6832 71.296 19.8829C71.1578 20.0825 71.0886 20.3244 71.0886 20.6085C71.0886 21.0308 71.2384 21.3533 71.5378 21.576C71.8373 21.7986 72.2251 21.91 72.7012 21.91ZM80.3673 29.1892V11.4979H84.4213V13.7093H84.5597C84.7209 13.3177 84.9552 12.9415 85.2619 12.5806C85.5772 12.212 85.9727 11.9125 86.4484 11.6822C86.9319 11.4519 87.5154 11.3367 88.1994 11.3367C89.0974 11.3367 89.9348 11.5747 90.71 12.0508C91.4853 12.5192 92.1112 13.2409 92.5877 14.2161C93.0712 15.1913 93.3126 16.4352 93.3126 17.9479C93.3126 19.4068 93.083 20.6277 92.6223 21.6106C92.1615 22.5934 91.5396 23.3306 90.7564 23.822C89.9804 24.3134 89.117 24.5591 88.1648 24.5591C87.5193 24.5591 86.9587 24.4516 86.483 24.2366C86.0065 24.0216 85.6078 23.7413 85.2855 23.3958C84.9702 23.0503 84.7288 22.6779 84.5597 22.2786H84.4669V29.1892H80.3673ZM86.748 21.3687C87.2543 21.3687 87.6805 21.2266 88.0265 20.9425C88.3795 20.6584 88.6445 20.2591 88.8214 19.7446C89.0054 19.2302 89.0974 18.6313 89.0974 17.9479C89.0974 17.2568 89.0054 16.6578 88.8214 16.1511C88.6445 15.6366 88.3834 15.2373 88.0382 14.9533C87.6923 14.6691 87.2622 14.5271 86.748 14.5271C86.2487 14.5271 85.8225 14.6653 85.4695 14.9417C85.1164 15.2182 84.8436 15.6136 84.6517 16.128C84.4669 16.6348 84.3749 17.2414 84.3749 17.9479C84.3749 18.639 84.4669 19.2417 84.6517 19.7562C84.8436 20.263 85.1164 20.6584 85.4695 20.9425C85.8225 21.2266 86.2487 21.3687 86.748 21.3687ZM100.08 24.6167C98.7293 24.6167 97.5656 24.3518 96.5906 23.822C95.6157 23.2845 94.8663 22.5205 94.3442 21.5299C93.83 20.5394 93.5729 19.3569 93.5729 17.9824C93.5729 16.6541 93.8339 15.4946 94.356 14.5041C94.8781 13.5059 95.6157 12.7303 96.5678 12.1774C97.5192 11.6169 98.6405 11.3367 99.9308 11.3367C100.844 11.3367 101.681 11.4825 102.441 11.7743C103.21 12.0584 103.87 12.4807 104.423 13.0413C104.983 13.5942 105.414 14.2775 105.712 15.0915C106.02 15.9054 106.173 16.846 106.173 17.9133V18.9269H94.9898V16.5658H104.227L102.315 17.1186C102.315 16.5273 102.227 16.0244 102.05 15.6097C101.874 15.1874 101.613 14.8611 101.267 14.6307C100.921 14.4004 100.491 14.2852 99.9764 14.2852C99.4622 14.2852 99.0281 14.4004 98.6751 14.6307C98.322 14.8611 98.0531 15.1836 97.8691 15.5982C97.6844 16.0052 97.5924 16.489 97.5924 17.0495V18.7426C97.5924 19.3415 97.6962 19.8598 97.9037 20.2976C98.1184 20.7352 98.418 21.0731 98.8017 21.3111C99.1932 21.5415 99.643 21.6566 100.149 21.6566C100.502 21.6566 100.826 21.6067 101.117 21.5069C101.409 21.4071 101.658 21.2611 101.866 21.0692C102.073 20.8696 102.231 20.6316 102.338 20.3551L106.093 20.4587C105.939 21.3034 105.601 22.0367 105.079 22.6587C104.557 23.2806 103.874 23.7644 103.029 24.1099C102.184 24.4478 101.201 24.6167 100.08 24.6167Z" fill="#77788C"/>
</svg>
