<svg width="220" height="44" viewBox="0 0 220 44" fill="none" xmlns="http://www.w3.org/2000/svg">
<path d="M12.4406 36.54C10.5446 36.54 8.83464 36.21 7.31064 35.55C5.79864 34.89 4.55064 33.948 3.56664 32.724C2.59464 31.488 1.97664 30.024 1.71264 28.332L6.21264 27.648C6.59664 29.184 7.38264 30.372 8.57064 31.212C9.77064 32.052 11.1506 32.472 12.7106 32.472C13.6346 32.472 14.5046 32.328 15.3206 32.04C16.1366 31.752 16.7966 31.332 17.3006 30.78C17.8166 30.228 18.0746 29.55 18.0746 28.746C18.0746 28.386 18.0146 28.056 17.8946 27.756C17.7746 27.444 17.5946 27.168 17.3546 26.928C17.1266 26.688 16.8266 26.472 16.4546 26.28C16.0946 26.076 15.6746 25.902 15.1946 25.758L8.49864 23.778C7.92264 23.61 7.29864 23.388 6.62664 23.112C5.96664 22.824 5.33664 22.434 4.73664 21.942C4.14864 21.438 3.66264 20.802 3.27864 20.034C2.90664 19.254 2.72064 18.294 2.72064 17.154C2.72064 15.486 3.14064 14.088 3.98064 12.96C4.83264 11.82 5.97264 10.968 7.40064 10.404C8.84064 9.84 10.4366 9.564 12.1886 9.576C13.9646 9.588 15.5486 9.894 16.9406 10.494C18.3326 11.082 19.4966 11.94 20.4326 13.068C21.3686 14.196 22.0286 15.558 22.4126 17.154L17.7506 17.964C17.5586 17.052 17.1866 16.278 16.6346 15.642C16.0946 14.994 15.4286 14.502 14.6366 14.166C13.8566 13.83 13.0226 13.65 12.1346 13.626C11.2706 13.614 10.4666 13.746 9.72264 14.022C8.99064 14.286 8.39664 14.67 7.94064 15.174C7.49664 15.678 7.27464 16.266 7.27464 16.938C7.27464 17.574 7.46664 18.096 7.85064 18.504C8.23464 18.9 8.70864 19.218 9.27264 19.458C9.84864 19.686 10.4306 19.878 11.0186 20.034L15.6626 21.33C16.2986 21.498 17.0126 21.726 17.8046 22.014C18.5966 22.302 19.3586 22.704 20.0906 23.22C20.8226 23.736 21.4226 24.414 21.8906 25.254C22.3706 26.094 22.6106 27.162 22.6106 28.458C22.6106 29.802 22.3286 30.984 21.7646 32.004C21.2126 33.012 20.4626 33.852 19.5146 34.524C18.5666 35.196 17.4806 35.7 16.2566 36.036C15.0446 36.372 13.7726 36.54 12.4406 36.54ZM39.2328 36V26.64C39.2328 26.028 39.1908 25.35 39.1068 24.606C39.0228 23.862 38.8248 23.148 38.5128 22.464C38.2128 21.768 37.7568 21.198 37.1448 20.754C36.5448 20.31 35.7288 20.088 34.6968 20.088C34.1448 20.088 33.5988 20.178 33.0588 20.358C32.5188 20.538 32.0268 20.85 31.5828 21.294C31.1508 21.726 30.8028 22.326 30.5388 23.094C30.2748 23.85 30.1428 24.822 30.1428 26.01L27.5688 24.912C27.5688 23.256 27.8868 21.756 28.5228 20.412C29.1708 19.068 30.1188 18 31.3668 17.208C32.6148 16.404 34.1508 16.002 35.9748 16.002C37.4148 16.002 38.6028 16.242 39.5388 16.722C40.4748 17.202 41.2188 17.814 41.7708 18.558C42.3228 19.302 42.7308 20.094 42.9948 20.934C43.2588 21.774 43.4268 22.572 43.4988 23.328C43.5828 24.072 43.6248 24.678 43.6248 25.146V36H39.2328ZM25.7508 36V10.08H29.6208V23.724H30.1428V36H25.7508ZM56.188 36.54C54.244 36.54 52.546 36.102 51.094 35.226C49.642 34.35 48.514 33.144 47.71 31.608C46.918 30.06 46.522 28.284 46.522 26.28C46.522 24.24 46.93 22.452 47.746 20.916C48.562 19.38 49.696 18.18 51.148 17.316C52.6 16.452 54.28 16.02 56.188 16.02C58.144 16.02 59.848 16.458 61.3 17.334C62.752 18.21 63.88 19.422 64.684 20.97C65.488 22.506 65.89 24.276 65.89 26.28C65.89 28.296 65.482 30.078 64.666 31.626C63.862 33.162 62.734 34.368 61.282 35.244C59.83 36.108 58.132 36.54 56.188 36.54ZM56.188 32.472C57.916 32.472 59.2 31.896 60.04 30.744C60.88 29.592 61.3 28.104 61.3 26.28C61.3 24.396 60.874 22.896 60.022 21.78C59.17 20.652 57.892 20.088 56.188 20.088C55.024 20.088 54.064 20.352 53.308 20.88C52.564 21.396 52.012 22.122 51.652 23.058C51.292 23.982 51.112 25.056 51.112 26.28C51.112 28.164 51.538 29.67 52.39 30.798C53.254 31.914 54.52 32.472 56.188 32.472ZM72.5727 36L66.6327 16.524L70.8807 16.56L74.6787 29.034L78.5307 16.56H82.1847L86.0187 29.034L89.8347 16.56H94.0827L88.1427 36H84.7587L80.3487 22.626L75.9567 36H72.5727ZM107.573 36.54C104.981 36.54 102.761 35.976 100.913 34.848C99.0652 33.708 97.6432 32.124 96.6472 30.096C95.6632 28.068 95.1712 25.716 95.1712 23.04C95.1712 20.364 95.6632 18.012 96.6472 15.984C97.6432 13.956 99.0652 12.378 100.913 11.25C102.761 10.11 104.981 9.54 107.573 9.54C110.165 9.54 112.385 10.11 114.233 11.25C116.093 12.378 117.515 13.956 118.499 15.984C119.495 18.012 119.993 20.364 119.993 23.04C119.993 25.716 119.495 28.068 118.499 30.096C117.515 32.124 116.093 33.708 114.233 34.848C112.385 35.976 110.165 36.54 107.573 36.54ZM107.573 32.454C109.313 32.466 110.759 32.082 111.911 31.302C113.075 30.522 113.945 29.424 114.521 28.008C115.109 26.592 115.403 24.936 115.403 23.04C115.403 21.144 115.109 19.5 114.521 18.108C113.945 16.704 113.075 15.612 111.911 14.832C110.759 14.052 109.313 13.65 107.573 13.626C105.833 13.614 104.387 13.998 103.235 14.778C102.083 15.558 101.213 16.656 100.625 18.072C100.049 19.488 99.7612 21.144 99.7612 23.04C99.7612 24.936 100.049 26.586 100.625 27.99C101.201 29.382 102.065 30.468 103.217 31.248C104.381 32.028 105.833 32.43 107.573 32.454ZM136.302 36V26.64C136.302 26.028 136.26 25.35 136.176 24.606C136.092 23.862 135.894 23.148 135.582 22.464C135.282 21.768 134.826 21.198 134.214 20.754C133.614 20.31 132.798 20.088 131.766 20.088C131.214 20.088 130.668 20.178 130.128 20.358C129.588 20.538 129.096 20.85 128.652 21.294C128.22 21.726 127.872 22.326 127.608 23.094C127.344 23.85 127.212 24.822 127.212 26.01L124.638 24.912C124.638 23.256 124.956 21.756 125.592 20.412C126.24 19.068 127.188 18 128.436 17.208C129.684 16.404 131.22 16.002 133.044 16.002C134.484 16.002 135.672 16.242 136.608 16.722C137.544 17.202 138.288 17.814 138.84 18.558C139.392 19.302 139.8 20.094 140.064 20.934C140.328 21.774 140.496 22.572 140.568 23.328C140.652 24.072 140.694 24.678 140.694 25.146V36H136.302ZM122.82 36V16.56H126.69V22.59H127.212V36H122.82ZM142.871 36L151.043 10.08H157.397L165.569 36H161.105L153.689 12.744H154.661L147.335 36H142.871ZM147.425 30.384V26.334H161.033V30.384H147.425ZM168.464 36V10.08H172.802V36H168.464Z" fill="url(#paint0_linear_43_353)"/>
<path d="M216.333 25.8C213.253 30.64 208.747 33.4266 204 33.4266C201.627 33.4266 199.32 32.7333 197.213 31.44C195.107 30.1333 193.213 28.2266 191.667 25.8C190.333 23.7066 190.333 20.3066 191.667 18.2133C194.747 13.36 199.253 10.5866 204 10.5866C206.373 10.5866 208.68 11.28 210.787 12.5733C212.893 13.88 214.787 15.7866 216.333 18.2133C217.667 20.2933 217.667 23.7066 216.333 25.8ZM204 16.6133C201.013 16.6133 198.613 19.0266 198.613 22C198.613 24.9733 201.013 27.3866 204 27.3866C206.987 27.3866 209.387 24.9733 209.387 22C209.387 19.0266 206.987 16.6133 204 16.6133Z" fill="url(#paint1_linear_43_353)"/>
<path d="M204.001 25.8131C201.907 25.8131 200.201 24.1064 200.201 21.9998C200.201 19.9064 201.907 18.1998 204.001 18.1998C206.094 18.1998 207.814 19.9064 207.814 21.9998C207.814 24.0931 206.094 25.8131 204.001 25.8131Z" fill="url(#paint2_linear_43_353)"/>
<defs>
<linearGradient id="paint0_linear_43_353" x1="-1.02326" y1="18.5778" x2="188.128" y2="36.7677" gradientUnits="userSpaceOnUse">
<stop stop-color="#2353DF"/>
<stop offset="0.5" stop-color="#36AAF3"/>
<stop offset="1" stop-color="#3061E5"/>
</linearGradient>
<linearGradient id="paint1_linear_43_353" x1="204" y1="33.4266" x2="204" y2="10.5866" gradientUnits="userSpaceOnUse">
<stop stop-color="#A3D6FD"/>
<stop offset="0.5" stop-color="#36AAF3"/>
<stop offset="0.6" stop-color="#3D6FEA"/>
<stop offset="0.9" stop-color="#2353DF"/>
</linearGradient>
<linearGradient id="paint2_linear_43_353" x1="204.007" y1="25.8131" x2="204.007" y2="18.1998" gradientUnits="userSpaceOnUse">
<stop stop-color="#A3D6FD"/>
<stop offset="0.5" stop-color="#36AAF3"/>
<stop offset="0.6" stop-color="#3D6FEA"/>
<stop offset="0.9" stop-color="#2353DF"/>
</linearGradient>
</defs>
</svg>
