<svg width="36" height="36" viewBox="0 0 36 36" fill="none" xmlns="http://www.w3.org/2000/svg">
<path opacity="0.4" d="M11.7297 3.75H24.2844C26.8651 3.75 28.8355 4.5161 30.1594 5.83984C31.4833 7.16375 32.2502 9.13407 32.2502 11.7148V24.2695C32.2502 26.8504 31.4834 28.8206 30.1594 30.1445C28.8355 31.4685 26.8653 32.2354 24.2844 32.2354H11.7297C9.14909 32.2353 7.17962 31.4683 5.85571 30.1445C4.53177 28.8206 3.76489 26.8504 3.76489 24.2695V11.7148C3.76492 9.13408 4.5318 7.16376 5.85571 5.83984C7.17962 4.51623 9.14929 3.75003 11.7297 3.75Z" fill="#E34656" stroke="#E34656" stroke-width="1.5"/>
<path d="M16.9495 10.245H19.0354C19.9848 10.2451 20.3639 10.5447 20.5461 10.7831C20.7667 11.0716 20.8339 11.4378 20.8879 11.8085L20.8889 11.8153L20.8899 11.8231L21.01 12.5428L21.1077 13.1288L21.7004 13.1678C22.8276 13.243 23.9716 13.3176 25.219 13.4364L25.2307 13.4374C25.3623 13.4478 25.4665 13.5627 25.4465 13.7167L25.4446 13.7343L25.4426 13.7509C25.4315 13.8806 25.3129 13.9949 25.1702 13.995H25.1086C23.5564 13.8463 22.1329 13.7407 20.7659 13.6805H20.7668C19.1388 13.6011 17.516 13.5683 15.8909 13.6122L15.1946 13.6356H15.1877C14.2736 13.6813 13.3463 13.758 12.4475 13.8329L12.4338 13.8339L10.8518 13.995H10.7854L10.7375 13.9901C10.6294 13.9687 10.5277 13.8754 10.51 13.7333C10.4957 13.5824 10.5952 13.4542 10.7542 13.4354L10.7551 13.4364L12.3899 13.2714L12.3889 13.2704C13.0218 13.2116 13.6213 13.185 14.2874 13.1385L14.8752 13.0975L14.9739 12.5155L15.094 11.8104L15.0959 11.8016C15.1577 11.4077 15.2299 11.0455 15.4495 10.7655C15.631 10.5341 16.0083 10.2451 16.9495 10.245Z" fill="#E34656" stroke="#E34656" stroke-width="1.5"/>
<path d="M13.2607 16.9651H22.7412C22.9245 16.9652 23.0878 17.0403 23.1865 17.1506C23.3139 17.293 23.3709 17.4683 23.3584 17.6252V17.6262L22.8926 23.5667V23.5725C22.8443 24.2563 22.7922 24.7452 22.5391 25.0999C22.3358 25.3846 21.8728 25.7405 20.5654 25.7405H15.4355C14.1285 25.7404 13.6662 25.3846 13.4629 25.0999C13.2097 24.7452 13.1577 24.2564 13.1094 23.5725L13.1084 23.5667L12.6436 17.6262V17.6252L12.6465 17.5051C12.6626 17.3858 12.7164 17.2636 12.8076 17.1584C12.9234 17.0399 13.0986 16.9651 13.2607 16.9651Z" fill="#E34656" stroke="#E34656" stroke-width="1.5"/>
</svg>
